# Blender 5.2.0 LTS
# www.blender.org
mtllib ARCH KATANA 2 Perfect.mtl
o archkatana_wrapsplit2
v -0.012519 -0.456792 0.024832
v 0.003775 -0.415212 0.036091
v 0.031085 -0.412822 -0.001437
v 0.006598 -0.455122 -0.001437
v -0.012519 -0.456792 -0.027706
v 0.003775 -0.415212 -0.038964
v -0.027364 0.445738 0.038029
v 0.023032 0.384028 -0.040903
v -0.027364 0.445738 -0.040903
v 0.023032 0.384028 0.038029
v 0.019530 -0.504182 -0.059229
v 0.006598 -0.455122 -0.001437
v 0.050118 -0.501501 -0.001437
v -0.042985 -0.640142 -0.001437
v 0.019530 -0.504182 0.056355
v -0.042985 -0.640142 -0.001437
v 0.082697 0.723348 0.059763
v 0.066615 0.413248 -0.001437
v 0.102503 0.747178 -0.001437
v 0.042163 0.432298 0.059763
v 0.082697 0.723348 -0.062636
v 0.042163 0.432298 -0.062636
v -0.034305 0.204798 -0.034240
v -0.022734 0.251538 -0.028258
v -0.010340 0.204798 -0.001437
v -0.022734 0.251538 0.025385
v -0.034305 0.204798 0.031367
v -0.043855 0.060398 -0.027680
v -0.024702 0.060818 -0.001437
v -0.022700 -0.083162 -0.001437
v -0.043855 0.060398 0.024806
v -0.026704 0.204798 -0.001437
v -0.029815 -0.240512 -0.027680
v -0.010698 -0.239262 -0.001437
v 0.001304 -0.395352 -0.001437
v -0.029815 -0.240512 0.024806
v -0.022700 -0.083162 -0.001437
v -0.029815 -0.240512 0.024806
v 0.023032 0.384028 0.038029
v -0.092159 0.260608 0.055309
v -0.092159 0.240038 0.038029
v 0.002704 0.379188 0.055309
v 0.023032 0.384028 -0.040903
v -0.092159 0.260608 -0.058182
v 0.002704 0.379188 -0.058182
v -0.092159 0.240038 -0.040903
v 0.023032 0.384028 0.038029
v -0.092159 0.239218 -0.001437
v 0.023032 0.384028 -0.040903
v -0.092159 0.240038 -0.040903
v -0.092159 0.240038 0.038029
v -0.003962 -0.395812 -0.035553
v 0.003775 -0.415212 -0.038964
v 0.031085 -0.412822 -0.001437
v 0.020865 -0.393642 -0.001437
v -0.003962 -0.395812 0.032679
v 0.003775 -0.415212 0.036091
v -0.092159 0.698328 -0.001437
v 0.102503 0.747178 -0.001437
v 0.082697 0.723348 -0.062636
v -0.092159 0.667348 -0.062636
v 0.082697 0.723348 0.059763
v -0.092159 0.667348 0.059763
v -0.092159 0.698328 -0.001437
v -0.267016 0.723348 -0.062636
v -0.286823 0.747178 -0.001437
v -0.092159 0.667348 -0.062636
v -0.267016 0.723348 0.059763
v -0.092159 0.667348 0.059763
v -0.156955 0.445738 0.038029
v -0.027364 0.445738 0.038029
v -0.027364 0.445738 -0.040903
v -0.156955 0.445738 -0.040903
v -0.145520 0.430008 0.055309
v -0.038799 0.430008 0.055309
v -0.027364 0.445738 0.038029
v -0.156955 0.445738 0.038029
v -0.156955 0.445738 -0.040903
v -0.027364 0.445738 -0.040903
v -0.038799 0.430008 -0.058182
v -0.145520 0.430008 -0.058182
v 0.019530 -0.504182 -0.059229
v 0.006598 -0.455122 -0.001437
v -0.012519 -0.456792 -0.027706
v 0.019530 -0.504182 0.056355
v -0.012519 -0.456792 0.024832
v -0.022734 0.251538 -0.028258
v -0.022734 0.251538 0.025385
v -0.092159 0.261288 0.026066
v -0.092159 0.251538 0.036495
v -0.092159 0.261288 -0.028939
v -0.092159 0.251538 -0.039368
v -0.161585 0.251538 -0.028258
v -0.161585 0.251538 0.025385
v -0.092159 0.261288 0.026066
v -0.092159 0.251538 0.036495
v -0.063903 -0.401052 -0.049684
v -0.017795 -0.397022 -0.027680
v -0.003962 -0.395812 -0.035553
v -0.063903 -0.401052 -0.038550
v 0.001304 -0.395352 -0.001437
v 0.020865 -0.393642 -0.001437
v -0.062159 -0.420982 0.051635
v -0.012519 -0.456792 0.024832
v 0.003775 -0.415212 0.036091
v -0.058673 -0.460832 0.035713
v -0.104827 -0.464862 0.024832
v -0.128094 -0.426751 0.036091
v -0.062159 -0.420982 0.051635
v -0.058673 -0.460832 0.035713
v -0.092159 0.667348 0.059763
v 0.044892 0.672438 0.090363
v 0.082697 0.723348 0.059763
v -0.092159 0.630388 0.090363
v -0.092159 0.667348 0.059763
v -0.267016 0.723348 0.059763
v -0.229212 0.672438 0.090363
v -0.092159 0.630388 0.090363
v -0.028990 0.491868 0.060253
v -0.092159 0.465628 0.060253
v -0.092159 0.410148 0.090363
v 0.013122 0.453878 0.090363
v -0.155329 0.491868 0.060253
v -0.092159 0.410148 0.090363
v -0.092159 0.465628 0.060253
v -0.197442 0.453878 0.090363
v -0.156955 0.445738 0.038029
v -0.187023 0.379188 0.055309
v -0.145520 0.430008 0.055309
v -0.207352 0.384028 0.038029
v 0.023032 0.384028 0.038029
v -0.027364 0.445738 0.038029
v 0.002704 0.379188 0.055309
v -0.038799 0.430008 0.055309
v -0.020972 0.331318 -0.001437
v 0.006024 0.251538 -0.001437
v -0.041822 0.308378 0.018011
v -0.022734 0.251538 0.025385
v -0.092159 0.261288 0.026066
v -0.190343 0.251538 -0.001437
v -0.163347 0.331318 -0.001437
v -0.142497 0.308378 0.018011
v -0.161585 0.251538 0.025385
v -0.092159 0.261288 0.026066
v -0.226483 0.432298 0.059763
v -0.229212 0.672438 0.090363
v -0.267016 0.723348 0.059763
v -0.197442 0.453878 0.090363
v -0.104827 -0.464862 0.024832
v -0.054315 -0.510641 0.080294
v -0.058673 -0.460832 0.035713
v -0.128162 -0.517102 0.056355
v -0.042985 -0.640142 -0.001437
v 0.042163 0.432298 0.059763
v 0.082697 0.723348 0.059763
v 0.044892 0.672438 0.090363
v 0.013122 0.453878 0.090363
v -0.092159 0.260608 0.055309
v 0.002704 0.379188 0.055309
v -0.033968 0.370458 0.037249
v -0.092159 0.297718 0.037249
v -0.058673 -0.460832 0.035713
v -0.054315 -0.510641 0.080294
v -0.012519 -0.456792 0.024832
v 0.019530 -0.504182 0.056355
v -0.042985 -0.640142 -0.001437
v -0.092159 0.260608 0.055309
v -0.150351 0.370458 0.037249
v -0.187023 0.379188 0.055309
v -0.092159 0.297718 0.037249
v -0.173979 0.204798 -0.001437
v -0.190343 0.251538 -0.001437
v -0.161585 0.251538 0.025385
v -0.010340 0.204798 -0.001437
v -0.150014 0.204798 0.031367
v -0.092159 0.251538 0.036495
v -0.092159 0.204798 0.044955
v 0.006024 0.251538 -0.001437
v -0.022734 0.251538 0.025385
v -0.034305 0.204798 0.031367
v -0.092159 0.251538 0.036495
v -0.092159 0.204798 0.044955
v 0.013122 0.453878 0.090363
v 0.044892 0.672438 0.090363
v -0.009928 0.623008 0.060253
v -0.028990 0.491868 0.060253
v -0.075967 -0.243542 0.035676
v -0.088031 -0.086022 0.035676
v -0.122119 -0.246562 0.024806
v -0.063903 -0.401052 0.035676
v -0.197442 0.453878 0.090363
v -0.174391 0.623008 0.060253
v -0.229212 0.672438 0.090363
v -0.155329 0.491868 0.060253
v -0.090095 0.059388 0.035677
v -0.092159 0.204798 0.035677
v -0.136335 0.058388 0.024806
v -0.088031 -0.086022 0.035676
v -0.043855 0.060398 0.024806
v -0.090095 0.059388 0.035677
v -0.088031 -0.086022 0.035676
v -0.092159 0.204798 0.035677
v -0.029815 -0.240512 0.024806
v -0.075967 -0.243542 0.035676
v -0.063903 -0.401052 0.035676
v -0.088031 -0.086022 0.035676
v -0.038799 0.430008 0.055309
v -0.033968 0.370458 0.037249
v 0.002704 0.379188 0.055309
v -0.059427 0.401628 0.037249
v -0.145520 0.430008 0.055309
v -0.187023 0.379188 0.055309
v -0.150351 0.370458 0.037249
v -0.124892 0.401628 0.037249
v -0.092159 0.374058 0.059763
v -0.197442 0.453878 0.090363
v -0.226483 0.432298 0.059763
v -0.092159 0.410148 0.090363
v -0.092159 0.374058 0.059763
v 0.013122 0.453878 0.090363
v -0.092159 0.410148 0.090363
v 0.042163 0.432298 0.059763
v -0.038799 0.430008 0.055309
v -0.145520 0.430008 0.055309
v -0.124892 0.401628 0.037249
v -0.059427 0.401628 0.037249
v -0.092159 0.630388 0.090363
v -0.229212 0.672438 0.090363
v -0.174391 0.623008 0.060253
v -0.092159 0.597778 0.060253
v -0.092159 0.630388 0.090363
v -0.009928 0.623008 0.060253
v 0.044892 0.672438 0.090363
v -0.092159 0.597778 0.060253
v -0.123843 -0.406302 0.032679
v -0.128094 -0.426751 0.036091
v -0.062159 -0.420982 0.051635
v -0.063903 -0.401052 0.046810
v -0.003962 -0.395812 0.032679
v 0.003775 -0.415212 0.036091
v -0.062159 -0.420982 0.051635
v -0.063903 -0.401052 0.046810
v -0.104827 -0.464862 -0.027706
v -0.128094 -0.426751 -0.038964
v -0.155404 -0.429142 -0.001437
v -0.123945 -0.466542 -0.001437
v -0.104827 -0.464862 0.024832
v -0.128094 -0.426751 0.036091
v -0.156955 0.445738 -0.040903
v -0.207352 0.384028 0.038029
v -0.156955 0.445738 0.038029
v -0.207352 0.384028 -0.040903
v -0.104827 -0.464862 -0.027706
v -0.158750 -0.519771 -0.001437
v -0.123945 -0.466542 -0.001437
v -0.104827 -0.464862 0.024832
v -0.128162 -0.517102 -0.059229
v -0.042985 -0.640142 -0.001437
v -0.128162 -0.517102 0.056355
v -0.042985 -0.640142 -0.001437
v -0.267016 0.723348 -0.062636
v -0.250935 0.413248 -0.001437
v -0.286823 0.747178 -0.001437
v -0.226483 0.432298 -0.062636
v -0.267016 0.723348 0.059763
v -0.226483 0.432298 0.059763
v -0.122119 -0.246562 0.024806
v -0.141235 -0.247812 -0.001437
v -0.129109 -0.406762 -0.001437
v -0.122119 -0.246562 -0.027680
v -0.153362 -0.088872 -0.001437
v -0.150014 0.204798 -0.034240
v -0.161585 0.251538 -0.028258
v -0.173979 0.204798 -0.001437
v -0.161585 0.251538 0.025385
v -0.150014 0.204798 0.031367
v -0.136335 0.058388 0.024806
v -0.155488 0.057968 -0.001437
v -0.153362 -0.088872 -0.001437
v -0.136335 0.058388 -0.027680
v -0.157615 0.204798 -0.001437
v -0.207352 0.384028 0.038029
v -0.092159 0.260608 0.055309
v -0.187023 0.379188 0.055309
v -0.092159 0.240038 0.038029
v -0.207352 0.384028 -0.040903
v -0.092159 0.260608 -0.058182
v -0.092159 0.240038 -0.040903
v -0.187023 0.379188 -0.058182
v -0.207352 0.384028 -0.040903
v -0.092159 0.239218 -0.001437
v -0.207352 0.384028 0.038029
v -0.092159 0.240038 0.038029
v -0.092159 0.240038 -0.040903
v -0.155404 -0.429142 -0.001437
v -0.123843 -0.406302 0.032679
v -0.148671 -0.408471 -0.001437
v -0.123843 -0.406302 -0.035553
v -0.128094 -0.426751 0.036091
v -0.128094 -0.426751 -0.038964
v -0.034305 0.204798 0.031367
v -0.026704 0.204798 -0.001437
v -0.010340 0.204798 -0.001437
v -0.034305 0.204798 -0.034240
v -0.045876 0.204798 0.024806
v -0.092159 0.204798 0.044955
v -0.092159 0.204798 0.035677
v -0.045876 0.204798 -0.027680
v -0.092159 0.204798 -0.047828
v -0.092159 0.204798 -0.038550
v -0.138443 0.204798 -0.027680
v -0.150014 0.204798 -0.034240
v -0.157615 0.204798 -0.001437
v -0.173979 0.204798 -0.001437
v -0.150014 0.204798 0.031367
v -0.138443 0.204798 0.024806
v -0.092159 0.204798 0.044955
v -0.092159 0.204798 0.035677
v -0.226483 0.432298 -0.062636
v -0.092159 0.374058 -0.062636
v -0.092159 0.343068 -0.001437
v -0.250935 0.413248 -0.001437
v -0.226483 0.432298 0.059763
v -0.092159 0.374058 0.059763
v 0.042163 0.432298 -0.062636
v -0.092159 0.343068 -0.001437
v -0.092159 0.374058 -0.062636
v 0.066615 0.413248 -0.001437
v 0.042163 0.432298 0.059763
v -0.092159 0.374058 0.059763
v -0.012519 -0.456792 -0.027706
v 0.003775 -0.415212 -0.038964
v -0.062159 -0.420982 -0.054509
v -0.058673 -0.460832 -0.038587
v -0.104827 -0.464862 -0.027706
v -0.128094 -0.426751 -0.038964
v -0.092159 0.667348 -0.062636
v 0.082697 0.723348 -0.062636
v 0.044892 0.672438 -0.093236
v -0.092159 0.630388 -0.093236
v -0.092159 0.667348 -0.062636
v -0.229212 0.672438 -0.093236
v -0.267016 0.723348 -0.062636
v -0.092159 0.630388 -0.093236
v -0.028990 0.491868 -0.063126
v -0.092159 0.410148 -0.093236
v -0.092159 0.465628 -0.063126
v 0.013122 0.453878 -0.093236
v -0.155329 0.491868 -0.063126
v -0.092159 0.465628 -0.063126
v -0.092159 0.410148 -0.093236
v -0.197442 0.453878 -0.093236
v -0.207352 0.384028 -0.040903
v -0.156955 0.445738 -0.040903
v -0.187023 0.379188 -0.058182
v -0.145520 0.430008 -0.058182
v -0.027364 0.445738 -0.040903
v 0.002704 0.379188 -0.058182
v -0.038799 0.430008 -0.058182
v 0.023032 0.384028 -0.040903
v -0.020972 0.331318 -0.001437
v 0.006024 0.251538 -0.001437
v -0.041822 0.308378 -0.020884
v -0.022734 0.251538 -0.028258
v -0.092159 0.261288 -0.028939
v -0.041822 0.308378 -0.020884
v -0.161585 0.251538 -0.028258
v -0.142497 0.308378 -0.020884
v -0.190343 0.251538 -0.001437
v -0.163347 0.331318 -0.001437
v -0.226483 0.432298 -0.062636
v -0.267016 0.723348 -0.062636
v -0.229212 0.672438 -0.093236
v -0.197442 0.453878 -0.093236
v 0.042163 0.432298 -0.062636
v 0.044892 0.672438 -0.093236
v 0.082697 0.723348 -0.062636
v 0.013122 0.453878 -0.093236
v -0.128162 -0.517102 -0.059229
v -0.054315 -0.510641 -0.083167
v -0.042985 -0.640142 -0.001437
v -0.104827 -0.464862 -0.027706
v -0.058673 -0.460832 -0.038587
v -0.012519 -0.456792 -0.027706
v 0.019530 -0.504182 -0.059229
v -0.042985 -0.640142 -0.001437
v -0.092159 0.260608 -0.058182
v -0.033968 0.370458 -0.040123
v 0.002704 0.379188 -0.058182
v -0.092159 0.297718 -0.040123
v -0.092159 0.260608 -0.058182
v -0.187023 0.379188 -0.058182
v -0.150351 0.370458 -0.040123
v -0.092159 0.297718 -0.040123
v -0.092159 0.251538 -0.039368
v -0.150014 0.204798 -0.034240
v -0.161585 0.251538 -0.028258
v -0.092159 0.204798 -0.047828
v -0.173979 0.204798 -0.001437
v -0.034305 0.204798 -0.034240
v -0.190343 0.251538 -0.001437
v -0.022734 0.251538 -0.028258
v -0.010340 0.204798 -0.001437
v 0.006024 0.251538 -0.001437
v 0.013122 0.453878 -0.093236
v -0.009928 0.623008 -0.063126
v 0.044892 0.672438 -0.093236
v -0.028990 0.491868 -0.063126
v -0.197442 0.453878 -0.093236
v -0.229212 0.672438 -0.093236
v -0.174391 0.623008 -0.063126
v -0.155329 0.491868 -0.063126
v -0.136335 0.058388 -0.027680
v -0.090095 0.059388 -0.038550
v -0.088031 -0.086022 -0.038550
v -0.043855 0.060398 -0.027680
v -0.092159 0.204798 -0.038550
v -0.122119 -0.246562 -0.027680
v -0.075967 -0.243542 -0.038550
v -0.063903 -0.401052 -0.038550
v -0.029815 -0.240512 -0.027680
v -0.088031 -0.086022 -0.038550
v -0.038799 0.430008 -0.058182
v 0.002704 0.379188 -0.058182
v -0.033968 0.370458 -0.040123
v -0.059427 0.401628 -0.040123
v -0.145520 0.430008 -0.058182
v -0.150351 0.370458 -0.040123
v -0.187023 0.379188 -0.058182
v -0.124892 0.401628 -0.040123
v -0.197442 0.453878 -0.093236
v -0.092159 0.410148 -0.093236
v -0.092159 0.374058 -0.062636
v -0.226483 0.432298 -0.062636
v 0.013122 0.453878 -0.093236
v -0.092159 0.374058 -0.062636
v -0.092159 0.410148 -0.093236
v 0.042163 0.432298 -0.062636
v -0.145520 0.430008 -0.058182
v -0.038799 0.430008 -0.058182
v -0.059427 0.401628 -0.040123
v -0.124892 0.401628 -0.040123
v -0.092159 0.630388 -0.093236
v -0.174391 0.623008 -0.063126
v -0.229212 0.672438 -0.093236
v -0.092159 0.597778 -0.063126
v -0.092159 0.630388 -0.093236
v 0.044892 0.672438 -0.093236
v -0.009928 0.623008 -0.063126
v -0.092159 0.597778 -0.063126
v -0.123843 -0.406302 -0.035553
v -0.128094 -0.426751 -0.038964
v -0.062159 -0.420982 -0.054509
v -0.063903 -0.401052 -0.049684
v -0.003962 -0.395812 -0.035553
v 0.003775 -0.415212 -0.038964
vn 0.4894 -0.4026 0.7735
vn 0.8644 -0.5029 -0.0000
vn 0.5591 -0.4173 0.7164
vn 0.8643 -0.5029 -0.0000
vn 0.4895 -0.4027 -0.7735
vn 0.5591 -0.4173 -0.7164
vn 0.7745 0.6325 -0.0000
vn 0.7747 0.6323 -0.0000
vn 0.8717 0.0549 -0.4869
vn 0.6992 0.7149 -0.0000
vn 0.9955 0.0948 -0.0000
vn 0.8284 -0.5601 -0.0000
vn 0.8717 0.0549 0.4869
vn 0.8284 -0.5602 -0.0000
vn 0.9364 -0.1180 0.3305
vn 0.9930 -0.1182 -0.0000
vn 0.9364 -0.1180 -0.3305
vn 0.5412 -0.0549 -0.8391
vn 0.9715 -0.2369 -0.0000
vn 0.4472 -0.0000 -0.8944
vn 0.5412 -0.0549 0.8391
vn 0.4472 -0.0000 0.8944
vn 0.8084 0.0079 -0.5886
vn 0.9999 0.0157 -0.0000
vn 0.9999 0.0158 -0.0000
vn 0.8084 0.0079 0.5886
vn 0.9999 0.0159 -0.0000
vn 0.8041 0.0630 -0.5912
vn 0.9969 0.0785 -0.0000
vn 0.9969 0.0786 -0.0000
vn 0.8041 0.0631 0.5912
vn 0.6271 -0.5017 0.5958
vn 0.6272 -0.5018 0.5957
vn 0.6271 -0.5017 -0.5958
vn 0.6272 -0.5017 -0.5958
vn 0.7816 -0.6237 -0.0000
vn 0.7814 -0.6240 -0.0000
vn 0.4717 0.3302 -0.8176
vn 0.8815 0.4722 -0.0000
vn 0.5203 0.3469 -0.7803
vn 0.4717 0.3302 0.8176
vn 0.5203 0.3469 0.7803
vn -0.2758 0.9612 -0.0000
vn -0.2519 0.8974 -0.3621
vn -0.2519 0.8974 0.3621
vn -0.2519 0.8974 0.3622
vn 0.2758 0.9612 -0.0000
vn 0.2519 0.8974 -0.3621
vn 0.2519 0.8975 0.3621
vn 0.2519 0.8974 0.3622
vn -0.0000 1.0000 -0.0000
vn -0.0000 0.7417 0.6707
vn -0.0000 0.7417 0.6708
vn -0.0000 0.7417 -0.6707
vn 0.6373 0.6531 -0.4092
vn 0.6373 0.6530 0.4092
vn 0.8718 0.0549 0.4867
vn 0.3794 0.2688 0.8853
vn -0.0000 0.2685 0.9633
vn -0.0000 0.2685 -0.9633
vn 0.3794 0.2688 -0.8853
vn -0.0000 0.2684 -0.9633
vn -0.3794 0.2688 -0.8853
vn -0.3794 0.2688 0.8853
vn -0.0864 0.9963 -0.0000
vn -0.0863 0.9963 -0.0000
vn 0.0315 -0.3698 0.9286
vn 0.4894 -0.4026 0.7736
vn 0.5590 -0.4173 0.7165
vn -0.4107 -0.4818 0.7741
vn 0.0313 -0.3699 0.9285
vn -0.4808 -0.5044 0.7173
vn 0.0313 -0.3698 0.9286
vn -0.1969 0.6144 0.7640
vn -0.1969 0.6144 0.7641
vn 0.1969 0.6144 0.7640
vn -0.1964 0.4635 0.8641
vn -0.1964 0.4634 0.8641
vn 0.1964 0.4635 0.8641
vn -0.5288 0.4262 0.7340
vn 0.5288 0.4262 0.7340
vn 0.4190 0.2609 0.8697
vn 0.9263 0.3768 -0.0001
vn 0.9263 0.3768 -0.0000
vn -0.0000 0.2683 0.9633
vn -0.9264 0.3766 -0.0000
vn -0.9263 0.3767 -0.0000
vn -0.4190 0.2609 0.8697
vn -0.3795 0.2688 0.8853
vn -0.6959 -0.0949 0.7118
vn -0.6960 -0.0949 0.7118
vn -0.2679 0.6066 0.7485
vn -0.0079 0.0629 0.9980
vn -0.0554 0.6400 0.7664
vn -0.2990 0.0629 0.9522
vn 0.0471 -0.5266 0.8488
vn 0.6959 -0.0949 0.7118
vn 0.6960 -0.0949 0.7118
vn -0.4804 0.3859 0.7876
vn -0.0553 0.6400 0.7664
vn -0.0078 0.0629 0.9980
vn 0.1574 0.6452 0.7476
vn 0.2832 0.1180 0.9518
vn 0.0473 -0.5266 0.8488
vn 0.4804 0.3859 0.7876
vn -0.9715 -0.2371 -0.0001
vn -0.9715 -0.2369 -0.0001
vn -0.5412 -0.0549 0.8391
vn -0.5411 -0.0549 0.8391
vn -0.4472 -0.0000 0.8944
vn -0.0002 0.1260 0.9920
vn -0.0000 0.1260 0.9920
vn 0.9715 -0.2370 -0.0001
vn 0.9715 -0.2369 -0.0001
vn 0.5411 -0.0549 0.8391
vn -0.5347 0.0786 0.8414
vn -0.0000 -0.0000 1.0000
vn -0.2277 -0.0158 0.9736
vn 0.5347 0.0786 0.8414
vn -0.2277 -0.0000 0.9737
vn 0.2277 -0.0000 0.9737
vn 0.2277 0.0157 0.9736
vn -0.3625 -0.2994 0.8826
vn -0.3625 -0.2995 0.8826
vn 0.3625 -0.2994 0.8826
vn 0.3625 -0.2995 0.8826
vn -0.2686 -0.6320 0.7269
vn -0.2686 -0.6321 0.7269
vn 0.2686 -0.6320 0.7269
vn 0.2686 -0.6321 0.7269
vn -0.0000 -0.5365 0.8439
vn -0.0000 -0.5369 0.8437
vn -0.0000 -0.5363 0.8440
vn -0.2055 -0.6638 0.7191
vn 0.2055 -0.6638 0.7191
vn -0.0237 0.2369 0.9712
vn -0.5195 0.2441 0.8188
vn -0.5743 0.2518 0.7790
vn 0.4716 0.3302 0.8177
vn -0.0237 0.2369 0.9713
vn 0.5202 0.3468 0.7805
vn -0.0236 0.2369 0.9712
vn -0.4808 -0.5044 -0.7172
vn -0.4108 -0.4818 -0.7740
vn -0.7637 -0.6456 -0.0000
vn -0.4108 -0.4818 0.7740
vn -0.4808 -0.5045 0.7172
vn -0.7745 0.6325 -0.0000
vn -0.7425 0.5292 -0.4107
vn -0.9969 -0.0785 -0.0000
vn -0.8121 0.5835 -0.0000
vn -0.7425 0.5292 0.4107
vn -0.8666 -0.1024 -0.4884
vn -0.7226 -0.6912 -0.0000
vn -0.8666 -0.1024 0.4884
vn -0.9364 -0.1180 -0.3305
vn -0.9930 -0.1182 -0.0000
vn -0.9364 -0.1180 0.3305
vn -0.8040 -0.0631 0.5912
vn -0.8041 -0.0631 -0.5912
vn -0.9715 -0.2369 -0.0000
vn -0.5412 -0.0549 -0.8391
vn -0.4472 -0.0000 -0.8944
vn -0.8084 -0.0079 0.5886
vn -0.9999 -0.0157 -0.0000
vn -0.9999 -0.0158 -0.0000
vn -0.8084 -0.0079 -0.5886
vn -0.6271 -0.5017 0.5958
vn -0.6271 -0.5017 0.5959
vn -0.6270 -0.5016 0.5960
vn -0.6270 -0.5016 -0.5960
vn -0.6272 -0.5018 -0.5957
vn -0.6272 -0.5017 -0.5957
vn -0.6271 -0.5017 -0.5959
vn -0.7816 -0.6237 -0.0000
vn -0.9518 0.3068 -0.0000
vn -0.5197 0.2441 0.8187
vn -0.5196 0.2441 -0.8188
vn -0.5744 0.2518 0.7789
vn -0.5744 0.2518 -0.7789
vn -0.0000 -1.0000 -0.0000
vn -0.3618 -0.8338 -0.4169
vn -0.4025 -0.9154 -0.0000
vn -0.4024 -0.9155 -0.0000
vn -0.3619 -0.8338 0.4169
vn -0.3618 -0.8338 0.4169
vn 0.3618 -0.8338 -0.4169
vn 0.4025 -0.9154 -0.0000
vn 0.3619 -0.8338 0.4169
vn 0.3618 -0.8338 0.4169
vn 0.5590 -0.4173 -0.7165
vn 0.4894 -0.4025 -0.7737
vn 0.0315 -0.3698 -0.9286
vn -0.4107 -0.4818 -0.7741
vn -0.4808 -0.5043 -0.7173
vn -0.1969 0.6144 -0.7640
vn -0.1969 0.6144 -0.7641
vn 0.1969 0.6144 -0.7640
vn 0.1969 0.6144 -0.7641
vn -0.1964 0.4634 -0.8641
vn -0.1964 0.4635 -0.8641
vn 0.1964 0.4635 -0.8641
vn -0.5288 0.4262 -0.7340
vn 0.5288 0.4262 -0.7340
vn 0.9264 0.3766 -0.0000
vn 0.9263 0.3767 -0.0000
vn 0.4190 0.2609 -0.8697
vn 0.3795 0.2688 -0.8853
vn -0.0000 0.2683 -0.9633
vn -0.3795 0.2688 -0.8853
vn -0.4190 0.2609 -0.8697
vn -0.9263 0.3768 -0.0000
vn -0.6959 -0.0949 -0.7118
vn -0.6960 -0.0949 -0.7118
vn 0.6959 -0.0949 -0.7118
vn 0.6960 -0.0949 -0.7118
vn -0.2990 0.0629 -0.9522
vn -0.0079 0.0629 -0.9980
vn 0.0471 -0.5266 -0.8488
vn -0.2679 0.6066 -0.7485
vn -0.0553 0.6400 -0.7664
vn 0.1574 0.6453 -0.7475
vn 0.2832 0.1180 -0.9518
vn 0.0472 -0.5266 -0.8488
vn -0.4804 0.3859 -0.7876
vn 0.4804 0.3859 -0.7876
vn -0.0000 0.1260 -0.9920
vn -0.5411 -0.0549 -0.8391
vn -0.9715 -0.2370 0.0002
vn -0.9715 -0.2369 0.0001
vn 0.5411 -0.0549 -0.8391
vn 0.9715 -0.2370 -0.0000
vn 0.9715 -0.2369 0.0001
vn -0.5347 0.0786 -0.8414
vn 0.5347 0.0786 -0.8414
vn -0.2277 -0.0000 -0.9737
vn -0.0000 -0.0000 -1.0000
vn 0.0002 -0.0000 -1.0000
vn 0.2277 -0.0000 -0.9737
vn -0.0001 -0.0000 -1.0000
vn -0.2277 -0.0159 -0.9736
vn 0.2277 0.0157 -0.9736
vn 0.0001 -0.0000 -1.0000
vn -0.3625 -0.2994 -0.8826
vn 0.3625 -0.2994 -0.8826
vn -0.2686 -0.6321 -0.7269
vn -0.2686 -0.6320 -0.7269
vn 0.2686 -0.6321 -0.7269
vn -0.0000 -0.5365 -0.8439
vn -0.0000 -0.5364 -0.8440
vn -0.0000 -0.5369 -0.8437
vn -0.2055 -0.6638 -0.7191
vn 0.2055 -0.6638 -0.7191
vn 0.2054 -0.6638 -0.7191
vn -0.5196 0.2440 -0.8188
vn -0.0237 0.2369 -0.9712
vn -0.5743 0.2517 -0.7790
vn -0.0237 0.2369 -0.9713
vn 0.4716 0.3302 -0.8177
vn 0.5202 0.3468 -0.7805
vt -0.564502 -0.484707
vt -0.538233 -0.440740
vt -0.575760 -0.443129
vt -0.538233 -0.483035
vt -0.511963 -0.484707
vt -0.500705 -0.443129
vt -0.577699 0.417822
vt -0.498767 0.356112
vt -0.498767 0.417822
vt -0.577699 0.356112
vt -0.480440 -0.532094
vt -0.538233 -0.529418
vt -0.538233 -0.668060
vt -0.596025 -0.532094
vt -0.599433 0.695429
vt -0.538233 0.385333
vt -0.538233 0.719261
vt -0.599433 0.404377
vt -0.477033 0.695429
vt -0.477033 0.404377
vt -0.511411 0.223617
vt -0.538233 0.176886
vt -0.505429 0.176886
vt -0.565055 0.223617
vt -0.571037 0.176886
vt -0.511990 0.032484
vt -0.538233 0.032901
vt -0.538233 -0.111083
vt -0.564476 0.032484
vt -0.511990 -0.268429
vt -0.538233 -0.267176
vt -0.538233 -0.423269
vt -0.564476 -0.268429
vt -0.594979 0.232692
vt -0.577699 0.212122
vt -0.594979 0.351272
vt -0.481487 0.232692
vt -0.481487 0.351272
vt -0.498767 0.212122
vt -0.538233 0.211299
vt -0.504117 -0.423730
vt -0.538233 -0.421557
vt -0.572349 -0.423730
vt -0.538233 0.025600
vt -0.732896 0.025600
vt -0.713089 -0.035599
vt -0.538233 -0.035599
vt -0.713089 0.086800
vt -0.538233 0.086800
vt -0.363376 -0.035599
vt -0.343570 0.025600
vt -0.363376 0.086800
vt -0.473437 0.065066
vt -0.603028 0.065066
vt -0.603028 -0.013866
vt -0.473437 -0.013866
vt -0.484872 0.082346
vt -0.591594 0.082346
vt -0.591594 -0.031146
vt -0.484872 -0.031146
vt -0.636991 0.025600
vt -0.649923 -0.032192
vt -0.617873 -0.000669
vt -0.617873 0.051869
vt -0.649923 0.083392
vt -0.607659 0.052422
vt -0.538233 0.053103
vt -0.538233 0.063532
vt -0.538233 -0.001902
vt -0.607659 -0.001222
vt -0.538233 -0.012331
vt -0.468807 -0.001222
vt -0.468807 0.052422
vt -0.566490 -0.022647
vt -0.612598 -0.000643
vt -0.626430 -0.008516
vt -0.566490 -0.011513
vt -0.631696 0.025600
vt -0.651258 0.025600
vt -0.508233 -0.448898
vt -0.458593 -0.484707
vt -0.442299 -0.443129
vt -0.504747 -0.488745
vt -0.550901 -0.492783
vt -0.574167 -0.454666
vt -0.538233 0.639429
vt -0.401181 0.644521
vt -0.363376 0.695429
vt -0.538233 0.602469
vt -0.713089 0.695429
vt -0.675285 0.644521
vt -0.475064 0.463953
vt -0.538233 0.437715
vt -0.538233 0.382229
vt -0.432951 0.425960
vt -0.601402 0.463953
vt -0.643515 0.425960
vt -0.603028 0.417822
vt -0.633097 0.351272
vt -0.591594 0.402092
vt -0.653425 0.356112
vt -0.423041 0.356112
vt -0.473437 0.417822
vt -0.443369 0.351272
vt -0.484872 0.402092
vt -0.487896 0.280459
vt -0.440050 0.223617
vt -0.467045 0.303397
vt -0.468807 0.223617
vt -0.538233 0.233375
vt -0.609421 0.303397
vt -0.636416 0.223617
vt -0.588570 0.280459
vt -0.607659 0.223617
vt -0.672556 0.404377
vt -0.500389 -0.538555
vt -0.574235 -0.545016
vt -0.489059 -0.668060
vt -0.403910 0.404377
vt -0.538233 0.232692
vt -0.480041 0.342540
vt -0.538233 0.269800
vt -0.426543 -0.532094
vt -0.596425 0.342540
vt -0.620052 0.176886
vt -0.596088 0.176886
vt -0.538233 0.223617
vt -0.456414 0.176886
vt -0.480378 0.176886
vt -0.456002 0.595090
vt -0.522040 -0.271455
vt -0.534104 -0.113936
vt -0.568192 -0.274480
vt -0.509976 -0.428974
vt -0.620464 0.595090
vt -0.536169 0.031475
vt -0.582409 0.030467
vt -0.489929 0.032484
vt -0.475888 -0.268429
vt -0.505500 0.373715
vt -0.570966 0.373715
vt -0.538233 0.346140
vt -0.538233 0.569859
vt -0.569916 -0.434218
vt -0.450036 -0.423730
vt -0.575760 -0.454666
vt -0.564502 -0.492783
vt -0.538233 -0.457055
vt -0.538233 -0.494456
vt -0.511964 -0.492783
vt -0.500706 -0.454666
vt -0.538233 -0.547692
vt -0.596025 -0.545016
vt -0.480441 -0.545016
vt -0.511990 -0.274480
vt -0.538233 -0.275733
vt -0.538233 -0.434678
vt -0.564476 -0.274480
vt -0.538233 -0.116788
vt -0.511990 0.030467
vt -0.538233 0.030049
vt -0.564476 0.030467
vt -0.504117 -0.434218
vt -0.538233 -0.436390
vt -0.572349 -0.434218
vt -0.480378 0.058404
vt -0.472777 0.025600
vt -0.456414 0.025600
vt -0.480378 -0.007203
vt -0.491949 0.051843
vt -0.538233 0.071992
vt -0.538233 0.062713
vt -0.491949 -0.000643
vt -0.538233 -0.020791
vt -0.538233 -0.011513
vt -0.584517 -0.000643
vt -0.596088 -0.007203
vt -0.603688 0.025600
vt -0.620052 0.025600
vt -0.596088 0.058404
vt -0.584517 0.051843
vt -0.672556 -0.035599
vt -0.697008 0.025600
vt -0.672556 0.086800
vt -0.403910 -0.035599
vt -0.379458 0.025600
vt -0.403910 0.086800
vt -0.634167 -0.443129
vt -0.617873 -0.484707
vt -0.568233 -0.448898
vt -0.571719 -0.488745
vt -0.525565 -0.492783
vt -0.502299 -0.454666
vt -0.675285 0.644522
vt -0.401181 0.644522
vt -0.502231 -0.545016
vt -0.576077 -0.538555
vt -0.587407 -0.668060
vt -0.649923 -0.532094
vt -0.494057 0.030467
vt -0.540297 0.031475
vt -0.542361 -0.113936
vt -0.586537 0.032484
vt -0.508274 -0.274480
vt -0.554426 -0.271455
vt -0.566490 -0.428974
vt -0.600577 -0.268429
vt -0.506550 -0.434218
vt -0.626430 -0.423730
s 1
usemtl Meshpart1Mtl
f 1/1/1 3/2/2 2/3/3
f 3/2/2 1/1/1 4/4/4
f 5/5/5 3/2/2 4/4/4
f 3/2/2 5/5/5 6/6/6
f 7/7/7 8/8/7 9/9/8
f 8/8/7 7/7/7 10/10/7
f 11/11/9 12/4/10 13/12/11
f 11/11/9 13/12/11 14/13/12
f 12/4/10 15/14/13 13/12/11
f 13/12/11 15/14/13 16/13/14
f 17/15/15 18/16/16 19/17/16
f 18/16/16 17/15/15 20/18/15
f 18/16/16 21/19/17 19/17/16
f 21/19/17 18/16/16 22/20/17
f 24/21/18 25/22/19 23/23/20
f 25/22/19 26/24/21 27/25/22
f 28/26/23 29/27/24 30/28/25
f 29/27/24 31/29/26 30/28/25
f 32/22/27 29/27/24 28/26/23
f 29/27/24 32/22/27 31/29/26
f 33/30/28 34/31/29 35/32/30
f 34/31/29 36/33/31 35/32/30
f 37/28/29 34/31/29 33/30/28
f 34/31/29 37/28/29 38/33/31
f 39/10/32 40/34/33 41/35/32
f 40/34/33 39/10/32 42/36/32
f 43/8/34 44/37/34 45/38/35
f 43/8/34 46/39/34 44/37/34
f 47/10/36 48/40/37 49/8/36
f 49/8/36 48/40/37 50/39/36
f 48/40/37 47/10/36 51/35/36
f 52/41/38 54/2/39 53/6/40
f 52/41/38 55/42/39 54/2/39
f 56/43/41 54/2/39 55/42/39
f 54/2/39 56/43/41 57/3/42
f 58/44/43 59/45/43 60/46/44
f 58/44/43 60/46/44 61/47/44
f 58/44/43 62/48/45 59/45/43
f 62/48/45 58/44/43 63/49/46
f 64/44/47 65/50/48 66/51/47
f 65/50/48 64/44/47 67/47/48
f 68/52/49 64/44/47 66/51/47
f 68/52/49 69/49/50 64/44/47
f 70/53/51 71/54/51 72/55/51
f 70/53/51 72/55/51 73/56/51
f 74/57/52 75/58/53 76/54/53
f 74/57/52 76/54/53 77/53/52
f 78/56/54 79/55/54 80/59/54
f 78/56/54 80/59/54 81/60/54
f 83/61/10 82/62/9 84/63/55
f 86/64/56 85/65/57 83/61/10
f 88/66/58 89/67/59 90/68/59
f 91/69/60 87/70/61 92/71/62
f 93/72/63 91/69/60 92/71/62
f 95/67/59 94/73/64 96/68/59
f 97/74/65 98/75/65 99/76/65
f 98/75/65 97/74/65 100/77/66
f 101/78/65 99/76/65 98/75/65
f 99/76/65 101/78/65 102/79/65
f 103/80/67 104/81/68 105/82/69
f 104/81/68 103/80/67 106/83/67
f 107/84/70 109/80/71 108/85/72
f 109/80/71 107/84/70 110/83/73
f 111/86/74 112/87/74 113/88/75
f 112/87/74 111/86/74 114/89/74
f 115/86/76 116/90/76 117/91/76
f 115/86/76 117/91/76 118/89/76
f 119/92/77 120/93/77 121/94/77
f 121/94/77 122/95/78 119/92/77
f 123/96/79 124/94/79 125/93/79
f 124/94/79 123/96/79 126/97/79
f 127/98/80 128/99/80 129/100/80
f 128/99/80 127/98/80 130/101/80
f 131/102/81 132/103/81 133/104/81
f 133/104/81 132/103/81 134/105/81
f 137/106/82 136/107/83 135/108/84
f 136/107/83 137/106/82 138/109/58
f 139/110/85 138/109/58 137/106/82
f 141/111/86 140/112/87 142/113/88
f 142/113/88 140/112/87 143/114/89
f 144/110/85 142/113/88 143/114/89
f 145/115/90 146/91/91 147/90/91
f 146/91/91 145/115/90 148/97/91
f 149/84/92 150/116/93 151/83/94
f 150/116/93 149/84/92 152/117/95
f 150/116/93 152/117/95 153/118/96
f 154/119/97 155/88/98 156/87/98
f 154/119/97 156/87/98 157/95/98
f 158/120/99 159/104/99 160/121/99
f 158/120/99 160/121/99 161/122/99
f 162/83/100 163/116/101 164/81/102
f 164/81/102 163/116/101 165/123/103
f 165/123/103 163/116/101 166/118/104
f 167/120/105 168/124/105 169/99/105
f 168/124/105 167/120/105 170/122/105
f 172/112/106 171/125/107 173/114/108
f 173/114/109 175/126/110 176/127/111
f 176/127/111 175/126/110 177/22/112
f 179/109/21 174/128/113 178/107/114
f 181/127/112 180/129/22 179/109/115
f 180/129/22 181/127/112 182/22/112
f 183/95/116 184/87/116 185/130/116
f 183/95/116 185/130/116 186/92/116
f 187/131/117 188/132/117 189/133/118
f 187/131/117 189/133/118 190/134/117
f 191/97/119 192/135/119 193/91/119
f 192/135/119 191/97/119 194/96/119
f 195/136/117 196/22/117 197/137/120
f 195/136/117 197/137/120 198/132/117
f 199/138/121 200/136/117 201/132/117
f 202/22/117 200/136/117 199/138/121
f 203/139/122 204/131/117 205/134/117
f 206/132/117 204/131/117 203/139/122
f 207/105/123 208/121/123 209/104/124
f 208/121/123 207/105/123 210/140/123
f 211/100/125 212/99/126 213/124/125
f 211/100/125 213/124/125 214/141/125
f 215/142/127 216/97/128 217/115/128
f 216/97/128 215/142/127 218/94/128
f 219/142/129 220/95/130 221/94/130
f 219/142/129 222/119/130 220/95/130
f 223/105/131 224/100/132 225/141/133
f 223/105/131 225/141/133 226/140/133
f 227/89/134 228/91/134 229/135/134
f 227/89/134 229/135/134 230/143/134
f 231/89/135 232/130/135 233/87/135
f 232/130/135 231/89/135 234/143/135
f 237/80/136 235/144/137 236/85/138
f 235/144/137 237/80/136 238/134/136
f 239/145/139 241/80/140 240/82/141
f 241/80/140 239/145/139 242/134/142
f 244/146/143 243/147/144 245/148/145
f 245/148/145 243/147/144 246/149/145
f 247/150/146 245/148/145 246/149/145
f 245/148/145 247/150/146 248/151/147
f 249/7/148 250/8/148 251/9/148
f 250/8/148 249/7/148 252/10/148
f 253/147/149 254/152/150 255/149/151
f 255/149/151 254/152/150 256/150/152
f 254/152/150 253/147/149 257/153/153
f 254/152/150 257/153/153 258/13/154
f 256/150/152 254/152/150 259/154/155
f 259/154/155 254/152/150 260/13/154
f 261/15/156 262/16/157 263/17/157
f 262/16/157 261/15/156 264/18/156
f 262/16/157 265/19/158 263/17/157
f 265/19/158 262/16/157 266/20/158
f 267/155/159 268/156/150 269/157/150
f 268/156/150 270/158/160 269/157/150
f 271/159/150 268/156/150 267/155/159
f 268/156/150 271/159/150 270/158/160
f 274/22/161 273/24/162 272/25/163
f 275/21/108 274/22/107 276/23/110
f 277/160/164 278/161/165 279/159/166
f 278/161/165 280/162/167 279/159/166
f 281/22/165 278/161/165 277/160/164
f 278/161/165 281/22/165 280/162/167
f 282/8/168 283/37/168 284/38/169
f 282/8/168 285/39/170 283/37/168
f 286/10/171 287/34/172 288/35/173
f 287/34/172 286/10/171 289/36/174
f 290/10/175 291/40/175 292/8/175
f 292/8/175 291/40/175 293/39/175
f 291/40/175 290/10/175 294/35/175
f 295/148/176 296/163/177 297/164/176
f 298/165/178 295/148/176 297/164/176
f 296/163/177 295/148/176 299/151/179
f 295/148/176 298/165/178 300/146/180
f 301/166/181 302/167/181 303/168/181
f 304/169/181 303/168/181 302/167/181
f 302/167/181 301/166/181 305/170/181
f 306/171/181 305/170/181 301/166/181
f 305/170/181 306/171/181 307/172/181
f 302/167/181 308/173/181 304/169/181
f 308/173/181 309/174/181 304/169/181
f 309/174/181 308/173/181 310/175/181
f 311/176/181 309/174/181 310/175/181
f 309/174/181 311/176/181 312/177/181
f 313/178/181 312/177/181 311/176/181
f 312/177/181 313/178/181 314/179/181
f 315/180/181 314/179/181 313/178/181
f 315/180/181 313/178/181 316/181/181
f 317/171/181 315/180/181 316/181/181
f 316/181/181 318/172/181 317/171/181
f 319/182/182 320/47/182 321/44/183
f 321/44/183 322/183/184 319/182/182
f 321/44/183 323/184/185 322/183/184
f 323/184/185 321/44/183 324/49/186
f 325/185/187 326/44/188 327/47/187
f 326/44/188 325/185/187 328/186/188
f 326/44/188 328/186/188 329/187/189
f 326/44/188 329/187/189 330/49/190
f 332/188/191 331/189/192 333/190/193
f 333/190/193 331/189/192 334/191/193
f 335/192/194 333/190/193 334/191/193
f 333/190/193 335/192/194 336/193/195
f 337/86/196 338/90/197 339/194/196
f 337/86/196 339/194/196 340/89/196
f 341/86/198 342/195/198 343/88/199
f 342/195/198 341/86/198 344/89/198
f 345/96/200 346/94/201 347/93/200
f 346/94/201 345/96/200 348/97/201
f 349/92/202 350/93/202 351/94/202
f 351/94/202 352/95/202 349/92/202
f 353/102/203 354/103/203 355/104/203
f 355/104/203 354/103/203 356/105/203
f 357/98/204 358/99/204 359/100/204
f 358/99/204 357/98/204 360/101/204
f 361/111/205 362/112/206 363/113/207
f 363/113/207 362/112/206 364/114/208
f 365/110/209 366/113/207 364/114/61
f 365/110/209 367/109/210 368/106/211
f 369/107/212 368/106/211 367/109/210
f 368/106/211 369/107/212 370/108/212
f 371/119/213 372/88/214 373/195/214
f 371/119/213 373/195/214 374/95/214
f 375/115/215 376/194/216 377/90/216
f 376/194/216 375/115/215 378/97/216
f 379/196/217 380/197/218 381/198/219
f 382/192/220 380/197/218 379/196/217
f 383/191/221 380/197/218 382/192/220
f 384/189/222 380/197/218 383/191/221
f 380/197/218 384/189/222 385/199/223
f 380/197/218 385/199/223 386/198/224
f 387/120/225 388/124/225 389/99/225
f 388/124/225 387/120/225 390/122/225
f 391/120/226 392/104/226 393/121/226
f 391/120/226 393/121/226 394/122/226
f 395/127/227 396/129/163 397/109/228
f 396/129/163 395/127/227 398/22/227
f 395/127/227 400/126/20 398/22/227
f 397/109/162 399/128/229 401/107/230
f 402/114/231 400/126/20 395/127/227
f 404/112/232 403/125/233 402/114/18
f 405/97/234 406/135/234 407/194/234
f 406/135/234 405/97/234 408/96/234
f 409/95/235 410/195/235 411/130/235
f 409/95/235 411/130/235 412/92/235
f 413/200/236 414/201/237 415/202/238
f 414/201/237 416/203/239 415/202/238
f 417/22/240 414/201/237 413/200/236
f 414/201/237 417/22/240 416/203/239
f 418/204/241 419/205/237 420/206/240
f 419/205/237 421/207/242 420/206/240
f 422/202/243 419/205/237 418/204/241
f 419/205/237 422/202/243 421/207/242
f 423/100/244 424/99/244 425/124/244
f 423/100/244 425/124/244 426/141/244
f 427/105/245 428/121/245 429/104/245
f 428/121/245 427/105/245 430/140/245
f 431/95/246 432/94/246 433/142/247
f 433/142/247 434/119/246 431/95/246
f 435/97/248 436/142/248 437/94/248
f 436/142/248 435/97/248 438/115/248
f 439/105/249 440/100/250 441/141/251
f 439/105/249 441/141/251 442/140/250
f 443/89/252 444/130/252 445/195/252
f 444/130/252 443/89/252 446/143/252
f 447/89/253 448/194/253 449/135/253
f 447/89/253 449/135/253 450/143/254
f 451/208/255 453/190/256 452/193/257
f 451/208/255 454/206/258 453/190/256
f 455/209/259 453/190/256 454/206/258
f 453/190/256 455/209/259 456/188/260
