# Blender 5.2.0 LTS
# www.blender.org
mtllib Arch Katana Body Blade Perfect.mtl
o archkatana_wrapsplit1
v 0.020148 -1.335239 0.010066
v -0.037013 -1.268410 -0.009833
v 0.020148 -1.335239 -0.009833
v -0.037013 -1.268410 0.010066
v -0.061648 -1.207616 -0.009833
v -0.061648 -1.207616 0.010066
v -0.061648 -1.207616 -0.009833
v -0.001436 -1.184681 0.010066
v -0.001436 -1.184681 -0.009833
v -0.061648 -1.207616 0.010066
v 0.094986 -1.276571 0.010066
v 0.208177 -1.383679 0.010066
v 0.094986 -1.276571 -0.009833
v 0.208177 -1.383679 -0.009833
v -0.001436 -1.184681 -0.009833
v 0.094986 -1.276571 0.010066
v 0.094986 -1.276571 -0.009833
v -0.001436 -1.184681 0.010066
v 0.094986 -1.276571 -0.009833
v 0.020148 -1.335239 -0.009833
v -0.001436 -1.184681 -0.009833
v -0.037013 -1.268410 -0.009833
v -0.061648 -1.207616 -0.009833
v 0.051720 -1.363571 -0.009833
v 0.073606 -1.371701 -0.009833
v 0.129298 -1.379792 -0.009833
v 0.208177 -1.383679 -0.009833
v 0.208177 -1.383679 0.010066
v 0.129298 -1.379792 -0.009833
v 0.208177 -1.383679 -0.009833
v 0.129298 -1.379792 0.010066
v 0.073606 -1.371701 -0.009833
v 0.073606 -1.371701 0.010066
v 0.073606 -1.371701 0.010066
v 0.051720 -1.363571 -0.009833
v 0.073606 -1.371701 -0.009833
v 0.051720 -1.363571 0.010066
v 0.020148 -1.335239 -0.009833
v 0.020148 -1.335239 0.010066
v 0.094986 -1.276571 0.010066
v 0.020148 -1.335239 0.010066
v 0.051720 -1.363571 0.010066
v 0.073606 -1.371701 0.010066
v 0.129298 -1.379792 0.010066
v 0.208177 -1.383679 0.010066
v -0.001436 -1.184681 0.010066
v -0.037013 -1.268410 0.010066
v -0.061648 -1.207616 0.010066
v 0.055581 -0.858495 -0.018468
v 0.080971 -0.945899 0.018702
v 0.055581 -0.858495 0.018702
v 0.080971 -0.945899 -0.018468
v 0.104867 -0.769167 -0.018468
v 0.104867 -0.769167 0.018702
v 0.055581 -0.858495 -0.018468
v 0.055581 -0.858495 0.018702
v 0.357188 -0.569236 0.018702
v 0.483707 -0.456245 0.018701
v 0.357188 -0.569236 -0.018468
v 0.483707 -0.456245 -0.018468
v 0.585115 -0.356761 0.018701
v 0.585115 -0.356761 -0.018468
v 0.104867 -0.769167 -0.018468
v 0.104867 -0.769167 0.018702
v 0.357188 -0.569236 -0.018468
v 0.491433 -0.661957 -0.018468
v 0.394854 -0.773024 -0.018468
v 0.283788 -0.841595 -0.018468
v 0.483707 -0.456245 -0.018468
v 0.104867 -0.769167 -0.018468
v 0.080971 -0.945899 -0.018468
v 0.055581 -0.858495 -0.018468
v 0.522339 -0.597244 -0.018468
v 0.559039 -0.487148 -0.018468
v 0.585115 -0.356761 -0.018468
v 0.585115 -0.356761 0.018701
v 0.559039 -0.487148 -0.018468
v 0.585115 -0.356761 -0.018468
v 0.559039 -0.487148 0.018701
v 0.522339 -0.597244 -0.018468
v 0.522339 -0.597244 0.018701
v 0.491433 -0.661957 -0.018468
v 0.491433 -0.661957 0.018701
v 0.394854 -0.773024 -0.018468
v 0.394854 -0.773024 0.018702
v 0.394854 -0.773024 -0.018468
v 0.394854 -0.773024 0.018702
v 0.283788 -0.841595 -0.018468
v 0.283788 -0.841595 0.018702
v 0.080971 -0.945899 -0.018468
v 0.080971 -0.945899 0.018702
v 0.283788 -0.841595 0.018702
v 0.104867 -0.769167 0.018702
v 0.080971 -0.945899 0.018702
v 0.055581 -0.858495 0.018702
v 0.357188 -0.569236 0.018702
v 0.394854 -0.773024 0.018702
v 0.491433 -0.661957 0.018701
v 0.483707 -0.456245 0.018701
v 0.522339 -0.597244 0.018701
v 0.559039 -0.487148 0.018701
v 0.585115 -0.356761 0.018701
v 0.082161 -0.941312 0.015130
v 0.068528 -1.024433 -0.014897
v 0.068528 -1.024433 0.015130
v 0.082161 -0.941312 -0.014897
v 0.376070 -0.810307 0.015130
v 0.613205 -0.715288 0.015130
v 0.376070 -0.810307 -0.014897
v 0.613205 -0.715288 -0.014897
v 0.082161 -0.941312 -0.014897
v 0.082161 -0.941312 0.015130
v 0.273328 -1.001215 -0.014897
v 0.082161 -0.941312 -0.014897
v 0.376070 -0.810307 -0.014897
v 0.068528 -1.024433 -0.014897
v 0.412045 -0.961978 -0.014897
v 0.475903 -0.934417 -0.014897
v 0.503015 -0.907412 -0.014897
v 0.553284 -0.830052 -0.014897
v 0.613205 -0.715288 -0.014897
v 0.613205 -0.715288 0.015130
v 0.553284 -0.830052 -0.014897
v 0.613205 -0.715288 -0.014897
v 0.553284 -0.830052 0.015130
v 0.503015 -0.907412 -0.014897
v 0.503015 -0.907412 0.015130
v 0.503015 -0.907412 -0.014897
v 0.503015 -0.907412 0.015130
v 0.475903 -0.934417 -0.014897
v 0.475903 -0.934417 0.015130
v 0.412045 -0.961978 -0.014897
v 0.412045 -0.961978 0.015130
v 0.273328 -1.001215 -0.014897
v 0.273328 -1.001215 0.015130
v 0.068528 -1.024433 -0.014897
v 0.068528 -1.024433 0.015130
v 0.412045 -0.961978 0.015130
v 0.376070 -0.810307 0.015130
v 0.273328 -1.001215 0.015130
v 0.475903 -0.934417 0.015130
v 0.503015 -0.907412 0.015130
v 0.553284 -0.830052 0.015130
v 0.613205 -0.715288 0.015130
v 0.082161 -0.941312 0.015130
v 0.068528 -1.024433 0.015130
v -0.013725 -1.176581 -0.011200
v 0.040651 -1.123776 0.011433
v 0.040651 -1.123776 -0.011200
v -0.013725 -1.176581 0.011433
v 0.187601 -1.178171 0.011433
v 0.359750 -1.241192 0.011433
v 0.187601 -1.178171 -0.011200
v 0.359750 -1.241192 -0.011200
v 0.040651 -1.123776 -0.011200
v 0.040651 -1.123776 0.011433
v 0.187601 -1.178171 -0.011200
v 0.134053 -1.276389 -0.011200
v 0.040651 -1.123776 -0.011200
v 0.041191 -1.230793 -0.011200
v -0.013725 -1.176581 -0.011200
v 0.181356 -1.292305 -0.011200
v 0.208782 -1.290899 -0.011200
v 0.272719 -1.273716 -0.011200
v 0.359750 -1.241192 -0.011200
v 0.359750 -1.241192 0.011433
v 0.272719 -1.273716 -0.011200
v 0.359750 -1.241192 -0.011200
v 0.272719 -1.273716 0.011433
v 0.208782 -1.290899 -0.011200
v 0.208782 -1.290899 0.011433
v 0.181356 -1.292305 0.011433
v 0.181356 -1.292305 -0.011200
v 0.134053 -1.276389 0.011433
v 0.134053 -1.276389 -0.011200
v 0.134053 -1.276389 0.011433
v 0.041191 -1.230793 -0.011200
v 0.134053 -1.276389 -0.011200
v 0.041191 -1.230793 0.011433
v -0.013725 -1.176581 -0.011200
v -0.013725 -1.176581 0.011433
v 0.208782 -1.290899 0.011433
v 0.272719 -1.273716 0.011433
v 0.187601 -1.178171 0.011433
v 0.359750 -1.241192 0.011433
v 0.181356 -1.292305 0.011433
v 0.134053 -1.276389 0.011433
v 0.040651 -1.123776 0.011433
v 0.041191 -1.230793 0.011433
v -0.013725 -1.176581 0.011433
v -0.055372 -1.385877 -0.009353
v -0.055372 -1.385877 0.009586
v -0.070043 -1.355652 -0.009353
v -0.070043 -1.355652 0.009586
v -0.091959 -1.289552 -0.009353
v -0.091959 -1.289552 0.009586
v -0.091836 -1.237608 0.009586
v -0.091836 -1.237608 -0.009353
v -0.091836 -1.237608 0.009586
v -0.040825 -1.238813 -0.009353
v -0.091836 -1.237608 -0.009353
v -0.040825 -1.238813 0.009586
v -0.070043 -1.355652 -0.009353
v -0.091959 -1.289552 -0.009353
v -0.040825 -1.238813 -0.009353
v -0.091836 -1.237608 -0.009353
v 0.002381 -1.335037 -0.009353
v -0.055372 -1.385877 -0.009353
v -0.041755 -1.398382 -0.009353
v -0.003343 -1.420983 -0.009353
v 0.053329 -1.447431 -0.009353
v -0.040825 -1.238813 -0.009353
v -0.040825 -1.238813 0.009586
v 0.002381 -1.335037 0.009586
v 0.002381 -1.335037 -0.009353
v 0.002381 -1.335037 0.009586
v 0.053329 -1.447431 0.009586
v 0.002381 -1.335037 -0.009353
v 0.053329 -1.447431 -0.009353
v 0.053329 -1.447431 0.009586
v -0.003343 -1.420983 -0.009353
v 0.053329 -1.447431 -0.009353
v -0.003343 -1.420983 0.009586
v -0.041755 -1.398382 -0.009353
v -0.041755 -1.398382 0.009586
v -0.055372 -1.385877 -0.009353
v -0.055372 -1.385877 0.009586
v -0.070043 -1.355652 0.009586
v 0.002381 -1.335037 0.009586
v -0.040825 -1.238813 0.009586
v -0.091959 -1.289552 0.009586
v -0.091836 -1.237608 0.009586
v -0.055372 -1.385877 0.009586
v -0.041755 -1.398382 0.009586
v -0.003343 -1.420983 0.009586
v 0.053329 -1.447431 0.009586
v 0.047323 -1.022874 0.013177
v 0.010136 -1.121741 -0.012944
v 0.010136 -1.121741 0.013177
v 0.047323 -1.022874 -0.012944
v 0.264874 -1.004182 0.013177
v 0.519316 -0.981399 0.013177
v 0.264874 -1.004182 -0.012944
v 0.519316 -0.981399 -0.012944
v 0.047323 -1.022874 -0.012944
v 0.047323 -1.022874 0.013177
v 0.255696 -1.159793 -0.012944
v 0.111556 -1.157464 -0.012944
v 0.264874 -1.004182 -0.012944
v 0.324782 -1.151773 -0.012944
v 0.358516 -1.133699 -0.012944
v 0.428915 -1.074079 -0.012944
v 0.519316 -0.981399 -0.012944
v 0.047323 -1.022874 -0.012944
v 0.010136 -1.121741 -0.012944
v 0.519316 -0.981399 0.013177
v 0.428915 -1.074079 -0.012944
v 0.519316 -0.981399 -0.012944
v 0.428915 -1.074079 0.013177
v 0.428915 -1.074079 -0.012944
v 0.428915 -1.074079 0.013177
v 0.358516 -1.133699 -0.012944
v 0.358516 -1.133699 0.013177
v 0.324782 -1.151773 -0.012944
v 0.324782 -1.151773 0.013177
v 0.255696 -1.159793 -0.012944
v 0.255696 -1.159793 0.013177
v 0.255696 -1.159793 0.013177
v 0.111556 -1.157464 -0.012944
v 0.111556 -1.157464 0.013177
v 0.010136 -1.121741 -0.012944
v 0.010136 -1.121741 0.013177
v 0.264874 -1.004182 0.013177
v 0.111556 -1.157464 0.013177
v 0.255696 -1.159793 0.013177
v 0.324782 -1.151773 0.013177
v 0.358516 -1.133699 0.013177
v 0.428915 -1.074079 0.013177
v 0.519316 -0.981399 0.013177
v 0.047323 -1.022874 0.013177
v 0.010136 -1.121741 0.013177
v -0.153100 -1.328212 0.000117
v -0.049940 -1.200042 -0.040082
v -0.007167 -1.239431 0.000117
v -0.153100 -1.270061 -0.040082
v -0.002700 -1.146184 -0.040082
v 0.048381 -1.173968 0.000117
v 0.096209 -1.042882 0.000117
v 0.045590 -1.032706 -0.035577
v 0.108933 -0.902663 0.000116
v 0.057662 -0.908758 -0.035577
v 0.110828 -0.865441 0.000116
v 0.067607 -0.837190 -0.035577
v 0.149861 -0.724665 -0.017775
v 0.171662 -0.738618 0.000116
v 0.237085 -0.652793 0.000116
v -0.049940 -1.200042 -0.040082
v -0.153100 -1.270061 -0.040082
v -0.092714 -1.160643 0.000117
v -0.153100 -1.211909 0.000117
v -0.053780 -1.118399 0.000117
v -0.002700 -1.146184 -0.040082
v 0.045590 -1.032706 -0.035577
v -0.005029 -1.022530 0.000117
v -0.005029 -1.022530 0.000117
v 0.057662 -0.908758 -0.035577
v 0.006392 -0.914854 0.000116
v 0.067607 -0.837190 -0.035577
v 0.024387 -0.808950 0.000116
v 0.128059 -0.710722 0.000116
v 0.149861 -0.724665 -0.017775
v 0.237085 -0.652793 0.000116
v -0.153100 -1.328212 0.000117
v -0.049940 -1.200042 0.040315
v -0.153100 -1.270061 0.040315
v -0.007167 -1.239431 0.000117
v -0.002700 -1.146184 0.040315
v 0.048381 -1.173968 0.000117
v 0.096209 -1.042882 0.000117
v 0.045590 -1.032706 0.035810
v 0.108933 -0.902663 0.000116
v 0.057662 -0.908758 0.035810
v 0.110828 -0.865441 0.000116
v 0.067607 -0.837190 0.035810
v 0.149861 -0.724665 0.018008
v 0.171662 -0.738618 0.000116
v 0.237085 -0.652793 0.000116
v -0.049940 -1.200042 0.040315
v -0.053780 -1.118399 0.000117
v -0.092714 -1.160643 0.000117
v -0.153100 -1.270061 0.040315
v -0.153100 -1.211909 0.000117
v -0.002700 -1.146184 0.040315
v 0.045590 -1.032706 0.035810
v -0.005029 -1.022530 0.000117
v 0.057662 -0.908758 0.035810
v -0.005029 -1.022530 0.000117
v 0.006392 -0.914854 0.000116
v 0.067607 -0.837190 0.035810
v 0.024387 -0.808950 0.000116
v 0.128059 -0.710722 0.000116
v 0.149861 -0.724665 0.018008
v 0.237085 -0.652793 0.000116
v -0.544293 -1.335239 -0.009833
v -0.487133 -1.268410 0.010066
v -0.544293 -1.335239 0.010066
v -0.487133 -1.268410 -0.009833
v -0.462497 -1.207616 0.010066
v -0.462497 -1.207616 -0.009833
v -0.462497 -1.207616 0.010066
v -0.522709 -1.184681 -0.009833
v -0.522709 -1.184681 0.010066
v -0.462497 -1.207616 -0.009833
v -0.619131 -1.276571 -0.009833
v -0.732322 -1.383679 -0.009833
v -0.619131 -1.276571 0.010066
v -0.732322 -1.383679 0.010066
v -0.522709 -1.184681 0.010066
v -0.619131 -1.276571 -0.009833
v -0.619131 -1.276571 0.010066
v -0.522709 -1.184681 -0.009833
v -0.619131 -1.276571 0.010066
v -0.544293 -1.335239 0.010066
v -0.522709 -1.184681 0.010066
v -0.487133 -1.268410 0.010066
v -0.462497 -1.207616 0.010066
v -0.575865 -1.363571 0.010066
v -0.597751 -1.371701 0.010066
v -0.653443 -1.379792 0.010066
v -0.732322 -1.383679 0.010066
v -0.732322 -1.383679 -0.009833
v -0.653443 -1.379792 0.010066
v -0.732322 -1.383679 0.010066
v -0.653443 -1.379792 -0.009833
v -0.597751 -1.371701 0.010066
v -0.597751 -1.371701 -0.009833
v -0.597751 -1.371701 -0.009833
v -0.575865 -1.363571 0.010066
v -0.597751 -1.371701 0.010066
v -0.575865 -1.363571 -0.009833
v -0.544293 -1.335239 0.010066
v -0.544293 -1.335239 -0.009833
v -0.619131 -1.276571 -0.009833
v -0.544293 -1.335239 -0.009833
v -0.575865 -1.363571 -0.009833
v -0.597751 -1.371701 -0.009833
v -0.653443 -1.379792 -0.009833
v -0.732322 -1.383679 -0.009833
v -0.522709 -1.184681 -0.009833
v -0.487133 -1.268410 -0.009833
v -0.462497 -1.207616 -0.009833
v -0.579726 -0.858495 0.018701
v -0.605116 -0.945899 -0.018468
v -0.579726 -0.858495 -0.018468
v -0.605116 -0.945899 0.018701
v -0.629012 -0.769167 0.018701
v -0.629012 -0.769167 -0.018468
v -0.579726 -0.858495 0.018701
v -0.579726 -0.858495 -0.018468
v -0.881333 -0.569236 -0.018468
v -1.007852 -0.456245 -0.018468
v -0.881333 -0.569236 0.018702
v -1.007852 -0.456245 0.018702
v -1.109260 -0.356761 -0.018468
v -1.109260 -0.356761 0.018702
v -0.629012 -0.769167 0.018701
v -0.629012 -0.769167 -0.018468
v -0.881333 -0.569236 0.018702
v -1.015578 -0.661957 0.018702
v -0.918999 -0.773024 0.018702
v -0.807933 -0.841595 0.018701
v -1.007852 -0.456245 0.018702
v -0.629012 -0.769167 0.018701
v -0.605116 -0.945899 0.018701
v -0.579726 -0.858495 0.018701
v -1.046484 -0.597244 0.018702
v -1.083184 -0.487148 0.018702
v -1.109260 -0.356761 0.018702
v -1.109260 -0.356761 -0.018468
v -1.083184 -0.487148 0.018702
v -1.109260 -0.356761 0.018702
v -1.083184 -0.487148 -0.018468
v -1.046484 -0.597244 0.018702
v -1.046484 -0.597244 -0.018468
v -1.015578 -0.661957 0.018702
v -1.015578 -0.661957 -0.018468
v -0.918999 -0.773024 0.018702
v -0.918999 -0.773024 -0.018468
v -0.918999 -0.773024 0.018702
v -0.918999 -0.773024 -0.018468
v -0.807933 -0.841595 0.018701
v -0.807933 -0.841595 -0.018468
v -0.605116 -0.945899 0.018701
v -0.605116 -0.945899 -0.018468
v -0.807933 -0.841595 -0.018468
v -0.629012 -0.769167 -0.018468
v -0.605116 -0.945899 -0.018468
v -0.579726 -0.858495 -0.018468
v -0.881333 -0.569236 -0.018468
v -0.918999 -0.773024 -0.018468
v -1.015578 -0.661957 -0.018468
v -1.007852 -0.456245 -0.018468
v -1.046484 -0.597244 -0.018468
v -1.083184 -0.487148 -0.018468
v -1.109260 -0.356761 -0.018468
v -0.606306 -0.941312 -0.014897
v -0.592673 -1.024433 0.015130
v -0.592673 -1.024433 -0.014897
v -0.606306 -0.941312 0.015130
v -0.900215 -0.810307 -0.014897
v -1.137350 -0.715288 -0.014897
v -0.900215 -0.810307 0.015130
v -1.137350 -0.715288 0.015130
v -0.606306 -0.941312 0.015130
v -0.606306 -0.941312 -0.014897
v -0.797474 -1.001215 0.015130
v -0.606306 -0.941312 0.015130
v -0.900215 -0.810307 0.015130
v -0.592673 -1.024433 0.015130
v -0.936190 -0.961978 0.015130
v -1.000049 -0.934417 0.015130
v -1.027160 -0.907412 0.015130
v -1.077430 -0.830052 0.015130
v -1.137350 -0.715288 0.015130
v -1.137350 -0.715288 -0.014897
v -1.077430 -0.830052 0.015130
v -1.137350 -0.715288 0.015130
v -1.077430 -0.830052 -0.014897
v -1.027160 -0.907412 0.015130
v -1.027160 -0.907412 -0.014897
v -1.027160 -0.907412 0.015130
v -1.027160 -0.907412 -0.014897
v -1.000049 -0.934417 0.015130
v -1.000049 -0.934417 -0.014897
v -0.936190 -0.961978 0.015130
v -0.936190 -0.961978 -0.014897
v -0.797474 -1.001215 0.015130
v -0.797474 -1.001215 -0.014897
v -0.592673 -1.024433 0.015130
v -0.592673 -1.024433 -0.014897
v -0.936190 -0.961978 -0.014897
v -0.900215 -0.810307 -0.014897
v -0.797474 -1.001215 -0.014897
v -1.000049 -0.934417 -0.014897
v -1.027160 -0.907412 -0.014897
v -1.077430 -0.830052 -0.014897
v -1.137350 -0.715288 -0.014897
v -0.606306 -0.941312 -0.014897
v -0.592673 -1.024433 -0.014897
v -0.510420 -1.176581 0.011433
v -0.564796 -1.123776 -0.011200
v -0.564796 -1.123776 0.011433
v -0.510420 -1.176581 -0.011200
v -0.711746 -1.178171 -0.011200
v -0.883895 -1.241192 -0.011200
v -0.711746 -1.178171 0.011433
v -0.883895 -1.241192 0.011433
v -0.564796 -1.123776 0.011433
v -0.564796 -1.123776 -0.011200
v -0.711746 -1.178171 0.011433
v -0.658198 -1.276389 0.011433
v -0.564796 -1.123776 0.011433
v -0.565336 -1.230793 0.011433
v -0.510420 -1.176581 0.011433
v -0.705502 -1.292305 0.011433
v -0.732927 -1.290899 0.011433
v -0.796864 -1.273716 0.011433
v -0.883895 -1.241192 0.011433
v -0.883895 -1.241192 -0.011200
v -0.796864 -1.273716 0.011433
v -0.883895 -1.241192 0.011433
v -0.796864 -1.273716 -0.011200
v -0.732927 -1.290899 0.011433
v -0.732927 -1.290899 -0.011200
v -0.705502 -1.292305 -0.011200
v -0.705502 -1.292305 0.011433
v -0.658198 -1.276389 -0.011200
v -0.658198 -1.276389 0.011433
v -0.658198 -1.276389 -0.011200
v -0.565336 -1.230793 0.011433
v -0.658198 -1.276389 0.011433
v -0.565336 -1.230793 -0.011200
v -0.510420 -1.176581 0.011433
v -0.510420 -1.176581 -0.011200
v -0.732927 -1.290899 -0.011200
v -0.796864 -1.273716 -0.011200
v -0.711746 -1.178171 -0.011200
v -0.883895 -1.241192 -0.011200
v -0.705502 -1.292305 -0.011200
v -0.658198 -1.276389 -0.011200
v -0.564796 -1.123776 -0.011200
v -0.565336 -1.230793 -0.011200
v -0.510420 -1.176581 -0.011200
v -0.468897 -1.385877 0.009586
v -0.468897 -1.385877 -0.009353
v -0.454225 -1.355652 0.009586
v -0.454225 -1.355652 -0.009353
v -0.432309 -1.289552 0.009586
v -0.432309 -1.289552 -0.009353
v -0.432434 -1.237608 -0.009353
v -0.432433 -1.237608 0.009586
v -0.432434 -1.237608 -0.009353
v -0.483444 -1.238813 0.009586
v -0.432433 -1.237608 0.009586
v -0.483444 -1.238813 -0.009353
v -0.454225 -1.355652 0.009586
v -0.432309 -1.289552 0.009586
v -0.483444 -1.238813 0.009586
v -0.432433 -1.237608 0.009586
v -0.526650 -1.335037 0.009586
v -0.468897 -1.385877 0.009586
v -0.482513 -1.398382 0.009586
v -0.520926 -1.420983 0.009586
v -0.577598 -1.447431 0.009586
v -0.483444 -1.238813 0.009586
v -0.483444 -1.238813 -0.009353
v -0.526650 -1.335037 -0.009353
v -0.526650 -1.335037 0.009586
v -0.526650 -1.335037 -0.009353
v -0.577598 -1.447431 -0.009353
v -0.526650 -1.335037 0.009586
v -0.577598 -1.447431 0.009586
v -0.577598 -1.447431 -0.009353
v -0.520926 -1.420983 0.009586
v -0.577598 -1.447431 0.009586
v -0.520926 -1.420983 -0.009353
v -0.482513 -1.398382 0.009586
v -0.482513 -1.398382 -0.009353
v -0.468897 -1.385877 0.009586
v -0.468897 -1.385877 -0.009353
v -0.454225 -1.355652 -0.009353
v -0.526650 -1.335037 -0.009353
v -0.483444 -1.238813 -0.009353
v -0.432309 -1.289552 -0.009353
v -0.432434 -1.237608 -0.009353
v -0.468897 -1.385877 -0.009353
v -0.482513 -1.398382 -0.009353
v -0.520926 -1.420983 -0.009353
v -0.577598 -1.447431 -0.009353
v -0.571468 -1.022874 -0.012944
v -0.534281 -1.121741 0.013177
v -0.534281 -1.121741 -0.012944
v -0.571468 -1.022874 0.013177
v -0.789019 -1.004182 -0.012944
v -1.043461 -0.981399 -0.012944
v -0.789019 -1.004182 0.013177
v -1.043461 -0.981399 0.013177
v -0.571468 -1.022874 0.013177
v -0.571468 -1.022874 -0.012944
v -0.779841 -1.159793 0.013177
v -0.635701 -1.157464 0.013177
v -0.789019 -1.004182 0.013177
v -0.848927 -1.151773 0.013177
v -0.882661 -1.133699 0.013177
v -0.953060 -1.074079 0.013177
v -1.043461 -0.981399 0.013177
v -0.571468 -1.022874 0.013177
v -0.534281 -1.121741 0.013177
v -1.043461 -0.981399 -0.012944
v -0.953060 -1.074079 0.013177
v -1.043461 -0.981399 0.013177
v -0.953060 -1.074079 -0.012944
v -0.953060 -1.074079 0.013177
v -0.953060 -1.074079 -0.012944
v -0.882661 -1.133699 0.013177
v -0.882661 -1.133699 -0.012944
v -0.848927 -1.151773 0.013177
v -0.848927 -1.151773 -0.012944
v -0.779841 -1.159793 0.013177
v -0.779841 -1.159793 -0.012944
v -0.779841 -1.159793 -0.012944
v -0.635701 -1.157464 0.013177
v -0.635701 -1.157464 -0.012944
v -0.534281 -1.121741 0.013177
v -0.534281 -1.121741 -0.012944
v -0.789019 -1.004182 -0.012944
v -0.635701 -1.157464 -0.012944
v -0.779841 -1.159793 -0.012944
v -0.848927 -1.151773 -0.012944
v -0.882661 -1.133699 -0.012944
v -0.953060 -1.074079 -0.012944
v -1.043461 -0.981399 -0.012944
v -0.571468 -1.022874 -0.012944
v -0.534281 -1.121741 -0.012944
v -0.371045 -1.328212 0.000117
v -0.474205 -1.200042 0.040315
v -0.516978 -1.239431 0.000117
v -0.371045 -1.270061 0.040315
v -0.521445 -1.146184 0.040315
v -0.572526 -1.173968 0.000117
v -0.620354 -1.042882 0.000117
v -0.569735 -1.032706 0.035811
v -0.633078 -0.902663 0.000117
v -0.581807 -0.908758 0.035811
v -0.634973 -0.865441 0.000117
v -0.591752 -0.837190 0.035811
v -0.674006 -0.724665 0.018008
v -0.695807 -0.738618 0.000117
v -0.761230 -0.652793 0.000117
v -0.474205 -1.200042 0.040315
v -0.371045 -1.270061 0.040315
v -0.431432 -1.160643 0.000117
v -0.371045 -1.211909 0.000117
v -0.470366 -1.118399 0.000117
v -0.521445 -1.146184 0.040315
v -0.569735 -1.032706 0.035811
v -0.519116 -1.022530 0.000117
v -0.519116 -1.022530 0.000117
v -0.581807 -0.908758 0.035811
v -0.530537 -0.914854 0.000117
v -0.591752 -0.837190 0.035811
v -0.548532 -0.808950 0.000117
v -0.652204 -0.710722 0.000117
v -0.674006 -0.724665 0.018008
v -0.761230 -0.652793 0.000117
v -0.371045 -1.328212 0.000117
v -0.474205 -1.200042 -0.040082
v -0.371045 -1.270061 -0.040082
v -0.516978 -1.239431 0.000117
v -0.521445 -1.146184 -0.040082
v -0.572526 -1.173968 0.000117
v -0.620354 -1.042882 0.000117
v -0.569735 -1.032706 -0.035577
v -0.633078 -0.902663 0.000117
v -0.581807 -0.908758 -0.035577
v -0.634973 -0.865441 0.000117
v -0.591752 -0.837190 -0.035577
v -0.674006 -0.724665 -0.017775
v -0.695807 -0.738618 0.000117
v -0.761230 -0.652793 0.000117
v -0.474205 -1.200042 -0.040082
v -0.470366 -1.118399 0.000117
v -0.431432 -1.160643 0.000117
v -0.371045 -1.270061 -0.040082
v -0.371045 -1.211909 0.000117
v -0.521445 -1.146184 -0.040082
v -0.569735 -1.032706 -0.035577
v -0.519116 -1.022530 0.000117
v -0.581807 -0.908758 -0.035577
v -0.519116 -1.022530 0.000117
v -0.530537 -0.914854 0.000117
v -0.591752 -0.837190 -0.035577
v -0.548532 -0.808950 0.000117
v -0.652204 -0.710722 0.000117
v -0.674006 -0.724665 -0.017775
v -0.761230 -0.652793 0.000117
v -0.198803 -2.041632 -0.026371
v -0.186632 -2.200108 -0.026371
v -0.167293 -2.198417 -0.000128
v -0.213019 -1.736943 -0.026370
v -0.210974 -1.883156 -0.026370
v -0.191598 -1.882306 -0.000128
v -0.198803 -2.041632 -0.026371
v -0.215064 -1.590719 -0.026370
v -0.213019 -1.736943 -0.026370
v -0.195653 -1.590719 -0.000127
v -0.198803 -2.041632 0.026115
v -0.186632 -2.200108 0.026115
v -0.167293 -2.198417 -0.000128
v -0.213019 -1.736943 0.026115
v -0.210974 -1.883156 0.026115
v -0.191598 -1.882306 -0.000128
v -0.198803 -2.041632 0.026115
v -0.195653 -1.590719 -0.000127
v -0.215064 -1.590719 0.026116
v -0.213019 -1.736943 0.026115
v -0.186632 -2.200108 0.026115
v -0.147485 -2.196686 -0.000128
v -0.167293 -2.198417 -0.000128
v -0.172625 -2.198883 0.033988
v -0.233318 -2.204188 0.036986
v -0.233318 -2.204188 0.048120
v -0.319152 -2.211702 -0.000128
v -0.280005 -2.208280 -0.026371
v -0.294012 -2.209505 -0.034243
v -0.233318 -2.204188 -0.037241
v -0.233318 -2.204188 -0.048375
v -0.299344 -2.209971 -0.000128
v -0.280005 -2.208280 0.026115
v -0.294012 -2.209505 0.033988
v -0.233318 -2.204188 0.036986
v -0.233318 -2.204188 0.048120
v -0.261930 -1.590719 0.036986
v -0.308795 -1.590719 0.026116
v -0.306661 -1.738978 0.026115
v -0.198803 -2.041632 0.026115
v -0.186632 -2.200108 0.026115
v -0.233318 -2.204188 0.036986
v -0.306661 -1.738978 0.026115
v -0.304526 -1.887237 0.026115
v -0.257750 -1.885192 0.036986
v -0.292265 -2.047757 0.026115
v -0.213019 -1.736943 0.026115
v -0.210974 -1.883156 0.026115
v -0.198803 -2.041632 0.026115
v -0.257750 -1.885192 0.036986
v -0.292265 -2.047757 0.026115
v -0.280005 -2.208280 0.026115
v -0.233318 -2.204188 0.036986
v -0.215064 -1.590719 0.026116
v -0.213019 -1.736943 0.026115
v -0.261930 -1.590719 0.036986
v -0.328208 -1.590719 -0.000127
v -0.308795 -1.590719 -0.026370
v -0.306661 -1.738978 -0.026370
v -0.306661 -1.738978 -0.026370
v -0.304526 -1.887237 -0.026370
v -0.323902 -1.888088 -0.000128
v -0.292265 -2.047757 -0.026371
v -0.292265 -2.047757 -0.026371
v -0.280005 -2.208280 -0.026371
v -0.299344 -2.209971 -0.000128
v -0.308795 -1.590719 0.026116
v -0.306661 -1.738978 0.026115
v -0.328208 -1.590719 -0.000127
v -0.306661 -1.738978 0.026115
v -0.304526 -1.887237 0.026115
v -0.323902 -1.888088 -0.000128
v -0.292265 -2.047757 0.026115
v -0.323902 -1.888088 -0.000128
v -0.292265 -2.047757 0.026115
v -0.280005 -2.208280 0.026115
v -0.299344 -2.209971 -0.000128
v -0.308795 -1.590719 -0.026370
v -0.306661 -1.738978 -0.026370
v -0.261930 -1.590719 -0.037241
v -0.198803 -2.041632 -0.026371
v -0.186632 -2.200108 -0.026371
v -0.233318 -2.204188 -0.037241
v -0.306661 -1.738978 -0.026370
v -0.304526 -1.887237 -0.026370
v -0.257750 -1.885192 -0.037241
v -0.292265 -2.047757 -0.026371
v -0.257750 -1.885192 -0.037241
v -0.213019 -1.736943 -0.026370
v -0.210974 -1.883156 -0.026370
v -0.257750 -1.885192 -0.037241
v -0.198803 -2.041632 -0.026371
v -0.257750 -1.885192 -0.037241
v -0.292265 -2.047757 -0.026371
v -0.280005 -2.208280 -0.026371
v -0.233318 -2.204188 -0.037241
v -0.261930 -1.590719 -0.037241
v -0.215064 -1.590719 -0.026370
v -0.213019 -1.736943 -0.026370
v -0.340358 -0.959812 -0.000127
v -0.340072 -1.146974 -0.000127
v -0.294487 -0.973390 0.038319
v -0.298982 -1.146974 0.038319
v -0.290484 -0.836664 0.038319
v -0.353073 -0.809345 -0.000127
v -0.307297 -0.727662 0.038319
v -0.394502 -0.712190 -0.000127
v -0.359336 -0.615541 0.038319
v -0.439242 -0.615541 -0.000127
v -0.418008 -0.557936 -0.000127
v -0.354437 -0.541563 0.038319
v -0.411931 -0.312876 -0.000127
v -0.344193 -0.317372 0.038319
v -0.360964 0.008227 0.038319
v -0.429882 0.013270 -0.000127
v -0.409645 0.432491 -0.000127
v -0.325905 0.442667 0.038319
v -0.332779 0.789530 -0.000127
v -0.251398 0.769451 0.038319
v -0.190134 0.899464 0.038319
v -0.240863 1.014106 -0.000127
v -0.128869 1.029477 0.038319
v -0.082905 1.210614 -0.000127
v -0.000932 1.156482 0.038319
v 0.137831 1.412154 -0.000127
v -0.345202 -1.167204 0.061562
v -0.325900 -1.299982 0.061562
v -0.261938 -1.192752 0.061562
v -0.261938 -1.326551 0.061562
v -0.197975 -1.299982 0.061562
v -0.178674 -1.167204 0.061562
v -0.047564 0.882736 -0.000127
v -0.000932 1.156482 0.038319
v -0.100419 0.915564 0.038319
v 0.137831 1.412154 -0.000127
v -0.199520 0.522163 0.038319
v -0.140896 0.499927 -0.000127
v -0.171550 0.276880 -0.000127
v -0.256559 0.032397 0.038319
v -0.201459 -0.102587 -0.000127
v -0.256977 -0.233917 0.038319
v -0.181726 -0.490226 -0.000127
v -0.221451 -0.628390 0.038319
v -0.221451 -0.628390 0.038319
v -0.148729 -0.759659 -0.000127
v -0.205350 -0.753654 0.038319
v -0.185480 -0.891089 0.038319
v -0.104456 -0.886219 -0.000127
v -0.187229 -1.146974 -0.000127
v -0.230515 -1.146974 0.038319
v -0.199520 0.522163 0.038319
v -0.100419 0.915564 0.038319
v -0.251398 0.769451 0.038319
v -0.190134 0.899464 0.038319
v -0.128869 1.029477 0.038319
v -0.000932 1.156482 0.038319
v -0.325905 0.442667 0.038319
v -0.256559 0.032397 0.038319
v -0.360964 0.008227 0.038319
v -0.256977 -0.233917 0.038319
v -0.344193 -0.317372 0.038319
v -0.221451 -0.628390 0.038319
v -0.354437 -0.541563 0.038319
v -0.359336 -0.615541 0.038319
v -0.307297 -0.727662 0.038319
v -0.205350 -0.753654 0.038319
v -0.290484 -0.836664 0.038319
v -0.185480 -0.891089 0.038319
v -0.294487 -0.973390 0.038319
v -0.230515 -1.146974 0.038319
v -0.298982 -1.146974 0.038319
v -0.261938 -1.496581 -0.038814
v -0.228794 -1.391355 -0.038814
v -0.261938 -1.496581 -0.038814
v -0.261938 -1.496581 0.038558
v -0.295082 -1.391355 0.038558
v -0.261938 -1.496581 0.038558
v -0.320861 -1.422927 0.038558
v -0.228794 -1.391355 0.038558
v -0.203015 -1.422927 0.038558
v -0.325900 -1.299982 -0.061817
v -0.261938 -1.192752 -0.061817
v -0.345202 -1.167204 -0.061817
v -0.261938 -1.326551 -0.061817
v -0.197975 -1.299982 -0.061817
v -0.178674 -1.167204 -0.061817
v -0.340072 -1.146974 -0.000127
v -0.230515 -1.146974 -0.038574
v -0.187229 -1.146974 -0.000127
v -0.298982 -1.146974 -0.038574
v -0.230515 -1.146974 0.038319
v -0.298982 -1.146974 0.038319
v -0.082905 1.210614 -0.000127
v 0.137831 1.412154 -0.000127
v -0.000932 1.156482 -0.038574
v -0.128869 1.029477 -0.038574
v -0.240863 1.014106 -0.000127
v -0.190134 0.899464 -0.038574
v -0.332779 0.789530 -0.000127
v -0.251398 0.769451 -0.038574
v -0.325905 0.442667 -0.038574
v -0.409645 0.432491 -0.000127
v -0.360964 0.008227 -0.038574
v -0.429882 0.013270 -0.000127
v -0.411931 -0.312876 -0.000127
v -0.344193 -0.317372 -0.038574
v -0.354437 -0.541563 -0.038574
v -0.418008 -0.557936 -0.000127
v -0.359336 -0.615541 -0.038574
v -0.439242 -0.615541 -0.000127
v -0.394502 -0.712190 -0.000127
v -0.307297 -0.727662 -0.038574
v -0.353073 -0.809345 -0.000127
v -0.290484 -0.836664 -0.038574
v -0.340358 -0.959812 -0.000127
v -0.294487 -0.973390 -0.038574
v -0.340072 -1.146974 -0.000127
v -0.298982 -1.146974 -0.038574
v -0.178674 -1.167204 -0.061817
v -0.197975 -1.299982 -0.061817
v -0.261938 -1.192752 -0.061817
v -0.261938 -1.326551 -0.061817
v -0.325900 -1.299982 -0.061817
v -0.345202 -1.167204 -0.061817
v -0.185480 -0.891089 -0.038574
v -0.187229 -1.146974 -0.000127
v -0.230515 -1.146974 -0.038574
v -0.104456 -0.886219 -0.000127
v -0.148729 -0.759659 -0.000127
v -0.205350 -0.753654 -0.038574
v -0.221451 -0.628390 -0.038574
v -0.181726 -0.490226 -0.000127
v -0.221451 -0.628390 -0.038574
v -0.256977 -0.233917 -0.038574
v -0.201459 -0.102587 -0.000127
v -0.256559 0.032397 -0.038574
v -0.171550 0.276880 -0.000127
v -0.199520 0.522163 -0.038574
v -0.140896 0.499927 -0.000127
v -0.047564 0.882736 -0.000127
v -0.100419 0.915564 -0.038574
v -0.000932 1.156482 -0.038574
v 0.137831 1.412154 -0.000127
v -0.294487 -0.973390 -0.038574
v -0.230515 -1.146974 -0.038574
v -0.298982 -1.146974 -0.038574
v -0.185480 -0.891089 -0.038574
v -0.290484 -0.836664 -0.038574
v -0.205350 -0.753654 -0.038574
v -0.307297 -0.727662 -0.038574
v -0.221451 -0.628390 -0.038574
v -0.359336 -0.615541 -0.038574
v -0.354437 -0.541563 -0.038574
v -0.344193 -0.317372 -0.038574
v -0.256977 -0.233917 -0.038574
v -0.360964 0.008227 -0.038574
v -0.256559 0.032397 -0.038574
v -0.325905 0.442667 -0.038574
v -0.199520 0.522163 -0.038574
v -0.251398 0.769451 -0.038574
v -0.100419 0.915564 -0.038574
v -0.190134 0.899464 -0.038574
v -0.128869 1.029477 -0.038574
v -0.000932 1.156482 -0.038574
v -0.261938 -1.496581 -0.038814
v -0.228794 -1.391355 -0.038814
v -0.261938 -1.496581 -0.038814
v -0.203015 -1.422927 -0.038814
v -0.295082 -1.391355 -0.038814
v -0.320861 -1.422927 -0.038814
v -0.197975 -1.299982 0.061562
v -0.261938 -1.192752 0.061562
v -0.178674 -1.167204 0.061562
v -0.261938 -1.326551 0.061562
v -0.325900 -1.299982 0.061562
v -0.345202 -1.167204 0.061562
vn -0.7149 -0.6992 -0.0000
vn -0.8644 -0.5029 -0.0000
vn -0.8643 -0.5029 -0.0000
vn -0.9263 -0.3767 -0.0000
vn -0.9263 -0.3768 -0.0000
vn -0.3537 0.9354 -0.0000
vn 0.6912 0.7227 -0.0000
vn 0.6873 0.7264 -0.0000
vn -0.0000 -0.0000 -1.0000
vn -0.0473 -0.9989 -0.0000
vn -0.0948 -0.9955 -0.0000
vn -0.0474 -0.9989 -0.0000
vn -0.2517 -0.9678 -0.0000
vn -0.2518 -0.9678 -0.0000
vn -0.5272 -0.8498 -0.0000
vn -0.0000 -0.0000 1.0000
vn -0.9612 -0.2758 -0.0000
vn -0.8764 0.4816 -0.0000
vn -0.7816 0.6237 -0.0000
vn -0.7816 0.6237 0.0001
vn -0.8763 0.4818 -0.0000
vn -0.6456 0.7637 -0.0000
vn -0.6834 0.7301 -0.0000
vn -0.6992 0.7149 -0.0000
vn -0.7816 0.6238 -0.0000
vn 0.9806 -0.1961 -0.0000
vn 0.9678 -0.2518 -0.0000
vn 0.9290 -0.3701 -0.0000
vn 0.8440 -0.5364 -0.0000
vn 0.6541 -0.7564 -0.0000
vn 0.6540 -0.7565 -0.0000
vn 0.4877 -0.8730 -0.0000
vn 0.4568 -0.8896 -0.0000
vn 0.4567 -0.8896 -0.0000
vn -0.9862 0.1657 -0.0000
vn -0.3864 0.9223 -0.0000
vn -0.3700 0.9290 -0.0000
vn -0.3865 0.9223 -0.0000
vn -0.4090 0.9125 -0.0000
vn 0.8864 -0.4628 -0.0000
vn 0.8642 -0.5031 -0.0000
vn 0.8643 -0.5029 -0.0000
vn 0.7817 -0.6237 -0.0000
vn 0.7816 -0.6238 -0.0000
vn 0.5745 -0.8185 -0.0000
vn 0.3373 -0.9414 -0.0000
vn 0.1961 -0.9806 -0.0000
vn 0.1105 -0.9939 -0.0000
vn 0.1104 -0.9939 -0.0000
vn -0.6953 0.7188 -0.0000
vn -0.6953 0.7187 -0.0000
vn 0.3469 0.9379 -0.0000
vn 0.3468 0.9379 -0.0000
vn 0.3471 0.9378 -0.0000
vn 0.3468 -0.9379 -0.0000
vn 0.3066 -0.9518 -0.0000
vn 0.3068 -0.9518 -0.0000
vn 0.1580 -0.9874 -0.0000
vn 0.1578 -0.9875 -0.0000
vn -0.1414 -0.9900 -0.0000
vn -0.3863 -0.9224 -0.0000
vn -0.5886 -0.8084 -0.0000
vn -0.5887 -0.8084 -0.0000
vn -0.7029 -0.7113 -0.0000
vn -0.8185 -0.5745 -0.0000
vn -0.9290 -0.3700 -0.0000
vn -0.9888 -0.1491 -0.0000
vn -1.0000 -0.0000 -0.0000
vn 0.0236 0.9997 -0.0000
vn 0.9125 0.4091 -0.0000
vn 0.9123 0.4096 -0.0000
vn -0.4250 -0.9052 -0.0000
vn -0.4655 -0.8850 -0.0000
vn -0.4249 -0.9052 -0.0000
vn -0.5974 -0.8019 -0.0000
vn -0.5975 -0.8019 -0.0000
vn -0.8184 -0.5746 0.0001
vn -0.8184 -0.5746 -0.0000
vn -0.9354 0.3536 -0.0000
vn -0.0863 0.9963 -0.0000
vn -0.0870 0.9962 -0.0000
vn -0.0862 0.9963 -0.0000
vn -0.0856 0.9963 -0.0000
vn 0.7149 -0.6992 -0.0000
vn 0.6832 -0.7302 -0.0000
vn 0.6831 -0.7303 -0.0000
vn 0.5655 -0.8247 -0.0000
vn 0.5655 -0.8248 -0.0000
vn 0.3067 -0.9518 -0.0000
vn 0.0472 -0.9989 -0.0000
vn -0.1809 -0.9835 -0.0000
vn -0.3303 -0.9439 -0.0000
vn -0.3304 -0.9439 -0.0000
vn 0.3283 -0.5158 -0.7913
vn 0.3755 -0.4538 -0.8081
vn 0.3983 -0.4217 -0.8146
vn 0.4845 -0.2969 -0.8229
vn 0.5075 -0.2576 -0.8222
vn 0.5605 -0.1168 -0.8199
vn 0.5541 -0.1327 -0.8218
vn 0.5864 -0.0626 -0.8076
vn 0.5778 -0.0546 -0.8143
vn 0.5558 -0.1566 -0.8164
vn 0.5684 -0.1324 -0.8120
vn 0.4996 -0.2732 -0.8221
vn 0.4833 -0.3040 -0.8210
vn 0.4531 -0.3437 -0.8226
vn -0.4075 0.4231 -0.8093
vn -0.3667 0.4915 -0.7899
vn -0.3902 0.4449 -0.8061
vn -0.4678 0.3275 -0.8210
vn -0.4833 0.3041 -0.8210
vn -0.5534 0.1403 -0.8210
vn -0.5461 0.1639 -0.8215
vn -0.5461 0.1638 -0.8215
vn -0.5769 0.0779 -0.8131
vn -0.5535 0.1403 -0.8209
vn -0.5772 0.0702 -0.8135
vn -0.5153 0.2421 -0.8221
vn -0.5303 0.2106 -0.8212
vn -0.3675 0.4613 -0.8075
vn -0.3453 0.4865 -0.8026
vn -0.2897 0.5480 -0.7847
vn 0.3282 -0.5158 0.7913
vn 0.3755 -0.4538 0.8081
vn 0.3283 -0.5158 0.7913
vn 0.3983 -0.4217 0.8146
vn 0.4845 -0.2970 0.8228
vn 0.5075 -0.2576 0.8222
vn 0.5605 -0.1168 0.8199
vn 0.5541 -0.1327 0.8218
vn 0.5864 -0.0626 0.8076
vn 0.5778 -0.0546 0.8143
vn 0.5558 -0.1565 0.8165
vn 0.5684 -0.1324 0.8120
vn 0.4996 -0.2732 0.8221
vn 0.4833 -0.3040 0.8210
vn 0.4531 -0.3436 0.8226
vn -0.4075 0.4231 0.8093
vn -0.4678 0.3274 0.8210
vn -0.3902 0.4449 0.8061
vn -0.3667 0.4915 0.7899
vn -0.4833 0.3040 0.8209
vn -0.5534 0.1403 0.8210
vn -0.5461 0.1639 0.8215
vn -0.5769 0.0780 0.8131
vn -0.5461 0.1638 0.8216
vn -0.5535 0.1403 0.8209
vn -0.5773 0.0703 0.8135
vn -0.5153 0.2420 0.8221
vn -0.5303 0.2105 0.8212
vn -0.3675 0.4613 0.8075
vn -0.3453 0.4866 0.8025
vn -0.2897 0.5480 0.7847
vn 0.8644 -0.5029 -0.0000
vn 0.9263 -0.3768 -0.0000
vn 0.3537 0.9354 -0.0000
vn -0.6912 0.7227 -0.0000
vn -0.6873 0.7264 -0.0000
vn 0.0473 -0.9989 -0.0000
vn 0.0948 -0.9955 -0.0000
vn 0.0474 -0.9989 -0.0000
vn 0.0949 -0.9955 -0.0000
vn 0.2518 -0.9678 -0.0000
vn 0.5272 -0.8497 -0.0000
vn 0.5272 -0.8498 -0.0000
vn 0.9612 -0.2758 -0.0000
vn 0.9612 -0.2757 -0.0000
vn 0.8764 0.4815 -0.0000
vn 0.7816 0.6237 -0.0000
vn 0.7816 0.6237 -0.0001
vn 0.6456 0.7637 -0.0000
vn 0.6834 0.7301 -0.0000
vn 0.6992 0.7149 -0.0000
vn 0.7816 0.6238 -0.0000
vn -0.9806 -0.1961 -0.0000
vn -0.9678 -0.2518 -0.0000
vn -0.9290 -0.3701 -0.0000
vn -0.8440 -0.5364 -0.0000
vn -0.6541 -0.7564 -0.0000
vn -0.6540 -0.7565 -0.0000
vn -0.4877 -0.8730 -0.0000
vn -0.4876 -0.8731 -0.0000
vn -0.4567 -0.8896 -0.0000
vn 0.9862 0.1657 -0.0000
vn 0.3864 0.9223 -0.0000
vn 0.3701 0.9290 -0.0000
vn 0.3700 0.9290 -0.0000
vn 0.4090 0.9125 -0.0000
vn -0.8864 -0.4628 -0.0000
vn -0.8643 -0.5030 -0.0000
vn -0.7817 -0.6237 -0.0000
vn -0.7816 -0.6238 -0.0000
vn -0.5745 -0.8185 -0.0000
vn -0.3373 -0.9414 -0.0000
vn -0.1961 -0.9806 -0.0000
vn -0.1105 -0.9939 -0.0000
vn -0.1104 -0.9939 -0.0000
vn 0.6952 0.7188 -0.0000
vn 0.6953 0.7188 -0.0000
vn -0.3469 0.9379 -0.0000
vn -0.3468 0.9379 -0.0000
vn -0.3471 0.9378 -0.0000
vn -0.3468 -0.9379 -0.0000
vn -0.3067 -0.9518 -0.0000
vn -0.3068 -0.9518 -0.0000
vn -0.1580 -0.9874 -0.0000
vn -0.1578 -0.9875 -0.0000
vn 0.1414 -0.9900 -0.0000
vn 0.3863 -0.9224 -0.0000
vn 0.5886 -0.8084 -0.0000
vn 0.5887 -0.8084 -0.0000
vn 0.7032 -0.7110 -0.0000
vn 0.8185 -0.5745 0.0001
vn 0.8185 -0.5745 -0.0000
vn 0.9888 -0.1491 -0.0000
vn 1.0000 -0.0000 -0.0000
vn -0.0236 0.9997 -0.0000
vn -0.9125 0.4091 -0.0000
vn -0.9123 0.4096 -0.0000
vn -0.9124 0.4093 -0.0000
vn 0.4250 -0.9052 -0.0000
vn 0.4655 -0.8850 -0.0000
vn 0.4249 -0.9052 -0.0000
vn 0.5975 -0.8019 -0.0000
vn 0.5974 -0.8019 -0.0000
vn 0.8183 -0.5747 -0.0000
vn 0.9354 0.3536 -0.0000
vn 0.0862 0.9963 -0.0000
vn 0.0870 0.9962 -0.0000
vn 0.0856 0.9963 -0.0000
vn -0.6832 -0.7302 -0.0000
vn -0.6831 -0.7303 -0.0000
vn -0.5655 -0.8247 -0.0000
vn -0.0472 -0.9989 -0.0000
vn 0.1809 -0.9835 -0.0000
vn 0.3303 -0.9439 -0.0000
vn 0.3304 -0.9439 -0.0000
vn -0.3282 -0.5158 0.7913
vn -0.3755 -0.4538 0.8081
vn -0.3983 -0.4217 0.8146
vn -0.3283 -0.5158 0.7913
vn -0.4845 -0.2970 0.8228
vn -0.5075 -0.2576 0.8222
vn -0.5606 -0.1167 0.8198
vn -0.5541 -0.1327 0.8218
vn -0.5865 -0.0626 0.8076
vn -0.5778 -0.0546 0.8143
vn -0.5558 -0.1566 0.8164
vn -0.5684 -0.1324 0.8120
vn -0.4996 -0.2732 0.8221
vn -0.4833 -0.3040 0.8210
vn -0.4531 -0.3437 0.8226
vn 0.4075 0.4231 0.8093
vn 0.3667 0.4915 0.7899
vn 0.3902 0.4449 0.8061
vn 0.4678 0.3275 0.8210
vn 0.4833 0.3040 0.8210
vn 0.5534 0.1403 0.8210
vn 0.5461 0.1639 0.8215
vn 0.5461 0.1638 0.8215
vn 0.5769 0.0780 0.8131
vn 0.5535 0.1403 0.8209
vn 0.5773 0.0703 0.8135
vn 0.5153 0.2420 0.8221
vn 0.5303 0.2105 0.8212
vn 0.3675 0.4613 0.8075
vn 0.3453 0.4865 0.8026
vn 0.2896 0.5480 0.7848
vn -0.3283 -0.5158 -0.7913
vn -0.3755 -0.4538 -0.8081
vn -0.3983 -0.4217 -0.8146
vn -0.4845 -0.2970 -0.8228
vn -0.5075 -0.2576 -0.8222
vn -0.5605 -0.1168 -0.8199
vn -0.5541 -0.1327 -0.8218
vn -0.5865 -0.0626 -0.8076
vn -0.5778 -0.0546 -0.8143
vn -0.5558 -0.1566 -0.8164
vn -0.5684 -0.1324 -0.8120
vn -0.4996 -0.2732 -0.8221
vn -0.4833 -0.3040 -0.8210
vn -0.4531 -0.3437 -0.8226
vn 0.4075 0.4231 -0.8093
vn 0.4678 0.3274 -0.8210
vn 0.3902 0.4449 -0.8061
vn 0.3667 0.4915 -0.7899
vn 0.4833 0.3040 -0.8209
vn 0.5534 0.1403 -0.8210
vn 0.5461 0.1639 -0.8215
vn 0.5769 0.0780 -0.8131
vn 0.5461 0.1638 -0.8215
vn 0.5535 0.1403 -0.8209
vn 0.5773 0.0703 -0.8135
vn 0.5153 0.2420 -0.8221
vn 0.5303 0.2105 -0.8212
vn 0.3675 0.4613 -0.8075
vn 0.3453 0.4866 -0.8025
vn 0.2897 0.5480 -0.7847
vn 0.4518 0.0389 -0.8913
vn 0.4827 0.0390 -0.8749
vn 0.8006 0.0628 -0.5960
vn 0.4520 0.0234 -0.8917
vn 0.4891 0.0077 -0.8722
vn 0.8015 0.0392 -0.5967
vn 0.4861 0.0392 -0.8730
vn 0.4521 0.0078 -0.8919
vn 0.8049 0.0079 -0.5934
vn 0.4831 0.0079 -0.8755
vn 0.4827 0.0389 0.8749
vn 0.4518 0.0389 0.8913
vn 0.8006 0.0627 0.5959
vn 0.4890 0.0078 0.8723
vn 0.4520 0.0234 0.8917
vn 0.8015 0.0393 0.5967
vn 0.4860 0.0392 0.8731
vn 0.8049 0.0079 0.5934
vn 0.4521 0.0078 0.8919
vn 0.4831 0.0078 0.8755
vn -0.0864 0.9963 -0.0000
vn -0.0866 0.9962 -0.0000
vn -0.0865 0.9963 -0.0000
vn -0.0872 0.9962 -0.0000
vn -0.2250 -0.0000 0.9744
vn -0.4581 -0.0077 0.8888
vn -0.4828 -0.0078 0.8757
vn 0.4516 0.0389 0.8914
vn 0.4826 0.0389 0.8750
vn 0.2250 0.0157 0.9742
vn -0.4829 -0.0078 0.8756
vn -0.4613 -0.0235 0.8869
vn -0.2250 -0.0078 0.9743
vn -0.4825 -0.0389 0.8750
vn 0.4520 0.0233 0.8917
vn 0.4888 0.0077 0.8724
vn 0.2250 0.0078 0.9743
vn 0.4859 0.0392 0.8732
vn -0.4826 -0.0389 0.8750
vn -0.4580 -0.0311 0.8884
vn -0.2250 -0.0155 0.9742
vn 0.2250 -0.0000 0.9744
vn 0.4828 0.0077 0.8757
vn -0.8048 -0.0156 -0.5934
vn -0.4583 -0.0078 -0.8888
vn -0.4831 -0.0077 -0.8756
vn -0.4830 -0.0078 -0.8756
vn -0.4615 -0.0235 -0.8868
vn -0.8015 -0.0393 -0.5967
vn -0.4827 -0.0389 -0.8749
vn -0.4581 -0.0311 -0.8884
vn -0.8006 -0.0628 -0.5960
vn -0.4583 -0.0077 0.8888
vn -0.8048 -0.0156 0.5934
vn -0.4831 -0.0078 0.8756
vn -0.4615 -0.0235 0.8869
vn -0.4831 -0.0077 0.8755
vn -0.8015 -0.0393 0.5967
vn -0.4614 -0.0235 0.8869
vn -0.8015 -0.0392 0.5967
vn -0.4827 -0.0389 0.8749
vn -0.4581 -0.0311 0.8884
vn -0.4827 -0.0390 0.8749
vn -0.8005 -0.0627 0.5960
vn -0.4582 -0.0077 -0.8888
vn -0.2250 -0.0000 -0.9744
vn -0.4829 -0.0078 -0.8756
vn 0.4825 0.0389 -0.8750
vn 0.2250 0.0156 -0.9742
vn -0.4613 -0.0235 -0.8869
vn -0.2250 -0.0078 -0.9743
vn -0.4825 -0.0389 -0.8750
vn 0.4888 0.0077 -0.8724
vn 0.2250 0.0077 -0.9743
vn 0.4859 0.0392 -0.8732
vn -0.4579 -0.0311 -0.8884
vn -0.2250 -0.0156 -0.9742
vn 0.2250 -0.0000 -0.9744
vn 0.4829 0.0078 -0.8756
vn -0.6190 -0.0078 0.7854
vn -0.6622 0.0077 0.7493
vn -0.6276 -0.0000 0.7785
vn -0.6622 0.0078 0.7493
vn -0.5452 -0.0623 0.8360
vn -0.5179 -0.0941 0.8502
vn -0.4623 -0.1567 0.8728
vn -0.4449 -0.1796 0.8774
vn -0.4512 -0.0623 0.8902
vn -0.4610 -0.0468 0.8862
vn -0.4914 0.0624 0.8687
vn -0.4977 0.0466 0.8661
vn -0.4982 -0.0077 0.8670
vn -0.4982 -0.0000 0.8671
vn -0.4737 -0.0000 0.8807
vn -0.4678 -0.0000 0.8839
vn -0.4358 0.0545 0.8984
vn -0.4293 0.0625 0.9010
vn -0.3981 0.1249 0.9088
vn -0.3914 0.1253 0.9116
vn -0.3655 0.1788 0.9135
vn -0.3498 0.2099 0.9130
vn -0.3268 0.2412 0.9138
vn -0.2732 0.2654 0.9246
vn -0.2562 0.2717 0.9276
vn -0.2562 0.2718 0.9276
vn 0.5406 -0.1645 0.8250
vn 0.5627 -0.2110 0.7993
vn 0.5453 -0.1714 0.8205
vn 0.5628 -0.2110 0.7992
vn 0.5324 -0.1018 0.8404
vn 0.5384 -0.0937 0.8375
vn 0.5452 -0.0624 0.8360
vn 0.5313 -0.0312 0.8466
vn 0.5371 -0.0156 0.8434
vn 0.5550 0.0312 0.8312
vn 0.5601 0.0467 0.8271
vn 0.5633 0.0626 0.8238
vn 0.5633 0.0626 0.8239
vn 0.5141 0.1013 0.8518
vn 0.5293 0.0934 0.8433
vn 0.5074 -0.0078 0.8617
vn 0.5075 -0.0000 0.8617
vn 0.5249 -0.1331 0.8407
vn -0.0000 -1.0000 -0.0000
vn -0.2732 0.2654 -0.9246
vn -0.2562 0.2718 -0.9276
vn -0.2563 0.2716 -0.9277
vn -0.3268 0.2412 -0.9138
vn -0.3498 0.2099 -0.9130
vn -0.3655 0.1788 -0.9135
vn -0.3981 0.1249 -0.9088
vn -0.3914 0.1253 -0.9116
vn -0.4292 0.0625 -0.9010
vn -0.4358 0.0544 -0.8984
vn -0.4737 -0.0000 -0.8807
vn -0.4676 -0.0000 -0.8839
vn -0.4982 -0.0077 -0.8670
vn -0.4982 -0.0000 -0.8670
vn -0.4976 0.0467 -0.8661
vn -0.4914 0.0624 -0.8687
vn -0.4512 -0.0623 -0.8902
vn -0.4610 -0.0468 -0.8862
vn -0.4449 -0.1796 -0.8774
vn -0.4623 -0.1567 -0.8728
vn -0.5179 -0.0942 -0.8503
vn -0.5452 -0.0622 -0.8360
vn -0.6190 -0.0078 -0.7854
vn -0.6276 -0.0000 -0.7785
vn -0.6622 0.0077 -0.7493
vn 0.5074 -0.0078 -0.8616
vn 0.5249 -0.1331 -0.8407
vn 0.5075 -0.0000 -0.8617
vn 0.5141 0.1013 -0.8518
vn 0.5293 0.0934 -0.8433
vn 0.5633 0.0626 -0.8239
vn 0.5601 0.0467 -0.8271
vn 0.5634 0.0626 -0.8238
vn 0.5551 0.0312 -0.8312
vn 0.5371 -0.0156 -0.8434
vn 0.5313 -0.0312 -0.8466
vn 0.5453 -0.0624 -0.8359
vn 0.5323 -0.1018 -0.8404
vn 0.5384 -0.0937 -0.8375
vn 0.5406 -0.1645 -0.8250
vn 0.5454 -0.1714 -0.8205
vn 0.5627 -0.2110 -0.7992
vt 0.168015 0.781506
vt 0.148117 0.847504
vt 0.148117 0.781506
vt 0.168015 0.847504
vt 0.148117 0.907540
vt 0.168015 0.907540
vt 0.024827 0.841877
vt 0.084292 0.821978
vt 0.084292 0.841877
vt 0.024827 0.821978
vt 0.179518 0.821978
vt 0.291305 0.821978
vt 0.179518 0.841877
vt 0.291305 0.841877
vt 0.136614 0.839440
vt 0.210524 0.781506
vt 0.231840 0.930192
vt 0.266974 0.847504
vt 0.291305 0.907540
vt 0.179343 0.753518
vt 0.157729 0.745496
vt 0.102728 0.737503
vt 0.024827 0.733663
vt 0.102728 0.841877
vt 0.102728 0.821978
vt 0.157729 0.841877
vt 0.157729 0.821978
vt 0.179343 0.841877
vt 0.179343 0.821978
vt 0.210524 0.841877
vt 0.210524 0.821978
vt 0.179518 0.839440
vt 0.105608 0.781506
vt 0.136789 0.753518
vt 0.158403 0.745496
vt 0.213404 0.737503
vt 0.291305 0.733663
vt 0.084292 0.930192
vt 0.049158 0.847504
vt 0.024827 0.907540
vt 0.023807 0.938103
vt 0.060977 0.851782
vt 0.060977 0.938103
vt 0.023807 0.851782
vt 0.060977 1.026320
vt 0.023807 1.026320
vt 0.078775 1.124110
vt 0.203724 1.124110
vt 0.078775 1.161280
vt 0.203724 1.161280
vt 0.303874 1.124110
vt 0.303874 1.161280
vt -0.170416 1.161280
vt -0.170416 1.124110
vt 0.006009 1.223770
vt -0.126571 1.132200
vt -0.031190 1.022510
vt 0.078499 0.954794
vt -0.118940 1.335370
vt 0.255200 1.026320
vt 0.278799 0.851782
vt 0.303874 0.938103
vt -0.157093 1.196110
vt -0.193338 1.304840
vt -0.219091 1.433610
vt 0.023807 1.433610
vt 0.060977 1.304840
vt 0.060977 1.433610
vt 0.023807 1.304840
vt 0.060977 1.196110
vt 0.023807 1.196110
vt 0.060977 1.132200
vt 0.023807 1.132200
vt 0.060977 1.022510
vt 0.023807 1.022510
vt -0.031190 1.124110
vt 0.078499 1.161280
vt -0.031190 1.161280
vt 0.078499 1.124110
vt 0.278799 1.161280
vt 0.278799 1.124110
vt 0.006285 0.954794
vt -0.170416 1.026320
vt -0.194015 0.851782
vt -0.219091 0.938103
vt 0.078775 1.223770
vt 0.115974 1.022510
vt 0.211355 1.132200
vt 0.203724 1.335370
vt 0.241877 1.196110
vt 0.278122 1.304840
vt 0.303874 1.433610
vt 0.172434 1.179610
vt 0.142407 1.097520
vt 0.172434 1.097520
vt 0.142407 1.179610
vt 0.192187 1.235160
vt 0.426380 1.235160
vt 0.192187 1.265190
vt 0.426380 1.265190
vt -0.098075 1.265190
vt -0.098075 1.235160
vt 0.224120 1.120450
vt 0.412916 1.179610
vt 0.122653 1.309000
vt 0.426380 1.097520
vt 0.087124 1.159200
vt 0.024058 1.186420
vt -0.002717 1.213090
vt -0.052363 1.289490
vt -0.111540 1.402830
vt 0.142407 1.402830
vt 0.172434 1.289490
vt 0.172434 1.402830
vt 0.142407 1.289490
vt 0.172434 1.213090
vt 0.142407 1.213090
vt -0.002717 1.235160
vt 0.024058 1.265190
vt -0.002717 1.265190
vt 0.024058 1.235160
vt 0.087124 1.265190
vt 0.087124 1.235160
vt 0.224120 1.265190
vt 0.224120 1.235160
vt 0.227716 1.159200
vt 0.192187 1.309000
vt 0.090720 1.120450
vt 0.290783 1.186420
vt 0.317558 1.213090
vt 0.367204 1.289490
vt 0.426380 1.402830
vt -0.098075 1.179610
vt -0.111540 1.097520
vt -0.309572 1.036440
vt -0.255871 1.013810
vt -0.255871 1.036440
vt -0.309572 1.013810
vt -0.110745 1.013810
vt 0.059268 1.013810
vt -0.110745 1.036440
vt 0.059268 1.036440
vt -0.139559 1.054620
vt -0.086676 0.957628
vt 0.005567 1.108340
vt 0.005035 1.002650
vt 0.059268 1.056190
vt -0.133392 0.941905
vt -0.160478 0.943299
vt -0.223622 0.960266
vt -0.309572 0.992381
vt -0.223622 1.036440
vt -0.223622 1.013810
vt -0.160478 1.036440
vt -0.160478 1.013810
vt -0.133392 1.013810
vt -0.133392 1.036440
vt -0.086676 1.013810
vt -0.086676 1.036440
vt 0.005035 1.036440
vt 0.005035 1.013810
vt -0.089826 0.943299
vt -0.026682 0.960266
vt -0.110745 1.054620
vt 0.059268 0.992381
vt -0.116912 0.941905
vt -0.163628 0.957628
vt -0.255871 1.108340
vt -0.255339 1.002650
vt -0.309572 1.056190
vt -0.157405 1.040100
vt -0.176344 1.069950
vt -0.176344 1.040100
vt -0.157405 1.069950
vt -0.176344 1.135230
vt -0.157405 1.135230
vt -0.157405 1.186530
vt -0.176344 1.186530
vt -0.238495 1.073450
vt -0.188118 1.092390
vt -0.238495 1.092390
vt -0.188118 1.073450
vt -0.116776 1.069950
vt -0.095132 1.135230
vt -0.145631 1.185340
vt -0.095254 1.186530
vt -0.188301 1.090310
vt -0.131265 1.040100
vt -0.144712 1.027750
vt -0.182649 1.005430
vt -0.238618 0.979311
vt -0.157405 1.185340
vt -0.176344 1.185340
vt -0.176344 1.090310
vt -0.157405 1.090310
vt -0.176344 0.979311
vt -0.157405 0.979311
vt -0.238618 1.073450
vt -0.182649 1.092390
vt -0.238618 1.092390
vt -0.182649 1.073450
vt -0.144712 1.092390
vt -0.144712 1.073450
vt -0.131265 1.092390
vt -0.131265 1.073450
vt -0.216973 1.069950
vt -0.145448 1.090310
vt -0.188118 1.185340
vt -0.238618 1.135230
vt -0.238495 1.186530
vt -0.202484 1.040100
vt -0.189037 1.027750
vt -0.151101 1.005430
vt -0.095132 0.979311
vt -0.218105 1.160400
vt -0.244227 1.062760
vt -0.218105 1.062760
vt -0.244227 1.160400
vt -0.231021 1.100210
vt 0.020266 1.100210
vt -0.231021 1.126330
vt 0.020266 1.126330
vt -0.445873 1.126330
vt -0.445873 1.100210
vt -0.222247 1.025180
vt -0.079895 1.027480
vt -0.231311 1.178860
vt -0.290477 1.033100
vt -0.323793 1.050950
vt -0.393318 1.109830
vt -0.482598 1.201360
vt -0.016460 1.160400
vt 0.020266 1.062760
vt -0.244227 1.201360
vt -0.218105 1.109830
vt -0.218105 1.201360
vt -0.244227 1.109830
vt -0.393318 1.100210
vt -0.323793 1.126330
vt -0.393318 1.126330
vt -0.323793 1.100210
vt -0.290477 1.126330
vt -0.290477 1.100210
vt -0.222247 1.126330
vt -0.222247 1.100210
vt -0.079895 1.126330
vt -0.079895 1.100210
vt -0.231021 1.178860
vt -0.382437 1.027480
vt -0.240085 1.025180
vt -0.171856 1.033100
vt -0.138539 1.050950
vt -0.069014 1.109830
vt 0.020266 1.201360
vt -0.445873 1.160400
vt -0.482598 1.062760
vt 0.040009 0.320899
vt -0.061870 0.447477
vt -0.104113 0.408574
vt 0.040009 0.378326
vt -0.108525 0.500662
vt -0.158971 0.473221
vt -0.206206 0.602683
vt -0.156215 0.612735
vt -0.218772 0.741161
vt -0.168138 0.735141
vt -0.220643 0.777924
vt -0.177959 0.805821
vt -0.259193 0.916952
vt -0.280724 0.903178
vt -0.345334 0.987936
vt -0.019628 0.486380
vt 0.040009 0.435753
vt -0.058078 0.528102
vt -0.106224 0.622787
vt -0.117503 0.729120
vt -0.135276 0.833717
vt -0.237661 0.930725
vt -0.345334 0.320899
vt -0.243454 0.447477
vt -0.345334 0.378326
vt -0.201212 0.408574
vt -0.196800 0.500662
vt -0.146354 0.473221
vt -0.099119 0.602683
vt -0.149110 0.612735
vt -0.086552 0.741161
vt -0.137187 0.735141
vt -0.084682 0.777924
vt -0.127365 0.805821
vt -0.046132 0.916952
vt -0.024601 0.903178
vt 0.040010 0.987936
vt -0.247247 0.528102
vt -0.285697 0.486380
vt -0.345334 0.435753
vt -0.199100 0.622787
vt -0.187822 0.729120
vt -0.170049 0.833717
vt -0.067663 0.930725
vt 0.153648 1.138710
vt 0.133749 1.204710
vt 0.133749 1.138710
vt 0.153648 1.204710
vt 0.133749 1.264740
vt 0.153648 1.264740
vt 0.010460 1.199080
vt 0.069925 1.179180
vt 0.069925 1.199080
vt 0.010460 1.179180
vt 0.165151 1.179180
vt 0.276937 1.179180
vt 0.165151 1.199080
vt 0.276937 1.199080
vt 0.122246 1.196640
vt 0.196157 1.138710
vt 0.217473 1.287390
vt 0.252607 1.204710
vt 0.276937 1.264740
vt 0.164975 1.110720
vt 0.143362 1.102700
vt 0.088360 1.094710
vt 0.010460 1.090870
vt 0.088360 1.199080
vt 0.088360 1.179180
vt 0.143362 1.199080
vt 0.143362 1.179180
vt 0.164975 1.199080
vt 0.164975 1.179180
vt 0.196157 1.199080
vt 0.196157 1.179180
vt 0.165151 1.196640
vt 0.091240 1.138710
vt 0.122422 1.110720
vt 0.144035 1.102700
vt 0.199037 1.094710
vt 0.276937 1.090870
vt 0.069925 1.287390
vt 0.034790 1.204710
vt 0.010460 1.264740
vt -0.192963 0.422371
vt -0.155793 0.336050
vt -0.155793 0.422371
vt -0.192963 0.336050
vt -0.155794 0.510584
vt -0.192963 0.510584
vt -0.137996 0.608378
vt -0.013046 0.608378
vt -0.137996 0.645548
vt -0.013046 0.645548
vt 0.087104 0.608378
vt 0.087104 0.645548
vt -0.387187 0.645548
vt -0.387187 0.608378
vt -0.210761 0.708037
vt -0.343341 0.616471
vt -0.247960 0.506782
vt -0.138272 0.439062
vt -0.335711 0.819633
vt 0.038430 0.510584
vt 0.062029 0.336050
vt 0.087104 0.422371
vt -0.373863 0.680376
vt -0.410108 0.789111
vt -0.435861 0.917875
vt -0.192963 0.917875
vt -0.155794 0.789111
vt -0.155793 0.917875
vt -0.192963 0.789111
vt -0.155794 0.680376
vt -0.192963 0.680376
vt -0.155794 0.616471
vt -0.192963 0.616471
vt -0.155794 0.506782
vt -0.192963 0.506782
vt -0.247960 0.608378
vt -0.138272 0.645548
vt -0.247960 0.645548
vt -0.138272 0.608378
vt 0.062029 0.645547
vt 0.062029 0.608378
vt -0.210485 0.439062
vt -0.387187 0.510584
vt -0.410786 0.336050
vt -0.435861 0.422371
vt -0.137996 0.708037
vt -0.100797 0.506782
vt -0.005416 0.616471
vt -0.013046 0.819633
vt 0.025106 0.680376
vt 0.061351 0.789111
vt 0.087104 0.917875
vt 0.449090 1.069710
vt 0.419063 0.987618
vt 0.449090 0.987618
vt 0.419063 1.069710
vt 0.468844 1.125260
vt 0.703037 1.125260
vt 0.468844 1.155280
vt 0.703037 1.155280
vt 0.178581 1.155280
vt 0.178581 1.125260
vt 0.500777 1.010550
vt 0.689572 1.069710
vt 0.399310 1.199090
vt 0.703037 0.987618
vt 0.363781 1.049300
vt 0.300714 1.076510
vt 0.273939 1.103180
vt 0.224293 1.179580
vt 0.165117 1.292920
vt 0.419063 1.292920
vt 0.449090 1.179580
vt 0.449090 1.292920
vt 0.419063 1.179580
vt 0.449090 1.103180
vt 0.419063 1.103180
vt 0.273939 1.125260
vt 0.300714 1.155280
vt 0.273939 1.155280
vt 0.300714 1.125260
vt 0.363781 1.155280
vt 0.363781 1.125260
vt 0.500777 1.155280
vt 0.500777 1.125260
vt 0.504373 1.049300
vt 0.468844 1.199090
vt 0.367377 1.010550
vt 0.567439 1.076510
vt 0.594214 1.103180
vt 0.643860 1.179580
vt 0.703037 1.292920
vt 0.178581 1.069710
vt 0.165117 0.987618
vt -0.424615 0.841111
vt -0.370914 0.818479
vt -0.370914 0.841111
vt -0.424615 0.818479
vt -0.225787 0.818479
vt -0.055774 0.818479
vt -0.225787 0.841111
vt -0.055774 0.841111
vt -0.254602 0.859295
vt -0.201718 0.762298
vt -0.109475 0.913015
vt -0.110008 0.807325
vt -0.055774 0.860861
vt -0.248435 0.746575
vt -0.275520 0.747970
vt -0.338665 0.764937
vt -0.424615 0.797051
vt -0.338665 0.841111
vt -0.338665 0.818479
vt -0.275520 0.841111
vt -0.275520 0.818479
vt -0.248435 0.818479
vt -0.248435 0.841111
vt -0.201718 0.818479
vt -0.201718 0.841111
vt -0.110008 0.841111
vt -0.110008 0.818479
vt -0.204869 0.747970
vt -0.141725 0.764937
vt -0.225787 0.859295
vt -0.055774 0.797051
vt -0.231954 0.746575
vt -0.278671 0.762298
vt -0.370914 0.913015
vt -0.370382 0.807325
vt -0.424615 0.860861
vt 0.028329 0.890544
vt 0.009390 0.920394
vt 0.009390 0.890544
vt 0.028329 0.920394
vt 0.009390 0.985675
vt 0.028329 0.985675
vt 0.028329 1.036970
vt 0.009390 1.036970
vt -0.052761 0.923896
vt -0.002383 0.942835
vt -0.052761 0.942835
vt -0.002383 0.923896
vt 0.068959 0.920394
vt 0.090603 0.985675
vt 0.040103 1.035790
vt 0.090480 1.036970
vt -0.002567 0.940760
vt 0.054469 0.890544
vt 0.041022 0.878196
vt 0.003086 0.855879
vt -0.052883 0.829757
vt 0.028329 1.035790
vt 0.009390 1.035790
vt 0.009390 0.940760
vt 0.028329 0.940760
vt 0.009390 0.829757
vt 0.028329 0.829757
vt -0.052883 0.923896
vt 0.003086 0.942835
vt -0.052883 0.942835
vt 0.003086 0.923896
vt 0.041022 0.942835
vt 0.041022 0.923896
vt 0.054469 0.942835
vt 0.054469 0.923896
vt -0.031239 0.920394
vt 0.040286 0.940760
vt -0.002383 1.035790
vt -0.052883 0.985675
vt -0.052761 1.036970
vt -0.016750 0.890544
vt -0.003302 0.878196
vt 0.034634 0.855879
vt 0.090603 0.829757
vt -0.305285 1.237190
vt -0.331407 1.139550
vt -0.305285 1.139550
vt -0.331407 1.237190
vt -0.318201 1.177000
vt -0.066914 1.177000
vt -0.318201 1.203120
vt -0.066914 1.203120
vt -0.533053 1.203120
vt -0.533053 1.177000
vt -0.309427 1.101970
vt -0.167075 1.104270
vt -0.318491 1.255650
vt -0.377657 1.109890
vt -0.410973 1.127740
vt -0.480498 1.186620
vt -0.569778 1.278150
vt -0.103640 1.237190
vt -0.066914 1.139550
vt -0.331407 1.278150
vt -0.305285 1.186620
vt -0.305285 1.278150
vt -0.331407 1.186620
vt -0.480498 1.177000
vt -0.410973 1.203120
vt -0.480498 1.203120
vt -0.410973 1.177000
vt -0.377657 1.203120
vt -0.377657 1.177000
vt -0.309427 1.203120
vt -0.309427 1.177000
vt -0.167075 1.203120
vt -0.167075 1.177000
vt -0.318201 1.255650
vt -0.469617 1.104270
vt -0.327265 1.101970
vt -0.259036 1.109890
vt -0.225720 1.127740
vt -0.156194 1.186620
vt -0.066914 1.278150
vt -0.533053 1.237190
vt -0.569778 1.139550
vt -0.178675 0.920588
vt -0.280554 1.047170
vt -0.322797 1.008260
vt -0.178675 0.978015
vt -0.327209 1.100350
vt -0.377655 1.072910
vt -0.424890 1.202370
vt -0.374899 1.212420
vt -0.437457 1.340850
vt -0.386822 1.334830
vt -0.439327 1.377610
vt -0.396643 1.405510
vt -0.477877 1.516640
vt -0.499408 1.502870
vt -0.564018 1.587630
vt -0.238312 1.086070
vt -0.178675 1.035440
vt -0.276762 1.127790
vt -0.324909 1.222480
vt -0.336187 1.328810
vt -0.353960 1.433410
vt -0.456346 1.530420
vt -0.564018 0.920588
vt -0.462139 1.047170
vt -0.564018 0.978015
vt -0.419896 1.008260
vt -0.415484 1.100350
vt -0.365038 1.072910
vt -0.317803 1.202370
vt -0.367794 1.212420
vt -0.305236 1.340850
vt -0.355871 1.334830
vt -0.303366 1.377610
vt -0.346050 1.405510
vt -0.264816 1.516640
vt -0.243285 1.502870
vt -0.178675 1.587630
vt -0.465931 1.127790
vt -0.504381 1.086070
vt -0.564018 1.035440
vt -0.417784 1.222480
vt -0.406506 1.328810
vt -0.388733 1.433410
vt -0.286347 1.530420
vt 0.395981 0.544688
vt 0.395981 0.701199
vt 0.369738 0.546359
vt 0.395981 0.857709
vt 0.395981 1.002110
vt 0.369738 0.858545
vt 0.395981 1.146510
vt 0.369738 1.146510
vt 0.343495 0.701199
vt 0.343495 0.544688
vt 0.343495 1.002110
vt 0.343495 0.857709
vt 0.343495 1.146510
vt 0.319158 0.866119
vt 0.280498 0.839876
vt 0.300060 0.839876
vt 0.305326 0.873992
vt 0.365266 0.876989
vt 0.365266 0.888123
vt 0.450034 0.839876
vt 0.411374 0.813633
vt 0.425206 0.805760
vt 0.365266 0.802763
vt 0.365266 0.791629
vt 0.430472 0.839876
vt 0.411374 0.866119
vt 0.425206 0.873992
vt 0.345953 1.146510
vt 0.299669 1.146510
vt 0.301777 1.000090
vt 0.420318 0.544688
vt 0.408298 0.701199
vt 0.374210 0.540654
vt 0.303886 0.853675
vt 0.350082 0.855692
vt 0.315994 0.695148
vt 0.396277 0.857709
vt 0.394257 1.002110
vt 0.328102 0.536620
vt 0.392237 1.146510
vt 0.343495 1.000090
vt 0.343495 0.853675
vt 0.369738 0.852840
vt 0.343495 0.695148
vt 0.343495 0.536620
vt 0.369738 0.534949
vt 0.395981 1.000090
vt 0.395981 0.853675
vt 0.395981 0.695148
vt 0.395981 0.536620
vt 0.439807 1.146510
vt 0.393523 1.146510
vt 0.437698 1.000090
vt 0.331178 0.701199
vt 0.319158 0.544688
vt 0.365266 0.540654
vt 0.435590 0.853675
vt 0.389394 0.855692
vt 0.423482 0.695148
vt 0.345219 1.002110
vt 0.343198 0.857709
vt 0.411374 0.536620
vt 0.347239 1.146510
vt 0.670911 -1.071080
vt 0.671193 -1.255920
vt 0.716213 -1.084490
vt 0.711774 -1.255920
vt 0.720167 -0.949461
vt 0.658354 -0.922479
vt 0.703562 -0.841814
vt 0.617438 -0.826529
vt 0.652168 -0.731078
vt 0.573253 -0.731078
vt 0.594224 -0.674186
vt 0.657007 -0.658021
vt 0.600226 -0.432166
vt 0.667123 -0.436611
vt 0.650560 -0.115053
vt 0.582498 -0.110073
vt 0.602484 0.303949
vt 0.685184 0.314000
vt 0.678397 0.656557
vt 0.758767 0.636730
vt 0.819272 0.765131
vt 0.769171 0.878354
vt 0.879776 0.893531
vt 0.925170 1.072420
vt 1.006130 1.018960
vt 1.143170 1.271460
vt 0.666128 -1.275900
vt 0.685190 -1.407030
vt 0.748359 -1.301130
vt 0.748359 -1.433270
vt 0.811528 -1.407030
vt 0.830590 -1.275900
vt 0.960073 0.748611
vt 0.907873 0.781033
vt 0.810002 0.392510
vt 0.867899 0.370555
vt 0.837626 0.150266
vt 0.753670 -0.091182
vt 0.808087 -0.224494
vt 0.753257 -0.354188
vt 0.827575 -0.607323
vt 0.788343 -0.743772
vt 0.860162 -0.873405
vt 0.804245 -0.867479
vt 0.823867 -1.003210
vt 0.903887 -0.998404
vt 0.822141 -1.255920
vt 0.779391 -1.255920
vt 0.748359 -1.601190
vt 0.781092 -1.497270
vt 0.715626 -1.497270
vt 0.690167 -1.528450
vt 0.806551 -1.528450
vt 0.666127 -1.275900
vt 0.671193 -0.164863
vt 0.779391 -0.203310
vt 0.822141 -0.164863
vt 0.711774 -0.203310
vt 0.779391 -0.126416
vt 0.711774 -0.126416
vt 0.791251 1.072420
vt 0.573253 1.271460
vt 0.710295 1.018960
vt 0.836645 0.893531
vt 0.947250 0.878354
vt 0.897149 0.765131
vt 1.038020 0.656557
vt 0.957654 0.636730
vt 1.031240 0.314000
vt 1.113940 0.303949
vt 1.065860 -0.115053
vt 1.133920 -0.110073
vt 1.116190 -0.432166
vt 1.049300 -0.436611
vt 1.059410 -0.658021
vt 1.122200 -0.674186
vt 1.064250 -0.731078
vt 1.143170 -0.731078
vt 1.098980 -0.826529
vt 1.012860 -0.841814
vt 1.058070 -0.922479
vt 0.996255 -0.949461
vt 1.045510 -1.071080
vt 1.000210 -1.084490
vt 1.045230 -1.255920
vt 1.004650 -1.255920
vt 0.885831 -1.275900
vt 0.904893 -1.407030
vt 0.968063 -1.301130
vt 0.968063 -1.433270
vt 1.031230 -1.407030
vt 1.050290 -1.275900
vt 0.892554 -1.003210
vt 0.894280 -1.255920
vt 0.937030 -1.255920
vt 0.812535 -0.998404
vt 0.856259 -0.873405
vt 0.912177 -0.867479
vt 0.928078 -0.743772
vt 0.888846 -0.607323
vt 0.963164 -0.354188
vt 0.908334 -0.224494
vt 0.962751 -0.091182
vt 0.878795 0.150266
vt 0.906419 0.392510
vt 0.848523 0.370555
vt 0.756349 0.748611
vt 0.808548 0.781033
vt 0.935330 -1.497270
vt 0.909871 -1.528450
vt 0.968063 -1.601190
vt 1.000800 -1.497270
vt 1.026250 -1.528450
s 1
usemtl Meshpart1Mtl.006
f 1/1/1 2/2/2 3/3/1
f 2/2/2 1/1/1 4/4/3
f 4/4/3 5/5/4 2/2/2
f 5/5/4 4/4/3 6/6/5
f 7/7/6 8/8/6 9/9/6
f 8/8/6 7/7/6 10/10/6
f 11/11/7 12/12/8 13/13/7
f 14/14/8 13/13/7 12/12/8
f 15/9/7 16/11/7 17/13/7
f 16/11/7 15/9/7 18/8/7
f 19/15/9 20/16/9 21/17/9
f 21/17/9 20/16/9 22/18/9
f 23/19/9 21/17/9 22/18/9
f 20/16/9 19/15/9 24/20/9
f 19/15/9 25/21/9 24/20/9
f 25/21/9 19/15/9 26/22/9
f 26/22/9 19/15/9 27/23/9
f 28/10/10 29/24/11 30/7/12
f 29/24/11 28/10/10 31/25/11
f 31/25/11 32/26/13 29/24/11
f 32/26/13 31/25/11 33/27/13
f 34/27/14 35/28/15 36/26/14
f 35/28/15 34/27/14 37/29/15
f 37/29/15 38/30/1 35/28/15
f 38/30/1 37/29/15 39/31/1
f 40/32/16 41/33/16 42/34/16
f 40/32/16 42/34/16 43/35/16
f 40/32/16 43/35/16 44/36/16
f 44/36/16 45/37/16 40/32/16
f 41/33/16 40/32/16 46/38/16
f 41/33/16 46/38/16 47/39/16
f 47/39/16 46/38/16 48/40/16
f 49/41/17 50/42/17 51/43/17
f 50/42/17 49/41/17 52/44/17
f 55/41/18 54/45/19 53/46/20
f 54/45/19 55/41/18 56/43/21
f 57/47/22 58/48/23 59/49/22
f 60/50/23 59/49/22 58/48/23
f 60/50/23 58/48/23 61/51/24
f 62/52/24 60/50/23 61/51/24
f 63/53/25 57/47/22 59/49/22
f 57/47/22 63/53/25 64/54/25
f 65/55/9 66/56/9 67/57/9
f 65/55/9 67/57/9 68/58/9
f 69/59/9 66/56/9 65/55/9
f 68/58/9 70/60/9 65/55/9
f 71/61/9 70/60/9 68/58/9
f 70/60/9 71/61/9 72/62/9
f 66/56/9 69/59/9 73/63/9
f 73/63/9 69/59/9 74/64/9
f 74/64/9 69/59/9 75/65/9
f 76/66/26 77/67/27 78/68/26
f 77/67/27 76/66/26 79/69/27
f 79/69/27 80/70/28 77/67/27
f 80/70/28 79/69/27 81/71/28
f 81/71/28 82/72/29 80/70/28
f 82/72/29 81/71/28 83/73/29
f 83/73/29 84/74/30 82/72/29
f 84/74/30 83/73/29 85/75/30
f 87/76/31 88/77/32 86/78/31
f 88/77/32 87/76/31 89/79/32
f 89/79/32 90/80/33 88/77/32
f 90/80/33 89/79/32 91/81/34
f 92/82/16 93/83/16 94/84/16
f 94/84/16 93/83/16 95/85/16
f 93/83/16 92/82/16 96/86/16
f 97/87/16 96/86/16 92/82/16
f 96/86/16 97/87/16 98/88/16
f 98/88/16 99/89/16 96/86/16
f 99/89/16 98/88/16 100/90/16
f 99/89/16 100/90/16 101/91/16
f 101/91/16 102/92/16 99/89/16
f 103/93/35 104/94/35 105/95/35
f 104/94/35 103/93/35 106/96/35
f 107/97/36 108/98/37 109/99/38
f 110/100/37 109/99/38 108/98/37
f 111/101/39 107/97/36 109/99/38
f 107/97/36 111/101/39 112/102/39
f 113/103/9 114/104/9 115/105/9
f 114/104/9 113/103/9 116/106/9
f 115/105/9 117/107/9 113/103/9
f 115/105/9 118/108/9 117/107/9
f 118/108/9 115/105/9 119/109/9
f 119/109/9 115/105/9 120/110/9
f 120/110/9 115/105/9 121/111/9
f 122/112/40 123/113/41 124/114/40
f 123/113/41 122/112/40 125/115/42
f 125/115/42 126/116/43 123/113/41
f 126/116/43 125/115/42 127/117/43
f 129/118/44 130/119/45 128/120/44
f 130/119/45 129/118/44 131/121/45
f 131/121/45 132/122/46 130/119/45
f 132/122/46 131/121/45 133/123/46
f 133/123/46 134/124/47 132/122/46
f 134/124/47 133/123/46 135/125/47
f 135/125/47 136/100/48 134/124/47
f 136/100/48 135/125/47 137/98/49
f 138/126/16 139/127/16 140/128/16
f 141/129/16 139/127/16 138/126/16
f 139/127/16 141/129/16 142/130/16
f 139/127/16 142/130/16 143/131/16
f 139/127/16 143/131/16 144/132/16
f 140/128/16 139/127/16 145/133/16
f 140/128/16 145/133/16 146/134/16
f 147/135/50 148/136/51 149/137/50
f 148/136/51 147/135/50 150/138/50
f 151/139/52 152/140/53 153/141/52
f 154/142/53 153/141/52 152/140/53
f 155/137/54 151/139/52 153/141/52
f 151/139/52 155/137/54 156/136/54
f 157/143/9 158/144/9 159/145/9
f 159/145/9 158/144/9 160/146/9
f 160/146/9 161/147/9 159/145/9
f 158/144/9 157/143/9 162/148/9
f 157/143/9 163/149/9 162/148/9
f 163/149/9 157/143/9 164/150/9
f 164/150/9 157/143/9 165/151/9
f 166/138/55 167/152/56 168/135/55
f 167/152/56 166/138/55 169/153/57
f 169/153/57 170/154/58 167/152/56
f 170/154/58 169/153/57 171/155/59
f 172/156/60 170/154/58 171/155/59
f 170/154/58 172/156/60 173/157/60
f 174/158/61 173/157/60 172/156/60
f 173/157/60 174/158/61 175/159/61
f 176/158/61 177/160/62 178/159/61
f 177/160/62 176/158/61 179/161/63
f 179/161/63 180/142/64 177/160/62
f 180/142/64 179/161/63 181/140/64
f 182/162/16 183/163/16 184/164/16
f 185/165/16 184/164/16 183/163/16
f 184/164/16 186/166/16 182/162/16
f 184/164/16 187/167/16 186/166/16
f 188/168/16 187/167/16 184/164/16
f 187/167/16 188/168/16 189/169/16
f 189/169/16 188/168/16 190/170/16
f 192/171/65 193/172/66 191/173/65
f 193/172/66 192/171/65 194/174/66
f 194/174/66 195/175/67 193/172/66
f 195/175/67 194/174/66 196/176/67
f 197/177/68 195/175/67 196/176/67
f 197/177/68 198/178/68 195/175/67
f 199/179/69 200/180/69 201/181/69
f 200/180/69 199/179/69 202/182/69
f 203/183/9 204/184/9 205/185/9
f 206/186/9 205/185/9 204/184/9
f 207/187/9 203/183/9 205/185/9
f 203/183/9 207/187/9 208/188/9
f 207/187/9 209/189/9 208/188/9
f 209/189/9 207/187/9 210/190/9
f 210/190/9 207/187/9 211/191/9
f 212/192/70 213/193/71 214/194/70
f 212/192/70 214/194/70 215/195/71
f 216/194/70 217/196/70 218/195/70
f 218/195/70 217/196/70 219/197/70
f 220/198/72 221/199/73 222/200/74
f 221/199/73 220/198/72 223/201/73
f 223/201/73 224/202/75 221/199/73
f 224/202/75 223/201/73 225/203/76
f 225/203/76 226/204/77 224/202/75
f 226/204/77 225/203/76 227/205/78
f 228/206/16 229/207/16 230/208/16
f 228/206/16 230/208/16 231/209/16
f 231/209/16 230/208/16 232/210/16
f 229/207/16 228/206/16 233/211/16
f 234/212/16 229/207/16 233/211/16
f 229/207/16 234/212/16 235/213/16
f 229/207/16 235/213/16 236/214/16
f 237/215/79 238/216/79 239/217/79
f 238/216/79 237/215/79 240/218/79
f 241/219/80 242/220/81 243/221/82
f 244/222/81 243/221/82 242/220/81
f 245/223/83 241/219/80 243/221/82
f 241/219/80 245/223/83 246/224/83
f 247/225/9 248/226/9 249/227/9
f 249/227/9 250/228/9 247/225/9
f 250/228/9 249/227/9 251/229/9
f 251/229/9 249/227/9 252/230/9
f 252/230/9 249/227/9 253/231/9
f 248/226/9 254/232/9 249/227/9
f 254/232/9 248/226/9 255/233/9
f 256/234/84 257/235/85 258/236/84
f 257/235/85 256/234/84 259/237/85
f 261/238/86 262/239/87 260/240/86
f 262/239/87 261/238/86 263/241/88
f 263/241/88 264/242/89 262/239/87
f 264/242/89 263/241/88 265/243/57
f 265/243/57 266/244/90 264/242/89
f 266/244/90 265/243/57 267/245/90
f 268/245/90 269/246/91 266/244/90
f 269/246/91 268/245/90 270/247/91
f 270/247/91 271/222/92 269/246/91
f 271/222/92 270/247/91 272/220/93
f 273/248/16 274/249/16 275/250/16
f 276/251/16 273/248/16 275/250/16
f 273/248/16 276/251/16 277/252/16
f 273/248/16 277/252/16 278/253/16
f 278/253/16 279/254/16 273/248/16
f 274/249/16 273/248/16 280/255/16
f 274/249/16 280/255/16 281/256/16
f 282/257/94 283/258/95 284/259/96
f 283/258/95 282/257/94 285/260/94
f 284/259/96 283/258/95 286/261/97
f 286/261/97 287/262/98 284/259/96
f 286/261/97 288/263/99 287/262/98
f 288/263/99 286/261/97 289/264/100
f 289/264/100 290/265/101 288/263/99
f 290/265/101 289/264/100 291/266/102
f 291/266/102 292/267/103 290/265/101
f 292/267/103 291/266/102 293/268/104
f 292/267/103 293/268/104 294/269/105
f 295/270/106 292/267/103 294/269/105
f 295/270/106 294/269/105 296/271/107
f 297/258/108 298/260/109 299/272/110
f 298/260/109 300/273/109 299/272/110
f 297/258/108 299/272/110 301/274/111
f 301/274/111 302/261/112 297/258/108
f 301/274/111 303/264/113 302/261/112
f 303/264/113 301/274/111 304/275/114
f 305/275/115 306/266/116 303/264/117
f 306/266/116 305/275/115 307/276/118
f 307/276/118 308/268/119 306/266/116
f 308/268/119 307/276/118 309/277/120
f 308/268/119 309/277/120 310/278/121
f 311/269/122 308/268/119 310/278/121
f 311/269/122 310/278/121 312/271/123
f 313/279/124 314/280/125 315/281/126
f 314/280/125 313/279/124 316/282/127
f 316/282/127 317/283/128 314/280/125
f 317/283/128 316/282/127 318/284/129
f 319/285/130 317/283/128 318/284/129
f 319/285/130 320/286/131 317/283/128
f 321/287/132 320/286/131 319/285/130
f 321/287/132 322/288/133 320/286/131
f 323/289/134 322/288/133 321/287/132
f 323/289/134 324/290/135 322/288/133
f 323/289/134 325/291/136 324/290/135
f 325/291/136 323/289/134 326/292/137
f 325/291/136 326/292/137 327/293/138
f 328/280/139 329/294/140 330/295/141
f 330/295/141 331/281/142 328/280/139
f 332/296/142 331/281/142 330/295/141
f 329/294/140 328/280/139 333/283/143
f 334/286/144 329/294/140 333/283/143
f 334/286/144 335/297/145 329/294/140
f 336/288/146 337/297/147 334/286/148
f 336/288/146 338/298/149 337/297/147
f 339/290/150 338/298/149 336/288/146
f 339/290/150 340/299/151 338/298/149
f 339/290/150 341/300/152 340/299/151
f 341/300/152 339/290/150 342/291/153
f 341/300/152 342/291/153 343/293/154
f 344/301/84 345/302/155 346/303/84
f 345/302/155 344/301/84 347/304/42
f 347/304/42 348/305/156 345/302/155
f 348/305/156 347/304/42 349/306/156
f 350/307/157 351/308/157 352/309/157
f 351/308/157 350/307/157 353/310/157
f 354/311/158 355/312/159 356/313/158
f 357/314/159 356/313/158 355/312/159
f 358/309/158 359/311/158 360/313/158
f 359/311/158 358/309/158 361/308/158
f 362/315/16 363/316/16 364/317/16
f 364/317/16 363/316/16 365/318/16
f 366/319/16 364/317/16 365/318/16
f 363/316/16 362/315/16 367/320/16
f 362/315/16 368/321/16 367/320/16
f 368/321/16 362/315/16 369/322/16
f 369/322/16 362/315/16 370/323/16
f 371/310/160 372/324/161 373/307/162
f 372/324/161 371/310/160 374/325/163
f 374/325/163 375/326/164 372/324/161
f 375/326/164 374/325/163 376/327/164
f 377/327/164 378/328/165 379/326/164
f 378/328/165 377/327/164 380/329/166
f 380/329/166 381/330/84 378/328/165
f 381/330/84 380/329/166 382/331/84
f 383/332/9 384/333/9 385/334/9
f 383/332/9 385/334/9 386/335/9
f 383/332/9 386/335/9 387/336/9
f 387/336/9 388/337/9 383/332/9
f 384/333/9 383/332/9 389/338/9
f 384/333/9 389/338/9 390/339/9
f 390/339/9 389/338/9 391/340/9
f 392/341/167 393/342/168 394/343/167
f 393/342/168 392/341/167 395/344/167
f 398/341/169 397/345/170 396/346/171
f 397/345/170 398/341/169 399/343/169
f 400/347/172 401/348/173 402/349/172
f 403/350/173 402/349/172 401/348/173
f 403/350/173 401/348/173 404/351/174
f 405/352/174 403/350/173 404/351/174
f 406/353/175 400/347/172 402/349/172
f 400/347/172 406/353/175 407/354/175
f 408/355/16 409/356/16 410/357/16
f 408/355/16 410/357/16 411/358/16
f 412/359/16 409/356/16 408/355/16
f 411/358/16 413/360/16 408/355/16
f 414/361/16 413/360/16 411/358/16
f 413/360/16 414/361/16 415/362/16
f 409/356/16 412/359/16 416/363/16
f 416/363/16 412/359/16 417/364/16
f 417/364/16 412/359/16 418/365/16
f 419/366/176 420/367/177 421/368/176
f 420/367/177 419/366/176 422/369/177
f 422/369/177 423/370/178 420/367/177
f 423/370/178 422/369/177 424/371/178
f 424/371/178 425/372/179 423/370/178
f 425/372/179 424/371/178 426/373/179
f 426/373/179 427/374/180 425/372/179
f 427/374/180 426/373/179 428/375/180
f 430/376/181 431/377/182 429/378/181
f 431/377/182 430/376/181 432/379/183
f 432/379/183 433/380/184 431/377/182
f 433/380/184 432/379/183 434/381/184
f 435/382/9 436/383/9 437/384/9
f 437/384/9 436/383/9 438/385/9
f 436/383/9 435/382/9 439/386/9
f 440/387/9 439/386/9 435/382/9
f 439/386/9 440/387/9 441/388/9
f 441/388/9 442/389/9 439/386/9
f 442/389/9 441/388/9 443/390/9
f 442/389/9 443/390/9 444/391/9
f 444/391/9 445/392/9 442/389/9
f 446/393/185 447/394/185 448/395/185
f 447/394/185 446/393/185 449/396/185
f 450/397/186 451/398/187 452/399/186
f 453/400/188 452/399/186 451/398/187
f 454/401/189 450/397/186 452/399/186
f 450/397/186 454/401/189 455/402/189
f 456/403/16 457/404/16 458/405/16
f 457/404/16 456/403/16 459/406/16
f 458/405/16 460/407/16 456/403/16
f 458/405/16 461/408/16 460/407/16
f 461/408/16 458/405/16 462/409/16
f 462/409/16 458/405/16 463/410/16
f 463/410/16 458/405/16 464/411/16
f 465/412/190 466/413/191 467/414/190
f 466/413/191 465/412/190 468/415/3
f 468/415/3 469/416/192 466/413/191
f 469/416/192 468/415/3 470/417/192
f 472/418/193 473/419/194 471/420/193
f 473/419/194 472/418/193 474/421/194
f 474/421/194 475/422/195 473/419/194
f 475/422/195 474/421/194 476/423/195
f 476/423/195 477/424/196 475/422/195
f 477/424/196 476/423/195 478/425/196
f 478/425/196 479/400/197 477/424/196
f 479/400/197 478/425/196 480/398/198
f 481/426/9 482/427/9 483/428/9
f 484/429/9 482/427/9 481/426/9
f 482/427/9 484/429/9 485/430/9
f 482/427/9 485/430/9 486/431/9
f 482/427/9 486/431/9 487/432/9
f 483/428/9 482/427/9 488/433/9
f 483/428/9 488/433/9 489/434/9
f 490/435/199 491/436/200 492/437/200
f 491/436/200 490/435/199 493/438/200
f 494/439/201 495/440/202 496/441/201
f 497/442/202 496/441/201 495/440/202
f 498/437/203 494/439/201 496/441/201
f 494/439/201 498/437/203 499/436/203
f 500/443/16 501/444/16 502/445/16
f 502/445/16 501/444/16 503/446/16
f 503/446/16 504/447/16 502/445/16
f 501/444/16 500/443/16 505/448/16
f 500/443/16 506/449/16 505/448/16
f 506/449/16 500/443/16 507/450/16
f 507/450/16 500/443/16 508/451/16
f 509/438/204 510/452/205 511/435/204
f 510/452/205 509/438/204 512/453/206
f 512/453/206 513/454/207 510/452/205
f 513/454/207 512/453/206 514/455/208
f 515/456/209 513/454/207 514/455/208
f 513/454/207 515/456/209 516/457/209
f 517/458/210 516/457/209 515/456/209
f 516/457/209 517/458/210 518/459/210
f 519/458/210 520/460/211 521/459/210
f 520/460/211 519/458/210 522/461/212
f 522/461/212 523/442/213 520/460/211
f 523/442/213 522/461/212 524/440/213
f 525/462/9 526/463/9 527/464/9
f 528/465/9 527/464/9 526/463/9
f 527/464/9 529/466/9 525/462/9
f 527/464/9 530/467/9 529/466/9
f 531/468/9 530/467/9 527/464/9
f 530/467/9 531/468/9 532/469/9
f 532/469/9 531/468/9 533/470/9
f 535/471/214 536/472/28 534/473/215
f 536/472/28 535/471/214 537/474/28
f 537/474/28 538/475/216 536/472/28
f 538/475/216 537/474/28 539/476/216
f 540/477/217 538/475/216 539/476/216
f 540/477/217 541/478/217 538/475/216
f 542/479/218 543/480/218 544/481/218
f 543/480/218 542/479/218 545/482/218
f 546/483/16 547/484/16 548/485/16
f 549/486/16 548/485/16 547/484/16
f 550/487/16 546/483/16 548/485/16
f 546/483/16 550/487/16 551/488/16
f 550/487/16 552/489/16 551/488/16
f 552/489/16 550/487/16 553/490/16
f 553/490/16 550/487/16 554/491/16
f 555/492/219 556/493/220 557/494/219
f 555/492/219 557/494/219 558/495/221
f 559/494/219 560/496/219 561/495/219
f 561/495/219 560/496/219 562/497/219
f 563/498/222 564/499/223 565/500/224
f 564/499/223 563/498/222 566/501/223
f 566/501/223 567/502/225 564/499/223
f 567/502/225 566/501/223 568/503/226
f 568/503/226 569/504/227 567/502/225
f 569/504/227 568/503/226 570/505/227
f 571/506/9 572/507/9 573/508/9
f 571/506/9 573/508/9 574/509/9
f 574/509/9 573/508/9 575/510/9
f 572/507/9 571/506/9 576/511/9
f 577/512/9 572/507/9 576/511/9
f 572/507/9 577/512/9 578/513/9
f 572/507/9 578/513/9 579/514/9
f 580/515/228 581/516/228 582/517/228
f 581/516/228 580/515/228 583/518/228
f 584/519/229 585/520/230 586/521/229
f 587/522/230 586/521/229 585/520/230
f 588/523/229 584/519/229 586/521/229
f 584/519/229 588/523/229 589/524/231
f 590/525/16 591/526/16 592/527/16
f 592/527/16 593/528/16 590/525/16
f 593/528/16 592/527/16 594/529/16
f 594/529/16 592/527/16 595/530/16
f 595/530/16 592/527/16 596/531/16
f 591/526/16 597/532/16 592/527/16
f 597/532/16 591/526/16 598/533/16
f 599/534/1 600/535/232 601/536/1
f 600/535/232 599/534/1 602/537/232
f 604/538/233 605/539/234 603/540/233
f 605/539/234 604/538/233 606/541/234
f 606/541/234 607/542/205 605/539/234
f 607/542/205 606/541/234 608/543/206
f 608/543/206 609/544/235 607/542/205
f 609/544/235 608/543/206 610/545/235
f 611/545/235 612/546/236 609/544/235
f 612/546/236 611/545/235 613/547/236
f 613/547/236 614/522/237 612/546/236
f 614/522/237 613/547/236 615/520/238
f 616/548/9 617/549/9 618/550/9
f 619/551/9 616/548/9 618/550/9
f 616/548/9 619/551/9 620/552/9
f 616/548/9 620/552/9 621/553/9
f 621/553/9 622/554/9 616/548/9
f 617/549/9 616/548/9 623/555/9
f 617/549/9 623/555/9 624/556/9
f 625/557/239 626/558/240 627/559/241
f 626/558/240 625/557/239 628/560/242
f 627/559/241 626/558/240 629/561/243
f 629/561/243 630/562/244 627/559/241
f 629/561/243 631/563/245 630/562/244
f 631/563/245 629/561/243 632/564/246
f 632/564/246 633/565/247 631/563/245
f 633/565/247 632/564/246 634/566/248
f 634/566/248 635/567/249 633/565/247
f 635/567/249 634/566/248 636/568/250
f 635/567/249 636/568/250 637/569/251
f 638/570/252 635/567/249 637/569/251
f 638/570/252 637/569/251 639/571/253
f 640/558/254 641/560/255 642/572/256
f 641/560/255 643/573/255 642/572/256
f 640/558/254 642/572/256 644/574/257
f 644/574/257 645/561/258 640/558/254
f 644/574/257 646/564/259 645/561/258
f 646/564/259 644/574/257 647/575/260
f 648/575/261 649/566/262 646/564/263
f 649/566/262 648/575/261 650/576/264
f 650/576/264 651/568/265 649/566/262
f 651/568/265 650/576/264 652/577/266
f 651/568/265 652/577/266 653/578/267
f 654/569/268 651/568/265 653/578/267
f 654/569/268 653/578/267 655/571/269
f 656/579/270 657/580/271 658/581/270
f 657/580/271 656/579/270 659/582/272
f 659/582/272 660/583/273 657/580/271
f 660/583/273 659/582/272 661/584/274
f 662/585/275 660/583/273 661/584/274
f 662/585/275 663/586/276 660/583/273
f 664/587/277 663/586/276 662/585/275
f 664/587/277 665/588/278 663/586/276
f 666/589/279 665/588/278 664/587/277
f 666/589/279 667/590/280 665/588/278
f 666/589/279 668/591/281 667/590/280
f 668/591/281 666/589/279 669/592/282
f 668/591/281 669/592/282 670/593/283
f 671/580/284 672/594/285 673/595/286
f 673/595/286 674/581/287 671/580/284
f 675/596/287 674/581/287 673/595/286
f 672/594/285 671/580/284 676/583/288
f 677/586/289 672/594/285 676/583/288
f 677/586/289 678/597/290 672/594/285
f 679/588/291 680/597/292 677/586/293
f 679/588/291 681/598/294 680/597/292
f 682/590/295 681/598/294 679/588/291
f 682/590/295 683/599/296 681/598/294
f 682/590/295 684/600/297 683/599/296
f 684/600/297 682/590/295 685/591/298
f 684/600/297 685/591/298 686/593/299
f 688/601/300 687/602/301 689/603/302
f 691/604/303 690/605/304 692/606/305
f 691/604/303 692/606/305 693/602/306
f 694/607/307 696/608/308 695/605/309
f 697/609/310 698/610/311 699/603/312
f 700/611/313 701/612/314 702/606/315
f 702/606/315 701/612/314 703/609/316
f 704/608/317 705/613/318 706/611/319
f 707/614/320 708/615/80 709/616/80
f 708/615/80 707/614/320 710/617/80
f 711/618/320 710/617/80 707/614/320
f 710/617/80 711/618/320 712/619/321
f 713/620/80 714/621/80 715/622/322
f 716/623/320 715/622/322 714/621/80
f 715/622/322 716/623/320 717/624/82
f 714/621/80 713/620/80 718/625/320
f 719/626/80 718/625/320 713/620/80
f 713/620/80 720/627/323 719/626/80
f 720/627/323 721/618/320 719/626/80
f 720/627/323 722/619/82 721/618/320
f 723/628/324 724/629/325 725/630/326
f 727/631/327 726/632/328 728/633/329
f 729/630/330 730/634/331 731/635/332
f 731/635/332 730/634/331 732/636/333
f 734/637/334 733/638/335 736/635/336
f 734/637/334 736/635/336 735/632/337
f 737/636/338 738/639/339 739/633/340
f 740/640/318 742/628/341 741/638/342
f 743/608/343 744/613/344 745/641/345
f 746/641/346 747/642/347 748/643/348
f 748/643/348 747/642/347 749/644/349
f 750/644/349 751/645/350 752/646/351
f 753/607/352 755/608/353 754/647/354
f 757/648/355 756/647/356 758/643/357
f 757/648/358 760/643/359 759/649/360
f 762/650/361 761/649/362 763/646/363
f 764/651/364 766/652/365 765/653/366
f 767/654/367 768/655/300 769/656/368
f 771/657/369 770/653/366 772/658/370
f 771/657/369 774/658/370 773/659/371
f 775/660/372 776/661/303 777/658/373
f 779/658/373 776/661/303 778/654/374
f 781/662/375 780/659/371 782/656/376
f 783/652/377 784/663/307 785/660/378
f 786/664/379 787/665/380 788/666/381
f 788/666/381 787/665/380 789/667/382
f 790/668/383 786/664/379 788/666/381
f 791/669/384 786/664/379 790/668/383
f 792/670/385 791/669/384 790/668/383
f 793/671/386 791/669/384 792/670/385
f 794/672/387 793/671/386 792/670/385
f 795/673/388 793/671/386 794/672/387
f 794/672/387 796/674/389 795/673/388
f 796/674/389 794/672/387 797/675/390
f 797/675/390 798/676/391 796/674/389
f 798/676/391 797/675/390 799/677/392
f 800/678/393 798/676/391 799/677/392
f 801/679/394 798/676/391 800/678/393
f 800/678/393 802/680/395 801/679/394
f 802/680/395 800/678/393 803/681/396
f 803/681/396 804/682/397 802/680/395
f 804/682/397 803/681/396 805/683/398
f 806/684/399 804/682/397 805/683/398
f 807/685/400 804/682/397 806/684/399
f 806/684/399 808/686/401 807/685/400
f 808/686/401 809/687/402 807/685/400
f 809/687/402 808/686/401 810/688/403
f 811/689/404 809/687/402 810/688/403
f 812/690/16 813/691/16 814/692/16
f 814/692/16 813/691/16 815/693/16
f 814/692/16 815/693/16 816/694/16
f 817/695/16 814/692/16 816/694/16
f 818/696/405 819/688/406 820/697/407
f 818/696/405 821/689/408 819/688/406
f 820/697/407 822/698/409 818/696/405
f 818/696/405 822/698/409 823/699/410
f 822/698/409 824/700/411 823/699/410
f 822/698/409 825/701/412 824/700/411
f 826/702/413 824/700/411 825/701/412
f 825/701/412 827/703/414 826/702/413
f 828/704/415 826/702/413 827/703/414
f 827/703/414 829/705/416 828/704/415
f 830/705/417 831/706/418 828/704/415
f 831/706/418 830/705/417 832/707/419
f 832/707/419 833/708/420 831/706/418
f 833/708/420 834/709/421 831/706/418
f 835/710/422 834/709/421 833/708/420
f 833/708/420 836/711/422 835/710/422
f 837/698/16 838/697/16 839/683/16
f 838/697/16 840/684/16 839/683/16
f 840/684/16 838/697/16 841/686/16
f 841/686/16 838/697/16 842/688/16
f 843/681/16 837/698/16 839/683/16
f 837/698/16 843/681/16 844/701/16
f 845/678/16 844/701/16 843/681/16
f 845/678/16 846/703/16 844/701/16
f 846/703/16 845/678/16 847/677/16
f 847/677/16 848/705/16 846/703/16
f 848/705/16 847/677/16 849/675/16
f 850/672/16 848/705/16 849/675/16
f 851/670/16 848/705/16 850/672/16
f 848/705/16 851/670/16 852/707/16
f 853/668/16 852/707/16 851/670/16
f 852/707/16 853/668/16 854/708/16
f 855/666/16 854/708/16 853/668/16
f 854/708/16 855/666/16 856/711/16
f 856/711/16 855/666/16 857/667/16
s 0
f 858/712/9 859/713/9 860/712/9
f 861/712/16 862/714/16 863/712/16
s 1
f 862/714/16 864/715/16 863/712/16
f 862/714/16 861/712/16 865/713/16
f 861/712/16 866/716/16 865/713/16
f 867/691/16 868/692/16 869/717/16
f 870/693/16 868/692/16 867/691/16
f 868/692/16 870/693/16 871/694/16
f 868/692/16 871/694/16 872/695/16
f 873/718/423 874/719/423 875/720/423
f 874/719/423 873/718/423 876/721/423
f 873/718/423 875/720/423 877/722/423
f 873/718/423 877/722/423 878/723/423
f 879/724/424 880/725/425 881/726/426
f 881/726/426 882/727/427 879/724/424
f 879/724/424 882/727/427 883/728/428
f 884/729/429 883/728/428 882/727/427
f 884/729/429 885/730/430 883/728/428
f 885/730/430 884/729/429 886/731/431
f 887/732/432 885/730/430 886/731/431
f 885/730/430 887/732/432 888/733/433
f 887/732/432 889/734/434 888/733/433
f 888/733/433 889/734/434 890/735/435
f 889/734/434 891/736/436 890/735/435
f 891/736/436 889/734/434 892/737/437
f 893/738/438 891/736/436 892/737/437
f 891/736/436 893/738/438 894/739/439
f 893/738/438 895/740/440 894/739/439
f 894/739/439 895/740/440 896/741/441
f 895/740/440 897/742/442 896/741/441
f 897/742/442 895/740/440 898/743/443
f 898/743/443 899/744/444 897/742/442
f 899/744/444 898/743/443 900/745/445
f 900/745/445 901/746/446 899/744/444
f 901/746/446 900/745/445 902/747/447
f 902/747/447 903/748/448 901/746/446
f 903/748/448 902/747/447 904/749/448
f 905/750/9 906/751/9 907/752/9
f 907/752/9 906/751/9 908/753/9
f 907/752/9 908/753/9 909/754/9
f 910/755/9 907/752/9 909/754/9
f 911/756/449 912/757/450 913/758/450
f 912/757/450 911/756/449 914/759/451
f 911/756/449 915/760/452 914/759/451
f 915/760/452 911/756/449 916/761/453
f 917/762/454 915/760/452 916/761/453
f 918/763/455 915/760/452 917/762/454
f 919/762/456 920/764/457 918/763/455
f 921/765/458 918/763/455 920/764/457
f 920/764/457 922/766/459 921/765/458
f 923/767/460 921/765/458 922/766/459
f 922/766/459 924/768/461 923/767/460
f 925/769/462 923/767/460 924/768/461
f 924/768/461 926/770/463 925/769/462
f 926/770/463 924/768/461 927/771/464
f 927/771/464 928/726/465 926/770/463
f 929/725/465 926/770/463 928/726/465
f 930/747/9 931/758/9 932/749/9
f 931/758/9 930/747/9 933/756/9
f 933/756/9 930/747/9 934/745/9
f 934/745/9 935/761/9 933/756/9
f 935/761/9 934/745/9 936/743/9
f 936/743/9 937/762/9 935/761/9
f 938/740/9 937/762/9 936/743/9
f 937/762/9 938/740/9 939/738/9
f 940/737/9 937/762/9 939/738/9
f 937/762/9 940/737/9 941/764/9
f 942/734/9 941/764/9 940/737/9
f 941/764/9 942/734/9 943/766/9
f 944/732/9 943/766/9 942/734/9
f 943/766/9 944/732/9 945/768/9
f 945/768/9 944/732/9 946/731/9
f 946/731/9 947/771/9 945/768/9
f 947/771/9 946/731/9 948/729/9
f 949/727/9 947/771/9 948/729/9
f 947/771/9 949/727/9 950/726/9
f 952/772/9 954/773/9 953/774/9
f 952/772/9 951/774/9 955/775/9
f 951/774/9 956/776/9 955/775/9
f 957/751/9 958/752/9 959/750/9
f 960/753/9 958/752/9 957/751/9
f 958/752/9 960/753/9 961/754/9
f 958/752/9 961/754/9 962/755/9
