# Blender 5.2.0 LTS
# www.blender.org
mtllib arch katana perfect obj.mtl
o archkatana_wrapsplit1
v 0.020931 -1.342224 0.010066
v -0.038451 -1.272799 -0.009833
v 0.020931 -1.342224 -0.009833
v -0.038451 -1.272799 0.010066
v -0.064043 -1.209643 -0.009833
v -0.064043 -1.209643 0.010066
v -0.064043 -1.209643 -0.009833
v -0.001492 -1.185817 0.010066
v -0.001492 -1.185817 -0.009833
v -0.064043 -1.209643 0.010066
v 0.098676 -1.281278 0.010066
v 0.216264 -1.392547 0.010066
v 0.098676 -1.281278 -0.009833
v 0.216264 -1.392547 -0.009833
v -0.001492 -1.185817 -0.009833
v 0.098676 -1.281278 0.010066
v 0.098676 -1.281278 -0.009833
v -0.001492 -1.185817 0.010066
v 0.098676 -1.281278 -0.009833
v 0.020931 -1.342224 -0.009833
v -0.001492 -1.185817 -0.009833
v -0.038451 -1.272799 -0.009833
v -0.064043 -1.209643 -0.009833
v 0.053729 -1.371657 -0.009833
v 0.076465 -1.380103 -0.009833
v 0.134321 -1.388509 -0.009833
v 0.216264 -1.392547 -0.009833
v 0.216264 -1.392547 0.010066
v 0.134321 -1.388509 -0.009833
v 0.216264 -1.392547 -0.009833
v 0.134321 -1.388509 0.010066
v 0.076465 -1.380103 -0.009833
v 0.076465 -1.380103 0.010066
v 0.076465 -1.380103 0.010066
v 0.053729 -1.371657 -0.009833
v 0.076465 -1.380103 -0.009833
v 0.053729 -1.371657 0.010066
v 0.020931 -1.342224 -0.009833
v 0.020931 -1.342224 0.010066
v 0.098676 -1.281278 0.010066
v 0.020931 -1.342224 0.010066
v 0.053729 -1.371657 0.010066
v 0.076465 -1.380103 0.010066
v 0.134321 -1.388509 0.010066
v 0.216264 -1.392547 0.010066
v -0.001492 -1.185817 0.010066
v -0.038451 -1.272799 0.010066
v -0.064043 -1.209643 0.010066
v 0.057740 -0.846960 -0.018468
v 0.084116 -0.937761 0.018702
v 0.057740 -0.846960 0.018702
v 0.084116 -0.937761 -0.018468
v 0.108941 -0.754162 -0.018468
v 0.108941 -0.754162 0.018702
v 0.057740 -0.846960 -0.018468
v 0.057740 -0.846960 0.018702
v 0.371063 -0.546466 0.018702
v 0.502497 -0.429085 0.018701
v 0.371063 -0.546466 -0.018468
v 0.502497 -0.429085 -0.018468
v 0.607845 -0.325737 0.018701
v 0.607845 -0.325737 -0.018468
v 0.108941 -0.754162 -0.018468
v 0.108941 -0.754162 0.018702
v 0.371063 -0.546466 -0.018468
v 0.510523 -0.642789 -0.018468
v 0.410193 -0.758170 -0.018468
v 0.294812 -0.829405 -0.018468
v 0.502497 -0.429085 -0.018468
v 0.108941 -0.754162 -0.018468
v 0.084116 -0.937761 -0.018468
v 0.057740 -0.846960 -0.018468
v 0.542630 -0.575562 -0.018468
v 0.580756 -0.461188 -0.018468
v 0.607845 -0.325737 -0.018468
v 0.607845 -0.325737 0.018701
v 0.580756 -0.461188 -0.018468
v 0.607845 -0.325737 -0.018468
v 0.580756 -0.461188 0.018701
v 0.542630 -0.575562 -0.018468
v 0.542630 -0.575562 0.018701
v 0.510523 -0.642789 -0.018468
v 0.510523 -0.642789 0.018701
v 0.410193 -0.758170 -0.018468
v 0.410193 -0.758170 0.018702
v 0.410193 -0.758170 -0.018468
v 0.410193 -0.758170 0.018702
v 0.294812 -0.829405 -0.018468
v 0.294812 -0.829405 0.018702
v 0.084116 -0.937761 -0.018468
v 0.084116 -0.937761 0.018702
v 0.294812 -0.829405 0.018702
v 0.108941 -0.754162 0.018702
v 0.084116 -0.937761 0.018702
v 0.057740 -0.846960 0.018702
v 0.371063 -0.546466 0.018702
v 0.410193 -0.758170 0.018702
v 0.510523 -0.642789 0.018701
v 0.502497 -0.429085 0.018701
v 0.542630 -0.575562 0.018701
v 0.580756 -0.461188 0.018701
v 0.607845 -0.325737 0.018701
v 0.085353 -0.932994 0.015130
v 0.071190 -1.019345 -0.014897
v 0.071190 -1.019345 0.015130
v 0.085353 -0.932994 -0.014897
v 0.390679 -0.796901 0.015130
v 0.637026 -0.698191 0.015130
v 0.390679 -0.796901 -0.014897
v 0.637026 -0.698191 -0.014897
v 0.085353 -0.932994 -0.014897
v 0.085353 -0.932994 0.015130
v 0.283946 -0.995224 -0.014897
v 0.085353 -0.932994 -0.014897
v 0.390679 -0.796901 -0.014897
v 0.071190 -1.019345 -0.014897
v 0.428051 -0.954463 -0.014897
v 0.494390 -0.925833 -0.014897
v 0.522555 -0.897779 -0.014897
v 0.574777 -0.817412 -0.014897
v 0.637026 -0.698191 -0.014897
v 0.637026 -0.698191 0.015130
v 0.574777 -0.817412 -0.014897
v 0.637026 -0.698191 -0.014897
v 0.574777 -0.817412 0.015130
v 0.522555 -0.897779 -0.014897
v 0.522555 -0.897779 0.015130
v 0.522555 -0.897779 -0.014897
v 0.522555 -0.897779 0.015130
v 0.494390 -0.925833 -0.014897
v 0.494390 -0.925833 0.015130
v 0.428051 -0.954463 -0.014897
v 0.428051 -0.954463 0.015130
v 0.283946 -0.995224 -0.014897
v 0.283946 -0.995224 0.015130
v 0.071190 -1.019345 -0.014897
v 0.071190 -1.019345 0.015130
v 0.428051 -0.954463 0.015130
v 0.390679 -0.796901 0.015130
v 0.283946 -0.995224 0.015130
v 0.494390 -0.925833 0.015130
v 0.522555 -0.897779 0.015130
v 0.574777 -0.817412 0.015130
v 0.637026 -0.698191 0.015130
v 0.085353 -0.932994 0.015130
v 0.071190 -1.019345 0.015130
v -0.014258 -1.177404 -0.011200
v 0.042230 -1.122547 0.011433
v 0.042230 -1.122547 -0.011200
v -0.014258 -1.177404 0.011433
v 0.194889 -1.179055 0.011433
v 0.373725 -1.244524 0.011433
v 0.194889 -1.179055 -0.011200
v 0.373725 -1.244524 -0.011200
v 0.042230 -1.122547 -0.011200
v 0.042230 -1.122547 0.011433
v 0.194889 -1.179055 -0.011200
v 0.139260 -1.281088 -0.011200
v 0.042230 -1.122547 -0.011200
v 0.042791 -1.233721 -0.011200
v -0.014258 -1.177404 -0.011200
v 0.188401 -1.297623 -0.011200
v 0.216892 -1.296162 -0.011200
v 0.283313 -1.278311 -0.011200
v 0.373725 -1.244524 -0.011200
v 0.373725 -1.244524 0.011433
v 0.283313 -1.278311 -0.011200
v 0.373725 -1.244524 -0.011200
v 0.283313 -1.278311 0.011433
v 0.216892 -1.296162 -0.011200
v 0.216892 -1.296162 0.011433
v 0.188401 -1.297623 0.011433
v 0.188401 -1.297623 -0.011200
v 0.139260 -1.281088 0.011433
v 0.139260 -1.281088 -0.011200
v 0.139260 -1.281088 0.011433
v 0.042791 -1.233721 -0.011200
v 0.139260 -1.281088 -0.011200
v 0.042791 -1.233721 0.011433
v -0.014258 -1.177404 -0.011200
v -0.014258 -1.177404 0.011433
v 0.216892 -1.296162 0.011433
v 0.283313 -1.278311 0.011433
v 0.194889 -1.179055 0.011433
v 0.373725 -1.244524 0.011433
v 0.188401 -1.297623 0.011433
v 0.139260 -1.281088 0.011433
v 0.042230 -1.122547 0.011433
v 0.042791 -1.233721 0.011433
v -0.014258 -1.177404 0.011433
v -0.057523 -1.394830 -0.009353
v -0.057523 -1.394830 0.009586
v -0.072764 -1.363431 -0.009353
v -0.072764 -1.363431 0.009586
v -0.095531 -1.294762 -0.009353
v -0.095531 -1.294762 0.009586
v -0.095403 -1.240800 0.009586
v -0.095403 -1.240800 -0.009353
v -0.095403 -1.240800 0.009586
v -0.042411 -1.242053 -0.009353
v -0.095403 -1.240800 -0.009353
v -0.042411 -1.242053 0.009586
v -0.072764 -1.363431 -0.009353
v -0.095531 -1.294762 -0.009353
v -0.042411 -1.242053 -0.009353
v -0.095403 -1.240800 -0.009353
v 0.002473 -1.342015 -0.009353
v -0.057523 -1.394830 -0.009353
v -0.043377 -1.407820 -0.009353
v -0.003473 -1.431300 -0.009353
v 0.055401 -1.458775 -0.009353
v -0.042411 -1.242053 -0.009353
v -0.042411 -1.242053 0.009586
v 0.002473 -1.342015 0.009586
v 0.002473 -1.342015 -0.009353
v 0.002473 -1.342015 0.009586
v 0.055401 -1.458775 0.009586
v 0.002473 -1.342015 -0.009353
v 0.055401 -1.458775 -0.009353
v 0.055401 -1.458775 0.009586
v -0.003473 -1.431300 -0.009353
v 0.055401 -1.458775 -0.009353
v -0.003473 -1.431300 0.009586
v -0.043377 -1.407820 -0.009353
v -0.043377 -1.407820 0.009586
v -0.057523 -1.394830 -0.009353
v -0.057523 -1.394830 0.009586
v -0.072764 -1.363431 0.009586
v 0.002473 -1.342015 0.009586
v -0.042411 -1.242053 0.009586
v -0.095531 -1.294762 0.009586
v -0.095403 -1.240800 0.009586
v -0.057523 -1.394830 0.009586
v -0.043377 -1.407820 0.009586
v -0.003473 -1.431300 0.009586
v 0.055401 -1.458775 0.009586
v 0.049161 -1.017725 0.013177
v 0.010530 -1.120432 -0.012944
v 0.010530 -1.120432 0.013177
v 0.049161 -1.017725 -0.012944
v 0.275163 -0.998307 0.013177
v 0.539490 -0.974640 0.013177
v 0.275163 -0.998307 -0.012944
v 0.539490 -0.974640 -0.012944
v 0.049161 -1.017725 -0.012944
v 0.049161 -1.017725 0.013177
v 0.265629 -1.159963 -0.012944
v 0.115890 -1.157544 -0.012944
v 0.275163 -0.998307 -0.012944
v 0.337399 -1.151631 -0.012944
v 0.372443 -1.132856 -0.012944
v 0.445577 -1.070920 -0.012944
v 0.539490 -0.974640 -0.012944
v 0.049161 -1.017725 -0.012944
v 0.010530 -1.120432 -0.012944
v 0.539490 -0.974640 0.013177
v 0.445577 -1.070920 -0.012944
v 0.539490 -0.974640 -0.012944
v 0.445577 -1.070920 0.013177
v 0.445577 -1.070920 -0.012944
v 0.445577 -1.070920 0.013177
v 0.372443 -1.132856 -0.012944
v 0.372443 -1.132856 0.013177
v 0.337399 -1.151631 -0.012944
v 0.337399 -1.151631 0.013177
v 0.265629 -1.159963 -0.012944
v 0.265629 -1.159963 0.013177
v 0.265629 -1.159963 0.013177
v 0.115890 -1.157544 -0.012944
v 0.115890 -1.157544 0.013177
v 0.010530 -1.120432 -0.012944
v 0.010530 -1.120432 0.013177
v 0.275163 -0.998307 0.013177
v 0.115890 -1.157544 0.013177
v 0.265629 -1.159963 0.013177
v 0.337399 -1.151631 0.013177
v 0.372443 -1.132856 0.013177
v 0.445577 -1.070920 0.013177
v 0.539490 -0.974640 0.013177
v 0.049161 -1.017725 0.013177
v 0.010530 -1.120432 0.013177
v -0.159047 -1.334924 0.000117
v -0.051880 -1.201776 -0.040082
v -0.007445 -1.242694 0.000117
v -0.159047 -1.274515 -0.040082
v -0.002805 -1.145826 -0.040082
v 0.050260 -1.174688 0.000117
v 0.099946 -1.038511 0.000117
v 0.047361 -1.027940 -0.035577
v 0.113165 -0.892844 0.000116
v 0.059902 -0.899177 -0.035577
v 0.115133 -0.854177 0.000116
v 0.070233 -0.824829 -0.035577
v 0.155683 -0.707932 -0.017775
v 0.178330 -0.722427 0.000116
v 0.246295 -0.633269 0.000116
v -0.051880 -1.201776 -0.040082
v -0.159047 -1.274515 -0.040082
v -0.096316 -1.160846 0.000117
v -0.159047 -1.214103 0.000117
v -0.055869 -1.116961 0.000117
v -0.002805 -1.145826 -0.040082
v 0.047361 -1.027940 -0.035577
v -0.005224 -1.017367 0.000117
v -0.005224 -1.017367 0.000117
v 0.059902 -0.899177 -0.035577
v 0.006640 -0.905510 0.000116
v 0.070233 -0.824829 -0.035577
v 0.025334 -0.795492 0.000116
v 0.133034 -0.693448 0.000116
v 0.155683 -0.707932 -0.017775
v 0.246295 -0.633269 0.000116
v -0.159047 -1.334924 0.000117
v -0.051880 -1.201776 0.040315
v -0.159047 -1.274515 0.040315
v -0.007445 -1.242694 0.000117
v -0.002805 -1.145826 0.040315
v 0.050260 -1.174688 0.000117
v 0.099946 -1.038511 0.000117
v 0.047361 -1.027940 0.035810
v 0.113165 -0.892844 0.000116
v 0.059902 -0.899177 0.035810
v 0.115133 -0.854177 0.000116
v 0.070233 -0.824829 0.035810
v 0.155683 -0.707932 0.018008
v 0.178330 -0.722427 0.000116
v 0.246295 -0.633269 0.000116
v -0.051880 -1.201776 0.040315
v -0.055869 -1.116961 0.000117
v -0.096316 -1.160846 0.000117
v -0.159047 -1.274515 0.040315
v -0.159047 -1.214103 0.000117
v -0.002805 -1.145826 0.040315
v 0.047361 -1.027940 0.035810
v -0.005224 -1.017367 0.000117
v 0.059902 -0.899177 0.035810
v -0.005224 -1.017367 0.000117
v 0.006640 -0.905510 0.000116
v 0.070233 -0.824829 0.035810
v 0.025334 -0.795492 0.000116
v 0.133034 -0.693448 0.000116
v 0.155683 -0.707932 0.018008
v 0.246295 -0.633269 0.000116
v -0.565437 -1.342224 -0.009833
v -0.506056 -1.272799 0.010066
v -0.565437 -1.342224 0.010066
v -0.506056 -1.272799 -0.009833
v -0.480463 -1.209643 0.010066
v -0.480463 -1.209643 -0.009833
v -0.480463 -1.209643 0.010066
v -0.543014 -1.185817 -0.009833
v -0.543014 -1.185817 0.010066
v -0.480463 -1.209643 -0.009833
v -0.643182 -1.281278 -0.009833
v -0.760770 -1.392547 -0.009833
v -0.643182 -1.281278 0.010066
v -0.760770 -1.392547 0.010066
v -0.543014 -1.185817 0.010066
v -0.643182 -1.281278 -0.009833
v -0.643182 -1.281278 0.010066
v -0.543014 -1.185817 -0.009833
v -0.643182 -1.281278 0.010066
v -0.565437 -1.342224 0.010066
v -0.543014 -1.185817 0.010066
v -0.506056 -1.272799 0.010066
v -0.480463 -1.209643 0.010066
v -0.598235 -1.371657 0.010066
v -0.620971 -1.380103 0.010066
v -0.678827 -1.388509 0.010066
v -0.760770 -1.392547 0.010066
v -0.760770 -1.392547 -0.009833
v -0.678827 -1.388509 0.010066
v -0.760770 -1.392547 0.010066
v -0.678827 -1.388509 -0.009833
v -0.620971 -1.380103 0.010066
v -0.620971 -1.380103 -0.009833
v -0.620971 -1.380103 -0.009833
v -0.598235 -1.371657 0.010066
v -0.620971 -1.380103 0.010066
v -0.598235 -1.371657 -0.009833
v -0.565437 -1.342224 0.010066
v -0.565437 -1.342224 -0.009833
v -0.643182 -1.281278 -0.009833
v -0.565437 -1.342224 -0.009833
v -0.598235 -1.371657 -0.009833
v -0.620971 -1.380103 -0.009833
v -0.678827 -1.388509 -0.009833
v -0.760770 -1.392547 -0.009833
v -0.543014 -1.185817 -0.009833
v -0.506056 -1.272799 -0.009833
v -0.480463 -1.209643 -0.009833
v -0.602246 -0.846960 0.018701
v -0.628622 -0.937761 -0.018468
v -0.602246 -0.846960 -0.018468
v -0.628622 -0.937761 0.018701
v -0.653447 -0.754162 0.018701
v -0.653447 -0.754162 -0.018468
v -0.602246 -0.846960 0.018701
v -0.602246 -0.846960 -0.018468
v -0.915569 -0.546466 -0.018468
v -1.047003 -0.429085 -0.018468
v -0.915569 -0.546466 0.018702
v -1.047003 -0.429085 0.018702
v -1.152351 -0.325737 -0.018468
v -1.152351 -0.325737 0.018702
v -0.653447 -0.754162 0.018701
v -0.653447 -0.754162 -0.018468
v -0.915569 -0.546466 0.018702
v -1.055029 -0.642789 0.018702
v -0.954699 -0.758170 0.018702
v -0.839318 -0.829405 0.018701
v -1.047003 -0.429085 0.018702
v -0.653447 -0.754162 0.018701
v -0.628622 -0.937761 0.018701
v -0.602246 -0.846960 0.018701
v -1.087136 -0.575562 0.018702
v -1.125262 -0.461188 0.018702
v -1.152351 -0.325737 0.018702
v -1.152351 -0.325737 -0.018468
v -1.125262 -0.461188 0.018702
v -1.152351 -0.325737 0.018702
v -1.125262 -0.461188 -0.018468
v -1.087136 -0.575562 0.018702
v -1.087136 -0.575562 -0.018468
v -1.055029 -0.642789 0.018702
v -1.055029 -0.642789 -0.018468
v -0.954699 -0.758170 0.018702
v -0.954699 -0.758170 -0.018468
v -0.954699 -0.758170 0.018702
v -0.954699 -0.758170 -0.018468
v -0.839318 -0.829405 0.018701
v -0.839318 -0.829405 -0.018468
v -0.628622 -0.937761 0.018701
v -0.628622 -0.937761 -0.018468
v -0.839318 -0.829405 -0.018468
v -0.653447 -0.754162 -0.018468
v -0.628622 -0.937761 -0.018468
v -0.602246 -0.846960 -0.018468
v -0.915569 -0.546466 -0.018468
v -0.954699 -0.758170 -0.018468
v -1.055029 -0.642789 -0.018468
v -1.047003 -0.429085 -0.018468
v -1.087136 -0.575562 -0.018468
v -1.125262 -0.461188 -0.018468
v -1.152351 -0.325737 -0.018468
v -0.629859 -0.932994 -0.014897
v -0.615696 -1.019345 0.015130
v -0.615696 -1.019345 -0.014897
v -0.629859 -0.932994 0.015130
v -0.935185 -0.796901 -0.014897
v -1.181532 -0.698191 -0.014897
v -0.935185 -0.796901 0.015130
v -1.181532 -0.698191 0.015130
v -0.629859 -0.932994 0.015130
v -0.629859 -0.932994 -0.014897
v -0.828453 -0.995224 0.015130
v -0.629859 -0.932994 0.015130
v -0.935185 -0.796901 0.015130
v -0.615696 -1.019345 0.015130
v -0.972557 -0.954463 0.015130
v -1.038897 -0.925833 0.015130
v -1.067061 -0.897779 0.015130
v -1.119284 -0.817412 0.015130
v -1.181532 -0.698191 0.015130
v -1.181532 -0.698191 -0.014897
v -1.119284 -0.817412 0.015130
v -1.181532 -0.698191 0.015130
v -1.119284 -0.817412 -0.014897
v -1.067061 -0.897779 0.015130
v -1.067061 -0.897779 -0.014897
v -1.067061 -0.897779 0.015130
v -1.067061 -0.897779 -0.014897
v -1.038897 -0.925833 0.015130
v -1.038897 -0.925833 -0.014897
v -0.972557 -0.954463 0.015130
v -0.972557 -0.954463 -0.014897
v -0.828453 -0.995224 0.015130
v -0.828453 -0.995224 -0.014897
v -0.615696 -1.019345 0.015130
v -0.615696 -1.019345 -0.014897
v -0.972557 -0.954463 -0.014897
v -0.935185 -0.796901 -0.014897
v -0.828453 -0.995224 -0.014897
v -1.038897 -0.925833 -0.014897
v -1.067061 -0.897779 -0.014897
v -1.119284 -0.817412 -0.014897
v -1.181532 -0.698191 -0.014897
v -0.629859 -0.932994 -0.014897
v -0.615696 -1.019345 -0.014897
v -0.530248 -1.177404 0.011433
v -0.586736 -1.122547 -0.011200
v -0.586736 -1.122547 0.011433
v -0.530248 -1.177404 -0.011200
v -0.739395 -1.179055 -0.011200
v -0.918231 -1.244524 -0.011200
v -0.739395 -1.179055 0.011433
v -0.918231 -1.244524 0.011433
v -0.586736 -1.122547 0.011433
v -0.586736 -1.122547 -0.011200
v -0.739395 -1.179055 0.011433
v -0.683767 -1.281088 0.011433
v -0.586736 -1.122547 0.011433
v -0.587297 -1.233721 0.011433
v -0.530248 -1.177404 0.011433
v -0.732908 -1.297623 0.011433
v -0.761398 -1.296162 0.011433
v -0.827819 -1.278311 0.011433
v -0.918231 -1.244524 0.011433
v -0.918231 -1.244524 -0.011200
v -0.827819 -1.278311 0.011433
v -0.918231 -1.244524 0.011433
v -0.827819 -1.278311 -0.011200
v -0.761398 -1.296162 0.011433
v -0.761398 -1.296162 -0.011200
v -0.732908 -1.297623 -0.011200
v -0.732908 -1.297623 0.011433
v -0.683767 -1.281088 -0.011200
v -0.683767 -1.281088 0.011433
v -0.683767 -1.281088 -0.011200
v -0.587297 -1.233721 0.011433
v -0.683767 -1.281088 0.011433
v -0.587297 -1.233721 -0.011200
v -0.530248 -1.177404 0.011433
v -0.530248 -1.177404 -0.011200
v -0.761398 -1.296162 -0.011200
v -0.827819 -1.278311 -0.011200
v -0.739395 -1.179055 -0.011200
v -0.918231 -1.244524 -0.011200
v -0.732908 -1.297623 -0.011200
v -0.683767 -1.281088 -0.011200
v -0.586736 -1.122547 -0.011200
v -0.587297 -1.233721 -0.011200
v -0.530248 -1.177404 -0.011200
v -0.487112 -1.394830 0.009586
v -0.487112 -1.394830 -0.009353
v -0.471870 -1.363431 0.009586
v -0.471870 -1.363431 -0.009353
v -0.449103 -1.294762 0.009586
v -0.449103 -1.294762 -0.009353
v -0.449232 -1.240800 -0.009353
v -0.449231 -1.240800 0.009586
v -0.449232 -1.240800 -0.009353
v -0.502224 -1.242053 0.009586
v -0.449231 -1.240800 0.009586
v -0.502224 -1.242053 -0.009353
v -0.471870 -1.363431 0.009586
v -0.449103 -1.294762 0.009586
v -0.502224 -1.242053 0.009586
v -0.449231 -1.240800 0.009586
v -0.547108 -1.342015 0.009586
v -0.487112 -1.394830 0.009586
v -0.501257 -1.407820 0.009586
v -0.541162 -1.431300 0.009586
v -0.600035 -1.458775 0.009586
v -0.502224 -1.242053 0.009586
v -0.502224 -1.242053 -0.009353
v -0.547108 -1.342015 -0.009353
v -0.547108 -1.342015 0.009586
v -0.547108 -1.342015 -0.009353
v -0.600035 -1.458775 -0.009353
v -0.547108 -1.342015 0.009586
v -0.600035 -1.458775 0.009586
v -0.600035 -1.458775 -0.009353
v -0.541162 -1.431300 0.009586
v -0.600035 -1.458775 0.009586
v -0.541162 -1.431300 -0.009353
v -0.501257 -1.407820 0.009586
v -0.501257 -1.407820 -0.009353
v -0.487112 -1.394830 0.009586
v -0.487112 -1.394830 -0.009353
v -0.471870 -1.363431 -0.009353
v -0.547108 -1.342015 -0.009353
v -0.502224 -1.242053 -0.009353
v -0.449103 -1.294762 -0.009353
v -0.449232 -1.240800 -0.009353
v -0.487112 -1.394830 -0.009353
v -0.501257 -1.407820 -0.009353
v -0.541162 -1.431300 -0.009353
v -0.600035 -1.458775 -0.009353
v -0.593667 -1.017725 -0.012944
v -0.555036 -1.120432 0.013177
v -0.555036 -1.120432 -0.012944
v -0.593667 -1.017725 0.013177
v -0.819669 -0.998307 -0.012944
v -1.083995 -0.974640 -0.012944
v -0.819669 -0.998307 0.013177
v -1.083995 -0.974640 0.013177
v -0.593667 -1.017725 0.013177
v -0.593667 -1.017725 -0.012944
v -0.810135 -1.159963 0.013177
v -0.660396 -1.157544 0.013177
v -0.819669 -0.998307 0.013177
v -0.881905 -1.151631 0.013177
v -0.916949 -1.132856 0.013177
v -0.990083 -1.070920 0.013177
v -1.083995 -0.974640 0.013177
v -0.593667 -1.017725 0.013177
v -0.555036 -1.120432 0.013177
v -1.083995 -0.974640 -0.012944
v -0.990083 -1.070920 0.013177
v -1.083995 -0.974640 0.013177
v -0.990083 -1.070920 -0.012944
v -0.990083 -1.070920 0.013177
v -0.990083 -1.070920 -0.012944
v -0.916949 -1.132856 0.013177
v -0.916949 -1.132856 -0.012944
v -0.881905 -1.151631 0.013177
v -0.881905 -1.151631 -0.012944
v -0.810135 -1.159963 0.013177
v -0.810135 -1.159963 -0.012944
v -0.810135 -1.159963 -0.012944
v -0.660396 -1.157544 0.013177
v -0.660396 -1.157544 -0.012944
v -0.555036 -1.120432 0.013177
v -0.555036 -1.120432 -0.012944
v -0.819669 -0.998307 -0.012944
v -0.660396 -1.157544 -0.012944
v -0.810135 -1.159963 -0.012944
v -0.881905 -1.151631 -0.012944
v -0.916949 -1.132856 -0.012944
v -0.990083 -1.070920 -0.012944
v -1.083995 -0.974640 -0.012944
v -0.593667 -1.017725 -0.012944
v -0.555036 -1.120432 -0.012944
v -0.385459 -1.334924 0.000117
v -0.492626 -1.201776 0.040315
v -0.537061 -1.242694 0.000117
v -0.385459 -1.274515 0.040315
v -0.541701 -1.145826 0.040315
v -0.594766 -1.174688 0.000117
v -0.644452 -1.038511 0.000117
v -0.591867 -1.027940 0.035811
v -0.657671 -0.892844 0.000117
v -0.604408 -0.899177 0.035811
v -0.659639 -0.854177 0.000117
v -0.614739 -0.824829 0.035811
v -0.700189 -0.707932 0.018008
v -0.722836 -0.722427 0.000117
v -0.790801 -0.633269 0.000117
v -0.492626 -1.201776 0.040315
v -0.385459 -1.274515 0.040315
v -0.448192 -1.160846 0.000117
v -0.385459 -1.214103 0.000117
v -0.488638 -1.116961 0.000117
v -0.541701 -1.145826 0.040315
v -0.591867 -1.027940 0.035811
v -0.539282 -1.017367 0.000117
v -0.539282 -1.017367 0.000117
v -0.604408 -0.899177 0.035811
v -0.551146 -0.905510 0.000117
v -0.614739 -0.824829 0.035811
v -0.569840 -0.795492 0.000117
v -0.677540 -0.693448 0.000117
v -0.700189 -0.707932 0.018008
v -0.790801 -0.633269 0.000117
v -0.385459 -1.334924 0.000117
v -0.492626 -1.201776 -0.040082
v -0.385459 -1.274515 -0.040082
v -0.537061 -1.242694 0.000117
v -0.541701 -1.145826 -0.040082
v -0.594766 -1.174688 0.000117
v -0.644452 -1.038511 0.000117
v -0.591867 -1.027940 -0.035577
v -0.657671 -0.892844 0.000117
v -0.604408 -0.899177 -0.035577
v -0.659639 -0.854177 0.000117
v -0.614739 -0.824829 -0.035577
v -0.700189 -0.707932 -0.017775
v -0.722836 -0.722427 0.000117
v -0.790801 -0.633269 0.000117
v -0.492626 -1.201776 -0.040082
v -0.488638 -1.116961 0.000117
v -0.448192 -1.160846 0.000117
v -0.385459 -1.274515 -0.040082
v -0.385459 -1.214103 0.000117
v -0.541701 -1.145826 -0.040082
v -0.591867 -1.027940 -0.035577
v -0.539282 -1.017367 0.000117
v -0.604408 -0.899177 -0.035577
v -0.539282 -1.017367 0.000117
v -0.551146 -0.905510 0.000117
v -0.614739 -0.824829 -0.035577
v -0.569840 -0.795492 0.000117
v -0.677540 -0.693448 0.000117
v -0.700189 -0.707932 -0.017775
v -0.790801 -0.633269 0.000117
v -0.353580 -0.952214 -0.000127
v -0.353283 -1.146646 -0.000127
v -0.305927 -0.966320 0.038319
v -0.310596 -1.146646 0.038319
v -0.301768 -0.824282 0.038319
v -0.366789 -0.795902 -0.000127
v -0.319234 -0.711046 0.038319
v -0.409827 -0.694973 -0.000127
v -0.373295 -0.594568 0.038319
v -0.456305 -0.594568 -0.000127
v -0.434246 -0.534727 -0.000127
v -0.368206 -0.517717 0.038319
v -0.427933 -0.280147 -0.000127
v -0.357564 -0.284818 0.038319
v -0.374986 0.053430 0.038319
v -0.446581 0.058668 -0.000127
v -0.425558 0.494175 -0.000127
v -0.338565 0.504746 0.038319
v -0.345706 0.865084 -0.000127
v -0.261164 0.844225 0.038319
v -0.197520 0.979289 0.038319
v -0.250220 1.098384 -0.000127
v -0.133875 1.114352 0.038319
v -0.086126 1.302526 -0.000127
v -0.000968 1.246290 0.038319
v 0.143185 1.511894 -0.000127
v -0.358612 -1.167663 0.061562
v -0.338560 -1.305598 0.061562
v -0.272113 -1.194203 0.061562
v -0.272113 -1.333200 0.061562
v -0.205666 -1.305598 0.061562
v -0.185615 -1.167663 0.061562
v -0.049412 0.961910 -0.000127
v -0.000968 1.246290 0.038319
v -0.104320 0.996013 0.038319
v 0.143185 1.511894 -0.000127
v -0.207271 0.587330 0.038319
v -0.146369 0.564231 -0.000127
v -0.178214 0.332520 -0.000127
v -0.266525 0.078540 0.038319
v -0.209285 -0.061689 -0.000127
v -0.266960 -0.198121 0.038319
v -0.188785 -0.464386 -0.000127
v -0.230054 -0.607917 0.038319
v -0.230054 -0.607917 0.038319
v -0.154507 -0.744286 -0.000127
v -0.213327 -0.738048 0.038319
v -0.192685 -0.880821 0.038319
v -0.108514 -0.875762 -0.000127
v -0.194502 -1.146646 -0.000127
v -0.239470 -1.146646 0.038319
v -0.207271 0.587330 0.038319
v -0.104320 0.996013 0.038319
v -0.261164 0.844225 0.038319
v -0.197520 0.979289 0.038319
v -0.133875 1.114352 0.038319
v -0.000968 1.246290 0.038319
v -0.338565 0.504746 0.038319
v -0.266525 0.078540 0.038319
v -0.374986 0.053430 0.038319
v -0.266960 -0.198121 0.038319
v -0.357564 -0.284818 0.038319
v -0.230054 -0.607917 0.038319
v -0.368206 -0.517717 0.038319
v -0.373295 -0.594568 0.038319
v -0.319234 -0.711046 0.038319
v -0.213327 -0.738048 0.038319
v -0.301768 -0.824282 0.038319
v -0.192685 -0.880821 0.038319
v -0.305927 -0.966320 0.038319
v -0.239470 -1.146646 0.038319
v -0.310596 -1.146646 0.038319
v -0.272113 -1.509835 -0.038814
v -0.237682 -1.400521 -0.038814
v -0.272113 -1.509835 -0.038814
v -0.272113 -1.509835 0.038558
v -0.306545 -1.400521 0.038558
v -0.272113 -1.509835 0.038558
v -0.333325 -1.433318 0.038558
v -0.237682 -1.400521 0.038558
v -0.210901 -1.433318 0.038558
v -0.338560 -1.305598 -0.061817
v -0.272113 -1.194203 -0.061817
v -0.358612 -1.167663 -0.061817
v -0.272113 -1.333200 -0.061817
v -0.205666 -1.305598 -0.061817
v -0.185615 -1.167663 -0.061817
v -0.353283 -1.146646 -0.000127
v -0.239470 -1.146646 -0.038574
v -0.194502 -1.146646 -0.000127
v -0.310596 -1.146646 -0.038574
v -0.239470 -1.146646 0.038319
v -0.310596 -1.146646 0.038319
v -0.086126 1.302526 -0.000127
v 0.143185 1.511894 -0.000127
v -0.000968 1.246290 -0.038574
v -0.133875 1.114352 -0.038574
v -0.250220 1.098384 -0.000127
v -0.197520 0.979289 -0.038574
v -0.345706 0.865084 -0.000127
v -0.261164 0.844225 -0.038574
v -0.338565 0.504746 -0.038574
v -0.425558 0.494175 -0.000127
v -0.374986 0.053430 -0.038574
v -0.446581 0.058668 -0.000127
v -0.427933 -0.280147 -0.000127
v -0.357564 -0.284818 -0.038574
v -0.368206 -0.517717 -0.038574
v -0.434246 -0.534727 -0.000127
v -0.373295 -0.594568 -0.038574
v -0.456305 -0.594568 -0.000127
v -0.409827 -0.694973 -0.000127
v -0.319234 -0.711046 -0.038574
v -0.366789 -0.795902 -0.000127
v -0.301768 -0.824282 -0.038574
v -0.353580 -0.952214 -0.000127
v -0.305927 -0.966320 -0.038574
v -0.353283 -1.146646 -0.000127
v -0.310596 -1.146646 -0.038574
v -0.185615 -1.167663 -0.061817
v -0.205666 -1.305598 -0.061817
v -0.272113 -1.194203 -0.061817
v -0.272113 -1.333200 -0.061817
v -0.338560 -1.305598 -0.061817
v -0.358612 -1.167663 -0.061817
v -0.192685 -0.880821 -0.038574
v -0.194502 -1.146646 -0.000127
v -0.239470 -1.146646 -0.038574
v -0.108514 -0.875762 -0.000127
v -0.154507 -0.744286 -0.000127
v -0.213327 -0.738048 -0.038574
v -0.230054 -0.607917 -0.038574
v -0.188785 -0.464386 -0.000127
v -0.230054 -0.607917 -0.038574
v -0.266960 -0.198121 -0.038574
v -0.209285 -0.061689 -0.000127
v -0.266525 0.078538 -0.038574
v -0.178214 0.332520 -0.000127
v -0.207271 0.587330 -0.038574
v -0.146369 0.564231 -0.000127
v -0.049412 0.961910 -0.000127
v -0.104320 0.996013 -0.038574
v -0.000968 1.246290 -0.038574
v 0.143185 1.511894 -0.000127
v -0.305927 -0.966320 -0.038574
v -0.239470 -1.146646 -0.038574
v -0.310596 -1.146646 -0.038574
v -0.192685 -0.880821 -0.038574
v -0.301768 -0.824282 -0.038574
v -0.213327 -0.738048 -0.038574
v -0.319234 -0.711046 -0.038574
v -0.230054 -0.607917 -0.038574
v -0.373295 -0.594568 -0.038574
v -0.368206 -0.517717 -0.038574
v -0.357564 -0.284818 -0.038574
v -0.266960 -0.198121 -0.038574
v -0.374986 0.053430 -0.038574
v -0.266525 0.078538 -0.038574
v -0.338565 0.504746 -0.038574
v -0.207271 0.587330 -0.038574
v -0.261164 0.844225 -0.038574
v -0.104320 0.996013 -0.038574
v -0.197520 0.979289 -0.038574
v -0.133875 1.114352 -0.038574
v -0.000968 1.246290 -0.038574
v -0.272113 -1.509835 -0.038814
v -0.237682 -1.400521 -0.038814
v -0.272113 -1.509835 -0.038814
v -0.210901 -1.433318 -0.038814
v -0.306545 -1.400521 -0.038814
v -0.333325 -1.433318 -0.038814
v -0.205666 -1.305598 0.061562
v -0.272113 -1.194203 0.061562
v -0.185615 -1.167663 0.061562
v -0.272113 -1.333200 0.061562
v -0.338560 -1.305598 0.061562
v -0.358612 -1.167663 0.061562
vn -0.7149 -0.6992 -0.0000
vn -0.8644 -0.5029 -0.0000
vn -0.8643 -0.5029 -0.0000
vn -0.9263 -0.3768 -0.0000
vn -0.9263 -0.3767 -0.0000
vn -0.3538 0.9353 -0.0000
vn -0.3539 0.9353 -0.0000
vn 0.6912 0.7227 -0.0000
vn 0.6873 0.7264 -0.0000
vn 0.6910 0.7229 -0.0000
vn -0.0000 -0.0000 -1.0000
vn -0.0475 -0.9989 -0.0000
vn -0.0948 -0.9955 -0.0000
vn -0.0949 -0.9955 -0.0000
vn -0.2515 -0.9679 -0.0000
vn -0.2519 -0.9677 -0.0000
vn -0.5272 -0.8497 -0.0000
vn -0.0000 -0.0000 1.0000
vn -0.9612 -0.2758 -0.0000
vn -0.9612 -0.2760 -0.0000
vn -0.8764 0.4816 -0.0000
vn -0.7819 0.6235 -0.0000
vn -0.7819 0.6235 0.0001
vn -0.8763 0.4818 -0.0000
vn -0.6456 0.7637 -0.0000
vn -0.6834 0.7301 -0.0000
vn -0.6454 0.7638 -0.0000
vn -0.6992 0.7149 -0.0000
vn -0.7815 0.6240 -0.0000
vn 0.9806 -0.1961 -0.0000
vn 0.9678 -0.2519 -0.0000
vn 0.9678 -0.2518 -0.0000
vn 0.9290 -0.3702 -0.0000
vn 0.9290 -0.3701 -0.0000
vn 0.8440 -0.5364 -0.0000
vn 0.6542 -0.7563 -0.0000
vn 0.6539 -0.7566 -0.0000
vn 0.4878 -0.8730 -0.0000
vn 0.4573 -0.8893 -0.0000
vn 0.4567 -0.8896 -0.0000
vn -0.9862 0.1657 -0.0000
vn -0.3866 0.9222 -0.0000
vn -0.3701 0.9290 -0.0000
vn -0.4090 0.9125 -0.0000
vn -0.4088 0.9126 -0.0000
vn 0.8864 -0.4628 -0.0000
vn 0.8642 -0.5031 -0.0000
vn 0.8642 -0.5032 -0.0000
vn 0.7818 -0.6235 -0.0000
vn 0.7815 -0.6239 -0.0000
vn 0.5745 -0.8185 -0.0000
vn 0.3373 -0.9414 -0.0000
vn 0.3372 -0.9414 -0.0000
vn 0.1961 -0.9806 -0.0000
vn 0.1106 -0.9939 -0.0000
vn 0.1104 -0.9939 -0.0000
vn -0.6953 0.7188 -0.0000
vn -0.6954 0.7187 -0.0000
vn 0.3468 0.9379 -0.0000
vn 0.3467 0.9380 -0.0000
vn 0.3471 0.9378 -0.0000
vn 0.3468 -0.9379 -0.0000
vn 0.3063 -0.9519 -0.0000
vn 0.3065 -0.9519 -0.0000
vn 0.1580 -0.9874 -0.0000
vn 0.1577 -0.9875 -0.0000
vn -0.1412 -0.9900 -0.0000
vn -0.1413 -0.9900 -0.0000
vn -0.3863 -0.9224 -0.0000
vn -0.5886 -0.8084 -0.0000
vn -0.5887 -0.8084 -0.0000
vn -0.7025 -0.7117 -0.0000
vn -0.8186 -0.5744 -0.0001
vn -0.9290 -0.3700 -0.0000
vn -0.8186 -0.5744 -0.0000
vn -0.9888 -0.1491 -0.0000
vn -1.0000 -0.0000 -0.0000
vn 0.0236 0.9997 -0.0000
vn 0.9125 0.4092 -0.0000
vn 0.9123 0.4096 -0.0000
vn 0.9125 0.4091 -0.0000
vn 0.9124 0.4092 -0.0000
vn -0.4250 -0.9052 -0.0000
vn -0.4655 -0.8850 -0.0000
vn -0.4249 -0.9052 -0.0000
vn -0.5974 -0.8020 -0.0000
vn -0.5975 -0.8019 -0.0000
vn -0.8183 -0.5748 -0.0000
vn -0.9354 0.3536 -0.0000
vn -0.9355 0.3533 -0.0000
vn -0.0863 0.9963 -0.0000
vn -0.0872 0.9962 -0.0000
vn -0.0865 0.9963 -0.0000
vn -0.0870 0.9962 -0.0000
vn -0.0856 0.9963 -0.0000
vn 0.7149 -0.6992 -0.0000
vn 0.6832 -0.7302 -0.0000
vn 0.6831 -0.7303 -0.0000
vn 0.5655 -0.8248 -0.0000
vn 0.5653 -0.8249 -0.0000
vn 0.3067 -0.9518 -0.0000
vn 0.3068 -0.9518 -0.0000
vn 0.0472 -0.9989 -0.0000
vn -0.1809 -0.9835 -0.0000
vn -0.1808 -0.9835 -0.0000
vn -0.3303 -0.9439 -0.0000
vn -0.3306 -0.9438 -0.0000
vn 0.3205 -0.5035 -0.8024
vn 0.3662 -0.4425 -0.8186
vn 0.3882 -0.4110 -0.8248
vn 0.4720 -0.2893 -0.8328
vn 0.4945 -0.2510 -0.8322
vn 0.5461 -0.1138 -0.8299
vn 0.5399 -0.1293 -0.8318
vn 0.5718 -0.0611 -0.8181
vn 0.5632 -0.0532 -0.8246
vn 0.5417 -0.1526 -0.8266
vn 0.5541 -0.1291 -0.8224
vn 0.4867 -0.2662 -0.8320
vn 0.4709 -0.2962 -0.8310
vn 0.4414 -0.3351 -0.8324
vn -0.3973 0.4125 -0.8197
vn -0.3580 0.4798 -0.8010
vn -0.3805 0.4339 -0.8167
vn -0.4558 0.3191 -0.8309
vn -0.4709 0.2963 -0.8310
vn -0.5392 0.1369 -0.8310
vn -0.5321 0.1599 -0.8315
vn -0.5322 0.1595 -0.8315
vn -0.5624 0.0759 -0.8234
vn -0.5393 0.1367 -0.8309
vn -0.5627 0.0684 -0.8238
vn -0.5020 0.2359 -0.8321
vn -0.5167 0.2052 -0.8312
vn -0.3584 0.4498 -0.8180
vn -0.3368 0.4745 -0.8133
vn -0.2829 0.5351 -0.7960
vn 0.3204 -0.5035 0.8024
vn 0.3662 -0.4425 0.8186
vn 0.3205 -0.5035 0.8024
vn 0.3882 -0.4110 0.8248
vn 0.4720 -0.2894 0.8327
vn 0.4945 -0.2510 0.8322
vn 0.5461 -0.1138 0.8299
vn 0.5399 -0.1293 0.8318
vn 0.5718 -0.0610 0.8181
vn 0.5632 -0.0532 0.8246
vn 0.5417 -0.1525 0.8266
vn 0.5541 -0.1291 0.8224
vn 0.4867 -0.2662 0.8320
vn 0.4709 -0.2962 0.8310
vn 0.4414 -0.3349 0.8325
vn -0.3973 0.4125 0.8197
vn -0.4558 0.3190 0.8310
vn -0.3805 0.4339 0.8167
vn -0.3580 0.4798 0.8010
vn -0.4709 0.2962 0.8310
vn -0.5392 0.1368 0.8310
vn -0.5321 0.1599 0.8315
vn -0.5624 0.0760 0.8234
vn -0.5321 0.1594 0.8315
vn -0.5393 0.1367 0.8309
vn -0.5628 0.0685 0.8238
vn -0.5021 0.2358 0.8321
vn -0.5167 0.2051 0.8312
vn -0.3584 0.4499 0.8180
vn -0.3368 0.4746 0.8132
vn -0.2829 0.5351 0.7960
vn 0.8643 -0.5029 -0.0000
vn 0.9263 -0.3767 -0.0000
vn 0.3538 0.9353 -0.0000
vn -0.6912 0.7227 -0.0000
vn -0.6873 0.7264 -0.0000
vn 0.0475 -0.9989 -0.0000
vn 0.0950 -0.9955 -0.0000
vn 0.0951 -0.9955 -0.0000
vn 0.2516 -0.9678 -0.0000
vn 0.2519 -0.9677 -0.0000
vn 0.5272 -0.8497 -0.0000
vn 0.9612 -0.2758 -0.0000
vn 0.9612 -0.2757 -0.0000
vn 0.8764 0.4815 -0.0000
vn 0.7819 0.6235 -0.0000
vn 0.7819 0.6235 -0.0001
vn 0.6456 0.7637 -0.0000
vn 0.6834 0.7301 -0.0000
vn 0.6454 0.7638 -0.0000
vn 0.6992 0.7149 -0.0000
vn 0.7815 0.6240 -0.0000
vn -0.9806 -0.1961 -0.0000
vn -0.9678 -0.2518 -0.0000
vn -0.9290 -0.3702 -0.0000
vn -0.9290 -0.3701 -0.0000
vn -0.8440 -0.5364 -0.0000
vn -0.6542 -0.7563 -0.0000
vn -0.6539 -0.7566 -0.0000
vn -0.4877 -0.8730 -0.0000
vn -0.4876 -0.8731 -0.0000
vn -0.4573 -0.8893 -0.0000
vn -0.4570 -0.8894 -0.0000
vn 0.9862 0.1657 -0.0000
vn 0.3865 0.9223 -0.0000
vn 0.3701 0.9290 -0.0000
vn 0.3864 0.9223 -0.0000
vn 0.4089 0.9126 -0.0000
vn 0.4090 0.9125 -0.0000
vn -0.8864 -0.4628 -0.0000
vn -0.8641 -0.5033 -0.0000
vn -0.7818 -0.6235 -0.0000
vn -0.7815 -0.6239 -0.0000
vn -0.5745 -0.8185 -0.0000
vn -0.3373 -0.9414 -0.0000
vn -0.1961 -0.9806 -0.0000
vn -0.1960 -0.9806 -0.0000
vn -0.1106 -0.9939 -0.0000
vn -0.1105 -0.9939 -0.0000
vn 0.6952 0.7188 -0.0000
vn 0.6953 0.7187 -0.0000
vn -0.3468 0.9379 -0.0000
vn -0.3467 0.9380 -0.0000
vn -0.3471 0.9378 -0.0000
vn -0.3469 -0.9379 -0.0000
vn -0.3066 -0.9518 -0.0000
vn -0.3065 -0.9519 -0.0000
vn -0.1579 -0.9874 -0.0000
vn -0.1576 -0.9875 -0.0000
vn 0.1413 -0.9900 -0.0000
vn 0.1414 -0.9900 -0.0000
vn 0.3863 -0.9224 -0.0000
vn 0.5886 -0.8084 -0.0000
vn 0.5887 -0.8084 -0.0000
vn 0.7032 -0.7110 -0.0000
vn 0.7029 -0.7113 -0.0000
vn 0.8186 -0.5743 -0.0000
vn 0.9888 -0.1491 -0.0000
vn 1.0000 -0.0000 -0.0000
vn -0.0236 0.9997 -0.0000
vn -0.9123 0.4096 -0.0000
vn -0.9124 0.4093 -0.0000
vn -0.9125 0.4091 -0.0000
vn 0.4250 -0.9052 -0.0000
vn 0.4655 -0.8850 -0.0000
vn 0.4249 -0.9052 -0.0000
vn 0.5974 -0.8019 -0.0000
vn 0.5973 -0.8020 -0.0000
vn 0.8182 -0.5750 -0.0000
vn 0.8181 -0.5750 -0.0000
vn 0.9354 0.3536 -0.0000
vn 0.0862 0.9963 -0.0000
vn 0.0869 0.9962 -0.0000
vn 0.0867 0.9962 -0.0000
vn 0.0856 0.9963 -0.0000
vn -0.7150 -0.6992 -0.0000
vn -0.6832 -0.7302 -0.0000
vn -0.7152 -0.6989 -0.0000
vn -0.6831 -0.7303 -0.0000
vn -0.5655 -0.8248 -0.0000
vn -0.5654 -0.8248 -0.0000
vn -0.3067 -0.9518 -0.0000
vn -0.3068 -0.9518 -0.0000
vn -0.0472 -0.9989 -0.0000
vn 0.1808 -0.9835 -0.0000
vn 0.3304 -0.9438 -0.0000
vn 0.3305 -0.9438 -0.0000
vn -0.3204 -0.5035 0.8024
vn -0.3661 -0.4425 0.8186
vn -0.3882 -0.4110 0.8248
vn -0.4720 -0.2894 0.8327
vn -0.4945 -0.2510 0.8322
vn -0.5463 -0.1137 0.8299
vn -0.5399 -0.1293 0.8318
vn -0.5719 -0.0610 0.8181
vn -0.5632 -0.0532 0.8246
vn -0.5417 -0.1526 0.8266
vn -0.5541 -0.1291 0.8224
vn -0.4867 -0.2662 0.8320
vn -0.4709 -0.2962 0.8310
vn -0.4414 -0.3350 0.8324
vn 0.3973 0.4125 0.8197
vn 0.3580 0.4798 0.8010
vn 0.3805 0.4339 0.8167
vn 0.4558 0.3191 0.8309
vn 0.4709 0.2962 0.8310
vn 0.5392 0.1368 0.8310
vn 0.5321 0.1599 0.8315
vn 0.5321 0.1595 0.8315
vn 0.5624 0.0760 0.8234
vn 0.5393 0.1367 0.8309
vn 0.5628 0.0685 0.8238
vn 0.5021 0.2358 0.8321
vn 0.5167 0.2051 0.8312
vn 0.3584 0.4499 0.8180
vn 0.3368 0.4745 0.8132
vn 0.2828 0.5351 0.7960
vn -0.3205 -0.5035 -0.8024
vn -0.3662 -0.4425 -0.8186
vn -0.3882 -0.4110 -0.8248
vn -0.4720 -0.2894 -0.8327
vn -0.4945 -0.2510 -0.8322
vn -0.5461 -0.1138 -0.8300
vn -0.5399 -0.1293 -0.8318
vn -0.5719 -0.0610 -0.8181
vn -0.5632 -0.0532 -0.8246
vn -0.5417 -0.1526 -0.8266
vn -0.5541 -0.1291 -0.8224
vn -0.4867 -0.2662 -0.8320
vn -0.4709 -0.2962 -0.8310
vn -0.4414 -0.3349 -0.8325
vn 0.3973 0.4125 -0.8197
vn 0.4558 0.3190 -0.8310
vn 0.3805 0.4339 -0.8167
vn 0.3580 0.4798 -0.8010
vn 0.4709 0.2962 -0.8310
vn 0.5392 0.1369 -0.8310
vn 0.5321 0.1599 -0.8315
vn 0.5624 0.0760 -0.8234
vn 0.5322 0.1595 -0.8315
vn 0.5393 0.1367 -0.8309
vn 0.5628 0.0685 -0.8238
vn 0.5021 0.2358 -0.8321
vn 0.5167 0.2051 -0.8312
vn 0.3584 0.4499 -0.8180
vn 0.3368 0.4746 -0.8132
vn 0.2830 0.5352 -0.7959
vn -0.6044 -0.0076 0.7966
vn -0.6479 0.0075 0.7617
vn -0.6131 -0.0000 0.7900
vn -0.6480 0.0076 0.7616
vn -0.5307 -0.0607 0.8454
vn -0.5037 -0.0915 0.8590
vn -0.4489 -0.1522 0.8805
vn -0.4319 -0.1744 0.8849
vn -0.4377 -0.0604 0.8971
vn -0.4473 -0.0454 0.8932
vn -0.4773 0.0606 0.8766
vn -0.4836 0.0453 0.8741
vn -0.4840 -0.0075 0.8750
vn -0.4839 -0.0000 0.8751
vn -0.4598 -0.0000 0.8880
vn -0.4539 -0.0000 0.8910
vn -0.4225 0.0528 0.9048
vn -0.4161 0.0606 0.9073
vn -0.3857 0.1210 0.9147
vn -0.3791 0.1214 0.9174
vn -0.3540 0.1732 0.9191
vn -0.3388 0.2033 0.9186
vn -0.3165 0.2336 0.9194
vn -0.2644 0.2569 0.9296
vn -0.2479 0.2630 0.9324
vn 0.5266 -0.1602 0.8349
vn 0.5490 -0.2059 0.8101
vn 0.5313 -0.1670 0.8306
vn 0.5491 -0.2059 0.8100
vn 0.5181 -0.0991 0.8496
vn 0.5240 -0.0912 0.8468
vn 0.5307 -0.0607 0.8454
vn 0.5168 -0.0303 0.8556
vn 0.5226 -0.0152 0.8525
vn 0.5404 0.0304 0.8408
vn 0.5455 0.0455 0.8368
vn 0.5488 0.0610 0.8337
vn 0.5487 0.0610 0.8338
vn 0.4999 0.0985 0.8605
vn 0.5455 0.0455 0.8369
vn 0.5150 0.0909 0.8524
vn 0.4931 -0.0076 0.8699
vn 0.4932 -0.0000 0.8699
vn 0.5109 -0.1295 0.8498
vn -0.3005 -0.9538 -0.0000
vn 0.3003 0.9538 -0.0000
vn -0.0000 -1.0000 -0.0000
vn -0.2644 0.2569 -0.9296
vn -0.2479 0.2630 -0.9324
vn -0.2480 0.2627 -0.9325
vn -0.3167 0.2336 -0.9193
vn -0.3388 0.2033 -0.9186
vn -0.3540 0.1732 -0.9191
vn -0.3857 0.1210 -0.9147
vn -0.3791 0.1214 -0.9174
vn -0.4160 0.0606 -0.9073
vn -0.4225 0.0527 -0.9048
vn -0.4598 -0.0000 -0.8880
vn -0.4538 -0.0000 -0.8911
vn -0.4840 -0.0075 -0.8750
vn -0.4840 -0.0000 -0.8751
vn -0.4835 0.0454 -0.8742
vn -0.4773 0.0606 -0.8766
vn -0.4377 -0.0604 -0.8971
vn -0.4473 -0.0454 -0.8932
vn -0.4319 -0.1744 -0.8849
vn -0.4489 -0.1522 -0.8805
vn -0.5036 -0.0916 -0.8590
vn -0.5307 -0.0605 -0.8454
vn -0.6044 -0.0076 -0.7966
vn -0.6131 -0.0000 -0.7900
vn -0.6479 0.0075 -0.7617
vn -0.6480 0.0075 -0.7616
vn 0.4931 -0.0076 -0.8699
vn 0.5110 -0.1295 -0.8498
vn 0.5109 -0.1295 -0.8498
vn 0.4931 -0.0000 -0.8700
vn 0.4999 0.0985 -0.8604
vn 0.5150 0.0909 -0.8524
vn 0.5487 0.0610 -0.8338
vn 0.5455 0.0455 -0.8369
vn 0.5489 0.0610 -0.8337
vn 0.5405 0.0304 -0.8408
vn 0.5226 -0.0152 -0.8524
vn 0.5168 -0.0304 -0.8556
vn 0.5308 -0.0607 -0.8453
vn 0.5180 -0.0991 -0.8496
vn 0.5240 -0.0912 -0.8468
vn 0.5266 -0.1602 -0.8349
vn 0.5314 -0.1670 -0.8305
vn 0.5490 -0.2059 -0.8101
vt 0.168015 0.781506
vt 0.148117 0.847504
vt 0.148117 0.781506
vt 0.168015 0.847504
vt 0.148117 0.907540
vt 0.168015 0.907540
vt 0.024827 0.841877
vt 0.084292 0.821978
vt 0.084292 0.841877
vt 0.024827 0.821978
vt 0.179518 0.821978
vt 0.291305 0.821978
vt 0.179518 0.841877
vt 0.291305 0.841877
vt 0.136614 0.839440
vt 0.210524 0.781506
vt 0.231840 0.930192
vt 0.266974 0.847504
vt 0.291305 0.907540
vt 0.179343 0.753518
vt 0.157729 0.745496
vt 0.102728 0.737503
vt 0.024827 0.733663
vt 0.102728 0.841877
vt 0.102728 0.821978
vt 0.157729 0.841877
vt 0.157729 0.821978
vt 0.179343 0.841877
vt 0.179343 0.821978
vt 0.210524 0.841877
vt 0.210524 0.821978
vt 0.179518 0.839440
vt 0.105608 0.781506
vt 0.136789 0.753518
vt 0.158403 0.745496
vt 0.213404 0.737503
vt 0.291305 0.733663
vt 0.084292 0.930192
vt 0.049158 0.847504
vt 0.024827 0.907540
vt 0.023807 0.938103
vt 0.060977 0.851782
vt 0.060977 0.938103
vt 0.023807 0.851782
vt 0.060977 1.026320
vt 0.023807 1.026320
vt 0.078775 1.124110
vt 0.203724 1.124110
vt 0.078775 1.161280
vt 0.203724 1.161280
vt 0.303874 1.124110
vt 0.303874 1.161280
vt -0.170416 1.161280
vt -0.170416 1.124110
vt 0.006009 1.223770
vt -0.126571 1.132200
vt -0.031190 1.022510
vt 0.078499 0.954794
vt -0.118940 1.335370
vt 0.255200 1.026320
vt 0.278799 0.851782
vt 0.303874 0.938103
vt -0.157093 1.196110
vt -0.193338 1.304840
vt -0.219091 1.433610
vt 0.023807 1.433610
vt 0.060977 1.304840
vt 0.060977 1.433610
vt 0.023807 1.304840
vt 0.060977 1.196110
vt 0.023807 1.196110
vt 0.060977 1.132200
vt 0.023807 1.132200
vt 0.060977 1.022510
vt 0.023807 1.022510
vt -0.031190 1.124110
vt 0.078499 1.161280
vt -0.031190 1.161280
vt 0.078499 1.124110
vt 0.278799 1.161280
vt 0.278799 1.124110
vt 0.006285 0.954794
vt -0.170416 1.026320
vt -0.194015 0.851782
vt -0.219091 0.938103
vt 0.078775 1.223770
vt 0.115974 1.022510
vt 0.211355 1.132200
vt 0.203724 1.335370
vt 0.241877 1.196110
vt 0.278122 1.304840
vt 0.303874 1.433610
vt 0.172434 1.179610
vt 0.142407 1.097520
vt 0.172434 1.097520
vt 0.142407 1.179610
vt 0.192187 1.235160
vt 0.426380 1.235160
vt 0.192187 1.265190
vt 0.426380 1.265190
vt -0.098075 1.265190
vt -0.098075 1.235160
vt 0.224120 1.120450
vt 0.412916 1.179610
vt 0.122653 1.309000
vt 0.426380 1.097520
vt 0.087124 1.159200
vt 0.024058 1.186420
vt -0.002717 1.213090
vt -0.052363 1.289490
vt -0.111540 1.402830
vt 0.142407 1.402830
vt 0.172434 1.289490
vt 0.172434 1.402830
vt 0.142407 1.289490
vt 0.172434 1.213090
vt 0.142407 1.213090
vt -0.002717 1.235160
vt 0.024058 1.265190
vt -0.002717 1.265190
vt 0.024058 1.235160
vt 0.087124 1.265190
vt 0.087124 1.235160
vt 0.224120 1.265190
vt 0.224120 1.235160
vt 0.227716 1.159200
vt 0.192187 1.309000
vt 0.090720 1.120450
vt 0.290783 1.186420
vt 0.317558 1.213090
vt 0.367204 1.289490
vt 0.426380 1.402830
vt -0.098075 1.179610
vt -0.111540 1.097520
vt -0.309572 1.036440
vt -0.255871 1.013810
vt -0.255871 1.036440
vt -0.309572 1.013810
vt -0.110745 1.013810
vt 0.059268 1.013810
vt -0.110745 1.036440
vt 0.059268 1.036440
vt -0.139559 1.054620
vt -0.086676 0.957628
vt 0.005567 1.108340
vt 0.005035 1.002650
vt 0.059268 1.056190
vt -0.133392 0.941905
vt -0.160478 0.943299
vt -0.223622 0.960266
vt -0.309572 0.992381
vt -0.223622 1.036440
vt -0.223622 1.013810
vt -0.160478 1.036440
vt -0.160478 1.013810
vt -0.133392 1.013810
vt -0.133392 1.036440
vt -0.086676 1.013810
vt -0.086676 1.036440
vt 0.005035 1.036440
vt 0.005035 1.013810
vt -0.089826 0.943299
vt -0.026682 0.960266
vt -0.110745 1.054620
vt 0.059268 0.992381
vt -0.116912 0.941905
vt -0.163628 0.957628
vt -0.255871 1.108340
vt -0.255339 1.002650
vt -0.309572 1.056190
vt -0.157405 1.040100
vt -0.176344 1.069950
vt -0.176344 1.040100
vt -0.157405 1.069950
vt -0.176344 1.135230
vt -0.157405 1.135230
vt -0.157405 1.186530
vt -0.176344 1.186530
vt -0.238495 1.073450
vt -0.188118 1.092390
vt -0.238495 1.092390
vt -0.188118 1.073450
vt -0.116776 1.069950
vt -0.095132 1.135230
vt -0.145631 1.185340
vt -0.095254 1.186530
vt -0.188301 1.090310
vt -0.131265 1.040100
vt -0.144712 1.027750
vt -0.182649 1.005430
vt -0.238618 0.979311
vt -0.157405 1.185340
vt -0.176344 1.185340
vt -0.176344 1.090310
vt -0.157405 1.090310
vt -0.176344 0.979311
vt -0.157405 0.979311
vt -0.238618 1.073450
vt -0.182649 1.092390
vt -0.238618 1.092390
vt -0.182649 1.073450
vt -0.144712 1.092390
vt -0.144712 1.073450
vt -0.131265 1.092390
vt -0.131265 1.073450
vt -0.216973 1.069950
vt -0.145448 1.090310
vt -0.188118 1.185340
vt -0.238618 1.135230
vt -0.238495 1.186530
vt -0.202484 1.040100
vt -0.189037 1.027750
vt -0.151101 1.005430
vt -0.095132 0.979311
vt -0.218105 1.160400
vt -0.244227 1.062760
vt -0.218105 1.062760
vt -0.244227 1.160400
vt -0.231021 1.100210
vt 0.020266 1.100210
vt -0.231021 1.126330
vt 0.020266 1.126330
vt -0.445873 1.126330
vt -0.445873 1.100210
vt -0.222247 1.025180
vt -0.079895 1.027480
vt -0.231311 1.178860
vt -0.290477 1.033100
vt -0.323793 1.050950
vt -0.393318 1.109830
vt -0.482598 1.201360
vt -0.016460 1.160400
vt 0.020266 1.062760
vt -0.244227 1.201360
vt -0.218105 1.109830
vt -0.218105 1.201360
vt -0.244227 1.109830
vt -0.393318 1.100210
vt -0.323793 1.126330
vt -0.393318 1.126330
vt -0.323793 1.100210
vt -0.290477 1.126330
vt -0.290477 1.100210
vt -0.222247 1.126330
vt -0.222247 1.100210
vt -0.079895 1.126330
vt -0.079895 1.100210
vt -0.231021 1.178860
vt -0.382437 1.027480
vt -0.240085 1.025180
vt -0.171856 1.033100
vt -0.138539 1.050950
vt -0.069014 1.109830
vt 0.020266 1.201360
vt -0.445873 1.160400
vt -0.482598 1.062760
vt 0.040009 0.320899
vt -0.061870 0.447477
vt -0.104113 0.408574
vt 0.040009 0.378326
vt -0.108525 0.500662
vt -0.158971 0.473221
vt -0.206206 0.602683
vt -0.156215 0.612735
vt -0.218772 0.741161
vt -0.168138 0.735141
vt -0.220643 0.777924
vt -0.177959 0.805821
vt -0.259193 0.916952
vt -0.280724 0.903178
vt -0.345334 0.987936
vt -0.019628 0.486380
vt 0.040009 0.435753
vt -0.058078 0.528102
vt -0.106224 0.622787
vt -0.117503 0.729120
vt -0.135276 0.833717
vt -0.237661 0.930725
vt -0.345334 0.320899
vt -0.243454 0.447477
vt -0.345334 0.378326
vt -0.201212 0.408574
vt -0.196800 0.500662
vt -0.146354 0.473221
vt -0.099119 0.602683
vt -0.149110 0.612735
vt -0.086552 0.741161
vt -0.137187 0.735141
vt -0.084682 0.777924
vt -0.127365 0.805821
vt -0.046132 0.916952
vt -0.024601 0.903178
vt 0.040010 0.987936
vt -0.247247 0.528102
vt -0.285697 0.486380
vt -0.345334 0.435753
vt -0.199100 0.622787
vt -0.187822 0.729120
vt -0.170049 0.833717
vt -0.067663 0.930725
vt 0.153648 1.138710
vt 0.133749 1.204710
vt 0.133749 1.138710
vt 0.153648 1.204710
vt 0.133749 1.264740
vt 0.153648 1.264740
vt 0.010460 1.199080
vt 0.069925 1.179180
vt 0.069925 1.199080
vt 0.010460 1.179180
vt 0.165151 1.179180
vt 0.276937 1.179180
vt 0.165151 1.199080
vt 0.276937 1.199080
vt 0.122246 1.196640
vt 0.196157 1.138710
vt 0.217473 1.287390
vt 0.252607 1.204710
vt 0.276937 1.264740
vt 0.164975 1.110720
vt 0.143362 1.102700
vt 0.088360 1.094710
vt 0.010460 1.090870
vt 0.088360 1.199080
vt 0.088360 1.179180
vt 0.143362 1.199080
vt 0.143362 1.179180
vt 0.164975 1.199080
vt 0.164975 1.179180
vt 0.196157 1.199080
vt 0.196157 1.179180
vt 0.165151 1.196640
vt 0.091240 1.138710
vt 0.122422 1.110720
vt 0.144035 1.102700
vt 0.199037 1.094710
vt 0.276937 1.090870
vt 0.069925 1.287390
vt 0.034790 1.204710
vt 0.010460 1.264740
vt -0.192963 0.422371
vt -0.155793 0.336050
vt -0.155793 0.422371
vt -0.192963 0.336050
vt -0.155794 0.510584
vt -0.192963 0.510584
vt -0.137996 0.608378
vt -0.013046 0.608378
vt -0.137996 0.645548
vt -0.013046 0.645548
vt 0.087104 0.608378
vt 0.087104 0.645548
vt -0.387187 0.645548
vt -0.387187 0.608378
vt -0.210761 0.708037
vt -0.343341 0.616471
vt -0.247960 0.506782
vt -0.138272 0.439062
vt -0.335711 0.819633
vt 0.038430 0.510584
vt 0.062029 0.336050
vt 0.087104 0.422371
vt -0.373863 0.680376
vt -0.410108 0.789111
vt -0.435861 0.917875
vt -0.192963 0.917875
vt -0.155794 0.789111
vt -0.155793 0.917875
vt -0.192963 0.789111
vt -0.155794 0.680376
vt -0.192963 0.680376
vt -0.155794 0.616471
vt -0.192963 0.616471
vt -0.155794 0.506782
vt -0.192963 0.506782
vt -0.247960 0.608378
vt -0.138272 0.645548
vt -0.247960 0.645548
vt -0.138272 0.608378
vt 0.062029 0.645547
vt 0.062029 0.608378
vt -0.210485 0.439062
vt -0.387187 0.510584
vt -0.410786 0.336050
vt -0.435861 0.422371
vt -0.137996 0.708037
vt -0.100797 0.506782
vt -0.005416 0.616471
vt -0.013046 0.819633
vt 0.025106 0.680376
vt 0.061351 0.789111
vt 0.087104 0.917875
vt 0.449090 1.069710
vt 0.419063 0.987618
vt 0.449090 0.987618
vt 0.419063 1.069710
vt 0.468844 1.125260
vt 0.703037 1.125260
vt 0.468844 1.155280
vt 0.703037 1.155280
vt 0.178581 1.155280
vt 0.178581 1.125260
vt 0.500777 1.010550
vt 0.689572 1.069710
vt 0.399310 1.199090
vt 0.703037 0.987618
vt 0.363781 1.049300
vt 0.300714 1.076510
vt 0.273939 1.103180
vt 0.224293 1.179580
vt 0.165117 1.292920
vt 0.419063 1.292920
vt 0.449090 1.179580
vt 0.449090 1.292920
vt 0.419063 1.179580
vt 0.449090 1.103180
vt 0.419063 1.103180
vt 0.273939 1.125260
vt 0.300714 1.155280
vt 0.273939 1.155280
vt 0.300714 1.125260
vt 0.363781 1.155280
vt 0.363781 1.125260
vt 0.500777 1.155280
vt 0.500777 1.125260
vt 0.504373 1.049300
vt 0.468844 1.199090
vt 0.367377 1.010550
vt 0.567439 1.076510
vt 0.594214 1.103180
vt 0.643860 1.179580
vt 0.703037 1.292920
vt 0.178581 1.069710
vt 0.165117 0.987618
vt -0.424615 0.841111
vt -0.370914 0.818479
vt -0.370914 0.841111
vt -0.424615 0.818479
vt -0.225787 0.818479
vt -0.055774 0.818479
vt -0.225787 0.841111
vt -0.055774 0.841111
vt -0.254602 0.859295
vt -0.201718 0.762298
vt -0.109475 0.913015
vt -0.110008 0.807325
vt -0.055774 0.860861
vt -0.248435 0.746575
vt -0.275520 0.747970
vt -0.338665 0.764937
vt -0.424615 0.797051
vt -0.338665 0.841111
vt -0.338665 0.818479
vt -0.275520 0.841111
vt -0.275520 0.818479
vt -0.248435 0.818479
vt -0.248435 0.841111
vt -0.201718 0.818479
vt -0.201718 0.841111
vt -0.110008 0.841111
vt -0.110008 0.818479
vt -0.204869 0.747970
vt -0.141725 0.764937
vt -0.225787 0.859295
vt -0.055774 0.797051
vt -0.231954 0.746575
vt -0.278671 0.762298
vt -0.370914 0.913015
vt -0.370382 0.807325
vt -0.424615 0.860861
vt 0.028329 0.890544
vt 0.009390 0.920394
vt 0.009390 0.890544
vt 0.028329 0.920394
vt 0.009390 0.985675
vt 0.028329 0.985675
vt 0.028329 1.036970
vt 0.009390 1.036970
vt -0.052761 0.923896
vt -0.002383 0.942835
vt -0.052761 0.942835
vt -0.002383 0.923896
vt 0.068959 0.920394
vt 0.090603 0.985675
vt 0.040103 1.035790
vt 0.090480 1.036970
vt -0.002567 0.940760
vt 0.054469 0.890544
vt 0.041022 0.878196
vt 0.003086 0.855879
vt -0.052883 0.829757
vt 0.028329 1.035790
vt 0.009390 1.035790
vt 0.009390 0.940760
vt 0.028329 0.940760
vt 0.009390 0.829757
vt 0.028329 0.829757
vt -0.052883 0.923896
vt 0.003086 0.942835
vt -0.052883 0.942835
vt 0.003086 0.923896
vt 0.041022 0.942835
vt 0.041022 0.923896
vt 0.054469 0.942835
vt 0.054469 0.923896
vt -0.031239 0.920394
vt 0.040286 0.940760
vt -0.002383 1.035790
vt -0.052883 0.985675
vt -0.052761 1.036970
vt -0.016750 0.890544
vt -0.003302 0.878196
vt 0.034634 0.855879
vt 0.090603 0.829757
vt -0.305285 1.237190
vt -0.331407 1.139550
vt -0.305285 1.139550
vt -0.331407 1.237190
vt -0.318201 1.177000
vt -0.066914 1.177000
vt -0.318201 1.203120
vt -0.066914 1.203120
vt -0.533053 1.203120
vt -0.533053 1.177000
vt -0.309427 1.101970
vt -0.167075 1.104270
vt -0.318491 1.255650
vt -0.377657 1.109890
vt -0.410973 1.127740
vt -0.480498 1.186620
vt -0.569778 1.278150
vt -0.103640 1.237190
vt -0.066914 1.139550
vt -0.331407 1.278150
vt -0.305285 1.186620
vt -0.305285 1.278150
vt -0.331407 1.186620
vt -0.480498 1.177000
vt -0.410973 1.203120
vt -0.480498 1.203120
vt -0.410973 1.177000
vt -0.377657 1.203120
vt -0.377657 1.177000
vt -0.309427 1.203120
vt -0.309427 1.177000
vt -0.167075 1.203120
vt -0.167075 1.177000
vt -0.318201 1.255650
vt -0.469617 1.104270
vt -0.327265 1.101970
vt -0.259036 1.109890
vt -0.225720 1.127740
vt -0.156194 1.186620
vt -0.066914 1.278150
vt -0.533053 1.237190
vt -0.569778 1.139550
vt -0.178675 0.920588
vt -0.280554 1.047170
vt -0.322797 1.008260
vt -0.178675 0.978015
vt -0.327209 1.100350
vt -0.377655 1.072910
vt -0.424890 1.202370
vt -0.374899 1.212420
vt -0.437457 1.340850
vt -0.386822 1.334830
vt -0.439327 1.377610
vt -0.396643 1.405510
vt -0.477877 1.516640
vt -0.499408 1.502870
vt -0.564018 1.587630
vt -0.238312 1.086070
vt -0.178675 1.035440
vt -0.276762 1.127790
vt -0.324909 1.222480
vt -0.336187 1.328810
vt -0.353960 1.433410
vt -0.456346 1.530420
vt -0.564018 0.920588
vt -0.462139 1.047170
vt -0.564018 0.978015
vt -0.419896 1.008260
vt -0.415484 1.100350
vt -0.365038 1.072910
vt -0.317803 1.202370
vt -0.367794 1.212420
vt -0.305236 1.340850
vt -0.355871 1.334830
vt -0.303366 1.377610
vt -0.346050 1.405510
vt -0.264816 1.516640
vt -0.243285 1.502870
vt -0.178675 1.587630
vt -0.465931 1.127790
vt -0.504381 1.086070
vt -0.564018 1.035440
vt -0.417784 1.222480
vt -0.406506 1.328810
vt -0.388733 1.433410
vt -0.286347 1.530420
vt 0.670911 -1.071080
vt 0.671193 -1.255920
vt 0.716213 -1.084490
vt 0.711774 -1.255920
vt 0.720167 -0.949461
vt 0.658354 -0.922479
vt 0.703562 -0.841814
vt 0.617438 -0.826529
vt 0.652168 -0.731078
vt 0.573253 -0.731078
vt 0.594224 -0.674186
vt 0.657007 -0.658021
vt 0.600226 -0.432166
vt 0.667123 -0.436611
vt 0.650560 -0.115053
vt 0.582498 -0.110073
vt 0.602484 0.303949
vt 0.685184 0.314000
vt 0.678397 0.656557
vt 0.758767 0.636730
vt 0.819272 0.765131
vt 0.769171 0.878354
vt 0.879776 0.893531
vt 0.925170 1.072420
vt 1.006130 1.018960
vt 1.143170 1.271460
vt 0.666128 -1.275900
vt 0.685190 -1.407030
vt 0.748359 -1.301130
vt 0.748359 -1.433270
vt 0.811528 -1.407030
vt 0.830590 -1.275900
vt 0.960073 0.748611
vt 0.907873 0.781033
vt 0.810002 0.392510
vt 0.867899 0.370555
vt 0.837626 0.150266
vt 0.753670 -0.091182
vt 0.808087 -0.224494
vt 0.753257 -0.354188
vt 0.827575 -0.607323
vt 0.788343 -0.743772
vt 0.860162 -0.873405
vt 0.804245 -0.867479
vt 0.823867 -1.003210
vt 0.903887 -0.998404
vt 0.822141 -1.255920
vt 0.779391 -1.255920
vt 0.748359 -1.601190
vt 0.781092 -1.497270
vt 0.715626 -1.497270
vt 0.690167 -1.528450
vt 0.806551 -1.528450
vt 0.666127 -1.275900
vt 0.671193 -0.164863
vt 0.779391 -0.203310
vt 0.822141 -0.164863
vt 0.711774 -0.203310
vt 0.779391 -0.126416
vt 0.711774 -0.126416
vt 0.791251 1.072420
vt 0.573253 1.271460
vt 0.710295 1.018960
vt 0.836645 0.893531
vt 0.947250 0.878354
vt 0.897149 0.765131
vt 1.038020 0.656557
vt 0.957654 0.636730
vt 1.031240 0.314000
vt 1.113940 0.303949
vt 1.065860 -0.115053
vt 1.133920 -0.110073
vt 1.116190 -0.432166
vt 1.049300 -0.436611
vt 1.059410 -0.658021
vt 1.122200 -0.674186
vt 1.064250 -0.731078
vt 1.143170 -0.731078
vt 1.098980 -0.826529
vt 1.012860 -0.841814
vt 1.058070 -0.922479
vt 0.996255 -0.949461
vt 1.045510 -1.071080
vt 1.000210 -1.084490
vt 1.045230 -1.255920
vt 1.004650 -1.255920
vt 0.885831 -1.275900
vt 0.904893 -1.407030
vt 0.968063 -1.301130
vt 0.968063 -1.433270
vt 1.031230 -1.407030
vt 1.050290 -1.275900
vt 0.892554 -1.003210
vt 0.894280 -1.255920
vt 0.937030 -1.255920
vt 0.812535 -0.998404
vt 0.856259 -0.873405
vt 0.912177 -0.867479
vt 0.928078 -0.743772
vt 0.888846 -0.607323
vt 0.963164 -0.354188
vt 0.908334 -0.224494
vt 0.962751 -0.091182
vt 0.878795 0.150266
vt 0.906419 0.392510
vt 0.848523 0.370555
vt 0.756349 0.748611
vt 0.808548 0.781033
vt 0.935330 -1.497270
vt 0.909871 -1.528450
vt 0.968063 -1.601190
vt 1.000800 -1.497270
vt 1.026250 -1.528450
s 1
usemtl Meshpart1Mtl.006
f 1/1/1 2/2/2 3/3/1
f 2/2/2 1/1/1 4/4/3
f 4/4/3 5/5/4 2/2/2
f 5/5/4 4/4/3 6/6/5
f 7/7/6 8/8/6 9/9/7
f 8/8/6 7/7/6 10/10/7
f 11/11/8 12/12/9 13/13/8
f 14/14/9 13/13/8 12/12/9
f 15/9/10 16/11/10 17/13/8
f 16/11/10 15/9/10 18/8/8
f 19/15/11 20/16/11 21/17/11
f 21/17/11 20/16/11 22/18/11
f 23/19/11 21/17/11 22/18/11
f 20/16/11 19/15/11 24/20/11
f 19/15/11 25/21/11 24/20/11
f 25/21/11 19/15/11 26/22/11
f 26/22/11 19/15/11 27/23/11
f 28/10/12 29/24/13 30/7/12
f 29/24/13 28/10/12 31/25/14
f 31/25/14 32/26/15 29/24/13
f 32/26/15 31/25/14 33/27/15
f 34/27/16 35/28/17 36/26/16
f 35/28/17 34/27/16 37/29/17
f 37/29/17 38/30/1 35/28/17
f 38/30/1 37/29/17 39/31/1
f 40/32/18 41/33/18 42/34/18
f 40/32/18 42/34/18 43/35/18
f 40/32/18 43/35/18 44/36/18
f 44/36/18 45/37/18 40/32/18
f 41/33/18 40/32/18 46/38/18
f 41/33/18 46/38/18 47/39/18
f 47/39/18 46/38/18 48/40/18
f 49/41/19 50/42/19 51/43/20
f 50/42/19 49/41/19 52/44/20
f 55/41/21 54/45/22 53/46/23
f 54/45/22 55/41/21 56/43/24
f 57/47/25 58/48/26 59/49/27
f 60/50/26 59/49/27 58/48/26
f 60/50/26 58/48/26 61/51/28
f 62/52/28 60/50/26 61/51/28
f 63/53/29 57/47/25 59/49/27
f 57/47/25 63/53/29 64/54/29
f 65/55/11 66/56/11 67/57/11
f 65/55/11 67/57/11 68/58/11
f 69/59/11 66/56/11 65/55/11
f 68/58/11 70/60/11 65/55/11
f 71/61/11 70/60/11 68/58/11
f 70/60/11 71/61/11 72/62/11
f 66/56/11 69/59/11 73/63/11
f 73/63/11 69/59/11 74/64/11
f 74/64/11 69/59/11 75/65/11
f 76/66/30 77/67/31 78/68/30
f 77/67/31 76/66/30 79/69/32
f 79/69/32 80/70/33 77/67/31
f 80/70/33 79/69/32 81/71/34
f 81/71/34 82/72/35 80/70/33
f 82/72/35 81/71/34 83/73/35
f 83/73/35 84/74/36 82/72/35
f 84/74/36 83/73/35 85/75/36
f 87/76/37 88/77/38 86/78/37
f 88/77/38 87/76/37 89/79/38
f 89/79/38 90/80/39 88/77/38
f 90/80/39 89/79/38 91/81/40
f 92/82/18 93/83/18 94/84/18
f 94/84/18 93/83/18 95/85/18
f 93/83/18 92/82/18 96/86/18
f 97/87/18 96/86/18 92/82/18
f 96/86/18 97/87/18 98/88/18
f 98/88/18 99/89/18 96/86/18
f 99/89/18 98/88/18 100/90/18
f 99/89/18 100/90/18 101/91/18
f 101/91/18 102/92/18 99/89/18
f 103/93/41 104/94/41 105/95/41
f 104/94/41 103/93/41 106/96/41
f 107/97/42 108/98/43 109/99/42
f 110/100/43 109/99/42 108/98/43
f 111/101/44 107/97/42 109/99/42
f 107/97/42 111/101/44 112/102/45
f 113/103/11 114/104/11 115/105/11
f 114/104/11 113/103/11 116/106/11
f 115/105/11 117/107/11 113/103/11
f 115/105/11 118/108/11 117/107/11
f 118/108/11 115/105/11 119/109/11
f 119/109/11 115/105/11 120/110/11
f 120/110/11 115/105/11 121/111/11
f 122/112/46 123/113/47 124/114/46
f 123/113/47 122/112/46 125/115/48
f 125/115/48 126/116/49 123/113/47
f 126/116/49 125/115/48 127/117/49
f 129/118/50 130/119/51 128/120/50
f 130/119/51 129/118/50 131/121/51
f 131/121/51 132/122/52 130/119/51
f 132/122/52 131/121/51 133/123/53
f 133/123/53 134/124/54 132/122/52
f 134/124/54 133/123/53 135/125/54
f 135/125/54 136/100/55 134/124/54
f 136/100/55 135/125/54 137/98/56
f 138/126/18 139/127/18 140/128/18
f 141/129/18 139/127/18 138/126/18
f 139/127/18 141/129/18 142/130/18
f 139/127/18 142/130/18 143/131/18
f 139/127/18 143/131/18 144/132/18
f 140/128/18 139/127/18 145/133/18
f 140/128/18 145/133/18 146/134/18
f 147/135/57 148/136/58 149/137/57
f 148/136/58 147/135/57 150/138/57
f 151/139/59 152/140/60 153/141/59
f 154/142/59 153/141/59 152/140/60
f 155/137/61 151/139/59 153/141/59
f 151/139/59 155/137/61 156/136/61
f 157/143/11 158/144/11 159/145/11
f 159/145/11 158/144/11 160/146/11
f 160/146/11 161/147/11 159/145/11
f 158/144/11 157/143/11 162/148/11
f 157/143/11 163/149/11 162/148/11
f 163/149/11 157/143/11 164/150/11
f 164/150/11 157/143/11 165/151/11
f 166/138/62 167/152/63 168/135/62
f 167/152/63 166/138/62 169/153/64
f 169/153/64 170/154/65 167/152/63
f 170/154/65 169/153/64 171/155/66
f 172/156/67 170/154/65 171/155/66
f 170/154/65 172/156/67 173/157/68
f 174/158/69 173/157/68 172/156/67
f 173/157/68 174/158/69 175/159/69
f 176/158/69 177/160/70 178/159/69
f 177/160/70 176/158/69 179/161/71
f 179/161/71 180/142/72 177/160/70
f 180/142/72 179/161/71 181/140/72
f 182/162/18 183/163/18 184/164/18
f 185/165/18 184/164/18 183/163/18
f 184/164/18 186/166/18 182/162/18
f 184/164/18 187/167/18 186/166/18
f 188/168/18 187/167/18 184/164/18
f 187/167/18 188/168/18 189/169/18
f 189/169/18 188/168/18 190/170/18
f 192/171/73 193/172/74 191/173/75
f 193/172/74 192/171/73 194/174/74
f 194/174/74 195/175/76 193/172/74
f 195/175/76 194/174/74 196/176/76
f 197/177/77 195/175/76 196/176/76
f 197/177/77 198/178/77 195/175/76
f 199/179/78 200/180/78 201/181/78
f 200/180/78 199/179/78 202/182/78
f 203/183/11 204/184/11 205/185/11
f 206/186/11 205/185/11 204/184/11
f 207/187/11 203/183/11 205/185/11
f 203/183/11 207/187/11 208/188/11
f 207/187/11 209/189/11 208/188/11
f 209/189/11 207/187/11 210/190/11
f 210/190/11 207/187/11 211/191/11
f 212/192/79 213/193/80 214/194/79
f 212/192/79 214/194/79 215/195/80
f 216/194/81 217/196/82 218/195/82
f 218/195/82 217/196/82 219/197/81
f 220/198/83 221/199/84 222/200/85
f 221/199/84 220/198/83 223/201/84
f 223/201/84 224/202/86 221/199/84
f 224/202/86 223/201/84 225/203/87
f 225/203/87 226/204/88 224/202/86
f 226/204/88 225/203/87 227/205/88
f 228/206/18 229/207/18 230/208/18
f 228/206/18 230/208/18 231/209/18
f 231/209/18 230/208/18 232/210/18
f 229/207/18 228/206/18 233/211/18
f 234/212/18 229/207/18 233/211/18
f 229/207/18 234/212/18 235/213/18
f 229/207/18 235/213/18 236/214/18
f 237/215/89 238/216/89 239/217/90
f 238/216/89 237/215/89 240/218/90
f 241/219/91 242/220/92 243/221/93
f 244/222/94 243/221/93 242/220/92
f 245/223/95 241/219/91 243/221/93
f 241/219/91 245/223/95 246/224/95
f 247/225/11 248/226/11 249/227/11
f 249/227/11 250/228/11 247/225/11
f 250/228/11 249/227/11 251/229/11
f 251/229/11 249/227/11 252/230/11
f 252/230/11 249/227/11 253/231/11
f 248/226/11 254/232/11 249/227/11
f 254/232/11 248/226/11 255/233/11
f 256/234/96 257/235/97 258/236/96
f 257/235/97 256/234/96 259/237/97
f 261/238/98 262/239/99 260/240/98
f 262/239/99 261/238/98 263/241/100
f 263/241/100 264/242/101 262/239/99
f 264/242/101 263/241/100 265/243/102
f 265/243/102 266/244/103 264/242/101
f 266/244/103 265/243/102 267/245/103
f 268/245/103 269/246/104 266/244/103
f 269/246/104 268/245/103 270/247/105
f 270/247/105 271/222/106 269/246/104
f 271/222/106 270/247/105 272/220/107
f 273/248/18 274/249/18 275/250/18
f 276/251/18 273/248/18 275/250/18
f 273/248/18 276/251/18 277/252/18
f 273/248/18 277/252/18 278/253/18
f 278/253/18 279/254/18 273/248/18
f 274/249/18 273/248/18 280/255/18
f 274/249/18 280/255/18 281/256/18
f 282/257/108 283/258/109 284/259/110
f 283/258/109 282/257/108 285/260/108
f 284/259/110 283/258/109 286/261/111
f 286/261/111 287/262/112 284/259/110
f 286/261/111 288/263/113 287/262/112
f 288/263/113 286/261/111 289/264/114
f 289/264/114 290/265/115 288/263/113
f 290/265/115 289/264/114 291/266/116
f 291/266/116 292/267/117 290/265/115
f 292/267/117 291/266/116 293/268/118
f 292/267/117 293/268/118 294/269/119
f 295/270/120 292/267/117 294/269/119
f 295/270/120 294/269/119 296/271/121
f 297/258/122 298/260/123 299/272/124
f 298/260/123 300/273/123 299/272/124
f 297/258/122 299/272/124 301/274/125
f 301/274/125 302/261/126 297/258/122
f 301/274/125 303/264/127 302/261/126
f 303/264/127 301/274/125 304/275/128
f 305/275/129 306/266/130 303/264/131
f 306/266/130 305/275/129 307/276/132
f 307/276/132 308/268/133 306/266/130
f 308/268/133 307/276/132 309/277/134
f 308/268/133 309/277/134 310/278/135
f 311/269/136 308/268/133 310/278/135
f 311/269/136 310/278/135 312/271/137
f 313/279/138 314/280/139 315/281/140
f 314/280/139 313/279/138 316/282/141
f 316/282/141 317/283/142 314/280/139
f 317/283/142 316/282/141 318/284/143
f 319/285/144 317/283/142 318/284/143
f 319/285/144 320/286/145 317/283/142
f 321/287/146 320/286/145 319/285/144
f 321/287/146 322/288/147 320/286/145
f 323/289/148 322/288/147 321/287/146
f 323/289/148 324/290/149 322/288/147
f 323/289/148 325/291/150 324/290/149
f 325/291/150 323/289/148 326/292/151
f 325/291/150 326/292/151 327/293/152
f 328/280/153 329/294/154 330/295/155
f 330/295/155 331/281/156 328/280/153
f 332/296/156 331/281/156 330/295/155
f 329/294/154 328/280/153 333/283/157
f 334/286/158 329/294/154 333/283/157
f 334/286/158 335/297/159 329/294/154
f 336/288/160 337/297/161 334/286/162
f 336/288/160 338/298/163 337/297/161
f 339/290/164 338/298/163 336/288/160
f 339/290/164 340/299/165 338/298/163
f 339/290/164 341/300/166 340/299/165
f 341/300/166 339/290/164 342/291/167
f 341/300/166 342/291/167 343/293/168
f 344/301/96 345/302/169 346/303/96
f 345/302/169 344/301/96 347/304/169
f 347/304/169 348/305/170 345/302/169
f 348/305/170 347/304/169 349/306/170
f 350/307/171 351/308/171 352/309/171
f 351/308/171 350/307/171 353/310/171
f 354/311/172 355/312/173 356/313/172
f 357/314/173 356/313/172 355/312/173
f 358/309/172 359/311/172 360/313/172
f 359/311/172 358/309/172 361/308/172
f 362/315/18 363/316/18 364/317/18
f 364/317/18 363/316/18 365/318/18
f 366/319/18 364/317/18 365/318/18
f 363/316/18 362/315/18 367/320/18
f 362/315/18 368/321/18 367/320/18
f 368/321/18 362/315/18 369/322/18
f 369/322/18 362/315/18 370/323/18
f 371/310/174 372/324/175 373/307/174
f 372/324/175 371/310/174 374/325/176
f 374/325/176 375/326/177 372/324/175
f 375/326/177 374/325/176 376/327/177
f 377/327/178 378/328/179 379/326/178
f 378/328/179 377/327/178 380/329/179
f 380/329/179 381/330/96 378/328/179
f 381/330/96 380/329/179 382/331/96
f 383/332/11 384/333/11 385/334/11
f 383/332/11 385/334/11 386/335/11
f 383/332/11 386/335/11 387/336/11
f 387/336/11 388/337/11 383/332/11
f 384/333/11 383/332/11 389/338/11
f 384/333/11 389/338/11 390/339/11
f 390/339/11 389/338/11 391/340/11
f 392/341/180 393/342/181 394/343/180
f 393/342/181 392/341/180 395/344/180
f 398/341/182 397/345/183 396/346/184
f 397/345/183 398/341/182 399/343/182
f 400/347/185 401/348/186 402/349/187
f 403/350/186 402/349/187 401/348/186
f 403/350/186 401/348/186 404/351/188
f 405/352/188 403/350/186 404/351/188
f 406/353/189 400/347/185 402/349/187
f 400/347/185 406/353/189 407/354/189
f 408/355/18 409/356/18 410/357/18
f 408/355/18 410/357/18 411/358/18
f 412/359/18 409/356/18 408/355/18
f 411/358/18 413/360/18 408/355/18
f 414/361/18 413/360/18 411/358/18
f 413/360/18 414/361/18 415/362/18
f 409/356/18 412/359/18 416/363/18
f 416/363/18 412/359/18 417/364/18
f 417/364/18 412/359/18 418/365/18
f 419/366/190 420/367/191 421/368/190
f 420/367/191 419/366/190 422/369/191
f 422/369/191 423/370/192 420/367/191
f 423/370/192 422/369/191 424/371/193
f 424/371/193 425/372/194 423/370/192
f 425/372/194 424/371/193 426/373/194
f 426/373/194 427/374/195 425/372/194
f 427/374/195 426/373/194 428/375/195
f 430/376/196 431/377/197 429/378/196
f 431/377/197 430/376/196 432/379/198
f 432/379/198 433/380/199 431/377/197
f 433/380/199 432/379/198 434/381/200
f 435/382/11 436/383/11 437/384/11
f 437/384/11 436/383/11 438/385/11
f 436/383/11 435/382/11 439/386/11
f 440/387/11 439/386/11 435/382/11
f 439/386/11 440/387/11 441/388/11
f 441/388/11 442/389/11 439/386/11
f 442/389/11 441/388/11 443/390/11
f 442/389/11 443/390/11 444/391/11
f 444/391/11 445/392/11 442/389/11
f 446/393/201 447/394/201 448/395/201
f 447/394/201 446/393/201 449/396/201
f 450/397/202 451/398/203 452/399/204
f 453/400/203 452/399/204 451/398/203
f 454/401/205 450/397/202 452/399/204
f 450/397/202 454/401/205 455/402/206
f 456/403/18 457/404/18 458/405/18
f 457/404/18 456/403/18 459/406/18
f 458/405/18 460/407/18 456/403/18
f 458/405/18 461/408/18 460/407/18
f 461/408/18 458/405/18 462/409/18
f 462/409/18 458/405/18 463/410/18
f 463/410/18 458/405/18 464/411/18
f 465/412/207 466/413/208 467/414/207
f 466/413/208 465/412/207 468/415/3
f 468/415/3 469/416/209 466/413/208
f 469/416/209 468/415/3 470/417/209
f 472/418/210 473/419/211 471/420/210
f 473/419/211 472/418/210 474/421/211
f 474/421/211 475/422/212 473/419/211
f 475/422/212 474/421/211 476/423/212
f 476/423/212 477/424/213 475/422/212
f 477/424/213 476/423/212 478/425/214
f 478/425/214 479/400/215 477/424/213
f 479/400/215 478/425/214 480/398/216
f 481/426/11 482/427/11 483/428/11
f 484/429/11 482/427/11 481/426/11
f 482/427/11 484/429/11 485/430/11
f 482/427/11 485/430/11 486/431/11
f 482/427/11 486/431/11 487/432/11
f 483/428/11 482/427/11 488/433/11
f 483/428/11 488/433/11 489/434/11
f 490/435/217 491/436/218 492/437/218
f 491/436/218 490/435/217 493/438/218
f 494/439/219 495/440/220 496/441/219
f 497/442/219 496/441/219 495/440/220
f 498/437/221 494/439/219 496/441/219
f 494/439/219 498/437/221 499/436/221
f 500/443/18 501/444/18 502/445/18
f 502/445/18 501/444/18 503/446/18
f 503/446/18 504/447/18 502/445/18
f 501/444/18 500/443/18 505/448/18
f 500/443/18 506/449/18 505/448/18
f 506/449/18 500/443/18 507/450/18
f 507/450/18 500/443/18 508/451/18
f 509/438/222 510/452/223 511/435/222
f 510/452/223 509/438/222 512/453/224
f 512/453/224 513/454/225 510/452/223
f 513/454/225 512/453/224 514/455/226
f 515/456/227 513/454/225 514/455/226
f 513/454/225 515/456/227 516/457/228
f 517/458/229 516/457/228 515/456/227
f 516/457/228 517/458/229 518/459/229
f 519/458/229 520/460/230 521/459/229
f 520/460/230 519/458/229 522/461/231
f 522/461/231 523/442/232 520/460/230
f 523/442/232 522/461/231 524/440/233
f 525/462/11 526/463/11 527/464/11
f 528/465/11 527/464/11 526/463/11
f 527/464/11 529/466/11 525/462/11
f 527/464/11 530/467/11 529/466/11
f 531/468/11 530/467/11 527/464/11
f 530/467/11 531/468/11 532/469/11
f 532/469/11 531/468/11 533/470/11
f 535/471/234 536/472/34 534/473/234
f 536/472/34 535/471/234 537/474/34
f 537/474/34 538/475/235 536/472/34
f 538/475/235 537/474/34 539/476/235
f 540/477/236 538/475/235 539/476/235
f 540/477/236 541/478/236 538/475/235
f 542/479/237 543/480/237 544/481/237
f 543/480/237 542/479/237 545/482/237
f 546/483/18 547/484/18 548/485/18
f 549/486/18 548/485/18 547/484/18
f 550/487/18 546/483/18 548/485/18
f 546/483/18 550/487/18 551/488/18
f 550/487/18 552/489/18 551/488/18
f 552/489/18 550/487/18 553/490/18
f 553/490/18 550/487/18 554/491/18
f 555/492/238 556/493/238 557/494/239
f 555/492/238 557/494/239 558/495/238
f 559/494/240 560/496/240 561/495/240
f 561/495/240 560/496/240 562/497/240
f 563/498/241 564/499/242 565/500/243
f 564/499/242 563/498/241 566/501/242
f 566/501/242 567/502/244 564/499/242
f 567/502/244 566/501/242 568/503/245
f 568/503/245 569/504/246 567/502/244
f 569/504/246 568/503/245 570/505/247
f 571/506/11 572/507/11 573/508/11
f 571/506/11 573/508/11 574/509/11
f 574/509/11 573/508/11 575/510/11
f 572/507/11 571/506/11 576/511/11
f 577/512/11 572/507/11 576/511/11
f 572/507/11 577/512/11 578/513/11
f 572/507/11 578/513/11 579/514/11
f 580/515/248 581/516/248 582/517/248
f 581/516/248 580/515/248 583/518/248
f 584/519/249 585/520/250 586/521/251
f 587/522/250 586/521/251 585/520/250
f 588/523/252 584/519/249 586/521/251
f 584/519/249 588/523/252 589/524/252
f 590/525/18 591/526/18 592/527/18
f 592/527/18 593/528/18 590/525/18
f 593/528/18 592/527/18 594/529/18
f 594/529/18 592/527/18 595/530/18
f 595/530/18 592/527/18 596/531/18
f 591/526/18 597/532/18 592/527/18
f 597/532/18 591/526/18 598/533/18
f 599/534/253 600/535/254 601/536/255
f 600/535/254 599/534/253 602/537/254
f 604/538/256 605/539/257 603/540/256
f 605/539/257 604/538/256 606/541/258
f 606/541/258 607/542/259 605/539/257
f 607/542/259 606/541/258 608/543/260
f 608/543/260 609/544/261 607/542/259
f 609/544/261 608/543/260 610/545/261
f 611/545/261 612/546/262 609/544/261
f 612/546/262 611/545/261 613/547/262
f 613/547/262 614/522/263 612/546/262
f 614/522/263 613/547/262 615/520/264
f 616/548/11 617/549/11 618/550/11
f 619/551/11 616/548/11 618/550/11
f 616/548/11 619/551/11 620/552/11
f 616/548/11 620/552/11 621/553/11
f 621/553/11 622/554/11 616/548/11
f 617/549/11 616/548/11 623/555/11
f 617/549/11 623/555/11 624/556/11
f 625/557/265 626/558/266 627/559/267
f 626/558/266 625/557/265 628/560/265
f 627/559/267 626/558/266 629/561/268
f 629/561/268 630/562/269 627/559/267
f 629/561/268 631/563/270 630/562/269
f 631/563/270 629/561/268 632/564/271
f 632/564/271 633/565/272 631/563/270
f 633/565/272 632/564/271 634/566/273
f 634/566/273 635/567/274 633/565/272
f 635/567/274 634/566/273 636/568/275
f 635/567/274 636/568/275 637/569/276
f 638/570/277 635/567/274 637/569/276
f 638/570/277 637/569/276 639/571/278
f 640/558/279 641/560/280 642/572/281
f 641/560/280 643/573/280 642/572/281
f 640/558/279 642/572/281 644/574/282
f 644/574/282 645/561/283 640/558/279
f 644/574/282 646/564/284 645/561/283
f 646/564/284 644/574/282 647/575/285
f 648/575/286 649/566/287 646/564/288
f 649/566/287 648/575/286 650/576/289
f 650/576/289 651/568/290 649/566/287
f 651/568/290 650/576/289 652/577/291
f 651/568/290 652/577/291 653/578/292
f 654/569/293 651/568/290 653/578/292
f 654/569/293 653/578/292 655/571/294
f 656/579/295 657/580/296 658/581/295
f 657/580/296 656/579/295 659/582/297
f 659/582/297 660/583/298 657/580/296
f 660/583/298 659/582/297 661/584/299
f 662/585/300 660/583/298 661/584/299
f 662/585/300 663/586/301 660/583/298
f 664/587/302 663/586/301 662/585/300
f 664/587/302 665/588/303 663/586/301
f 666/589/304 665/588/303 664/587/302
f 666/589/304 667/590/305 665/588/303
f 666/589/304 668/591/306 667/590/305
f 668/591/306 666/589/304 669/592/307
f 668/591/306 669/592/307 670/593/308
f 671/580/309 672/594/310 673/595/311
f 673/595/311 674/581/312 671/580/309
f 675/596/312 674/581/312 673/595/311
f 672/594/310 671/580/309 676/583/313
f 677/586/314 672/594/310 676/583/313
f 677/586/314 678/597/315 672/594/310
f 679/588/316 680/597/317 677/586/318
f 679/588/316 681/598/319 680/597/317
f 682/590/320 681/598/319 679/588/316
f 682/590/320 683/599/321 681/598/319
f 682/590/320 684/600/322 683/599/321
f 684/600/322 682/590/320 685/591/323
f 684/600/322 685/591/323 686/593/324
f 687/601/325 688/602/326 689/603/327
f 689/603/327 688/602/326 690/604/328
f 691/605/329 687/601/325 689/603/327
f 692/606/330 687/601/325 691/605/329
f 693/607/331 692/606/330 691/605/329
f 694/608/332 692/606/330 693/607/331
f 695/609/333 694/608/332 693/607/331
f 696/610/334 694/608/332 695/609/333
f 695/609/333 697/611/335 696/610/334
f 697/611/335 695/609/333 698/612/336
f 698/612/336 699/613/337 697/611/335
f 699/613/337 698/612/336 700/614/338
f 701/615/339 699/613/337 700/614/338
f 702/616/340 699/613/337 701/615/339
f 701/615/339 703/617/341 702/616/340
f 703/617/341 701/615/339 704/618/342
f 704/618/342 705/619/343 703/617/341
f 705/619/343 704/618/342 706/620/344
f 707/621/345 705/619/343 706/620/344
f 708/622/346 705/619/343 707/621/345
f 707/621/345 709/623/347 708/622/346
f 709/623/347 710/624/348 708/622/346
f 710/624/348 709/623/347 711/625/349
f 712/626/349 710/624/348 711/625/349
f 713/627/18 714/628/18 715/629/18
f 715/629/18 714/628/18 716/630/18
f 715/629/18 716/630/18 717/631/18
f 718/632/18 715/629/18 717/631/18
f 719/633/350 720/625/351 721/634/352
f 719/633/350 722/626/353 720/625/351
f 721/634/352 723/635/354 719/633/350
f 719/633/350 723/635/354 724/636/355
f 723/635/354 725/637/356 724/636/355
f 723/635/354 726/638/357 725/637/356
f 727/639/358 725/637/356 726/638/357
f 726/638/357 728/640/359 727/639/358
f 729/641/360 727/639/358 728/640/359
f 728/640/359 730/642/361 729/641/360
f 731/642/362 732/643/363 729/641/364
f 732/643/363 731/642/362 733/644/365
f 733/644/365 734/645/366 732/643/363
f 734/645/366 735/646/367 732/643/363
f 736/647/368 735/646/367 734/645/366
f 734/645/366 737/648/368 736/647/368
f 738/635/18 739/634/18 740/620/18
f 739/634/18 741/621/18 740/620/18
f 741/621/18 739/634/18 742/623/18
f 742/623/18 739/634/18 743/625/18
f 744/618/18 738/635/18 740/620/18
f 738/635/18 744/618/18 745/638/18
f 746/615/18 745/638/18 744/618/18
f 746/615/18 747/640/18 745/638/18
f 747/640/18 746/615/18 748/614/18
f 748/614/18 749/642/18 747/640/18
f 749/642/18 748/614/18 750/612/18
f 751/609/18 749/642/18 750/612/18
f 752/607/18 749/642/18 751/609/18
f 749/642/18 752/607/18 753/644/18
f 754/605/18 753/644/18 752/607/18
f 753/644/18 754/605/18 755/645/18
f 756/603/18 755/645/18 754/605/18
f 755/645/18 756/603/18 757/648/18
f 757/648/18 756/603/18 758/604/18
s 0
f 759/649/369 760/650/370 761/649/18
f 762/649/18 763/651/18 764/649/18
s 1
f 763/651/18 765/652/18 764/649/18
f 763/651/18 762/649/18 766/650/18
f 762/649/18 767/653/18 766/650/18
f 768/628/18 769/629/18 770/654/18
f 771/630/18 769/629/18 768/628/18
f 769/629/18 771/630/18 772/631/18
f 769/629/18 772/631/18 773/632/18
f 774/655/371 775/656/371 776/657/371
f 775/656/371 774/655/371 777/658/371
f 774/655/371 776/657/371 778/659/371
f 774/655/371 778/659/371 779/660/371
f 780/661/372 781/662/373 782/663/374
f 782/663/374 783/664/375 780/661/372
f 780/661/372 783/664/375 784/665/376
f 785/666/377 784/665/376 783/664/375
f 785/666/377 786/667/378 784/665/376
f 786/667/378 785/666/377 787/668/379
f 788/669/380 786/667/378 787/668/379
f 786/667/378 788/669/380 789/670/381
f 788/669/380 790/671/382 789/670/381
f 789/670/381 790/671/382 791/672/383
f 790/671/382 792/673/384 791/672/383
f 792/673/384 790/671/382 793/674/385
f 794/675/386 792/673/384 793/674/385
f 792/673/384 794/675/386 795/676/387
f 794/675/386 796/677/388 795/676/387
f 795/676/387 796/677/388 797/678/389
f 796/677/388 798/679/390 797/678/389
f 798/679/390 796/677/388 799/680/391
f 799/680/391 800/681/392 798/679/390
f 800/681/392 799/680/391 801/682/393
f 801/682/393 802/683/394 800/681/392
f 802/683/394 801/682/393 803/684/395
f 803/684/395 804/685/396 802/683/394
f 804/685/396 803/684/395 805/686/397
f 806/687/11 807/688/11 808/689/11
f 808/689/11 807/688/11 809/690/11
f 808/689/11 809/690/11 810/691/11
f 811/692/11 808/689/11 810/691/11
f 812/693/398 813/694/399 814/695/400
f 813/694/399 812/693/398 815/696/401
f 812/693/398 816/697/402 815/696/401
f 816/697/402 812/693/398 817/698/403
f 818/699/404 816/697/402 817/698/403
f 819/700/405 816/697/402 818/699/404
f 820/699/406 821/701/407 819/700/405
f 822/702/408 819/700/405 821/701/407
f 821/701/407 823/703/409 822/702/408
f 824/704/410 822/702/408 823/703/409
f 823/703/409 825/705/411 824/704/410
f 826/706/412 824/704/410 825/705/411
f 825/705/411 827/707/413 826/706/412
f 827/707/413 825/705/411 828/708/414
f 828/708/414 829/663/415 827/707/413
f 830/662/415 827/707/413 829/663/415
f 831/684/11 832/695/11 833/686/11
f 832/695/11 831/684/11 834/693/11
f 834/693/11 831/684/11 835/682/11
f 835/682/11 836/698/11 834/693/11
f 836/698/11 835/682/11 837/680/11
f 837/680/11 838/699/11 836/698/11
f 839/677/11 838/699/11 837/680/11
f 838/699/11 839/677/11 840/675/11
f 841/674/11 838/699/11 840/675/11
f 838/699/11 841/674/11 842/701/11
f 843/671/11 842/701/11 841/674/11
f 842/701/11 843/671/11 844/703/11
f 845/669/11 844/703/11 843/671/11
f 844/703/11 845/669/11 846/705/11
f 846/705/11 845/669/11 847/668/11
f 847/668/11 848/708/11 846/705/11
f 848/708/11 847/668/11 849/666/11
f 850/664/11 848/708/11 849/666/11
f 848/708/11 850/664/11 851/663/11
f 853/709/11 855/710/11 854/711/11
f 853/709/11 852/711/11 856/712/11
f 852/711/11 857/713/11 856/712/11
f 858/688/11 859/689/11 860/687/11
f 861/690/11 859/689/11 858/688/11
f 859/689/11 861/690/11 862/691/11
f 859/689/11 862/691/11 863/692/11
o archkatana_wrapsplit1.001
v -0.150838 -2.203867 -0.000128
v -0.171867 -2.205706 -0.000128
v -0.177528 -2.206201 0.033988
v -0.333089 -2.219809 -0.000128
v -0.306398 -2.217477 0.033988
v -0.241963 -2.211833 0.048120
v -0.218242 -1.871007 0.026115
v -0.205320 -2.039255 0.026115
v -0.267901 -1.873170 0.036986
v -0.222583 -1.560541 0.026116
v -0.220412 -1.715781 0.026115
v -0.272339 -1.560541 0.036986
v -0.322094 -1.560541 0.026116
v -0.342703 -1.560541 -0.000127
v -0.319828 -1.717941 0.026115
v -0.317561 -1.875340 0.026115
v -0.338131 -1.876244 -0.000128
v -0.304544 -2.045758 0.026115
v -0.291528 -2.216177 0.026115
v -0.312059 -2.217972 -0.000128
v -0.220412 -1.715781 0.026115
v -0.218242 -1.871007 0.026115
v -0.197671 -1.870106 -0.000128
v -0.205320 -2.039255 0.026115
v -0.201975 -1.560541 -0.000127
v -0.222583 -1.560541 0.026116
v -0.220412 -1.715781 0.026115
v -0.192398 -2.207501 0.026115
v -0.150838 -2.203867 -0.000128
v -0.171867 -2.205706 -0.000128
v -0.177528 -2.206201 0.033988
v -0.241963 -2.211833 0.036986
v -0.241963 -2.211833 0.048120
v -0.333089 -2.219809 -0.000128
v -0.291528 -2.216177 -0.026371
v -0.306398 -2.217477 -0.034243
v -0.241963 -2.211833 -0.037241
v -0.241963 -2.211833 -0.048375
v -0.312059 -2.217972 -0.000128
v -0.291528 -2.216177 0.026115
v -0.306398 -2.217477 0.033988
v -0.241963 -2.211833 0.036986
v -0.241963 -2.211833 0.048120
v -0.272339 -1.560541 0.036986
v -0.322094 -1.560541 0.026116
v -0.319828 -1.717941 0.026115
v -0.205320 -2.039255 0.026115
v -0.192398 -2.207501 0.026115
v -0.241963 -2.211833 0.036986
v -0.220412 -1.715781 0.026115
v -0.218242 -1.871007 0.026115
v -0.267901 -1.873170 0.036986
v -0.304544 -2.045758 0.026115
v -0.291528 -2.216177 0.026115
v -0.241963 -2.211833 0.036986
v -0.322094 -1.560541 0.026116
v -0.319828 -1.717941 0.026115
v -0.342703 -1.560541 -0.000127
v -0.319828 -1.717941 0.026115
v -0.317561 -1.875340 0.026115
v -0.338131 -1.876244 -0.000128
v -0.304544 -2.045758 0.026115
v -0.338131 -1.876244 -0.000128
v -0.322094 -1.560541 -0.026370
v -0.319828 -1.717941 -0.026370
v -0.272339 -1.560541 -0.037241
v -0.205320 -2.039255 -0.026371
v -0.192398 -2.207501 -0.026371
v -0.241963 -2.211833 -0.037241
v -0.319828 -1.717941 -0.026370
v -0.317561 -1.875340 -0.026370
v -0.267901 -1.873170 -0.037241
v -0.304544 -2.045758 -0.026371
v -0.267901 -1.873170 -0.037241
v -0.220412 -1.715781 -0.026370
v -0.218242 -1.871007 -0.026370
v -0.267901 -1.873170 -0.037241
v -0.205320 -2.039255 -0.026371
v -0.267901 -1.873170 -0.037241
v -0.304544 -2.045758 -0.026371
v -0.291528 -2.216177 -0.026371
v -0.241963 -2.211833 -0.037241
v -0.272339 -1.560541 -0.037241
v -0.222583 -1.560541 -0.026370
v -0.220412 -1.715781 -0.026370
v -0.205320 -2.039255 -0.026371
v -0.192398 -2.207501 -0.026371
v -0.171867 -2.205706 -0.000128
v -0.220412 -1.715781 -0.026370
v -0.218242 -1.871007 -0.026370
v -0.197671 -1.870106 -0.000128
v -0.205320 -2.039255 -0.026371
v -0.222583 -1.560541 -0.026370
v -0.220412 -1.715781 -0.026370
v -0.201975 -1.560541 -0.000127
v -0.205320 -2.039255 0.026115
v -0.192398 -2.207501 0.026115
v -0.171867 -2.205706 -0.000128
v -0.319828 -1.717941 0.026115
v -0.317561 -1.875340 0.026115
v -0.267901 -1.873170 0.036986
v -0.304544 -2.045758 0.026115
v -0.342703 -1.560541 -0.000127
v -0.322094 -1.560541 -0.026370
v -0.319828 -1.717941 -0.026370
v -0.319828 -1.717941 -0.026370
v -0.317561 -1.875340 -0.026370
v -0.338131 -1.876244 -0.000128
v -0.304544 -2.045758 -0.026371
v -0.304544 -2.045758 -0.026371
v -0.291528 -2.216177 -0.026371
v -0.312059 -2.217972 -0.000128
vn 0.4306 0.0222 0.9023
vn 0.2126 0.0073 0.9771
vn 0.4637 0.0374 0.8852
vn 0.4307 0.0075 0.9025
vn 0.2125 -0.0000 0.9772
vn 0.4606 0.0074 0.8876
vn -0.4367 -0.0297 0.8991
vn -0.4609 -0.0373 0.8867
vn -0.7830 -0.0613 0.6190
vn 0.4671 0.0075 0.8842
vn 0.4307 0.0223 0.9022
vn 0.7840 0.0385 0.6196
vn 0.4642 0.0375 0.8849
vn 0.7875 0.0077 0.6163
vn 0.4309 0.0075 0.9024
vn 0.4613 0.0073 0.8872
vn -0.0866 0.9962 -0.0000
vn -0.0871 0.9962 -0.0000
vn -0.0867 0.9962 -0.0000
vn -0.0867 0.9962 0.0001
vn -0.0864 0.9963 -0.0000
vn -0.0862 0.9963 -0.0000
vn -0.0865 0.9962 -0.0000
vn -0.0863 0.9963 -0.0000
vn -0.2125 -0.0000 0.9772
vn -0.4365 -0.0074 0.8997
vn -0.4606 -0.0075 0.8876
vn 0.4302 0.0370 0.9020
vn 0.4606 0.0372 0.8869
vn 0.2125 0.0149 0.9770
vn 0.4306 0.0222 0.9022
vn 0.4666 0.0074 0.8844
vn -0.4605 -0.0371 0.8869
vn -0.4365 -0.0297 0.8992
vn -0.2125 -0.0147 0.9770
vn -0.4369 -0.0074 0.8995
vn -0.7874 -0.0153 0.6163
vn -0.4613 -0.0075 0.8872
vn -0.4400 -0.0224 0.8977
vn -0.4613 -0.0073 0.8872
vn -0.7840 -0.0384 0.6196
vn -0.4609 -0.0371 0.8867
vn -0.4366 -0.0074 -0.8996
vn -0.2126 -0.0000 -0.9772
vn -0.4608 -0.0075 -0.8875
vn 0.4604 0.0372 -0.8869
vn 0.4304 0.0370 -0.9019
vn 0.2125 0.0146 -0.9770
vn -0.4396 -0.0224 -0.8979
vn -0.4608 -0.0074 -0.8874
vn -0.2126 -0.0073 -0.9771
vn -0.4605 -0.0372 -0.8869
vn 0.4666 0.0074 -0.8844
vn 0.4306 0.0223 -0.9022
vn 0.2126 0.0072 -0.9771
vn 0.4637 0.0374 -0.8852
vn -0.4364 -0.0297 -0.8993
vn -0.4604 -0.0371 -0.8869
vn -0.2126 -0.0148 -0.9770
vn 0.2125 -0.0000 -0.9772
vn 0.4307 0.0075 -0.9025
vn 0.4609 0.0074 -0.8874
vn 0.4306 0.0371 -0.9018
vn 0.4610 0.0373 -0.8866
vn 0.7832 0.0613 -0.6188
vn 0.4308 0.0223 -0.9022
vn 0.4673 0.0074 -0.8841
vn 0.7840 0.0384 -0.6196
vn 0.4644 0.0375 -0.8848
vn 0.4309 0.0074 -0.9024
vn 0.7875 0.0078 -0.6163
vn 0.4613 0.0076 -0.8872
vn 0.4610 0.0372 0.8866
vn 0.4306 0.0371 0.9018
vn 0.7832 0.0612 0.6187
vn -0.4608 -0.0075 0.8874
vn -0.4397 -0.0224 0.8979
vn -0.2126 -0.0073 0.9771
vn -0.4604 -0.0372 0.8869
vn -0.7874 -0.0153 -0.6163
vn -0.4369 -0.0074 -0.8995
vn -0.4613 -0.0074 -0.8872
vn -0.4612 -0.0075 -0.8872
vn -0.4401 -0.0224 -0.8977
vn -0.7840 -0.0385 -0.6196
vn -0.4610 -0.0371 -0.8866
vn -0.4610 -0.0372 -0.8866
vn -0.4367 -0.0297 -0.8991
vn -0.7831 -0.0614 -0.6189
vt 0.396277 0.857709
vt 0.350082 0.855692
vt 0.408298 0.701199
vt 0.392237 1.146510
vt 0.345953 1.146510
vt 0.394257 1.002110
vt 0.395981 0.536620
vt 0.395981 0.695148
vt 0.369738 0.534949
vt 0.343495 1.002110
vt 0.343495 0.857709
vt 0.369738 0.858545
vt 0.343495 0.701199
vt 0.369738 1.146510
vt 0.343495 1.146510
vt 0.319158 0.866119
vt 0.280498 0.839876
vt 0.300060 0.839876
vt 0.305326 0.873992
vt 0.365266 0.876989
vt 0.365266 0.888123
vt 0.450034 0.839876
vt 0.411374 0.813633
vt 0.425206 0.805760
vt 0.365266 0.802763
vt 0.365266 0.791629
vt 0.430472 0.839876
vt 0.411374 0.866119
vt 0.425206 0.873992
vt 0.299669 1.146510
vt 0.301777 1.000090
vt 0.420318 0.544688
vt 0.374210 0.540654
vt 0.315994 0.695148
vt 0.328102 0.536620
vt 0.395981 1.146510
vt 0.395981 1.000090
vt 0.395981 0.853675
vt 0.369738 0.852840
vt 0.439807 1.146510
vt 0.393523 1.146510
vt 0.437698 1.000090
vt 0.331178 0.701199
vt 0.319158 0.544688
vt 0.365266 0.540654
vt 0.435590 0.853675
vt 0.389394 0.855692
vt 0.423482 0.695148
vt 0.345219 1.002110
vt 0.343198 0.857709
vt 0.411374 0.536620
vt 0.347239 1.146510
vt 0.395981 0.544688
vt 0.395981 0.701199
vt 0.369738 0.546359
vt 0.395981 0.857709
vt 0.395981 1.002110
vt 0.343495 0.544688
vt 0.303886 0.853675
vt 0.343495 1.000090
vt 0.343495 0.853675
vt 0.343495 0.695148
vt 0.343495 0.536620
s 1
usemtl Meshpart1Mtl.006
f 870/714/416 872/715/417 871/716/418
f 873/717/419 875/718/420 874/719/421
f 882/720/422 881/721/423 883/722/424
f 884/723/425 885/724/426 886/725/427
f 886/725/427 885/724/426 887/726/428
f 888/727/429 889/728/430 890/723/431
f 891/729/432 892/730/433 893/731/432
f 892/730/433 891/729/432 894/732/432
f 895/733/432 894/732/432 891/729/432
f 894/732/432 895/733/432 896/734/433
f 897/735/434 898/736/435 899/737/433
f 900/738/436 899/737/433 898/736/435
f 899/737/433 900/738/436 901/739/437
f 898/736/435 897/735/434 902/740/434
f 903/741/438 902/740/434 897/735/434
f 897/735/434 904/742/433 903/741/438
f 904/742/433 905/733/439 903/741/438
f 904/742/433 906/734/437 905/733/439
f 907/718/440 908/743/441 909/744/442
f 911/745/443 910/716/444 912/746/445
f 914/714/446 913/719/447 915/715/417
f 916/747/448 917/748/449 918/746/450
f 919/749/451 921/727/452 920/750/453
f 923/751/454 922/750/455 924/752/456
f 923/751/454 926/752/456 925/721/457
f 927/753/458 929/754/459 928/755/460
f 930/756/461 931/757/462 932/758/463
f 934/759/464 933/755/465 935/760/466
f 934/759/464 937/760/466 936/761/467
f 938/762/468 939/763/469 940/760/470
f 942/760/470 939/763/469 941/756/471
f 944/764/472 943/761/473 945/758/474
f 946/754/475 947/765/476 948/762/477
f 950/766/478 949/767/479 951/768/480
f 953/769/481 952/770/482 954/725/483
f 953/769/481 954/725/483 955/767/484
f 956/749/485 958/727/486 957/770/487
f 959/726/488 960/771/489 961/768/490
f 962/744/491 963/772/492 964/715/493
f 964/715/493 963/772/492 965/747/494
f 966/727/495 967/728/496 968/773/497
f 969/773/498 970/774/499 971/752/500
f 971/752/500 970/774/499 972/775/501
f 973/775/502 974/776/503 975/722/504
l 864 865
l 864 866
l 867 868
l 868 869
l 876 877
l 878 879
l 879 880
