# Blender 5.2.0 LTS
# www.blender.org
mtllib Arch Katana Body1 Perfect.mtl
o archkatana_wrapsplit1
v 0.020931 -1.387108 0.010066
v -0.038451 -1.317683 -0.009833
v 0.020931 -1.387108 -0.009833
v -0.038451 -1.317683 0.010066
v -0.064043 -1.254527 -0.009833
v -0.064043 -1.254527 0.010066
v -0.064043 -1.254527 -0.009833
v -0.001492 -1.230701 0.010066
v -0.001492 -1.230701 -0.009833
v -0.064043 -1.254527 0.010066
v 0.098676 -1.326161 0.010066
v 0.216264 -1.437430 0.010066
v 0.098676 -1.326161 -0.009833
v 0.216264 -1.437430 -0.009833
v -0.001492 -1.230701 -0.009833
v 0.098676 -1.326161 0.010066
v 0.098676 -1.326161 -0.009833
v -0.001492 -1.230701 0.010066
v 0.098676 -1.326161 -0.009833
v 0.020931 -1.387108 -0.009833
v -0.001492 -1.230701 -0.009833
v -0.038451 -1.317683 -0.009833
v -0.064043 -1.254527 -0.009833
v 0.053729 -1.416541 -0.009833
v 0.076465 -1.424986 -0.009833
v 0.134321 -1.433392 -0.009833
v 0.216264 -1.437430 -0.009833
v 0.216264 -1.437430 0.010066
v 0.134321 -1.433392 -0.009833
v 0.216264 -1.437430 -0.009833
v 0.134321 -1.433392 0.010066
v 0.076465 -1.424986 -0.009833
v 0.076465 -1.424986 0.010066
v 0.076465 -1.424986 0.010066
v 0.053729 -1.416541 -0.009833
v 0.076465 -1.424986 -0.009833
v 0.053729 -1.416541 0.010066
v 0.020931 -1.387108 -0.009833
v 0.020931 -1.387108 0.010066
v 0.098676 -1.326161 0.010066
v 0.020931 -1.387108 0.010066
v 0.053729 -1.416541 0.010066
v 0.076465 -1.424986 0.010066
v 0.134321 -1.433392 0.010066
v 0.216264 -1.437430 0.010066
v -0.001492 -1.230701 0.010066
v -0.038451 -1.317683 0.010066
v -0.064043 -1.254527 0.010066
v 0.057740 -0.891844 -0.018468
v 0.084116 -0.982644 0.018702
v 0.057740 -0.891844 0.018702
v 0.084116 -0.982644 -0.018468
v 0.108941 -0.799046 -0.018468
v 0.108941 -0.799046 0.018702
v 0.057740 -0.891844 -0.018468
v 0.057740 -0.891844 0.018702
v 0.371063 -0.591349 0.018702
v 0.502497 -0.473968 0.018701
v 0.371063 -0.591349 -0.018468
v 0.502497 -0.473968 -0.018468
v 0.607845 -0.370620 0.018701
v 0.607845 -0.370620 -0.018468
v 0.108941 -0.799046 -0.018468
v 0.108941 -0.799046 0.018702
v 0.371063 -0.591349 -0.018468
v 0.510523 -0.687672 -0.018468
v 0.410193 -0.803053 -0.018468
v 0.294812 -0.874288 -0.018468
v 0.502497 -0.473968 -0.018468
v 0.108941 -0.799046 -0.018468
v 0.084116 -0.982644 -0.018468
v 0.057740 -0.891844 -0.018468
v 0.542630 -0.620445 -0.018468
v 0.580756 -0.506072 -0.018468
v 0.607845 -0.370620 -0.018468
v 0.607845 -0.370620 0.018701
v 0.580756 -0.506072 -0.018468
v 0.607845 -0.370620 -0.018468
v 0.580756 -0.506072 0.018701
v 0.542630 -0.620445 -0.018468
v 0.542630 -0.620445 0.018701
v 0.510523 -0.687672 -0.018468
v 0.510523 -0.687672 0.018701
v 0.410193 -0.803053 -0.018468
v 0.410193 -0.803053 0.018702
v 0.410193 -0.803053 -0.018468
v 0.410193 -0.803053 0.018702
v 0.294812 -0.874288 -0.018468
v 0.294812 -0.874288 0.018702
v 0.084116 -0.982644 -0.018468
v 0.084116 -0.982644 0.018702
v 0.294812 -0.874288 0.018702
v 0.108941 -0.799046 0.018702
v 0.084116 -0.982644 0.018702
v 0.057740 -0.891844 0.018702
v 0.371063 -0.591349 0.018702
v 0.410193 -0.803053 0.018702
v 0.510523 -0.687672 0.018701
v 0.502497 -0.473968 0.018701
v 0.542630 -0.620445 0.018701
v 0.580756 -0.506072 0.018701
v 0.607845 -0.370620 0.018701
v 0.085353 -0.977878 0.015130
v 0.071190 -1.064228 -0.014897
v 0.071190 -1.064228 0.015130
v 0.085353 -0.977878 -0.014897
v 0.390679 -0.841784 0.015130
v 0.637026 -0.743074 0.015130
v 0.390679 -0.841784 -0.014897
v 0.637026 -0.743074 -0.014897
v 0.085353 -0.977878 -0.014897
v 0.085353 -0.977878 0.015130
v 0.283946 -1.040108 -0.014897
v 0.085353 -0.977878 -0.014897
v 0.390679 -0.841784 -0.014897
v 0.071190 -1.064228 -0.014897
v 0.428051 -0.999347 -0.014897
v 0.494390 -0.970716 -0.014897
v 0.522555 -0.942662 -0.014897
v 0.574777 -0.862296 -0.014897
v 0.637026 -0.743074 -0.014897
v 0.637026 -0.743074 0.015130
v 0.574777 -0.862296 -0.014897
v 0.637026 -0.743074 -0.014897
v 0.574777 -0.862296 0.015130
v 0.522555 -0.942662 -0.014897
v 0.522555 -0.942662 0.015130
v 0.522555 -0.942662 -0.014897
v 0.522555 -0.942662 0.015130
v 0.494390 -0.970716 -0.014897
v 0.494390 -0.970716 0.015130
v 0.428051 -0.999347 -0.014897
v 0.428051 -0.999347 0.015130
v 0.283946 -1.040108 -0.014897
v 0.283946 -1.040108 0.015130
v 0.071190 -1.064228 -0.014897
v 0.071190 -1.064228 0.015130
v 0.428051 -0.999347 0.015130
v 0.390679 -0.841784 0.015130
v 0.283946 -1.040108 0.015130
v 0.494390 -0.970716 0.015130
v 0.522555 -0.942662 0.015130
v 0.574777 -0.862296 0.015130
v 0.637026 -0.743074 0.015130
v 0.085353 -0.977878 0.015130
v 0.071190 -1.064228 0.015130
v -0.014258 -1.222287 -0.011200
v 0.042230 -1.167430 0.011433
v 0.042230 -1.167430 -0.011200
v -0.014258 -1.222287 0.011433
v 0.194889 -1.223939 0.011433
v 0.373725 -1.289408 0.011433
v 0.194889 -1.223939 -0.011200
v 0.373725 -1.289408 -0.011200
v 0.042230 -1.167430 -0.011200
v 0.042230 -1.167430 0.011433
v 0.194889 -1.223939 -0.011200
v 0.139260 -1.325972 -0.011200
v 0.042230 -1.167430 -0.011200
v 0.042791 -1.278605 -0.011200
v -0.014258 -1.222287 -0.011200
v 0.188401 -1.342506 -0.011200
v 0.216892 -1.341046 -0.011200
v 0.283313 -1.323195 -0.011200
v 0.373725 -1.289408 -0.011200
v 0.373725 -1.289408 0.011433
v 0.283313 -1.323195 -0.011200
v 0.373725 -1.289408 -0.011200
v 0.283313 -1.323195 0.011433
v 0.216892 -1.341046 -0.011200
v 0.216892 -1.341046 0.011433
v 0.188401 -1.342506 0.011433
v 0.188401 -1.342506 -0.011200
v 0.139260 -1.325972 0.011433
v 0.139260 -1.325972 -0.011200
v 0.139260 -1.325972 0.011433
v 0.042791 -1.278605 -0.011200
v 0.139260 -1.325972 -0.011200
v 0.042791 -1.278605 0.011433
v -0.014258 -1.222287 -0.011200
v -0.014258 -1.222287 0.011433
v 0.216892 -1.341046 0.011433
v 0.283313 -1.323195 0.011433
v 0.194889 -1.223939 0.011433
v 0.373725 -1.289408 0.011433
v 0.188401 -1.342506 0.011433
v 0.139260 -1.325972 0.011433
v 0.042230 -1.167430 0.011433
v 0.042791 -1.278605 0.011433
v -0.014258 -1.222287 0.011433
v -0.057523 -1.439713 -0.009353
v -0.057523 -1.439713 0.009586
v -0.072764 -1.408314 -0.009353
v -0.072764 -1.408314 0.009586
v -0.095531 -1.339646 -0.009353
v -0.095531 -1.339646 0.009586
v -0.095403 -1.285684 0.009586
v -0.095403 -1.285684 -0.009353
v -0.095403 -1.285684 0.009586
v -0.042411 -1.286936 -0.009353
v -0.095403 -1.285684 -0.009353
v -0.042411 -1.286936 0.009586
v -0.072764 -1.408314 -0.009353
v -0.095531 -1.339646 -0.009353
v -0.042411 -1.286936 -0.009353
v -0.095403 -1.285684 -0.009353
v 0.002473 -1.386898 -0.009353
v -0.057523 -1.439713 -0.009353
v -0.043377 -1.452704 -0.009353
v -0.003473 -1.476183 -0.009353
v 0.055401 -1.503658 -0.009353
v -0.042411 -1.286936 -0.009353
v -0.042411 -1.286936 0.009586
v 0.002473 -1.386898 0.009586
v 0.002473 -1.386898 -0.009353
v 0.002473 -1.386898 0.009586
v 0.055401 -1.503658 0.009586
v 0.002473 -1.386898 -0.009353
v 0.055401 -1.503658 -0.009353
v 0.055401 -1.503658 0.009586
v -0.003473 -1.476183 -0.009353
v 0.055401 -1.503658 -0.009353
v -0.003473 -1.476183 0.009586
v -0.043377 -1.452704 -0.009353
v -0.043377 -1.452704 0.009586
v -0.057523 -1.439713 -0.009353
v -0.057523 -1.439713 0.009586
v -0.072764 -1.408314 0.009586
v 0.002473 -1.386898 0.009586
v -0.042411 -1.286936 0.009586
v -0.095531 -1.339646 0.009586
v -0.095403 -1.285684 0.009586
v -0.057523 -1.439713 0.009586
v -0.043377 -1.452704 0.009586
v -0.003473 -1.476183 0.009586
v 0.055401 -1.503658 0.009586
v 0.049161 -1.062609 0.013177
v 0.010530 -1.165316 -0.012944
v 0.010530 -1.165316 0.013177
v 0.049161 -1.062609 -0.012944
v 0.275163 -1.043191 0.013177
v 0.539490 -1.019523 0.013177
v 0.275163 -1.043191 -0.012944
v 0.539490 -1.019523 -0.012944
v 0.049161 -1.062609 -0.012944
v 0.049161 -1.062609 0.013177
v 0.265629 -1.204847 -0.012944
v 0.115890 -1.202427 -0.012944
v 0.275163 -1.043191 -0.012944
v 0.337399 -1.196515 -0.012944
v 0.372443 -1.177739 -0.012944
v 0.445577 -1.115803 -0.012944
v 0.539490 -1.019523 -0.012944
v 0.049161 -1.062609 -0.012944
v 0.010530 -1.165316 -0.012944
v 0.539490 -1.019523 0.013177
v 0.445577 -1.115803 -0.012944
v 0.539490 -1.019523 -0.012944
v 0.445577 -1.115803 0.013177
v 0.445577 -1.115803 -0.012944
v 0.445577 -1.115803 0.013177
v 0.372443 -1.177739 -0.012944
v 0.372443 -1.177739 0.013177
v 0.337399 -1.196515 -0.012944
v 0.337399 -1.196515 0.013177
v 0.265629 -1.204847 -0.012944
v 0.265629 -1.204847 0.013177
v 0.265629 -1.204847 0.013177
v 0.115890 -1.202427 -0.012944
v 0.115890 -1.202427 0.013177
v 0.010530 -1.165316 -0.012944
v 0.010530 -1.165316 0.013177
v 0.275163 -1.043191 0.013177
v 0.115890 -1.202427 0.013177
v 0.265629 -1.204847 0.013177
v 0.337399 -1.196515 0.013177
v 0.372443 -1.177739 0.013177
v 0.445577 -1.115803 0.013177
v 0.539490 -1.019523 0.013177
v 0.049161 -1.062609 0.013177
v 0.010530 -1.165316 0.013177
v -0.159047 -1.379808 0.000117
v -0.051880 -1.246659 -0.040082
v -0.007445 -1.287578 0.000117
v -0.159047 -1.319398 -0.040082
v -0.002805 -1.190709 -0.040082
v 0.050260 -1.219572 0.000117
v 0.099946 -1.083394 0.000117
v 0.047361 -1.072823 -0.035577
v 0.113165 -0.937728 0.000116
v 0.059902 -0.944060 -0.035577
v 0.115133 -0.899060 0.000116
v 0.070233 -0.869712 -0.035577
v 0.155683 -0.752815 -0.017775
v 0.178330 -0.767311 0.000116
v 0.246295 -0.678152 0.000116
v -0.051880 -1.246659 -0.040082
v -0.159047 -1.319398 -0.040082
v -0.096316 -1.205730 0.000117
v -0.159047 -1.258987 0.000117
v -0.055869 -1.161845 0.000117
v -0.002805 -1.190709 -0.040082
v 0.047361 -1.072823 -0.035577
v -0.005224 -1.062251 0.000117
v -0.005224 -1.062251 0.000117
v 0.059902 -0.944060 -0.035577
v 0.006640 -0.950393 0.000116
v 0.070233 -0.869712 -0.035577
v 0.025334 -0.840375 0.000116
v 0.133034 -0.738331 0.000116
v 0.155683 -0.752815 -0.017775
v 0.246295 -0.678152 0.000116
v -0.159047 -1.379808 0.000117
v -0.051880 -1.246659 0.040315
v -0.159047 -1.319398 0.040315
v -0.007445 -1.287578 0.000117
v -0.002805 -1.190709 0.040315
v 0.050260 -1.219572 0.000117
v 0.099946 -1.083394 0.000117
v 0.047361 -1.072823 0.035810
v 0.113165 -0.937728 0.000116
v 0.059902 -0.944060 0.035810
v 0.115133 -0.899060 0.000116
v 0.070233 -0.869712 0.035810
v 0.155683 -0.752815 0.018008
v 0.178330 -0.767311 0.000116
v 0.246295 -0.678152 0.000116
v -0.051880 -1.246659 0.040315
v -0.055869 -1.161845 0.000117
v -0.096316 -1.205730 0.000117
v -0.159047 -1.319398 0.040315
v -0.159047 -1.258987 0.000117
v -0.002805 -1.190709 0.040315
v 0.047361 -1.072823 0.035810
v -0.005224 -1.062251 0.000117
v 0.059902 -0.944060 0.035810
v -0.005224 -1.062251 0.000117
v 0.006640 -0.950393 0.000116
v 0.070233 -0.869712 0.035810
v 0.025334 -0.840375 0.000116
v 0.133034 -0.738331 0.000116
v 0.155683 -0.752815 0.018008
v 0.246295 -0.678152 0.000116
v -0.565437 -1.387108 -0.009833
v -0.506056 -1.317683 0.010066
v -0.565437 -1.387108 0.010066
v -0.506056 -1.317683 -0.009833
v -0.480463 -1.254527 0.010066
v -0.480463 -1.254527 -0.009833
v -0.480463 -1.254527 0.010066
v -0.543014 -1.230701 -0.009833
v -0.543014 -1.230701 0.010066
v -0.480463 -1.254527 -0.009833
v -0.643182 -1.326161 -0.009833
v -0.760770 -1.437430 -0.009833
v -0.643182 -1.326161 0.010066
v -0.760770 -1.437430 0.010066
v -0.543014 -1.230701 0.010066
v -0.643182 -1.326161 -0.009833
v -0.643182 -1.326161 0.010066
v -0.543014 -1.230701 -0.009833
v -0.643182 -1.326161 0.010066
v -0.565437 -1.387108 0.010066
v -0.543014 -1.230701 0.010066
v -0.506056 -1.317683 0.010066
v -0.480463 -1.254527 0.010066
v -0.598235 -1.416541 0.010066
v -0.620971 -1.424986 0.010066
v -0.678827 -1.433392 0.010066
v -0.760770 -1.437430 0.010066
v -0.760770 -1.437430 -0.009833
v -0.678827 -1.433392 0.010066
v -0.760770 -1.437430 0.010066
v -0.678827 -1.433392 -0.009833
v -0.620971 -1.424986 0.010066
v -0.620971 -1.424986 -0.009833
v -0.620971 -1.424986 -0.009833
v -0.598235 -1.416541 0.010066
v -0.620971 -1.424986 0.010066
v -0.598235 -1.416541 -0.009833
v -0.565437 -1.387108 0.010066
v -0.565437 -1.387108 -0.009833
v -0.643182 -1.326161 -0.009833
v -0.565437 -1.387108 -0.009833
v -0.598235 -1.416541 -0.009833
v -0.620971 -1.424986 -0.009833
v -0.678827 -1.433392 -0.009833
v -0.760770 -1.437430 -0.009833
v -0.543014 -1.230701 -0.009833
v -0.506056 -1.317683 -0.009833
v -0.480463 -1.254527 -0.009833
v -0.602246 -0.891844 0.018701
v -0.628622 -0.982644 -0.018468
v -0.602246 -0.891844 -0.018468
v -0.628622 -0.982644 0.018701
v -0.653447 -0.799046 0.018701
v -0.653447 -0.799046 -0.018468
v -0.602246 -0.891844 0.018701
v -0.602246 -0.891844 -0.018468
v -0.915569 -0.591349 -0.018468
v -1.047003 -0.473968 -0.018468
v -0.915569 -0.591349 0.018702
v -1.047003 -0.473968 0.018702
v -1.152351 -0.370620 -0.018468
v -1.152351 -0.370620 0.018702
v -0.653447 -0.799046 0.018701
v -0.653447 -0.799046 -0.018468
v -0.915569 -0.591349 0.018702
v -1.055029 -0.687672 0.018702
v -0.954699 -0.803053 0.018702
v -0.839318 -0.874288 0.018701
v -1.047003 -0.473968 0.018702
v -0.653447 -0.799046 0.018701
v -0.628622 -0.982644 0.018701
v -0.602246 -0.891844 0.018701
v -1.087136 -0.620445 0.018702
v -1.125262 -0.506072 0.018702
v -1.152351 -0.370620 0.018702
v -1.152351 -0.370620 -0.018468
v -1.125262 -0.506072 0.018702
v -1.152351 -0.370620 0.018702
v -1.125262 -0.506072 -0.018468
v -1.087136 -0.620445 0.018702
v -1.087136 -0.620445 -0.018468
v -1.055029 -0.687672 0.018702
v -1.055029 -0.687672 -0.018468
v -0.954699 -0.803053 0.018702
v -0.954699 -0.803053 -0.018468
v -0.954699 -0.803053 0.018702
v -0.954699 -0.803053 -0.018468
v -0.839318 -0.874288 0.018701
v -0.839318 -0.874288 -0.018468
v -0.628622 -0.982644 0.018701
v -0.628622 -0.982644 -0.018468
v -0.839318 -0.874288 -0.018468
v -0.653447 -0.799046 -0.018468
v -0.628622 -0.982644 -0.018468
v -0.602246 -0.891844 -0.018468
v -0.915569 -0.591349 -0.018468
v -0.954699 -0.803053 -0.018468
v -1.055029 -0.687672 -0.018468
v -1.047003 -0.473968 -0.018468
v -1.087136 -0.620445 -0.018468
v -1.125262 -0.506072 -0.018468
v -1.152351 -0.370620 -0.018468
v -0.629859 -0.977878 -0.014897
v -0.615696 -1.064228 0.015130
v -0.615696 -1.064228 -0.014897
v -0.629859 -0.977878 0.015130
v -0.935185 -0.841784 -0.014897
v -1.181532 -0.743074 -0.014897
v -0.935185 -0.841784 0.015130
v -1.181532 -0.743074 0.015130
v -0.629859 -0.977878 0.015130
v -0.629859 -0.977878 -0.014897
v -0.828453 -1.040108 0.015130
v -0.629859 -0.977878 0.015130
v -0.935185 -0.841784 0.015130
v -0.615696 -1.064228 0.015130
v -0.972557 -0.999347 0.015130
v -1.038897 -0.970716 0.015130
v -1.067061 -0.942662 0.015130
v -1.119284 -0.862296 0.015130
v -1.181532 -0.743074 0.015130
v -1.181532 -0.743074 -0.014897
v -1.119284 -0.862296 0.015130
v -1.181532 -0.743074 0.015130
v -1.119284 -0.862296 -0.014897
v -1.067061 -0.942662 0.015130
v -1.067061 -0.942662 -0.014897
v -1.067061 -0.942662 0.015130
v -1.067061 -0.942662 -0.014897
v -1.038897 -0.970716 0.015130
v -1.038897 -0.970716 -0.014897
v -0.972557 -0.999347 0.015130
v -0.972557 -0.999347 -0.014897
v -0.828453 -1.040108 0.015130
v -0.828453 -1.040108 -0.014897
v -0.615696 -1.064228 0.015130
v -0.615696 -1.064228 -0.014897
v -0.972557 -0.999347 -0.014897
v -0.935185 -0.841784 -0.014897
v -0.828453 -1.040108 -0.014897
v -1.038897 -0.970716 -0.014897
v -1.067061 -0.942662 -0.014897
v -1.119284 -0.862296 -0.014897
v -1.181532 -0.743074 -0.014897
v -0.629859 -0.977878 -0.014897
v -0.615696 -1.064228 -0.014897
v -0.530248 -1.222287 0.011433
v -0.586736 -1.167430 -0.011200
v -0.586736 -1.167430 0.011433
v -0.530248 -1.222287 -0.011200
v -0.739395 -1.223939 -0.011200
v -0.918231 -1.289408 -0.011200
v -0.739395 -1.223939 0.011433
v -0.918231 -1.289408 0.011433
v -0.586736 -1.167430 0.011433
v -0.586736 -1.167430 -0.011200
v -0.739395 -1.223939 0.011433
v -0.683767 -1.325972 0.011433
v -0.586736 -1.167430 0.011433
v -0.587297 -1.278605 0.011433
v -0.530248 -1.222287 0.011433
v -0.732908 -1.342506 0.011433
v -0.761398 -1.341046 0.011433
v -0.827819 -1.323195 0.011433
v -0.918231 -1.289408 0.011433
v -0.918231 -1.289408 -0.011200
v -0.827819 -1.323195 0.011433
v -0.918231 -1.289408 0.011433
v -0.827819 -1.323195 -0.011200
v -0.761398 -1.341046 0.011433
v -0.761398 -1.341046 -0.011200
v -0.732908 -1.342506 -0.011200
v -0.732908 -1.342506 0.011433
v -0.683767 -1.325972 -0.011200
v -0.683767 -1.325972 0.011433
v -0.683767 -1.325972 -0.011200
v -0.587297 -1.278605 0.011433
v -0.683767 -1.325972 0.011433
v -0.587297 -1.278605 -0.011200
v -0.530248 -1.222287 0.011433
v -0.530248 -1.222287 -0.011200
v -0.761398 -1.341046 -0.011200
v -0.827819 -1.323195 -0.011200
v -0.739395 -1.223939 -0.011200
v -0.918231 -1.289408 -0.011200
v -0.732908 -1.342506 -0.011200
v -0.683767 -1.325972 -0.011200
v -0.586736 -1.167430 -0.011200
v -0.587297 -1.278605 -0.011200
v -0.530248 -1.222287 -0.011200
v -0.487112 -1.439713 0.009586
v -0.487112 -1.439713 -0.009353
v -0.471870 -1.408314 0.009586
v -0.471870 -1.408314 -0.009353
v -0.449103 -1.339646 0.009586
v -0.449103 -1.339646 -0.009353
v -0.449232 -1.285684 -0.009353
v -0.449231 -1.285684 0.009586
v -0.449232 -1.285684 -0.009353
v -0.502224 -1.286936 0.009586
v -0.449231 -1.285684 0.009586
v -0.502224 -1.286936 -0.009353
v -0.471870 -1.408314 0.009586
v -0.449103 -1.339646 0.009586
v -0.502224 -1.286936 0.009586
v -0.449231 -1.285684 0.009586
v -0.547108 -1.386898 0.009586
v -0.487112 -1.439713 0.009586
v -0.501257 -1.452704 0.009586
v -0.541162 -1.476183 0.009586
v -0.600035 -1.503658 0.009586
v -0.502224 -1.286936 0.009586
v -0.502224 -1.286936 -0.009353
v -0.547108 -1.386898 -0.009353
v -0.547108 -1.386898 0.009586
v -0.547108 -1.386898 -0.009353
v -0.600035 -1.503658 -0.009353
v -0.547108 -1.386898 0.009586
v -0.600035 -1.503658 0.009586
v -0.600035 -1.503658 -0.009353
v -0.541162 -1.476183 0.009586
v -0.600035 -1.503658 0.009586
v -0.541162 -1.476183 -0.009353
v -0.501257 -1.452704 0.009586
v -0.501257 -1.452704 -0.009353
v -0.487112 -1.439713 0.009586
v -0.487112 -1.439713 -0.009353
v -0.471870 -1.408314 -0.009353
v -0.547108 -1.386898 -0.009353
v -0.502224 -1.286936 -0.009353
v -0.449103 -1.339646 -0.009353
v -0.449232 -1.285684 -0.009353
v -0.487112 -1.439713 -0.009353
v -0.501257 -1.452704 -0.009353
v -0.541162 -1.476183 -0.009353
v -0.600035 -1.503658 -0.009353
v -0.593667 -1.062609 -0.012944
v -0.555036 -1.165316 0.013177
v -0.555036 -1.165316 -0.012944
v -0.593667 -1.062609 0.013177
v -0.819669 -1.043191 -0.012944
v -1.083995 -1.019523 -0.012944
v -0.819669 -1.043191 0.013177
v -1.083995 -1.019523 0.013177
v -0.593667 -1.062609 0.013177
v -0.593667 -1.062609 -0.012944
v -0.810135 -1.204847 0.013177
v -0.660396 -1.202427 0.013177
v -0.819669 -1.043191 0.013177
v -0.881905 -1.196515 0.013177
v -0.916949 -1.177739 0.013177
v -0.990083 -1.115803 0.013177
v -1.083995 -1.019523 0.013177
v -0.593667 -1.062609 0.013177
v -0.555036 -1.165316 0.013177
v -1.083995 -1.019523 -0.012944
v -0.990083 -1.115803 0.013177
v -1.083995 -1.019523 0.013177
v -0.990083 -1.115803 -0.012944
v -0.990083 -1.115803 0.013177
v -0.990083 -1.115803 -0.012944
v -0.916949 -1.177739 0.013177
v -0.916949 -1.177739 -0.012944
v -0.881905 -1.196515 0.013177
v -0.881905 -1.196515 -0.012944
v -0.810135 -1.204847 0.013177
v -0.810135 -1.204847 -0.012944
v -0.810135 -1.204847 -0.012944
v -0.660396 -1.202427 0.013177
v -0.660396 -1.202427 -0.012944
v -0.555036 -1.165316 0.013177
v -0.555036 -1.165316 -0.012944
v -0.819669 -1.043191 -0.012944
v -0.660396 -1.202427 -0.012944
v -0.810135 -1.204847 -0.012944
v -0.881905 -1.196515 -0.012944
v -0.916949 -1.177739 -0.012944
v -0.990083 -1.115803 -0.012944
v -1.083995 -1.019523 -0.012944
v -0.593667 -1.062609 -0.012944
v -0.555036 -1.165316 -0.012944
v -0.385459 -1.379808 0.000117
v -0.492626 -1.246659 0.040315
v -0.537061 -1.287578 0.000117
v -0.385459 -1.319398 0.040315
v -0.541701 -1.190709 0.040315
v -0.594766 -1.219572 0.000117
v -0.644452 -1.083394 0.000117
v -0.591867 -1.072823 0.035811
v -0.657671 -0.937728 0.000117
v -0.604408 -0.944060 0.035811
v -0.659639 -0.899060 0.000117
v -0.614739 -0.869712 0.035811
v -0.700189 -0.752815 0.018008
v -0.722836 -0.767311 0.000117
v -0.790801 -0.678152 0.000117
v -0.492626 -1.246659 0.040315
v -0.385459 -1.319398 0.040315
v -0.448192 -1.205730 0.000117
v -0.385459 -1.258987 0.000117
v -0.488638 -1.161845 0.000117
v -0.541701 -1.190709 0.040315
v -0.591867 -1.072823 0.035811
v -0.539282 -1.062251 0.000117
v -0.539282 -1.062251 0.000117
v -0.604408 -0.944060 0.035811
v -0.551146 -0.950393 0.000117
v -0.614739 -0.869712 0.035811
v -0.569840 -0.840375 0.000117
v -0.677540 -0.738331 0.000117
v -0.700189 -0.752815 0.018008
v -0.790801 -0.678152 0.000117
v -0.385459 -1.379808 0.000117
v -0.492626 -1.246659 -0.040082
v -0.385459 -1.319398 -0.040082
v -0.537061 -1.287578 0.000117
v -0.541701 -1.190709 -0.040082
v -0.594766 -1.219572 0.000117
v -0.644452 -1.083394 0.000117
v -0.591867 -1.072823 -0.035577
v -0.657671 -0.937728 0.000117
v -0.604408 -0.944060 -0.035577
v -0.659639 -0.899060 0.000117
v -0.614739 -0.869712 -0.035577
v -0.700189 -0.752815 -0.017775
v -0.722836 -0.767311 0.000117
v -0.790801 -0.678152 0.000117
v -0.492626 -1.246659 -0.040082
v -0.488638 -1.161845 0.000117
v -0.448192 -1.205730 0.000117
v -0.385459 -1.319398 -0.040082
v -0.385459 -1.258987 0.000117
v -0.541701 -1.190709 -0.040082
v -0.591867 -1.072823 -0.035577
v -0.539282 -1.062251 0.000117
v -0.604408 -0.944060 -0.035577
v -0.539282 -1.062251 0.000117
v -0.551146 -0.950393 0.000117
v -0.614739 -0.869712 -0.035577
v -0.569840 -0.840375 0.000117
v -0.677540 -0.738331 0.000117
v -0.700189 -0.752815 -0.017775
v -0.790801 -0.678152 0.000117
v -0.206526 -2.120942 -0.026371
v -0.193882 -2.285574 -0.026371
v -0.173792 -2.283817 -0.000128
v -0.221294 -1.804417 -0.026370
v -0.219170 -1.956309 -0.026370
v -0.199041 -1.955427 -0.000128
v -0.206526 -2.120942 -0.026371
v -0.223418 -1.652512 -0.026370
v -0.221294 -1.804417 -0.026370
v -0.203253 -1.652512 -0.000127
v -0.206526 -2.120942 0.026115
v -0.193882 -2.285574 0.026115
v -0.173792 -2.283817 -0.000128
v -0.221294 -1.804417 0.026115
v -0.219170 -1.956309 0.026115
v -0.199041 -1.955427 -0.000128
v -0.206526 -2.120942 0.026115
v -0.203253 -1.652512 -0.000127
v -0.223418 -1.652512 0.026116
v -0.221294 -1.804417 0.026115
v -0.193882 -2.285574 0.026115
v -0.153214 -2.282019 -0.000128
v -0.173792 -2.283817 -0.000128
v -0.179331 -2.284302 0.033988
v -0.242382 -2.289813 0.036986
v -0.242382 -2.289813 0.048120
v -0.331550 -2.297618 -0.000128
v -0.290882 -2.294064 -0.026371
v -0.305433 -2.295336 -0.034243
v -0.242382 -2.289813 -0.037241
v -0.242382 -2.289813 -0.048375
v -0.310972 -2.295820 -0.000128
v -0.290882 -2.294064 0.026115
v -0.305433 -2.295336 0.033988
v -0.242382 -2.289813 0.036986
v -0.242382 -2.289813 0.048120
v -0.272105 -1.652512 0.036986
v -0.320791 -1.652512 0.026116
v -0.318574 -1.806531 0.026115
v -0.206526 -2.120942 0.026115
v -0.193882 -2.285574 0.026115
v -0.242382 -2.289813 0.036986
v -0.318574 -1.806531 0.026115
v -0.316356 -1.960549 0.026115
v -0.267763 -1.958425 0.036986
v -0.303618 -2.127305 0.026115
v -0.221294 -1.804417 0.026115
v -0.219170 -1.956309 0.026115
v -0.206526 -2.120942 0.026115
v -0.267763 -1.958425 0.036986
v -0.303618 -2.127305 0.026115
v -0.290882 -2.294064 0.026115
v -0.242382 -2.289813 0.036986
v -0.223418 -1.652512 0.026116
v -0.221294 -1.804417 0.026115
v -0.272105 -1.652512 0.036986
v -0.340958 -1.652512 -0.000127
v -0.320791 -1.652512 -0.026370
v -0.318574 -1.806531 -0.026370
v -0.318574 -1.806531 -0.026370
v -0.316356 -1.960549 -0.026370
v -0.336484 -1.961433 -0.000128
v -0.303618 -2.127305 -0.026371
v -0.303618 -2.127305 -0.026371
v -0.290882 -2.294064 -0.026371
v -0.310972 -2.295820 -0.000128
v -0.320791 -1.652512 0.026116
v -0.318574 -1.806531 0.026115
v -0.340958 -1.652512 -0.000127
v -0.318574 -1.806531 0.026115
v -0.316356 -1.960549 0.026115
v -0.336484 -1.961433 -0.000128
v -0.303618 -2.127305 0.026115
v -0.336484 -1.961433 -0.000128
v -0.303618 -2.127305 0.026115
v -0.290882 -2.294064 0.026115
v -0.310972 -2.295820 -0.000128
v -0.320791 -1.652512 -0.026370
v -0.318574 -1.806531 -0.026370
v -0.272105 -1.652512 -0.037241
v -0.206526 -2.120942 -0.026371
v -0.193882 -2.285574 -0.026371
v -0.242382 -2.289813 -0.037241
v -0.318574 -1.806531 -0.026370
v -0.316356 -1.960549 -0.026370
v -0.267763 -1.958425 -0.037241
v -0.303618 -2.127305 -0.026371
v -0.267763 -1.958425 -0.037241
v -0.221294 -1.804417 -0.026370
v -0.219170 -1.956309 -0.026370
v -0.267763 -1.958425 -0.037241
v -0.206526 -2.120942 -0.026371
v -0.267763 -1.958425 -0.037241
v -0.303618 -2.127305 -0.026371
v -0.290882 -2.294064 -0.026371
v -0.242382 -2.289813 -0.037241
v -0.272105 -1.652512 -0.037241
v -0.223418 -1.652512 -0.026370
v -0.221294 -1.804417 -0.026370
v -0.353580 -0.997097 -0.000127
v -0.353283 -1.191530 -0.000127
v -0.305927 -1.011203 0.038319
v -0.310596 -1.191530 0.038319
v -0.301768 -0.869165 0.038319
v -0.366789 -0.840785 -0.000127
v -0.319234 -0.755929 0.038319
v -0.409827 -0.739856 -0.000127
v -0.373295 -0.639452 0.038319
v -0.456305 -0.639452 -0.000127
v -0.434246 -0.579610 -0.000127
v -0.368206 -0.562601 0.038319
v -0.427933 -0.325030 -0.000127
v -0.357564 -0.329701 0.038319
v -0.374986 0.008547 0.038319
v -0.446581 0.013785 -0.000127
v -0.425558 0.449292 -0.000127
v -0.338565 0.459863 0.038319
v -0.345706 0.820200 -0.000127
v -0.261164 0.799341 0.038319
v -0.197520 0.934405 0.038319
v -0.250220 1.053500 -0.000127
v -0.133875 1.069468 0.038319
v -0.086126 1.257642 -0.000127
v -0.000968 1.201407 0.038319
v 0.143185 1.467011 -0.000127
v -0.358612 -1.212546 0.061562
v -0.338560 -1.350481 0.061562
v -0.272113 -1.239086 0.061562
v -0.272113 -1.378083 0.061562
v -0.205666 -1.350481 0.061562
v -0.185615 -1.212546 0.061562
v -0.049412 0.917027 -0.000127
v -0.000968 1.201407 0.038319
v -0.104320 0.951130 0.038319
v 0.143185 1.467011 -0.000127
v -0.207271 0.542447 0.038319
v -0.146369 0.519347 -0.000127
v -0.178214 0.287636 -0.000127
v -0.266525 0.033656 0.038319
v -0.209285 -0.106572 -0.000127
v -0.266960 -0.243004 0.038319
v -0.188785 -0.509269 -0.000127
v -0.230054 -0.652801 0.038319
v -0.230054 -0.652801 0.038319
v -0.154507 -0.789169 -0.000127
v -0.213327 -0.782931 0.038319
v -0.192685 -0.925704 0.038319
v -0.108514 -0.920645 -0.000127
v -0.194502 -1.191530 -0.000127
v -0.239470 -1.191530 0.038319
v -0.207271 0.542447 0.038319
v -0.104320 0.951130 0.038319
v -0.261164 0.799341 0.038319
v -0.197520 0.934405 0.038319
v -0.133875 1.069468 0.038319
v -0.000968 1.201407 0.038319
v -0.338565 0.459863 0.038319
v -0.266525 0.033656 0.038319
v -0.374986 0.008547 0.038319
v -0.266960 -0.243004 0.038319
v -0.357564 -0.329701 0.038319
v -0.230054 -0.652801 0.038319
v -0.368206 -0.562601 0.038319
v -0.373295 -0.639452 0.038319
v -0.319234 -0.755929 0.038319
v -0.213327 -0.782931 0.038319
v -0.301768 -0.869165 0.038319
v -0.192685 -0.925704 0.038319
v -0.305927 -1.011203 0.038319
v -0.239470 -1.191530 0.038319
v -0.310596 -1.191530 0.038319
v -0.272113 -1.554718 -0.038814
v -0.237682 -1.445404 -0.038814
v -0.272113 -1.554718 -0.038814
v -0.272113 -1.554718 0.038558
v -0.306545 -1.445404 0.038558
v -0.272113 -1.554718 0.038558
v -0.333325 -1.478202 0.038558
v -0.237682 -1.445404 0.038558
v -0.210901 -1.478202 0.038558
v -0.338560 -1.350481 -0.061817
v -0.272113 -1.239086 -0.061817
v -0.358612 -1.212546 -0.061817
v -0.272113 -1.378083 -0.061817
v -0.205666 -1.350481 -0.061817
v -0.185615 -1.212546 -0.061817
v -0.353283 -1.191530 -0.000127
v -0.239470 -1.191530 -0.038574
v -0.194502 -1.191530 -0.000127
v -0.310596 -1.191530 -0.038574
v -0.239470 -1.191530 0.038319
v -0.310596 -1.191530 0.038319
v -0.086126 1.257642 -0.000127
v 0.143185 1.467011 -0.000127
v -0.000968 1.201407 -0.038574
v -0.133875 1.069468 -0.038574
v -0.250220 1.053500 -0.000127
v -0.197520 0.934405 -0.038574
v -0.345706 0.820200 -0.000127
v -0.261164 0.799341 -0.038574
v -0.338565 0.459863 -0.038574
v -0.425558 0.449292 -0.000127
v -0.374986 0.008547 -0.038574
v -0.446581 0.013785 -0.000127
v -0.427933 -0.325030 -0.000127
v -0.357564 -0.329701 -0.038574
v -0.368206 -0.562601 -0.038574
v -0.434246 -0.579610 -0.000127
v -0.373295 -0.639452 -0.038574
v -0.456305 -0.639452 -0.000127
v -0.409827 -0.739856 -0.000127
v -0.319234 -0.755929 -0.038574
v -0.366789 -0.840785 -0.000127
v -0.301768 -0.869165 -0.038574
v -0.353580 -0.997097 -0.000127
v -0.305927 -1.011203 -0.038574
v -0.353283 -1.191530 -0.000127
v -0.310596 -1.191530 -0.038574
v -0.185615 -1.212546 -0.061817
v -0.205666 -1.350481 -0.061817
v -0.272113 -1.239086 -0.061817
v -0.272113 -1.378083 -0.061817
v -0.338560 -1.350481 -0.061817
v -0.358612 -1.212546 -0.061817
v -0.192685 -0.925704 -0.038574
v -0.194502 -1.191530 -0.000127
v -0.239470 -1.191530 -0.038574
v -0.108514 -0.920645 -0.000127
v -0.154507 -0.789169 -0.000127
v -0.213327 -0.782931 -0.038574
v -0.230054 -0.652801 -0.038574
v -0.188785 -0.509269 -0.000127
v -0.230054 -0.652801 -0.038574
v -0.266960 -0.243004 -0.038574
v -0.209285 -0.106572 -0.000127
v -0.266525 0.033655 -0.038574
v -0.178214 0.287636 -0.000127
v -0.207271 0.542447 -0.038574
v -0.146369 0.519347 -0.000127
v -0.049412 0.917027 -0.000127
v -0.104320 0.951130 -0.038574
v -0.000968 1.201407 -0.038574
v 0.143185 1.467011 -0.000127
v -0.305927 -1.011203 -0.038574
v -0.239470 -1.191530 -0.038574
v -0.310596 -1.191530 -0.038574
v -0.192685 -0.925704 -0.038574
v -0.301768 -0.869165 -0.038574
v -0.213327 -0.782931 -0.038574
v -0.319234 -0.755929 -0.038574
v -0.230054 -0.652801 -0.038574
v -0.373295 -0.639452 -0.038574
v -0.368206 -0.562601 -0.038574
v -0.357564 -0.329701 -0.038574
v -0.266960 -0.243004 -0.038574
v -0.374986 0.008547 -0.038574
v -0.266525 0.033655 -0.038574
v -0.338565 0.459863 -0.038574
v -0.207271 0.542447 -0.038574
v -0.261164 0.799341 -0.038574
v -0.104320 0.951130 -0.038574
v -0.197520 0.934405 -0.038574
v -0.133875 1.069468 -0.038574
v -0.000968 1.201407 -0.038574
v -0.272113 -1.554718 -0.038814
v -0.237682 -1.445404 -0.038814
v -0.272113 -1.554718 -0.038814
v -0.210901 -1.478202 -0.038814
v -0.306545 -1.445404 -0.038814
v -0.333325 -1.478202 -0.038814
v -0.205666 -1.350481 0.061562
v -0.272113 -1.239086 0.061562
v -0.185615 -1.212546 0.061562
v -0.272113 -1.378083 0.061562
v -0.338560 -1.350481 0.061562
v -0.358612 -1.212546 0.061562
vn -0.7149 -0.6992 -0.0000
vn -0.8644 -0.5029 -0.0000
vn -0.8643 -0.5029 -0.0000
vn -0.9263 -0.3767 -0.0000
vn -0.9263 -0.3768 -0.0000
vn -0.3537 0.9354 -0.0000
vn 0.6912 0.7227 -0.0000
vn 0.6873 0.7264 -0.0000
vn -0.0000 -0.0000 -1.0000
vn -0.0474 -0.9989 -0.0000
vn -0.0948 -0.9955 -0.0000
vn -0.2517 -0.9678 -0.0000
vn -0.2518 -0.9678 -0.0000
vn -0.5272 -0.8497 -0.0000
vn -0.0000 -0.0000 1.0000
vn -0.9612 -0.2758 -0.0000
vn -0.8764 0.4816 -0.0000
vn -0.7817 0.6237 -0.0000
vn -0.7817 0.6237 0.0001
vn -0.8763 0.4818 -0.0000
vn -0.6456 0.7637 -0.0000
vn -0.6834 0.7301 -0.0000
vn -0.6992 0.7149 -0.0000
vn -0.7816 0.6238 -0.0000
vn 0.9806 -0.1961 -0.0000
vn 0.9678 -0.2518 -0.0000
vn 0.9290 -0.3701 -0.0000
vn 0.8440 -0.5364 -0.0000
vn 0.6541 -0.7564 -0.0000
vn 0.6540 -0.7565 -0.0000
vn 0.4877 -0.8730 -0.0000
vn 0.4569 -0.8895 -0.0000
vn 0.4567 -0.8896 -0.0000
vn -0.9862 0.1657 -0.0000
vn -0.3864 0.9223 -0.0000
vn -0.3701 0.9290 -0.0000
vn -0.3865 0.9223 -0.0000
vn -0.3700 0.9290 -0.0000
vn -0.4090 0.9125 -0.0000
vn 0.8864 -0.4628 -0.0000
vn 0.8642 -0.5031 -0.0000
vn 0.8643 -0.5029 -0.0000
vn 0.7817 -0.6237 -0.0000
vn 0.7816 -0.6238 -0.0000
vn 0.5745 -0.8185 -0.0000
vn 0.3373 -0.9414 -0.0000
vn 0.1961 -0.9806 -0.0000
vn 0.1106 -0.9939 -0.0000
vn 0.1104 -0.9939 -0.0000
vn -0.6953 0.7188 -0.0000
vn -0.6954 0.7187 -0.0000
vn 0.3469 0.9379 -0.0000
vn 0.3468 0.9379 -0.0000
vn 0.3471 0.9378 -0.0000
vn 0.3468 -0.9379 -0.0000
vn 0.3066 -0.9518 -0.0000
vn 0.3068 -0.9518 -0.0000
vn 0.1580 -0.9874 -0.0000
vn 0.1578 -0.9875 -0.0000
vn -0.1414 -0.9900 -0.0000
vn -0.3863 -0.9224 -0.0000
vn -0.5886 -0.8084 -0.0000
vn -0.5887 -0.8084 -0.0000
vn -0.7029 -0.7112 -0.0000
vn -0.7028 -0.7114 -0.0000
vn -0.8185 -0.5745 -0.0000
vn -0.9290 -0.3700 -0.0000
vn -0.9888 -0.1491 -0.0000
vn -1.0000 -0.0000 -0.0000
vn 0.0236 0.9997 -0.0000
vn 0.9125 0.4092 -0.0000
vn 0.9123 0.4096 -0.0000
vn 0.9125 0.4091 -0.0000
vn -0.4250 -0.9052 -0.0000
vn -0.4655 -0.8850 -0.0000
vn -0.4249 -0.9052 -0.0000
vn -0.5974 -0.8019 -0.0000
vn -0.5975 -0.8019 -0.0000
vn -0.8184 -0.5746 0.0001
vn -0.8184 -0.5746 -0.0000
vn -0.9354 0.3536 -0.0000
vn -0.0862 0.9963 -0.0000
vn -0.0870 0.9962 -0.0000
vn -0.0856 0.9963 -0.0000
vn 0.7149 -0.6992 -0.0000
vn 0.6832 -0.7302 -0.0000
vn 0.6831 -0.7303 -0.0000
vn 0.5655 -0.8247 -0.0000
vn 0.5655 -0.8248 -0.0000
vn 0.3067 -0.9518 -0.0000
vn 0.0472 -0.9989 -0.0000
vn -0.1809 -0.9835 -0.0000
vn -0.3303 -0.9439 -0.0000
vn -0.3304 -0.9439 -0.0000
vn 0.3205 -0.5035 -0.8024
vn 0.3662 -0.4425 -0.8186
vn 0.3882 -0.4110 -0.8248
vn 0.4720 -0.2893 -0.8328
vn 0.4945 -0.2510 -0.8322
vn 0.5461 -0.1138 -0.8299
vn 0.5399 -0.1293 -0.8318
vn 0.5718 -0.0611 -0.8181
vn 0.5632 -0.0532 -0.8246
vn 0.5417 -0.1526 -0.8266
vn 0.5541 -0.1291 -0.8224
vn 0.4867 -0.2662 -0.8320
vn 0.4709 -0.2962 -0.8310
vn 0.4414 -0.3349 -0.8325
vn -0.3973 0.4125 -0.8197
vn -0.3580 0.4798 -0.8010
vn -0.3805 0.4339 -0.8167
vn -0.4558 0.3191 -0.8310
vn -0.4709 0.2963 -0.8310
vn -0.5392 0.1367 -0.8310
vn -0.5321 0.1597 -0.8315
vn -0.5321 0.1596 -0.8315
vn -0.5624 0.0759 -0.8234
vn -0.5393 0.1367 -0.8309
vn -0.5627 0.0684 -0.8238
vn -0.5020 0.2359 -0.8321
vn -0.5167 0.2052 -0.8312
vn -0.3584 0.4498 -0.8180
vn -0.3368 0.4745 -0.8132
vn -0.2829 0.5351 -0.7960
vn 0.3204 -0.5035 0.8024
vn 0.3662 -0.4425 0.8186
vn 0.3205 -0.5035 0.8024
vn 0.3882 -0.4110 0.8248
vn 0.4720 -0.2894 0.8327
vn 0.4945 -0.2510 0.8322
vn 0.5461 -0.1138 0.8299
vn 0.5399 -0.1293 0.8318
vn 0.5718 -0.0610 0.8181
vn 0.5632 -0.0532 0.8246
vn 0.5417 -0.1525 0.8266
vn 0.5541 -0.1291 0.8224
vn 0.4867 -0.2662 0.8320
vn 0.4709 -0.2962 0.8310
vn 0.4414 -0.3348 0.8325
vn -0.3973 0.4125 0.8197
vn -0.4558 0.3190 0.8310
vn -0.3805 0.4339 0.8167
vn -0.3580 0.4798 0.8010
vn -0.4709 0.2962 0.8310
vn -0.5392 0.1367 0.8310
vn -0.5321 0.1597 0.8315
vn -0.5624 0.0760 0.8234
vn -0.5320 0.1596 0.8315
vn -0.5393 0.1367 0.8309
vn -0.5628 0.0685 0.8238
vn -0.5021 0.2358 0.8321
vn -0.5167 0.2051 0.8312
vn -0.3584 0.4499 0.8180
vn -0.3368 0.4746 0.8132
vn -0.2829 0.5351 0.7960
vn 0.9263 -0.3768 -0.0000
vn 0.3537 0.9354 -0.0000
vn -0.6912 0.7227 -0.0000
vn -0.6873 0.7264 -0.0000
vn 0.0474 -0.9989 -0.0000
vn 0.0948 -0.9955 -0.0000
vn 0.0949 -0.9955 -0.0000
vn 0.2518 -0.9678 -0.0000
vn 0.5272 -0.8497 -0.0000
vn 0.9612 -0.2758 -0.0000
vn 0.9612 -0.2757 -0.0000
vn 0.8764 0.4815 -0.0000
vn 0.7817 0.6237 -0.0000
vn 0.7817 0.6237 -0.0001
vn 0.6456 0.7637 -0.0000
vn 0.6834 0.7301 -0.0000
vn 0.6992 0.7149 -0.0000
vn 0.7816 0.6238 -0.0000
vn -0.9806 -0.1961 -0.0000
vn -0.9678 -0.2518 -0.0000
vn -0.9290 -0.3701 -0.0000
vn -0.8440 -0.5364 -0.0000
vn -0.6541 -0.7564 -0.0000
vn -0.6540 -0.7565 -0.0000
vn -0.4877 -0.8730 -0.0000
vn -0.4876 -0.8731 -0.0000
vn -0.4567 -0.8896 -0.0000
vn 0.9862 0.1657 -0.0000
vn 0.3864 0.9223 -0.0000
vn 0.3701 0.9290 -0.0000
vn 0.4090 0.9125 -0.0000
vn -0.8864 -0.4628 -0.0000
vn -0.8643 -0.5030 -0.0000
vn -0.7817 -0.6237 -0.0000
vn -0.7816 -0.6238 -0.0000
vn -0.5745 -0.8185 -0.0000
vn -0.3373 -0.9414 -0.0000
vn -0.1961 -0.9806 -0.0000
vn -0.1106 -0.9939 -0.0000
vn -0.1104 -0.9939 -0.0000
vn 0.6952 0.7188 -0.0000
vn 0.6953 0.7187 -0.0000
vn 0.6953 0.7188 -0.0000
vn -0.3469 0.9379 -0.0000
vn -0.3468 0.9379 -0.0000
vn -0.3471 0.9378 -0.0000
vn -0.3468 -0.9379 -0.0000
vn -0.3066 -0.9518 -0.0000
vn -0.3068 -0.9518 -0.0000
vn -0.1580 -0.9874 -0.0000
vn -0.1578 -0.9875 -0.0000
vn 0.1414 -0.9900 -0.0000
vn 0.3863 -0.9224 -0.0000
vn 0.5886 -0.8084 -0.0000
vn 0.5887 -0.8084 -0.0000
vn 0.7032 -0.7110 -0.0000
vn 0.8185 -0.5745 0.0001
vn 0.8185 -0.5745 -0.0000
vn 0.9888 -0.1491 -0.0000
vn 1.0000 -0.0000 -0.0000
vn -0.0236 0.9997 -0.0000
vn -0.9125 0.4091 -0.0000
vn -0.9123 0.4096 -0.0000
vn -0.9124 0.4093 -0.0000
vn 0.4250 -0.9052 -0.0000
vn 0.4655 -0.8850 -0.0000
vn 0.4249 -0.9052 -0.0000
vn 0.5975 -0.8019 -0.0000
vn 0.5974 -0.8019 -0.0000
vn 0.8183 -0.5748 -0.0000
vn 0.9354 0.3536 -0.0000
vn 0.0862 0.9963 -0.0000
vn 0.0870 0.9962 -0.0000
vn 0.0859 0.9963 -0.0000
vn 0.0856 0.9963 -0.0000
vn -0.6832 -0.7302 -0.0000
vn -0.6831 -0.7303 -0.0000
vn -0.5655 -0.8247 -0.0000
vn -0.5655 -0.8248 -0.0000
vn -0.3067 -0.9518 -0.0000
vn -0.0472 -0.9989 -0.0000
vn 0.1809 -0.9835 -0.0000
vn 0.3303 -0.9439 -0.0000
vn 0.3304 -0.9439 -0.0000
vn -0.3204 -0.5035 0.8024
vn -0.3661 -0.4425 0.8186
vn -0.3882 -0.4110 0.8248
vn -0.4720 -0.2894 0.8327
vn -0.4945 -0.2510 0.8322
vn -0.5463 -0.1137 0.8299
vn -0.5399 -0.1293 0.8318
vn -0.5719 -0.0610 0.8181
vn -0.5632 -0.0532 0.8246
vn -0.5417 -0.1526 0.8266
vn -0.5541 -0.1291 0.8224
vn -0.4867 -0.2662 0.8320
vn -0.4709 -0.2962 0.8310
vn -0.4414 -0.3349 0.8325
vn 0.3973 0.4125 0.8197
vn 0.3580 0.4798 0.8010
vn 0.3805 0.4339 0.8167
vn 0.4558 0.3191 0.8310
vn 0.4709 0.2962 0.8310
vn 0.5392 0.1367 0.8310
vn 0.5321 0.1597 0.8315
vn 0.5321 0.1596 0.8315
vn 0.5624 0.0760 0.8234
vn 0.5393 0.1367 0.8309
vn 0.5628 0.0685 0.8238
vn 0.5021 0.2358 0.8321
vn 0.5167 0.2051 0.8312
vn 0.3584 0.4499 0.8180
vn 0.3368 0.4745 0.8132
vn 0.2828 0.5351 0.7961
vn -0.3205 -0.5035 -0.8024
vn -0.3662 -0.4425 -0.8186
vn -0.3882 -0.4110 -0.8248
vn -0.4720 -0.2894 -0.8327
vn -0.4945 -0.2510 -0.8322
vn -0.5461 -0.1138 -0.8299
vn -0.5399 -0.1293 -0.8318
vn -0.5719 -0.0610 -0.8181
vn -0.5632 -0.0532 -0.8246
vn -0.5417 -0.1526 -0.8266
vn -0.5541 -0.1291 -0.8224
vn -0.4867 -0.2662 -0.8320
vn -0.4709 -0.2962 -0.8310
vn -0.4414 -0.3349 -0.8325
vn 0.3973 0.4125 -0.8197
vn 0.4558 0.3190 -0.8310
vn 0.3805 0.4339 -0.8167
vn 0.3580 0.4798 -0.8010
vn 0.4709 0.2962 -0.8310
vn 0.5392 0.1367 -0.8310
vn 0.5321 0.1597 -0.8315
vn 0.5624 0.0760 -0.8234
vn 0.5321 0.1596 -0.8315
vn 0.5393 0.1367 -0.8309
vn 0.5628 0.0685 -0.8238
vn 0.5021 0.2358 -0.8321
vn 0.5167 0.2051 -0.8312
vn 0.3584 0.4499 -0.8180
vn 0.3368 0.4746 -0.8132
vn 0.2829 0.5351 -0.7960
vn 0.4382 0.0377 -0.8981
vn 0.4687 0.0379 -0.8825
vn 0.7895 0.0619 -0.6106
vn 0.4384 0.0227 -0.8985
vn 0.4750 0.0075 -0.8799
vn 0.7904 0.0387 -0.6113
vn 0.4721 0.0381 -0.8807
vn 0.4385 0.0076 -0.8987
vn 0.7939 0.0078 -0.6080
vn 0.4691 0.0077 -0.8831
vn 0.4687 0.0378 0.8825
vn 0.4382 0.0377 0.8981
vn 0.7896 0.0618 0.6105
vn 0.4749 0.0076 0.8800
vn 0.4384 0.0227 0.8985
vn 0.7904 0.0388 0.6113
vn 0.4720 0.0381 0.8808
vn 0.7939 0.0078 0.6080
vn 0.4385 0.0076 0.8987
vn 0.4691 0.0075 0.8831
vn -0.0864 0.9963 -0.0000
vn -0.0866 0.9962 -0.0000
vn -0.0863 0.9963 -0.0000
vn -0.0872 0.9962 -0.0000
vn -0.2170 -0.0000 0.9762
vn -0.4444 -0.0075 0.8958
vn -0.4687 -0.0076 0.8833
vn 0.4380 0.0377 0.8982
vn 0.4686 0.0378 0.8826
vn 0.2170 0.0152 0.9761
vn -0.4689 -0.0076 0.8832
vn -0.4476 -0.0228 0.8940
vn -0.2170 -0.0075 0.9761
vn -0.4685 -0.0378 0.8827
vn 0.4384 0.0226 0.8985
vn 0.4747 0.0075 0.8801
vn 0.2170 0.0075 0.9761
vn 0.4718 0.0381 0.8809
vn -0.4686 -0.0378 0.8826
vn -0.4443 -0.0302 0.8954
vn -0.2170 -0.0150 0.9761
vn 0.2170 -0.0000 0.9762
vn 0.4687 0.0075 0.8833
vn -0.7938 -0.0154 -0.6080
vn -0.4446 -0.0076 -0.8957
vn -0.4691 -0.0075 -0.8831
vn -0.4690 -0.0076 -0.8832
vn -0.4478 -0.0228 -0.8939
vn -0.7904 -0.0388 -0.6113
vn -0.4687 -0.0377 -0.8825
vn -0.4687 -0.0378 -0.8825
vn -0.4444 -0.0302 -0.8953
vn -0.7895 -0.0619 -0.6106
vn -0.4446 -0.0075 0.8957
vn -0.7938 -0.0154 0.6080
vn -0.4691 -0.0076 0.8831
vn -0.4477 -0.0228 0.8939
vn -0.4691 -0.0075 0.8831
vn -0.7904 -0.0387 0.6113
vn -0.4687 -0.0378 0.8825
vn -0.4444 -0.0302 0.8953
vn -0.4687 -0.0379 0.8825
vn -0.7895 -0.0618 0.6106
vn -0.4445 -0.0075 -0.8958
vn -0.2170 -0.0000 -0.9762
vn -0.4689 -0.0076 -0.8832
vn 0.4685 0.0378 -0.8827
vn 0.2170 0.0150 -0.9761
vn -0.4475 -0.0228 -0.8940
vn -0.2170 -0.0075 -0.9761
vn -0.4685 -0.0378 -0.8827
vn 0.4747 0.0075 -0.8801
vn 0.2170 0.0074 -0.9761
vn 0.4718 0.0380 -0.8809
vn -0.4442 -0.0302 -0.8954
vn -0.4685 -0.0377 -0.8827
vn -0.2170 -0.0150 -0.9761
vn 0.2170 -0.0000 -0.9762
vn 0.4689 0.0075 -0.8832
vn -0.6044 -0.0076 0.7966
vn -0.6479 0.0075 0.7617
vn -0.6131 -0.0000 0.7900
vn -0.6480 0.0076 0.7616
vn -0.5307 -0.0607 0.8454
vn -0.5037 -0.0915 0.8590
vn -0.4489 -0.1522 0.8805
vn -0.4319 -0.1744 0.8849
vn -0.4377 -0.0604 0.8971
vn -0.4473 -0.0454 0.8932
vn -0.4773 0.0606 0.8766
vn -0.4836 0.0453 0.8741
vn -0.4840 -0.0075 0.8750
vn -0.4840 -0.0000 0.8751
vn -0.4598 -0.0000 0.8880
vn -0.4539 -0.0000 0.8910
vn -0.4225 0.0528 0.9048
vn -0.4161 0.0606 0.9073
vn -0.3857 0.1210 0.9147
vn -0.3791 0.1214 0.9173
vn -0.3540 0.1732 0.9191
vn -0.3388 0.2033 0.9186
vn -0.3165 0.2336 0.9194
vn -0.2644 0.2569 0.9296
vn -0.2479 0.2629 0.9324
vn -0.2479 0.2630 0.9324
vn 0.5266 -0.1602 0.8349
vn 0.5490 -0.2059 0.8101
vn 0.5313 -0.1670 0.8305
vn 0.5491 -0.2059 0.8100
vn 0.5181 -0.0991 0.8496
vn 0.5240 -0.0912 0.8468
vn 0.5307 -0.0607 0.8454
vn 0.5168 -0.0303 0.8555
vn 0.5226 -0.0152 0.8525
vn 0.5404 0.0304 0.8408
vn 0.5455 0.0455 0.8368
vn 0.5488 0.0610 0.8337
vn 0.5487 0.0610 0.8338
vn 0.4999 0.0985 0.8605
vn 0.5455 0.0455 0.8369
vn 0.5150 0.0909 0.8524
vn 0.4931 -0.0076 0.8699
vn 0.4932 -0.0000 0.8699
vn 0.5108 -0.1295 0.8499
vn -0.0000 -1.0000 -0.0000
vn -0.2644 0.2569 -0.9296
vn -0.2479 0.2630 -0.9324
vn -0.2480 0.2627 -0.9325
vn -0.3165 0.2336 -0.9194
vn -0.3388 0.2033 -0.9186
vn -0.3540 0.1732 -0.9191
vn -0.3857 0.1210 -0.9147
vn -0.3791 0.1214 -0.9173
vn -0.4160 0.0606 -0.9073
vn -0.4225 0.0527 -0.9048
vn -0.4598 -0.0000 -0.8880
vn -0.4538 -0.0000 -0.8911
vn -0.4840 -0.0075 -0.8750
vn -0.4840 -0.0000 -0.8751
vn -0.4835 0.0454 -0.8742
vn -0.4773 0.0606 -0.8766
vn -0.4377 -0.0604 -0.8971
vn -0.4473 -0.0454 -0.8932
vn -0.4319 -0.1744 -0.8849
vn -0.4489 -0.1522 -0.8805
vn -0.5036 -0.0916 -0.8590
vn -0.5307 -0.0605 -0.8454
vn -0.6044 -0.0076 -0.7966
vn -0.6131 -0.0000 -0.7900
vn -0.6479 0.0075 -0.7616
vn -0.6480 0.0075 -0.7616
vn 0.4931 -0.0076 -0.8699
vn 0.5108 -0.1295 -0.8499
vn 0.4931 -0.0000 -0.8699
vn 0.4999 0.0985 -0.8604
vn 0.5150 0.0909 -0.8524
vn 0.5487 0.0610 -0.8338
vn 0.5455 0.0455 -0.8369
vn 0.5489 0.0610 -0.8337
vn 0.5405 0.0304 -0.8408
vn 0.5226 -0.0152 -0.8524
vn 0.5168 -0.0304 -0.8556
vn 0.5308 -0.0607 -0.8453
vn 0.5180 -0.0991 -0.8496
vn 0.5240 -0.0912 -0.8468
vn 0.5266 -0.1602 -0.8349
vn 0.5314 -0.1670 -0.8305
vn 0.5490 -0.2059 -0.8101
vt 0.168015 0.781506
vt 0.148117 0.847504
vt 0.148117 0.781506
vt 0.168015 0.847504
vt 0.148117 0.907540
vt 0.168015 0.907540
vt 0.024827 0.841877
vt 0.084292 0.821978
vt 0.084292 0.841877
vt 0.024827 0.821978
vt 0.179518 0.821978
vt 0.291305 0.821978
vt 0.179518 0.841877
vt 0.291305 0.841877
vt 0.136614 0.839440
vt 0.210524 0.781506
vt 0.231840 0.930192
vt 0.266974 0.847504
vt 0.291305 0.907540
vt 0.179343 0.753518
vt 0.157729 0.745496
vt 0.102728 0.737503
vt 0.024827 0.733663
vt 0.102728 0.841877
vt 0.102728 0.821978
vt 0.157729 0.841877
vt 0.157729 0.821978
vt 0.179343 0.841877
vt 0.179343 0.821978
vt 0.210524 0.841877
vt 0.210524 0.821978
vt 0.179518 0.839440
vt 0.105608 0.781506
vt 0.136789 0.753518
vt 0.158403 0.745496
vt 0.213404 0.737503
vt 0.291305 0.733663
vt 0.084292 0.930192
vt 0.049158 0.847504
vt 0.024827 0.907540
vt 0.023807 0.938103
vt 0.060977 0.851782
vt 0.060977 0.938103
vt 0.023807 0.851782
vt 0.060977 1.026320
vt 0.023807 1.026320
vt 0.078775 1.124110
vt 0.203724 1.124110
vt 0.078775 1.161280
vt 0.203724 1.161280
vt 0.303874 1.124110
vt 0.303874 1.161280
vt -0.170416 1.161280
vt -0.170416 1.124110
vt 0.006009 1.223770
vt -0.126571 1.132200
vt -0.031190 1.022510
vt 0.078499 0.954794
vt -0.118940 1.335370
vt 0.255200 1.026320
vt 0.278799 0.851782
vt 0.303874 0.938103
vt -0.157093 1.196110
vt -0.193338 1.304840
vt -0.219091 1.433610
vt 0.023807 1.433610
vt 0.060977 1.304840
vt 0.060977 1.433610
vt 0.023807 1.304840
vt 0.060977 1.196110
vt 0.023807 1.196110
vt 0.060977 1.132200
vt 0.023807 1.132200
vt 0.060977 1.022510
vt 0.023807 1.022510
vt -0.031190 1.124110
vt 0.078499 1.161280
vt -0.031190 1.161280
vt 0.078499 1.124110
vt 0.278799 1.161280
vt 0.278799 1.124110
vt 0.006285 0.954794
vt -0.170416 1.026320
vt -0.194015 0.851782
vt -0.219091 0.938103
vt 0.078775 1.223770
vt 0.115974 1.022510
vt 0.211355 1.132200
vt 0.203724 1.335370
vt 0.241877 1.196110
vt 0.278122 1.304840
vt 0.303874 1.433610
vt 0.172434 1.179610
vt 0.142407 1.097520
vt 0.172434 1.097520
vt 0.142407 1.179610
vt 0.192187 1.235160
vt 0.426380 1.235160
vt 0.192187 1.265190
vt 0.426380 1.265190
vt -0.098075 1.265190
vt -0.098075 1.235160
vt 0.224120 1.120450
vt 0.412916 1.179610
vt 0.122653 1.309000
vt 0.426380 1.097520
vt 0.087124 1.159200
vt 0.024058 1.186420
vt -0.002717 1.213090
vt -0.052363 1.289490
vt -0.111540 1.402830
vt 0.142407 1.402830
vt 0.172434 1.289490
vt 0.172434 1.402830
vt 0.142407 1.289490
vt 0.172434 1.213090
vt 0.142407 1.213090
vt -0.002717 1.235160
vt 0.024058 1.265190
vt -0.002717 1.265190
vt 0.024058 1.235160
vt 0.087124 1.265190
vt 0.087124 1.235160
vt 0.224120 1.265190
vt 0.224120 1.235160
vt 0.227716 1.159200
vt 0.192187 1.309000
vt 0.090720 1.120450
vt 0.290783 1.186420
vt 0.317558 1.213090
vt 0.367204 1.289490
vt 0.426380 1.402830
vt -0.098075 1.179610
vt -0.111540 1.097520
vt -0.309572 1.036440
vt -0.255871 1.013810
vt -0.255871 1.036440
vt -0.309572 1.013810
vt -0.110745 1.013810
vt 0.059268 1.013810
vt -0.110745 1.036440
vt 0.059268 1.036440
vt -0.139559 1.054620
vt -0.086676 0.957628
vt 0.005567 1.108340
vt 0.005035 1.002650
vt 0.059268 1.056190
vt -0.133392 0.941905
vt -0.160478 0.943299
vt -0.223622 0.960266
vt -0.309572 0.992381
vt -0.223622 1.036440
vt -0.223622 1.013810
vt -0.160478 1.036440
vt -0.160478 1.013810
vt -0.133392 1.013810
vt -0.133392 1.036440
vt -0.086676 1.013810
vt -0.086676 1.036440
vt 0.005035 1.036440
vt 0.005035 1.013810
vt -0.089826 0.943299
vt -0.026682 0.960266
vt -0.110745 1.054620
vt 0.059268 0.992381
vt -0.116912 0.941905
vt -0.163628 0.957628
vt -0.255871 1.108340
vt -0.255339 1.002650
vt -0.309572 1.056190
vt -0.157405 1.040100
vt -0.176344 1.069950
vt -0.176344 1.040100
vt -0.157405 1.069950
vt -0.176344 1.135230
vt -0.157405 1.135230
vt -0.157405 1.186530
vt -0.176344 1.186530
vt -0.238495 1.073450
vt -0.188118 1.092390
vt -0.238495 1.092390
vt -0.188118 1.073450
vt -0.116776 1.069950
vt -0.095132 1.135230
vt -0.145631 1.185340
vt -0.095254 1.186530
vt -0.188301 1.090310
vt -0.131265 1.040100
vt -0.144712 1.027750
vt -0.182649 1.005430
vt -0.238618 0.979311
vt -0.157405 1.185340
vt -0.176344 1.185340
vt -0.176344 1.090310
vt -0.157405 1.090310
vt -0.176344 0.979311
vt -0.157405 0.979311
vt -0.238618 1.073450
vt -0.182649 1.092390
vt -0.238618 1.092390
vt -0.182649 1.073450
vt -0.144712 1.092390
vt -0.144712 1.073450
vt -0.131265 1.092390
vt -0.131265 1.073450
vt -0.216973 1.069950
vt -0.145448 1.090310
vt -0.188118 1.185340
vt -0.238618 1.135230
vt -0.238495 1.186530
vt -0.202484 1.040100
vt -0.189037 1.027750
vt -0.151101 1.005430
vt -0.095132 0.979311
vt -0.218105 1.160400
vt -0.244227 1.062760
vt -0.218105 1.062760
vt -0.244227 1.160400
vt -0.231021 1.100210
vt 0.020266 1.100210
vt -0.231021 1.126330
vt 0.020266 1.126330
vt -0.445873 1.126330
vt -0.445873 1.100210
vt -0.222247 1.025180
vt -0.079895 1.027480
vt -0.231311 1.178860
vt -0.290477 1.033100
vt -0.323793 1.050950
vt -0.393318 1.109830
vt -0.482598 1.201360
vt -0.016460 1.160400
vt 0.020266 1.062760
vt -0.244227 1.201360
vt -0.218105 1.109830
vt -0.218105 1.201360
vt -0.244227 1.109830
vt -0.393318 1.100210
vt -0.323793 1.126330
vt -0.393318 1.126330
vt -0.323793 1.100210
vt -0.290477 1.126330
vt -0.290477 1.100210
vt -0.222247 1.126330
vt -0.222247 1.100210
vt -0.079895 1.126330
vt -0.079895 1.100210
vt -0.231021 1.178860
vt -0.382437 1.027480
vt -0.240085 1.025180
vt -0.171856 1.033100
vt -0.138539 1.050950
vt -0.069014 1.109830
vt 0.020266 1.201360
vt -0.445873 1.160400
vt -0.482598 1.062760
vt 0.040009 0.320899
vt -0.061870 0.447477
vt -0.104113 0.408574
vt 0.040009 0.378326
vt -0.108525 0.500662
vt -0.158971 0.473221
vt -0.206206 0.602683
vt -0.156215 0.612735
vt -0.218772 0.741161
vt -0.168138 0.735141
vt -0.220643 0.777924
vt -0.177959 0.805821
vt -0.259193 0.916952
vt -0.280724 0.903178
vt -0.345334 0.987936
vt -0.019628 0.486380
vt 0.040009 0.435753
vt -0.058078 0.528102
vt -0.106224 0.622787
vt -0.117503 0.729120
vt -0.135276 0.833717
vt -0.237661 0.930725
vt -0.345334 0.320899
vt -0.243454 0.447477
vt -0.345334 0.378326
vt -0.201212 0.408574
vt -0.196800 0.500662
vt -0.146354 0.473221
vt -0.099119 0.602683
vt -0.149110 0.612735
vt -0.086552 0.741161
vt -0.137187 0.735141
vt -0.084682 0.777924
vt -0.127365 0.805821
vt -0.046132 0.916952
vt -0.024601 0.903178
vt 0.040010 0.987936
vt -0.247247 0.528102
vt -0.285697 0.486380
vt -0.345334 0.435753
vt -0.199100 0.622787
vt -0.187822 0.729120
vt -0.170049 0.833717
vt -0.067663 0.930725
vt 0.153648 1.138710
vt 0.133749 1.204710
vt 0.133749 1.138710
vt 0.153648 1.204710
vt 0.133749 1.264740
vt 0.153648 1.264740
vt 0.010460 1.199080
vt 0.069925 1.179180
vt 0.069925 1.199080
vt 0.010460 1.179180
vt 0.165151 1.179180
vt 0.276937 1.179180
vt 0.165151 1.199080
vt 0.276937 1.199080
vt 0.122246 1.196640
vt 0.196157 1.138710
vt 0.217473 1.287390
vt 0.252607 1.204710
vt 0.276937 1.264740
vt 0.164975 1.110720
vt 0.143362 1.102700
vt 0.088360 1.094710
vt 0.010460 1.090870
vt 0.088360 1.199080
vt 0.088360 1.179180
vt 0.143362 1.199080
vt 0.143362 1.179180
vt 0.164975 1.199080
vt 0.164975 1.179180
vt 0.196157 1.199080
vt 0.196157 1.179180
vt 0.165151 1.196640
vt 0.091240 1.138710
vt 0.122422 1.110720
vt 0.144035 1.102700
vt 0.199037 1.094710
vt 0.276937 1.090870
vt 0.069925 1.287390
vt 0.034790 1.204710
vt 0.010460 1.264740
vt -0.192963 0.422371
vt -0.155793 0.336050
vt -0.155793 0.422371
vt -0.192963 0.336050
vt -0.155794 0.510584
vt -0.192963 0.510584
vt -0.137996 0.608378
vt -0.013046 0.608378
vt -0.137996 0.645548
vt -0.013046 0.645548
vt 0.087104 0.608378
vt 0.087104 0.645548
vt -0.387187 0.645548
vt -0.387187 0.608378
vt -0.210761 0.708037
vt -0.343341 0.616471
vt -0.247960 0.506782
vt -0.138272 0.439062
vt -0.335711 0.819633
vt 0.038430 0.510584
vt 0.062029 0.336050
vt 0.087104 0.422371
vt -0.373863 0.680376
vt -0.410108 0.789111
vt -0.435861 0.917875
vt -0.192963 0.917875
vt -0.155794 0.789111
vt -0.155793 0.917875
vt -0.192963 0.789111
vt -0.155794 0.680376
vt -0.192963 0.680376
vt -0.155794 0.616471
vt -0.192963 0.616471
vt -0.155794 0.506782
vt -0.192963 0.506782
vt -0.247960 0.608378
vt -0.138272 0.645548
vt -0.247960 0.645548
vt -0.138272 0.608378
vt 0.062029 0.645547
vt 0.062029 0.608378
vt -0.210485 0.439062
vt -0.387187 0.510584
vt -0.410786 0.336050
vt -0.435861 0.422371
vt -0.137996 0.708037
vt -0.100797 0.506782
vt -0.005416 0.616471
vt -0.013046 0.819633
vt 0.025106 0.680376
vt 0.061351 0.789111
vt 0.087104 0.917875
vt 0.449090 1.069710
vt 0.419063 0.987618
vt 0.449090 0.987618
vt 0.419063 1.069710
vt 0.468844 1.125260
vt 0.703037 1.125260
vt 0.468844 1.155280
vt 0.703037 1.155280
vt 0.178581 1.155280
vt 0.178581 1.125260
vt 0.500777 1.010550
vt 0.689572 1.069710
vt 0.399310 1.199090
vt 0.703037 0.987618
vt 0.363781 1.049300
vt 0.300714 1.076510
vt 0.273939 1.103180
vt 0.224293 1.179580
vt 0.165117 1.292920
vt 0.419063 1.292920
vt 0.449090 1.179580
vt 0.449090 1.292920
vt 0.419063 1.179580
vt 0.449090 1.103180
vt 0.419063 1.103180
vt 0.273939 1.125260
vt 0.300714 1.155280
vt 0.273939 1.155280
vt 0.300714 1.125260
vt 0.363781 1.155280
vt 0.363781 1.125260
vt 0.500777 1.155280
vt 0.500777 1.125260
vt 0.504373 1.049300
vt 0.468844 1.199090
vt 0.367377 1.010550
vt 0.567439 1.076510
vt 0.594214 1.103180
vt 0.643860 1.179580
vt 0.703037 1.292920
vt 0.178581 1.069710
vt 0.165117 0.987618
vt -0.424615 0.841111
vt -0.370914 0.818479
vt -0.370914 0.841111
vt -0.424615 0.818479
vt -0.225787 0.818479
vt -0.055774 0.818479
vt -0.225787 0.841111
vt -0.055774 0.841111
vt -0.254602 0.859295
vt -0.201718 0.762298
vt -0.109475 0.913015
vt -0.110008 0.807325
vt -0.055774 0.860861
vt -0.248435 0.746575
vt -0.275520 0.747970
vt -0.338665 0.764937
vt -0.424615 0.797051
vt -0.338665 0.841111
vt -0.338665 0.818479
vt -0.275520 0.841111
vt -0.275520 0.818479
vt -0.248435 0.818479
vt -0.248435 0.841111
vt -0.201718 0.818479
vt -0.201718 0.841111
vt -0.110008 0.841111
vt -0.110008 0.818479
vt -0.204869 0.747970
vt -0.141725 0.764937
vt -0.225787 0.859295
vt -0.055774 0.797051
vt -0.231954 0.746575
vt -0.278671 0.762298
vt -0.370914 0.913015
vt -0.370382 0.807325
vt -0.424615 0.860861
vt 0.028329 0.890544
vt 0.009390 0.920394
vt 0.009390 0.890544
vt 0.028329 0.920394
vt 0.009390 0.985675
vt 0.028329 0.985675
vt 0.028329 1.036970
vt 0.009390 1.036970
vt -0.052761 0.923896
vt -0.002383 0.942835
vt -0.052761 0.942835
vt -0.002383 0.923896
vt 0.068959 0.920394
vt 0.090603 0.985675
vt 0.040103 1.035790
vt 0.090480 1.036970
vt -0.002567 0.940760
vt 0.054469 0.890544
vt 0.041022 0.878196
vt 0.003086 0.855879
vt -0.052883 0.829757
vt 0.028329 1.035790
vt 0.009390 1.035790
vt 0.009390 0.940760
vt 0.028329 0.940760
vt 0.009390 0.829757
vt 0.028329 0.829757
vt -0.052883 0.923896
vt 0.003086 0.942835
vt -0.052883 0.942835
vt 0.003086 0.923896
vt 0.041022 0.942835
vt 0.041022 0.923896
vt 0.054469 0.942835
vt 0.054469 0.923896
vt -0.031239 0.920394
vt 0.040286 0.940760
vt -0.002383 1.035790
vt -0.052883 0.985675
vt -0.052761 1.036970
vt -0.016750 0.890544
vt -0.003302 0.878196
vt 0.034634 0.855879
vt 0.090603 0.829757
vt -0.305285 1.237190
vt -0.331407 1.139550
vt -0.305285 1.139550
vt -0.331407 1.237190
vt -0.318201 1.177000
vt -0.066914 1.177000
vt -0.318201 1.203120
vt -0.066914 1.203120
vt -0.533053 1.203120
vt -0.533053 1.177000
vt -0.309427 1.101970
vt -0.167075 1.104270
vt -0.318491 1.255650
vt -0.377657 1.109890
vt -0.410973 1.127740
vt -0.480498 1.186620
vt -0.569778 1.278150
vt -0.103640 1.237190
vt -0.066914 1.139550
vt -0.331407 1.278150
vt -0.305285 1.186620
vt -0.305285 1.278150
vt -0.331407 1.186620
vt -0.480498 1.177000
vt -0.410973 1.203120
vt -0.480498 1.203120
vt -0.410973 1.177000
vt -0.377657 1.203120
vt -0.377657 1.177000
vt -0.309427 1.203120
vt -0.309427 1.177000
vt -0.167075 1.203120
vt -0.167075 1.177000
vt -0.318201 1.255650
vt -0.469617 1.104270
vt -0.327265 1.101970
vt -0.259036 1.109890
vt -0.225720 1.127740
vt -0.156194 1.186620
vt -0.066914 1.278150
vt -0.533053 1.237190
vt -0.569778 1.139550
vt -0.178675 0.920588
vt -0.280554 1.047170
vt -0.322797 1.008260
vt -0.178675 0.978015
vt -0.327209 1.100350
vt -0.377655 1.072910
vt -0.424890 1.202370
vt -0.374899 1.212420
vt -0.437457 1.340850
vt -0.386822 1.334830
vt -0.439327 1.377610
vt -0.396643 1.405510
vt -0.477877 1.516640
vt -0.499408 1.502870
vt -0.564018 1.587630
vt -0.238312 1.086070
vt -0.178675 1.035440
vt -0.276762 1.127790
vt -0.324909 1.222480
vt -0.336187 1.328810
vt -0.353960 1.433410
vt -0.456346 1.530420
vt -0.564018 0.920588
vt -0.462139 1.047170
vt -0.564018 0.978015
vt -0.419896 1.008260
vt -0.415484 1.100350
vt -0.365038 1.072910
vt -0.317803 1.202370
vt -0.367794 1.212420
vt -0.305236 1.340850
vt -0.355871 1.334830
vt -0.303366 1.377610
vt -0.346050 1.405510
vt -0.264816 1.516640
vt -0.243285 1.502870
vt -0.178675 1.587630
vt -0.465931 1.127790
vt -0.504381 1.086070
vt -0.564018 1.035440
vt -0.417784 1.222480
vt -0.406506 1.328810
vt -0.388733 1.433410
vt -0.286347 1.530420
vt 0.395981 0.544688
vt 0.395981 0.701199
vt 0.369738 0.546359
vt 0.395981 0.857709
vt 0.395981 1.002110
vt 0.369738 0.858545
vt 0.395981 1.146510
vt 0.369738 1.146510
vt 0.343495 0.701199
vt 0.343495 0.544688
vt 0.343495 1.002110
vt 0.343495 0.857709
vt 0.343495 1.146510
vt 0.319158 0.866119
vt 0.280498 0.839876
vt 0.300060 0.839876
vt 0.305326 0.873992
vt 0.365266 0.876989
vt 0.365266 0.888123
vt 0.450034 0.839876
vt 0.411374 0.813633
vt 0.425206 0.805760
vt 0.365266 0.802763
vt 0.365266 0.791629
vt 0.430472 0.839876
vt 0.411374 0.866119
vt 0.425206 0.873992
vt 0.345953 1.146510
vt 0.299669 1.146510
vt 0.301777 1.000090
vt 0.420318 0.544688
vt 0.408298 0.701199
vt 0.374210 0.540654
vt 0.303886 0.853675
vt 0.350082 0.855692
vt 0.315994 0.695148
vt 0.396277 0.857709
vt 0.394257 1.002110
vt 0.328102 0.536620
vt 0.392237 1.146510
vt 0.343495 1.000090
vt 0.343495 0.853675
vt 0.369738 0.852840
vt 0.343495 0.695148
vt 0.343495 0.536620
vt 0.369738 0.534949
vt 0.395981 1.000090
vt 0.395981 0.853675
vt 0.395981 0.695148
vt 0.395981 0.536620
vt 0.439807 1.146510
vt 0.393523 1.146510
vt 0.437698 1.000090
vt 0.331178 0.701199
vt 0.319158 0.544688
vt 0.365266 0.540654
vt 0.435590 0.853675
vt 0.389394 0.855692
vt 0.423482 0.695148
vt 0.345219 1.002110
vt 0.343198 0.857709
vt 0.411374 0.536620
vt 0.347239 1.146510
vt 0.670911 -1.071080
vt 0.671193 -1.255920
vt 0.716213 -1.084490
vt 0.711774 -1.255920
vt 0.720167 -0.949461
vt 0.658354 -0.922479
vt 0.703562 -0.841814
vt 0.617438 -0.826529
vt 0.652168 -0.731078
vt 0.573253 -0.731078
vt 0.594224 -0.674186
vt 0.657007 -0.658021
vt 0.600226 -0.432166
vt 0.667123 -0.436611
vt 0.650560 -0.115053
vt 0.582498 -0.110073
vt 0.602484 0.303949
vt 0.685184 0.314000
vt 0.678397 0.656557
vt 0.758767 0.636730
vt 0.819272 0.765131
vt 0.769171 0.878354
vt 0.879776 0.893531
vt 0.925170 1.072420
vt 1.006130 1.018960
vt 1.143170 1.271460
vt 0.666128 -1.275900
vt 0.685190 -1.407030
vt 0.748359 -1.301130
vt 0.748359 -1.433270
vt 0.811528 -1.407030
vt 0.830590 -1.275900
vt 0.960073 0.748611
vt 0.907873 0.781033
vt 0.810002 0.392510
vt 0.867899 0.370555
vt 0.837626 0.150266
vt 0.753670 -0.091182
vt 0.808087 -0.224494
vt 0.753257 -0.354188
vt 0.827575 -0.607323
vt 0.788343 -0.743772
vt 0.860162 -0.873405
vt 0.804245 -0.867479
vt 0.823867 -1.003210
vt 0.903887 -0.998404
vt 0.822141 -1.255920
vt 0.779391 -1.255920
vt 0.748359 -1.601190
vt 0.781092 -1.497270
vt 0.715626 -1.497270
vt 0.690167 -1.528450
vt 0.806551 -1.528450
vt 0.666127 -1.275900
vt 0.671193 -0.164863
vt 0.779391 -0.203310
vt 0.822141 -0.164863
vt 0.711774 -0.203310
vt 0.779391 -0.126416
vt 0.711774 -0.126416
vt 0.791251 1.072420
vt 0.573253 1.271460
vt 0.710295 1.018960
vt 0.836645 0.893531
vt 0.947250 0.878354
vt 0.897149 0.765131
vt 1.038020 0.656557
vt 0.957654 0.636730
vt 1.031240 0.314000
vt 1.113940 0.303949
vt 1.065860 -0.115053
vt 1.133920 -0.110073
vt 1.116190 -0.432166
vt 1.049300 -0.436611
vt 1.059410 -0.658021
vt 1.122200 -0.674186
vt 1.064250 -0.731078
vt 1.143170 -0.731078
vt 1.098980 -0.826529
vt 1.012860 -0.841814
vt 1.058070 -0.922479
vt 0.996255 -0.949461
vt 1.045510 -1.071080
vt 1.000210 -1.084490
vt 1.045230 -1.255920
vt 1.004650 -1.255920
vt 0.885831 -1.275900
vt 0.904893 -1.407030
vt 0.968063 -1.301130
vt 0.968063 -1.433270
vt 1.031230 -1.407030
vt 1.050290 -1.275900
vt 0.892554 -1.003210
vt 0.894280 -1.255920
vt 0.937030 -1.255920
vt 0.812535 -0.998404
vt 0.856259 -0.873405
vt 0.912177 -0.867479
vt 0.928078 -0.743772
vt 0.888846 -0.607323
vt 0.963164 -0.354188
vt 0.908334 -0.224494
vt 0.962751 -0.091182
vt 0.878795 0.150266
vt 0.906419 0.392510
vt 0.848523 0.370555
vt 0.756349 0.748611
vt 0.808548 0.781033
vt 0.935330 -1.497270
vt 0.909871 -1.528450
vt 0.968063 -1.601190
vt 1.000800 -1.497270
vt 1.026250 -1.528450
s 1
usemtl Meshpart1Mtl.006
f 1/1/1 2/2/2 3/3/1
f 2/2/2 1/1/1 4/4/3
f 4/4/3 5/5/4 2/2/2
f 5/5/4 4/4/3 6/6/5
f 7/7/6 8/8/6 9/9/6
f 8/8/6 7/7/6 10/10/6
f 11/11/7 12/12/8 13/13/7
f 14/14/8 13/13/7 12/12/8
f 15/9/7 16/11/7 17/13/7
f 16/11/7 15/9/7 18/8/7
f 19/15/9 20/16/9 21/17/9
f 21/17/9 20/16/9 22/18/9
f 23/19/9 21/17/9 22/18/9
f 20/16/9 19/15/9 24/20/9
f 19/15/9 25/21/9 24/20/9
f 25/21/9 19/15/9 26/22/9
f 26/22/9 19/15/9 27/23/9
f 28/10/10 29/24/11 30/7/10
f 29/24/11 28/10/10 31/25/11
f 31/25/11 32/26/12 29/24/11
f 32/26/12 31/25/11 33/27/12
f 34/27/13 35/28/14 36/26/13
f 35/28/14 34/27/13 37/29/14
f 37/29/14 38/30/1 35/28/14
f 38/30/1 37/29/14 39/31/1
f 40/32/15 41/33/15 42/34/15
f 40/32/15 42/34/15 43/35/15
f 40/32/15 43/35/15 44/36/15
f 44/36/15 45/37/15 40/32/15
f 41/33/15 40/32/15 46/38/15
f 41/33/15 46/38/15 47/39/15
f 47/39/15 46/38/15 48/40/15
f 49/41/16 50/42/16 51/43/16
f 50/42/16 49/41/16 52/44/16
f 55/41/17 54/45/18 53/46/19
f 54/45/18 55/41/17 56/43/20
f 57/47/21 58/48/22 59/49/21
f 60/50/22 59/49/21 58/48/22
f 60/50/22 58/48/22 61/51/23
f 62/52/23 60/50/22 61/51/23
f 63/53/24 57/47/21 59/49/21
f 57/47/21 63/53/24 64/54/24
f 65/55/9 66/56/9 67/57/9
f 65/55/9 67/57/9 68/58/9
f 69/59/9 66/56/9 65/55/9
f 68/58/9 70/60/9 65/55/9
f 71/61/9 70/60/9 68/58/9
f 70/60/9 71/61/9 72/62/9
f 66/56/9 69/59/9 73/63/9
f 73/63/9 69/59/9 74/64/9
f 74/64/9 69/59/9 75/65/9
f 76/66/25 77/67/26 78/68/25
f 77/67/26 76/66/25 79/69/26
f 79/69/26 80/70/27 77/67/26
f 80/70/27 79/69/26 81/71/27
f 81/71/27 82/72/28 80/70/27
f 82/72/28 81/71/27 83/73/28
f 83/73/28 84/74/29 82/72/28
f 84/74/29 83/73/28 85/75/29
f 87/76/30 88/77/31 86/78/30
f 88/77/31 87/76/30 89/79/31
f 89/79/31 90/80/32 88/77/31
f 90/80/32 89/79/31 91/81/33
f 92/82/15 93/83/15 94/84/15
f 94/84/15 93/83/15 95/85/15
f 93/83/15 92/82/15 96/86/15
f 97/87/15 96/86/15 92/82/15
f 96/86/15 97/87/15 98/88/15
f 98/88/15 99/89/15 96/86/15
f 99/89/15 98/88/15 100/90/15
f 99/89/15 100/90/15 101/91/15
f 101/91/15 102/92/15 99/89/15
f 103/93/34 104/94/34 105/95/34
f 104/94/34 103/93/34 106/96/34
f 107/97/35 108/98/36 109/99/37
f 110/100/38 109/99/37 108/98/36
f 111/101/39 107/97/35 109/99/37
f 107/97/35 111/101/39 112/102/39
f 113/103/9 114/104/9 115/105/9
f 114/104/9 113/103/9 116/106/9
f 115/105/9 117/107/9 113/103/9
f 115/105/9 118/108/9 117/107/9
f 118/108/9 115/105/9 119/109/9
f 119/109/9 115/105/9 120/110/9
f 120/110/9 115/105/9 121/111/9
f 122/112/40 123/113/41 124/114/40
f 123/113/41 122/112/40 125/115/42
f 125/115/42 126/116/43 123/113/41
f 126/116/43 125/115/42 127/117/43
f 129/118/44 130/119/45 128/120/44
f 130/119/45 129/118/44 131/121/45
f 131/121/45 132/122/46 130/119/45
f 132/122/46 131/121/45 133/123/46
f 133/123/46 134/124/47 132/122/46
f 134/124/47 133/123/46 135/125/47
f 135/125/47 136/100/48 134/124/47
f 136/100/48 135/125/47 137/98/49
f 138/126/15 139/127/15 140/128/15
f 141/129/15 139/127/15 138/126/15
f 139/127/15 141/129/15 142/130/15
f 139/127/15 142/130/15 143/131/15
f 139/127/15 143/131/15 144/132/15
f 140/128/15 139/127/15 145/133/15
f 140/128/15 145/133/15 146/134/15
f 147/135/50 148/136/51 149/137/50
f 148/136/51 147/135/50 150/138/50
f 151/139/52 152/140/53 153/141/52
f 154/142/53 153/141/52 152/140/53
f 155/137/54 151/139/52 153/141/52
f 151/139/52 155/137/54 156/136/54
f 157/143/9 158/144/9 159/145/9
f 159/145/9 158/144/9 160/146/9
f 160/146/9 161/147/9 159/145/9
f 158/144/9 157/143/9 162/148/9
f 157/143/9 163/149/9 162/148/9
f 163/149/9 157/143/9 164/150/9
f 164/150/9 157/143/9 165/151/9
f 166/138/55 167/152/56 168/135/55
f 167/152/56 166/138/55 169/153/57
f 169/153/57 170/154/58 167/152/56
f 170/154/58 169/153/57 171/155/59
f 172/156/60 170/154/58 171/155/59
f 170/154/58 172/156/60 173/157/60
f 174/158/61 173/157/60 172/156/60
f 173/157/60 174/158/61 175/159/61
f 176/158/61 177/160/62 178/159/61
f 177/160/62 176/158/61 179/161/63
f 179/161/63 180/142/64 177/160/62
f 180/142/64 179/161/63 181/140/65
f 182/162/15 183/163/15 184/164/15
f 185/165/15 184/164/15 183/163/15
f 184/164/15 186/166/15 182/162/15
f 184/164/15 187/167/15 186/166/15
f 188/168/15 187/167/15 184/164/15
f 187/167/15 188/168/15 189/169/15
f 189/169/15 188/168/15 190/170/15
f 192/171/66 193/172/67 191/173/66
f 193/172/67 192/171/66 194/174/67
f 194/174/67 195/175/68 193/172/67
f 195/175/68 194/174/67 196/176/68
f 197/177/69 195/175/68 196/176/68
f 197/177/69 198/178/69 195/175/68
f 199/179/70 200/180/70 201/181/70
f 200/180/70 199/179/70 202/182/70
f 203/183/9 204/184/9 205/185/9
f 206/186/9 205/185/9 204/184/9
f 207/187/9 203/183/9 205/185/9
f 203/183/9 207/187/9 208/188/9
f 207/187/9 209/189/9 208/188/9
f 209/189/9 207/187/9 210/190/9
f 210/190/9 207/187/9 211/191/9
f 212/192/71 213/193/72 214/194/71
f 212/192/71 214/194/71 215/195/72
f 216/194/73 217/196/73 218/195/73
f 218/195/73 217/196/73 219/197/73
f 220/198/74 221/199/75 222/200/76
f 221/199/75 220/198/74 223/201/75
f 223/201/75 224/202/77 221/199/75
f 224/202/77 223/201/75 225/203/78
f 225/203/78 226/204/79 224/202/77
f 226/204/79 225/203/78 227/205/80
f 228/206/15 229/207/15 230/208/15
f 228/206/15 230/208/15 231/209/15
f 231/209/15 230/208/15 232/210/15
f 229/207/15 228/206/15 233/211/15
f 234/212/15 229/207/15 233/211/15
f 229/207/15 234/212/15 235/213/15
f 229/207/15 235/213/15 236/214/15
f 237/215/81 238/216/81 239/217/81
f 238/216/81 237/215/81 240/218/81
f 241/219/82 242/220/83 243/221/82
f 244/222/83 243/221/82 242/220/83
f 245/223/84 241/219/82 243/221/82
f 241/219/82 245/223/84 246/224/84
f 247/225/9 248/226/9 249/227/9
f 249/227/9 250/228/9 247/225/9
f 250/228/9 249/227/9 251/229/9
f 251/229/9 249/227/9 252/230/9
f 252/230/9 249/227/9 253/231/9
f 248/226/9 254/232/9 249/227/9
f 254/232/9 248/226/9 255/233/9
f 256/234/85 257/235/86 258/236/85
f 257/235/86 256/234/85 259/237/86
f 261/238/87 262/239/88 260/240/87
f 262/239/88 261/238/87 263/241/89
f 263/241/89 264/242/90 262/239/88
f 264/242/90 263/241/89 265/243/57
f 265/243/57 266/244/91 264/242/90
f 266/244/91 265/243/57 267/245/91
f 268/245/91 269/246/92 266/244/91
f 269/246/92 268/245/91 270/247/92
f 270/247/92 271/222/93 269/246/92
f 271/222/93 270/247/92 272/220/94
f 273/248/15 274/249/15 275/250/15
f 276/251/15 273/248/15 275/250/15
f 273/248/15 276/251/15 277/252/15
f 273/248/15 277/252/15 278/253/15
f 278/253/15 279/254/15 273/248/15
f 274/249/15 273/248/15 280/255/15
f 274/249/15 280/255/15 281/256/15
f 282/257/95 283/258/96 284/259/97
f 283/258/96 282/257/95 285/260/95
f 284/259/97 283/258/96 286/261/98
f 286/261/98 287/262/99 284/259/97
f 286/261/98 288/263/100 287/262/99
f 288/263/100 286/261/98 289/264/101
f 289/264/101 290/265/102 288/263/100
f 290/265/102 289/264/101 291/266/103
f 291/266/103 292/267/104 290/265/102
f 292/267/104 291/266/103 293/268/105
f 292/267/104 293/268/105 294/269/106
f 295/270/107 292/267/104 294/269/106
f 295/270/107 294/269/106 296/271/108
f 297/258/109 298/260/110 299/272/111
f 298/260/110 300/273/110 299/272/111
f 297/258/109 299/272/111 301/274/112
f 301/274/112 302/261/113 297/258/109
f 301/274/112 303/264/114 302/261/113
f 303/264/114 301/274/112 304/275/115
f 305/275/116 306/266/117 303/264/118
f 306/266/117 305/275/116 307/276/119
f 307/276/119 308/268/120 306/266/117
f 308/268/120 307/276/119 309/277/121
f 308/268/120 309/277/121 310/278/122
f 311/269/123 308/268/120 310/278/122
f 311/269/123 310/278/122 312/271/124
f 313/279/125 314/280/126 315/281/127
f 314/280/126 313/279/125 316/282/128
f 316/282/128 317/283/129 314/280/126
f 317/283/129 316/282/128 318/284/130
f 319/285/131 317/283/129 318/284/130
f 319/285/131 320/286/132 317/283/129
f 321/287/133 320/286/132 319/285/131
f 321/287/133 322/288/134 320/286/132
f 323/289/135 322/288/134 321/287/133
f 323/289/135 324/290/136 322/288/134
f 323/289/135 325/291/137 324/290/136
f 325/291/137 323/289/135 326/292/138
f 325/291/137 326/292/138 327/293/139
f 328/280/140 329/294/141 330/295/142
f 330/295/142 331/281/143 328/280/140
f 332/296/143 331/281/143 330/295/142
f 329/294/141 328/280/140 333/283/144
f 334/286/145 329/294/141 333/283/144
f 334/286/145 335/297/146 329/294/141
f 336/288/147 337/297/148 334/286/149
f 336/288/147 338/298/150 337/297/148
f 339/290/151 338/298/150 336/288/147
f 339/290/151 340/299/152 338/298/150
f 339/290/151 341/300/153 340/299/152
f 341/300/153 339/290/151 342/291/154
f 341/300/153 342/291/154 343/293/155
f 344/301/85 345/302/42 346/303/85
f 345/302/42 344/301/85 347/304/42
f 347/304/42 348/305/156 345/302/42
f 348/305/156 347/304/42 349/306/156
f 350/307/157 351/308/157 352/309/157
f 351/308/157 350/307/157 353/310/157
f 354/311/158 355/312/159 356/313/158
f 357/314/159 356/313/158 355/312/159
f 358/309/158 359/311/158 360/313/158
f 359/311/158 358/309/158 361/308/158
f 362/315/15 363/316/15 364/317/15
f 364/317/15 363/316/15 365/318/15
f 366/319/15 364/317/15 365/318/15
f 363/316/15 362/315/15 367/320/15
f 362/315/15 368/321/15 367/320/15
f 368/321/15 362/315/15 369/322/15
f 369/322/15 362/315/15 370/323/15
f 371/310/160 372/324/161 373/307/160
f 372/324/161 371/310/160 374/325/162
f 374/325/162 375/326/163 372/324/161
f 375/326/163 374/325/162 376/327/163
f 377/327/163 378/328/164 379/326/163
f 378/328/164 377/327/163 380/329/164
f 380/329/164 381/330/85 378/328/164
f 381/330/85 380/329/164 382/331/85
f 383/332/9 384/333/9 385/334/9
f 383/332/9 385/334/9 386/335/9
f 383/332/9 386/335/9 387/336/9
f 387/336/9 388/337/9 383/332/9
f 384/333/9 383/332/9 389/338/9
f 384/333/9 389/338/9 390/339/9
f 390/339/9 389/338/9 391/340/9
f 392/341/165 393/342/166 394/343/165
f 393/342/166 392/341/165 395/344/165
f 398/341/167 397/345/168 396/346/169
f 397/345/168 398/341/167 399/343/167
f 400/347/170 401/348/171 402/349/170
f 403/350/171 402/349/170 401/348/171
f 403/350/171 401/348/171 404/351/172
f 405/352/172 403/350/171 404/351/172
f 406/353/173 400/347/170 402/349/170
f 400/347/170 406/353/173 407/354/173
f 408/355/15 409/356/15 410/357/15
f 408/355/15 410/357/15 411/358/15
f 412/359/15 409/356/15 408/355/15
f 411/358/15 413/360/15 408/355/15
f 414/361/15 413/360/15 411/358/15
f 413/360/15 414/361/15 415/362/15
f 409/356/15 412/359/15 416/363/15
f 416/363/15 412/359/15 417/364/15
f 417/364/15 412/359/15 418/365/15
f 419/366/174 420/367/175 421/368/174
f 420/367/175 419/366/174 422/369/175
f 422/369/175 423/370/176 420/367/175
f 423/370/176 422/369/175 424/371/176
f 424/371/176 425/372/177 423/370/176
f 425/372/177 424/371/176 426/373/177
f 426/373/177 427/374/178 425/372/177
f 427/374/178 426/373/177 428/375/178
f 430/376/179 431/377/180 429/378/179
f 431/377/180 430/376/179 432/379/181
f 432/379/181 433/380/182 431/377/180
f 433/380/182 432/379/181 434/381/182
f 435/382/9 436/383/9 437/384/9
f 437/384/9 436/383/9 438/385/9
f 436/383/9 435/382/9 439/386/9
f 440/387/9 439/386/9 435/382/9
f 439/386/9 440/387/9 441/388/9
f 441/388/9 442/389/9 439/386/9
f 442/389/9 441/388/9 443/390/9
f 442/389/9 443/390/9 444/391/9
f 444/391/9 445/392/9 442/389/9
f 446/393/183 447/394/183 448/395/183
f 447/394/183 446/393/183 449/396/183
f 450/397/184 451/398/185 452/399/184
f 453/400/185 452/399/184 451/398/185
f 454/401/186 450/397/184 452/399/184
f 450/397/184 454/401/186 455/402/186
f 456/403/15 457/404/15 458/405/15
f 457/404/15 456/403/15 459/406/15
f 458/405/15 460/407/15 456/403/15
f 458/405/15 461/408/15 460/407/15
f 461/408/15 458/405/15 462/409/15
f 462/409/15 458/405/15 463/410/15
f 463/410/15 458/405/15 464/411/15
f 465/412/187 466/413/188 467/414/187
f 466/413/188 465/412/187 468/415/3
f 468/415/3 469/416/189 466/413/188
f 469/416/189 468/415/3 470/417/189
f 472/418/190 473/419/191 471/420/190
f 473/419/191 472/418/190 474/421/191
f 474/421/191 475/422/192 473/419/191
f 475/422/192 474/421/191 476/423/192
f 476/423/192 477/424/193 475/422/192
f 477/424/193 476/423/192 478/425/193
f 478/425/193 479/400/194 477/424/193
f 479/400/194 478/425/193 480/398/195
f 481/426/9 482/427/9 483/428/9
f 484/429/9 482/427/9 481/426/9
f 482/427/9 484/429/9 485/430/9
f 482/427/9 485/430/9 486/431/9
f 482/427/9 486/431/9 487/432/9
f 483/428/9 482/427/9 488/433/9
f 483/428/9 488/433/9 489/434/9
f 490/435/196 491/436/197 492/437/198
f 491/436/197 490/435/196 493/438/198
f 494/439/199 495/440/200 496/441/199
f 497/442/200 496/441/199 495/440/200
f 498/437/201 494/439/199 496/441/199
f 494/439/199 498/437/201 499/436/201
f 500/443/15 501/444/15 502/445/15
f 502/445/15 501/444/15 503/446/15
f 503/446/15 504/447/15 502/445/15
f 501/444/15 500/443/15 505/448/15
f 500/443/15 506/449/15 505/448/15
f 506/449/15 500/443/15 507/450/15
f 507/450/15 500/443/15 508/451/15
f 509/438/202 510/452/203 511/435/202
f 510/452/203 509/438/202 512/453/204
f 512/453/204 513/454/205 510/452/203
f 513/454/205 512/453/204 514/455/206
f 515/456/207 513/454/205 514/455/206
f 513/454/205 515/456/207 516/457/207
f 517/458/208 516/457/207 515/456/207
f 516/457/207 517/458/208 518/459/208
f 519/458/208 520/460/209 521/459/208
f 520/460/209 519/458/208 522/461/210
f 522/461/210 523/442/211 520/460/209
f 523/442/211 522/461/210 524/440/211
f 525/462/9 526/463/9 527/464/9
f 528/465/9 527/464/9 526/463/9
f 527/464/9 529/466/9 525/462/9
f 527/464/9 530/467/9 529/466/9
f 531/468/9 530/467/9 527/464/9
f 530/467/9 531/468/9 532/469/9
f 532/469/9 531/468/9 533/470/9
f 535/471/212 536/472/27 534/473/213
f 536/472/27 535/471/212 537/474/27
f 537/474/27 538/475/214 536/472/27
f 538/475/214 537/474/27 539/476/214
f 540/477/215 538/475/214 539/476/214
f 540/477/215 541/478/215 538/475/214
f 542/479/216 543/480/216 544/481/216
f 543/480/216 542/479/216 545/482/216
f 546/483/15 547/484/15 548/485/15
f 549/486/15 548/485/15 547/484/15
f 550/487/15 546/483/15 548/485/15
f 546/483/15 550/487/15 551/488/15
f 550/487/15 552/489/15 551/488/15
f 552/489/15 550/487/15 553/490/15
f 553/490/15 550/487/15 554/491/15
f 555/492/217 556/493/218 557/494/217
f 555/492/217 557/494/217 558/495/219
f 559/494/217 560/496/217 561/495/217
f 561/495/217 560/496/217 562/497/217
f 563/498/220 564/499/221 565/500/222
f 564/499/221 563/498/220 566/501/221
f 566/501/221 567/502/223 564/499/221
f 567/502/223 566/501/221 568/503/224
f 568/503/224 569/504/225 567/502/223
f 569/504/225 568/503/224 570/505/225
f 571/506/9 572/507/9 573/508/9
f 571/506/9 573/508/9 574/509/9
f 574/509/9 573/508/9 575/510/9
f 572/507/9 571/506/9 576/511/9
f 577/512/9 572/507/9 576/511/9
f 572/507/9 577/512/9 578/513/9
f 572/507/9 578/513/9 579/514/9
f 580/515/226 581/516/226 582/517/226
f 581/516/226 580/515/226 583/518/226
f 584/519/227 585/520/228 586/521/227
f 587/522/228 586/521/227 585/520/228
f 588/523/229 584/519/227 586/521/227
f 584/519/227 588/523/229 589/524/230
f 590/525/15 591/526/15 592/527/15
f 592/527/15 593/528/15 590/525/15
f 593/528/15 592/527/15 594/529/15
f 594/529/15 592/527/15 595/530/15
f 595/530/15 592/527/15 596/531/15
f 591/526/15 597/532/15 592/527/15
f 597/532/15 591/526/15 598/533/15
f 599/534/1 600/535/231 601/536/1
f 600/535/231 599/534/1 602/537/231
f 604/538/232 605/539/233 603/540/232
f 605/539/233 604/538/232 606/541/234
f 606/541/234 607/542/235 605/539/233
f 607/542/235 606/541/234 608/543/204
f 608/543/204 609/544/236 607/542/235
f 609/544/236 608/543/204 610/545/236
f 611/545/236 612/546/237 609/544/236
f 612/546/237 611/545/236 613/547/237
f 613/547/237 614/522/238 612/546/237
f 614/522/238 613/547/237 615/520/239
f 616/548/9 617/549/9 618/550/9
f 619/551/9 616/548/9 618/550/9
f 616/548/9 619/551/9 620/552/9
f 616/548/9 620/552/9 621/553/9
f 621/553/9 622/554/9 616/548/9
f 617/549/9 616/548/9 623/555/9
f 617/549/9 623/555/9 624/556/9
f 625/557/240 626/558/241 627/559/242
f 626/558/241 625/557/240 628/560/240
f 627/559/242 626/558/241 629/561/243
f 629/561/243 630/562/244 627/559/242
f 629/561/243 631/563/245 630/562/244
f 631/563/245 629/561/243 632/564/246
f 632/564/246 633/565/247 631/563/245
f 633/565/247 632/564/246 634/566/248
f 634/566/248 635/567/249 633/565/247
f 635/567/249 634/566/248 636/568/250
f 635/567/249 636/568/250 637/569/251
f 638/570/252 635/567/249 637/569/251
f 638/570/252 637/569/251 639/571/253
f 640/558/254 641/560/255 642/572/256
f 641/560/255 643/573/255 642/572/256
f 640/558/254 642/572/256 644/574/257
f 644/574/257 645/561/258 640/558/254
f 644/574/257 646/564/259 645/561/258
f 646/564/259 644/574/257 647/575/260
f 648/575/261 649/566/262 646/564/263
f 649/566/262 648/575/261 650/576/264
f 650/576/264 651/568/265 649/566/262
f 651/568/265 650/576/264 652/577/266
f 651/568/265 652/577/266 653/578/267
f 654/569/268 651/568/265 653/578/267
f 654/569/268 653/578/267 655/571/269
f 656/579/270 657/580/271 658/581/270
f 657/580/271 656/579/270 659/582/272
f 659/582/272 660/583/273 657/580/271
f 660/583/273 659/582/272 661/584/274
f 662/585/275 660/583/273 661/584/274
f 662/585/275 663/586/276 660/583/273
f 664/587/277 663/586/276 662/585/275
f 664/587/277 665/588/278 663/586/276
f 666/589/279 665/588/278 664/587/277
f 666/589/279 667/590/280 665/588/278
f 666/589/279 668/591/281 667/590/280
f 668/591/281 666/589/279 669/592/282
f 668/591/281 669/592/282 670/593/283
f 671/580/284 672/594/285 673/595/286
f 673/595/286 674/581/287 671/580/284
f 675/596/287 674/581/287 673/595/286
f 672/594/285 671/580/284 676/583/288
f 677/586/289 672/594/285 676/583/288
f 677/586/289 678/597/290 672/594/285
f 679/588/291 680/597/292 677/586/293
f 679/588/291 681/598/294 680/597/292
f 682/590/295 681/598/294 679/588/291
f 682/590/295 683/599/296 681/598/294
f 682/590/295 684/600/297 683/599/296
f 684/600/297 682/590/295 685/591/298
f 684/600/297 685/591/298 686/593/299
f 688/601/300 687/602/301 689/603/302
f 691/604/303 690/605/304 692/606/305
f 691/604/303 692/606/305 693/602/306
f 694/607/307 696/608/308 695/605/309
f 697/609/310 698/610/311 699/603/312
f 700/611/313 701/612/314 702/606/315
f 702/606/315 701/612/314 703/609/316
f 704/608/317 705/613/318 706/611/319
f 707/614/320 708/615/320 709/616/320
f 708/615/320 707/614/320 710/617/320
f 711/618/320 710/617/320 707/614/320
f 710/617/320 711/618/320 712/619/321
f 713/620/320 714/621/322 715/622/321
f 716/623/320 715/622/321 714/621/322
f 715/622/321 716/623/320 717/624/82
f 714/621/322 713/620/320 718/625/320
f 719/626/322 718/625/320 713/620/320
f 713/620/320 720/627/323 719/626/322
f 720/627/323 721/618/320 719/626/322
f 720/627/323 722/619/82 721/618/320
f 723/628/324 724/629/325 725/630/326
f 727/631/327 726/632/328 728/633/329
f 729/630/330 730/634/331 731/635/332
f 731/635/332 730/634/331 732/636/333
f 734/637/334 733/638/335 736/635/336
f 734/637/334 736/635/336 735/632/337
f 737/636/338 738/639/339 739/633/340
f 740/640/318 742/628/341 741/638/342
f 743/608/343 744/613/344 745/641/345
f 746/641/346 747/642/347 748/643/348
f 748/643/348 747/642/347 749/644/349
f 750/644/350 751/645/351 752/646/352
f 753/607/353 755/608/354 754/647/355
f 757/648/356 756/647/357 758/643/358
f 757/648/356 760/643/358 759/649/359
f 762/650/360 761/649/361 763/646/362
f 764/651/363 766/652/364 765/653/365
f 767/654/366 768/655/300 769/656/367
f 771/657/368 770/653/365 772/658/369
f 771/657/368 774/658/369 773/659/370
f 775/660/371 776/661/303 777/658/372
f 779/658/372 776/661/303 778/654/373
f 781/662/374 780/659/375 782/656/376
f 783/652/377 784/663/307 785/660/378
f 786/664/379 787/665/380 788/666/381
f 788/666/381 787/665/380 789/667/382
f 790/668/383 786/664/379 788/666/381
f 791/669/384 786/664/379 790/668/383
f 792/670/385 791/669/384 790/668/383
f 793/671/386 791/669/384 792/670/385
f 794/672/387 793/671/386 792/670/385
f 795/673/388 793/671/386 794/672/387
f 794/672/387 796/674/389 795/673/388
f 796/674/389 794/672/387 797/675/390
f 797/675/390 798/676/391 796/674/389
f 798/676/391 797/675/390 799/677/392
f 800/678/393 798/676/391 799/677/392
f 801/679/394 798/676/391 800/678/393
f 800/678/393 802/680/395 801/679/394
f 802/680/395 800/678/393 803/681/396
f 803/681/396 804/682/397 802/680/395
f 804/682/397 803/681/396 805/683/398
f 806/684/399 804/682/397 805/683/398
f 807/685/400 804/682/397 806/684/399
f 806/684/399 808/686/401 807/685/400
f 808/686/401 809/687/402 807/685/400
f 809/687/402 808/686/401 810/688/403
f 811/689/404 809/687/402 810/688/403
f 812/690/15 813/691/15 814/692/15
f 814/692/15 813/691/15 815/693/15
f 814/692/15 815/693/15 816/694/15
f 817/695/15 814/692/15 816/694/15
f 818/696/405 819/688/406 820/697/407
f 818/696/405 821/689/408 819/688/406
f 820/697/407 822/698/409 818/696/405
f 818/696/405 822/698/409 823/699/410
f 822/698/409 824/700/411 823/699/410
f 822/698/409 825/701/412 824/700/411
f 826/702/413 824/700/411 825/701/412
f 825/701/412 827/703/414 826/702/413
f 828/704/415 826/702/413 827/703/414
f 827/703/414 829/705/416 828/704/415
f 830/705/417 831/706/418 828/704/419
f 831/706/418 830/705/417 832/707/420
f 832/707/420 833/708/421 831/706/418
f 833/708/421 834/709/422 831/706/418
f 835/710/423 834/709/422 833/708/421
f 833/708/421 836/711/423 835/710/423
f 837/698/15 838/697/15 839/683/15
f 838/697/15 840/684/15 839/683/15
f 840/684/15 838/697/15 841/686/15
f 841/686/15 838/697/15 842/688/15
f 843/681/15 837/698/15 839/683/15
f 837/698/15 843/681/15 844/701/15
f 845/678/15 844/701/15 843/681/15
f 845/678/15 846/703/15 844/701/15
f 846/703/15 845/678/15 847/677/15
f 847/677/15 848/705/15 846/703/15
f 848/705/15 847/677/15 849/675/15
f 850/672/15 848/705/15 849/675/15
f 851/670/15 848/705/15 850/672/15
f 848/705/15 851/670/15 852/707/15
f 853/668/15 852/707/15 851/670/15
f 852/707/15 853/668/15 854/708/15
f 855/666/15 854/708/15 853/668/15
f 854/708/15 855/666/15 856/711/15
f 856/711/15 855/666/15 857/667/15
s 0
f 858/712/9 859/713/9 860/712/9
f 861/712/15 862/714/15 863/712/15
s 1
f 862/714/15 864/715/15 863/712/15
f 862/714/15 861/712/15 865/713/15
f 861/712/15 866/716/15 865/713/15
f 867/691/15 868/692/15 869/717/15
f 870/693/15 868/692/15 867/691/15
f 868/692/15 870/693/15 871/694/15
f 868/692/15 871/694/15 872/695/15
f 873/718/424 874/719/424 875/720/424
f 874/719/424 873/718/424 876/721/424
f 873/718/424 875/720/424 877/722/424
f 873/718/424 877/722/424 878/723/424
f 879/724/425 880/725/426 881/726/427
f 881/726/427 882/727/428 879/724/425
f 879/724/425 882/727/428 883/728/429
f 884/729/430 883/728/429 882/727/428
f 884/729/430 885/730/431 883/728/429
f 885/730/431 884/729/430 886/731/432
f 887/732/433 885/730/431 886/731/432
f 885/730/431 887/732/433 888/733/434
f 887/732/433 889/734/435 888/733/434
f 888/733/434 889/734/435 890/735/436
f 889/734/435 891/736/437 890/735/436
f 891/736/437 889/734/435 892/737/438
f 893/738/439 891/736/437 892/737/438
f 891/736/437 893/738/439 894/739/440
f 893/738/439 895/740/441 894/739/440
f 894/739/440 895/740/441 896/741/442
f 895/740/441 897/742/443 896/741/442
f 897/742/443 895/740/441 898/743/444
f 898/743/444 899/744/445 897/742/443
f 899/744/445 898/743/444 900/745/446
f 900/745/446 901/746/447 899/744/445
f 901/746/447 900/745/446 902/747/448
f 902/747/448 903/748/449 901/746/447
f 903/748/449 902/747/448 904/749/450
f 905/750/9 906/751/9 907/752/9
f 907/752/9 906/751/9 908/753/9
f 907/752/9 908/753/9 909/754/9
f 910/755/9 907/752/9 909/754/9
f 911/756/451 912/757/452 913/758/452
f 912/757/452 911/756/451 914/759/453
f 911/756/451 915/760/454 914/759/453
f 915/760/454 911/756/451 916/761/455
f 917/762/456 915/760/454 916/761/455
f 918/763/457 915/760/454 917/762/456
f 919/762/458 920/764/459 918/763/457
f 921/765/460 918/763/457 920/764/459
f 920/764/459 922/766/461 921/765/460
f 923/767/462 921/765/460 922/766/461
f 922/766/461 924/768/463 923/767/462
f 925/769/464 923/767/462 924/768/463
f 924/768/463 926/770/465 925/769/464
f 926/770/465 924/768/463 927/771/466
f 927/771/466 928/726/467 926/770/465
f 929/725/467 926/770/465 928/726/467
f 930/747/9 931/758/9 932/749/9
f 931/758/9 930/747/9 933/756/9
f 933/756/9 930/747/9 934/745/9
f 934/745/9 935/761/9 933/756/9
f 935/761/9 934/745/9 936/743/9
f 936/743/9 937/762/9 935/761/9
f 938/740/9 937/762/9 936/743/9
f 937/762/9 938/740/9 939/738/9
f 940/737/9 937/762/9 939/738/9
f 937/762/9 940/737/9 941/764/9
f 942/734/9 941/764/9 940/737/9
f 941/764/9 942/734/9 943/766/9
f 944/732/9 943/766/9 942/734/9
f 943/766/9 944/732/9 945/768/9
f 945/768/9 944/732/9 946/731/9
f 946/731/9 947/771/9 945/768/9
f 947/771/9 946/731/9 948/729/9
f 949/727/9 947/771/9 948/729/9
f 947/771/9 949/727/9 950/726/9
f 952/772/9 954/773/9 953/774/9
f 952/772/9 951/774/9 955/775/9
f 951/774/9 956/776/9 955/775/9
f 957/751/9 958/752/9 959/750/9
f 960/753/9 958/752/9 957/751/9
f 958/752/9 960/753/9 961/754/9
f 958/752/9 961/754/9 962/755/9
